999
dxflib 2.0.4.8
  0
SECTION
  2
HEADER
  9
$ACADVER
  1
AC1015
  9
$HANDSEED
  5
FFFF
  9
$DIMASZ
 40
2.5
  9
$GRIDUNIT
 10
0.0
 20
0.0
  9
$DIMADEC
 70
1
  9
$DIMGAP
 40
0.625
  9
$SPLINESEGS
 70
8
  9
$AUPREC
 70
1
  9
$LUNITS
 70
2
  9
$DIMEXO
 40
0.625
  9
$INSUNITS
 70
4
  9
$DIMLUNIT
 70
2
  9
$DIMTXT
 40
2.5
  9
$GRIDMODE
 70
1
  9
$LUPREC
 70
1
  9
$DIMSTYLE
  2
Standard
  9
$PLIMMAX
 10
210.0
 20
297.0
  9
$PLIMMIN
 10
0.0
 20
0.0
  9
$DIMEXE
 40
1.25
  9
$DIMAUNIT
 70
0
  9
$AUNITS
 70
0
  0
ENDSEC
  0
SECTION
  2
TABLES
  0
TABLE
  2
VPORT
  5
8
100
AcDbSymbolTable
 70
1
  0
VPORT
  5
30
100
AcDbSymbolTableRecord
100
AcDbViewportTableRecord
  2
*Active
 70
0
 10
0.0
 20
0.0
 11
1.0
 21
1.0
 12
286.30555555555549
 22
148.5
 13
0.0
 23
0.0
 14
10.0
 24
10.0
 15
10.0
 25
10.0
 16
0.0
 26
0.0
 36
1.0
 17
0.0
 27
0.0
 37
0.0
 40
297.0
 41
1.92798353909465
 42
50.0
 43
0.0
 44
0.0
 50
0.0
 51
0.0
 71
0
 72
100
 73
1
 74
3
 75
1
 76
1
 77
0
 78
0
281
0
 65
1
110
0.0
120
0.0
130
0.0
111
1.0
121
0.0
131
0.0
112
0.0
122
1.0
132
0.0
 79
0
146
0.0
  0
ENDTAB
  0
TABLE
  2
LTYPE
  5
5
100
AcDbSymbolTable
 70
21
  0
LTYPE
  5
14
100
AcDbSymbolTableRecord
100
AcDbLinetypeTableRecord
  2
ByBlock
 70
0
  3

 72
65
 73
0
 40
0.0
  0
LTYPE
  5
15
100
AcDbSymbolTableRecord
100
AcDbLinetypeTableRecord
  2
ByLayer
 70
0
  3

 72
65
 73
0
 40
0.0
  0
LTYPE
  5
16
100
AcDbSymbolTableRecord
100
AcDbLinetypeTableRecord
  2
CONTINUOUS
 70
0
  3
Solid line
 72
65
 73
0
 40
0.0
  0
LTYPE
  5
31
100
AcDbSymbolTableRecord
100
AcDbLinetypeTableRecord
  2
DOT
 70
0
  3
Dot . . . . . . . . . . . . . . . . . . . . . .
 72
65
 73
2
 40
6.3499999999999996
 49
0.0
 74
0
 49
-6.3499999999999996
 74
0
  0
LTYPE
  5
32
100
AcDbSymbolTableRecord
100
AcDbLinetypeTableRecord
  2
DOT2
 70
0
  3
Dot (.5x) .....................................
 72
65
 73
2
 40
3.1749999999999998
 49
0.0
 74
0
 49
-3.1749999999999998
 74
0
  0
LTYPE
  5
33
100
AcDbSymbolTableRecord
100
AcDbLinetypeTableRecord
  2
DOTX2
 70
0
  3
Dot (2x) .  .  .  .  .  .  .  .  .  .  .  .  .
 72
65
 73
2
 40
12.699999999999999
 49
0.0
 74
0
 49
-12.699999999999999
 74
0
  0
LTYPE
  5
34
100
AcDbSymbolTableRecord
100
AcDbLinetypeTableRecord
  2
DASHED
 70
0
  3
Dashed __ __ __ __ __ __ __ __ __ __ __ __ __ _
 72
65
 73
2
 40
19.050000000000001
 49
12.699999999999999
 74
0
 49
-6.3499999999999996
 74
0
  0
LTYPE
  5
35
100
AcDbSymbolTableRecord
100
AcDbLinetypeTableRecord
  2
DASHED2
 70
0
  3
Dashed (.5x) _ _ _ _ _ _ _ _ _ _ _ _ _ _ _ _ _
 72
65
 73
2
 40
9.5250000000000004
 49
6.3499999999999996
 74
0
 49
-3.1749999999999998
 74
0
  0
LTYPE
  5
36
100
AcDbSymbolTableRecord
100
AcDbLinetypeTableRecord
  2
DASHEDX2
 70
0
  3
Dashed (2x) ____  ____  ____  ____  ____  ___
 72
65
 73
2
 40
38.100000000000001
 49
25.399999999999999
 74
0
 49
-12.699999999999999
 74
0
  0
LTYPE
  5
37
100
AcDbSymbolTableRecord
100
AcDbLinetypeTableRecord
  2
DASHDOT
 70
0
  3
Dash dot __ . __ . __ . __ . __ . __ . __ . __
 72
65
 73
4
 40
25.399999999999999
 49
12.699999999999999
 74
0
 49
-6.3499999999999996
 74
0
 49
0.0
 74
0
 49
-6.3499999999999996
 74
0
  0
LTYPE
  5
38
100
AcDbSymbolTableRecord
100
AcDbLinetypeTableRecord
  2
DASHDOT2
 70
0
  3
Dash dot (.5x) _._._._._._._._._._._._._._._.
 72
65
 73
4
 40
12.699999999999999
 49
6.3499999999999996
 74
0
 49
-3.1749999999999998
 74
0
 49
0.0
 74
0
 49
-3.1749999999999998
 74
0
  0
LTYPE
  5
39
100
AcDbSymbolTableRecord
100
AcDbLinetypeTableRecord
  2
DASHDOTX2
 70
0
  3
Dash dot (2x) ____  .  ____  .  ____  .  ___
 72
65
 73
4
 40
50.799999999999997
 49
25.399999999999999
 74
0
 49
-12.699999999999999
 74
0
 49
0.0
 74
0
 49
-12.699999999999999
 74
0
  0
LTYPE
  5
3A
100
AcDbSymbolTableRecord
100
AcDbLinetypeTableRecord
  2
DIVIDE
 70
0
  3
Divide ____ . . ____ . . ____ . . ____ . . ____
 72
65
 73
6
 40
31.75
 49
12.699999999999999
 74
0
 49
-6.3499999999999996
 74
0
 49
0.0
 74
0
 49
-6.3499999999999996
 74
0
 49
0.0
 74
0
 49
-6.3499999999999996
 74
0
  0
LTYPE
  5
3B
100
AcDbSymbolTableRecord
100
AcDbLinetypeTableRecord
  2
DIVIDE2
 70
0
  3
Divide (.5x) __..__..__..__..__..__..__..__.._
 72
65
 73
6
 40
15.875
 49
6.3499999999999996
 74
0
 49
-3.1749999999999998
 74
0
 49
0.0
 74
0
 49
-3.1749999999999998
 74
0
 49
0.0
 74
0
 49
-3.1749999999999998
 74
0
  0
LTYPE
  5
3C
100
AcDbSymbolTableRecord
100
AcDbLinetypeTableRecord
  2
DIVIDEX2
 70
0
  3
Divide (2x) ________  .  .  ________  .  .  _
 72
65
 73
6
 40
63.5
 49
25.399999999999999
 74
0
 49
-12.699999999999999
 74
0
 49
0.0
 74
0
 49
-12.699999999999999
 74
0
 49
0.0
 74
0
 49
-12.699999999999999
 74
0
  0
LTYPE
  5
3D
100
AcDbSymbolTableRecord
100
AcDbLinetypeTableRecord
  2
CENTER
 70
0
  3
Center ____ _ ____ _ ____ _ ____ _ ____ _ ____
 72
65
 73
4
 40
50.799999999999997
 49
31.75
 74
0
 49
-6.3499999999999996
 74
0
 49
6.3499999999999996
 74
0
 49
-6.3499999999999996
 74
0
  0
LTYPE
  5
3E
100
AcDbSymbolTableRecord
100
AcDbLinetypeTableRecord
  2
CENTER2
 70
0
  3
Center (.5x) ___ _ ___ _ ___ _ ___ _ ___ _ ___
 72
65
 73
4
 40
28.574999999999999
 49
19.050000000000001
 74
0
 49
-3.1749999999999998
 74
0
 49
3.1749999999999998
 74
0
 49
-3.1749999999999998
 74
0
  0
LTYPE
  5
3F
100
AcDbSymbolTableRecord
100
AcDbLinetypeTableRecord
  2
CENTERX2
 70
0
  3
Center (2x) ________  __  ________  __  _____
 72
65
 73
4
 40
101.59999999999999
 49
63.5
 74
0
 49
-12.699999999999999
 74
0
 49
12.699999999999999
 74
0
 49
-12.699999999999999
 74
0
  0
LTYPE
  5
40
100
AcDbSymbolTableRecord
100
AcDbLinetypeTableRecord
  2
BORDER
 70
0
  3
Border __ __ . __ __ . __ __ . __ __ . __ __ .
 72
65
 73
6
 40
44.450000000000003
 49
12.699999999999999
 74
0
 49
-6.3499999999999996
 74
0
 49
12.699999999999999
 74
0
 49
-6.3499999999999996
 74
0
 49
0.0
 74
0
 49
-6.3499999999999996
 74
0
  0
LTYPE
  5
41
100
AcDbSymbolTableRecord
100
AcDbLinetypeTableRecord
  2
BORDER2
 70
0
  3
Border (.5x) __.__.__.__.__.__.__.__.__.__.__.
 72
65
 73
6
 40
22.225000000000001
 49
6.3499999999999996
 74
0
 49
-3.1749999999999998
 74
0
 49
6.3499999999999996
 74
0
 49
-3.1749999999999998
 74
0
 49
0.0
 74
0
 49
-3.1749999999999998
 74
0
  0
LTYPE
  5
42
100
AcDbSymbolTableRecord
100
AcDbLinetypeTableRecord
  2
BORDERX2
 70
0
  3
Border (2x) ____  ____  .  ____  ____  .  ___
 72
65
 73
6
 40
88.900000000000006
 49
25.399999999999999
 74
0
 49
-12.699999999999999
 74
0
 49
25.399999999999999
 74
0
 49
-12.699999999999999
 74
0
 49
0.0
 74
0
 49
-12.699999999999999
 74
0
  0
ENDTAB
  0
TABLE
  2
LAYER
  5
2
100
AcDbSymbolTable
 70
5
  0
LAYER
  5
10
100
AcDbSymbolTableRecord
100
AcDbLayerTableRecord
  2
0
 70
0
 62
7
  6
CONTINUOUS
370
0
390
F
  0
LAYER
  5
43
100
AcDbSymbolTableRecord
100
AcDbLayerTableRecord
  2
CONTOUR
 70
0
 62
7
  6
CONTINUOUS
370
35
390
F
  0
LAYER
  5
44
100
AcDbSymbolTableRecord
100
AcDbLayerTableRecord
  2
AUX
 70
0
 62
1
  6
CONTINUOUS
370
18
390
F
  0
LAYER
  5
45
100
AcDbSymbolTableRecord
100
AcDbLayerTableRecord
  2
CENTER
 70
0
 62
7
  6
DASHDOT
370
18
390
F
  0
LAYER
  5
46
100
AcDbSymbolTableRecord
100
AcDbLayerTableRecord
  2
TEXT
 70
0
 62
7
  6
CONTINUOUS
370
18
390
F
  0
ENDTAB
  0
TABLE
  2
STYLE
  5
3
100
AcDbSymbolTable
 70
1
  0
STYLE
  5
11
100
AcDbSymbolTableRecord
100
AcDbTextStyleTableRecord
  2
Standard
 70
0
 40
0.0
 41
0.75
 50
0.0
 71
0
 42
2.5
  3
txt
  4

  0
ENDTAB
  0
TABLE
  2
VIEW
  5
6
100
AcDbSymbolTable
 70
0
  0
ENDTAB
  0
TABLE
  2
UCS
  5
7
100
AcDbSymbolTable
 70
0
  0
ENDTAB
  0
TABLE
  2
APPID
  5
9
100
AcDbSymbolTable
 70
1
  0
APPID
  5
12
100
AcDbSymbolTableRecord
100
AcDbRegAppTableRecord
  2
ACAD
 70
0
  0
ENDTAB
  0
TABLE
  2
DIMSTYLE
  5
A
100
AcDbSymbolTable
 70
1
100
AcDbDimStyleTable
 71
0
  0
DIMSTYLE
105
27
100
AcDbSymbolTableRecord
100
AcDbDimStyleTableRecord
  2
Standard
 41
2.5
 42
0.625
 43
3.75
 44
1.25
 70
0
 73
0
 74
0
 77
1
 78
8
140
2.5
141
2.5
143
0.03937007874016
147
0.625
171
3
172
1
271
2
272
2
274
3
278
44
283
0
284
8
340
11
  0
ENDTAB
  0
TABLE
  2
BLOCK_RECORD
  5
1
100
AcDbSymbolTable
 70
1
  0
BLOCK_RECORD
  5
1F
100
AcDbSymbolTableRecord
100
AcDbBlockTableRecord
  2
*Model_Space
340
22
  0
BLOCK_RECORD
  5
1B
100
AcDbSymbolTableRecord
100
AcDbBlockTableRecord
  2
*Paper_Space
340
1E
  0
BLOCK_RECORD
  5
23
100
AcDbSymbolTableRecord
100
AcDbBlockTableRecord
  2
*Paper_Space0
340
26
  0
BLOCK_RECORD
  5
47
100
AcDbSymbolTableRecord
100
AcDbBlockTableRecord
  2
battery 2AA side
340
0
  0
BLOCK_RECORD
  5
48
100
AcDbSymbolTableRecord
100
AcDbBlockTableRecord
  2
controller front
340
0
  0
BLOCK_RECORD
  5
49
100
AcDbSymbolTableRecord
100
AcDbBlockTableRecord
  2
battery 2AA front
340
0
  0
BLOCK_RECORD
  5
4A
100
AcDbSymbolTableRecord
100
AcDbBlockTableRecord
  2
DS1-45 front
340
0
  0
BLOCK_RECORD
  5
4B
100
AcDbSymbolTableRecord
100
AcDbBlockTableRecord
  2
DS1-70 front
340
0
  0
BLOCK_RECORD
  5
4C
100
AcDbSymbolTableRecord
100
AcDbBlockTableRecord
  2
DS0.8-64 front
340
0
  0
BLOCK_RECORD
  5
4D
100
AcDbSymbolTableRecord
100
AcDbBlockTableRecord
  2
DS0.8-56 front
340
0
  0
BLOCK_RECORD
  5
4E
100
AcDbSymbolTableRecord
100
AcDbBlockTableRecord
  2
DS0.8-50 front
340
0
  0
BLOCK_RECORD
  5
4F
100
AcDbSymbolTableRecord
100
AcDbBlockTableRecord
  2
DS0.8-45 front
340
0
  0
BLOCK_RECORD
  5
50
100
AcDbSymbolTableRecord
100
AcDbBlockTableRecord
  2
DS0.8-15 front
340
0
  0
BLOCK_RECORD
  5
51
100
AcDbSymbolTableRecord
100
AcDbBlockTableRecord
  2
DS0.8-16 front
340
0
  0
BLOCK_RECORD
  5
52
100
AcDbSymbolTableRecord
100
AcDbBlockTableRecord
  2
DS1-12 front
340
0
  0
BLOCK_RECORD
  5
53
100
AcDbSymbolTableRecord
100
AcDbBlockTableRecord
  2
DS1-12 side
340
0
  0
BLOCK_RECORD
  5
54
100
AcDbSymbolTableRecord
100
AcDbBlockTableRecord
  2
DS0.8-15 side
340
0
  0
BLOCK_RECORD
  5
55
100
AcDbSymbolTableRecord
100
AcDbBlockTableRecord
  2
DS0.8-16 side
340
0
  0
BLOCK_RECORD
  5
56
100
AcDbSymbolTableRecord
100
AcDbBlockTableRecord
  2
DS0.8-45 side
340
0
  0
BLOCK_RECORD
  5
57
100
AcDbSymbolTableRecord
100
AcDbBlockTableRecord
  2
DS0.8-50 side
340
0
  0
BLOCK_RECORD
  5
58
100
AcDbSymbolTableRecord
100
AcDbBlockTableRecord
  2
DS0.8-56 side
340
0
  0
BLOCK_RECORD
  5
59
100
AcDbSymbolTableRecord
100
AcDbBlockTableRecord
  2
DS0.8-64 side
340
0
  0
BLOCK_RECORD
  5
5A
100
AcDbSymbolTableRecord
100
AcDbBlockTableRecord
  2
DS1-70 side
340
0
  0
BLOCK_RECORD
  5
5B
100
AcDbSymbolTableRecord
100
AcDbBlockTableRecord
  2
DS1-45 side
340
0
  0
BLOCK_RECORD
  5
5C
100
AcDbSymbolTableRecord
100
AcDbBlockTableRecord
  2
6-speed HE front
340
0
  0
BLOCK_RECORD
  5
5D
100
AcDbSymbolTableRecord
100
AcDbBlockTableRecord
  2
6-speed HE side
340
0
  0
BLOCK_RECORD
  5
5E
100
AcDbSymbolTableRecord
100
AcDbBlockTableRecord
  2
twin motor front
340
0
  0
BLOCK_RECORD
  5
5F
100
AcDbSymbolTableRecord
100
AcDbBlockTableRecord
  2
twin motor side
340
0
  0
BLOCK_RECORD
  5
60
100
AcDbSymbolTableRecord
100
AcDbBlockTableRecord
  2
4-speed crank front
340
0
  0
BLOCK_RECORD
  5
61
100
AcDbSymbolTableRecord
100
AcDbBlockTableRecord
  2
4-speed crank side
340
0
  0
BLOCK_RECORD
  5
62
100
AcDbSymbolTableRecord
100
AcDbBlockTableRecord
  2
double gear box front
340
0
  0
BLOCK_RECORD
  5
63
100
AcDbSymbolTableRecord
100
AcDbBlockTableRecord
  2
double gear box side
340
0
  0
BLOCK_RECORD
  5
64
100
AcDbSymbolTableRecord
100
AcDbBlockTableRecord
  2
M4x70
340
0
  0
BLOCK_RECORD
  5
65
100
AcDbSymbolTableRecord
100
AcDbBlockTableRecord
  2
M3x50
340
0
  0
BLOCK_RECORD
  5
66
100
AcDbSymbolTableRecord
100
AcDbBlockTableRecord
  2
M3x70
340
0
  0
BLOCK_RECORD
  5
67
100
AcDbSymbolTableRecord
100
AcDbBlockTableRecord
  2
M3x80
340
0
  0
ENDTAB
  0
ENDSEC
  0
SECTION
  2
BLOCKS
  0
BLOCK
  5
20
100
AcDbEntity
  8
0
100
AcDbBlockBegin
  2
*Model_Space
 70
0
 10
0.0
 20
0.0
 30
0.0
  3
*Model_Space
  1

  0
ENDBLK
  5
21
100
AcDbEntity
  8
0
100
AcDbBlockEnd
  0
BLOCK
  5
1C
100
AcDbEntity
 67
1
  8
0
100
AcDbBlockBegin
  2
*Paper_Space
 70
0
 10
0.0
 20
0.0
 30
0.0
  3
*Paper_Space
  1

  0
ENDBLK
  5
1D
100
AcDbEntity
 67
1
  8
0
100
AcDbBlockEnd
  0
BLOCK
  5
24
100
AcDbEntity
  8
0
100
AcDbBlockBegin
  2
*Paper_Space0
 70
0
 10
0.0
 20
0.0
 30
0.0
  3
*Paper_Space0
  1

  0
ENDBLK
  5
25
100
AcDbEntity
  8
0
100
AcDbBlockEnd
  0
BLOCK
  5
68
100
AcDbEntity
  8
0
100
AcDbBlockBegin
  2
battery 2AA side
 70
0
 10
0.0
 20
0.0
 30
0.0
  3
battery 2AA side
  1

  0
LINE
  5
69
100
AcDbEntity
100
AcDbLine
  8
CONTOUR
 62
256
370
-1
  6
ByLayer
 10
0.0
 20
-58.0
 30
0.0
 11
0.0
 21
0.0
 31
0.0
  0
LINE
  5
6A
100
AcDbEntity
100
AcDbLine
  8
CONTOUR
 62
256
370
-1
  6
ByLayer
 10
0.0
 20
0.0
 30
0.0
 11
17.0
 21
0.0
 31
0.0
  0
LINE
  5
6B
100
AcDbEntity
100
AcDbLine
  8
CONTOUR
 62
256
370
-1
  6
ByLayer
 10
17.0
 20
-58.0
 30
0.0
 11
17.0
 21
0.0
 31
0.0
  0
LINE
  5
6C
100
AcDbEntity
100
AcDbLine
  8
CENTER
 62
256
370
-1
  6
ByLayer
 10
-10.0
 20
-22.0
 30
0.0
 11
17.0
 21
-22.0
 31
0.0
  0
LINE
  5
6D
100
AcDbEntity
100
AcDbLine
  8
CENTER
 62
256
370
-1
  6
ByLayer
 10
-10.0
 20
-36.0
 30
0.0
 11
17.0
 21
-36.0
 31
0.0
  0
LINE
  5
6E
100
AcDbEntity
100
AcDbLine
  8
CONTOUR
 62
256
370
-1
  6
ByLayer
 10
0.0
 20
-58.0
 30
0.0
 11
17.0
 21
-58.0
 31
0.0
  0
DIMENSION
  5
6F
100
AcDbEntity
  8
TEXT
 62
256
370
-1
  6
ByLayer
100
AcDbDimension
 10
22.0
 20
-22.0
 30
0.0
 11
20.125
 21
-29.0
 31
0.0
 70
0
 71
5
 72
1
 41
1.0
 42
0.0
  1

  3
Standard
100
AcDbAlignedDimension
 13
17.0
 23
-36.0
 33
0.0
 14
17.0
 24
-22.0
 34
0.0
 50
90.0
100
AcDbRotatedDimension
  0
DIMENSION
  5
70
100
AcDbEntity
  8
TEXT
 62
256
370
-1
  6
ByLayer
100
AcDbDimension
 10
22.0
 20
0.0
 30
0.0
 11
20.125
 21
-11.0
 31
0.0
 70
0
 71
5
 72
1
 41
1.0
 42
0.0
  1

  3
Standard
100
AcDbAlignedDimension
 13
17.0
 23
-22.0
 33
0.0
 14
17.0
 24
0.0
 34
0.0
 50
90.0
100
AcDbRotatedDimension
  0
LINE
  5
71
100
AcDbEntity
100
AcDbLine
  8
CONTOUR
 62
256
370
-1
  6
DASHED2
 10
-10.0
 20
-23.199999999999989
 30
0.0
 11
-10.0
 21
-20.800000000000011
 31
0.0
  0
LINE
  5
72
100
AcDbEntity
100
AcDbLine
  8
CONTOUR
 62
256
370
-1
  6
DASHED2
 10
-10.0
 20
-37.200000000000003
 30
0.0
 11
-10.0
 21
-34.799999999999997
 31
0.0
  0
LINE
  5
73
100
AcDbEntity
100
AcDbLine
  8
CONTOUR
 62
256
370
-1
  6
DASHED2
 10
0.0
 20
-20.800000000000011
 30
0.0
 11
2.0
 21
-18.800000000000011
 31
0.0
  0
LINE
  5
74
100
AcDbEntity
100
AcDbLine
  8
CONTOUR
 62
256
370
-1
  6
DASHED2
 10
0.0
 20
-23.199999999999989
 30
0.0
 11
2.0
 21
-25.199999999999989
 31
0.0
  0
LINE
  5
75
100
AcDbEntity
100
AcDbLine
  8
CONTOUR
 62
256
370
-1
  6
DASHED2
 10
0.0
 20
-34.799999999999997
 30
0.0
 11
2.0
 21
-32.799999999999997
 31
0.0
  0
LINE
  5
76
100
AcDbEntity
100
AcDbLine
  8
CONTOUR
 62
256
370
-1
  6
DASHED2
 10
0.0
 20
-37.200000000000003
 30
0.0
 11
2.0
 21
-39.200000000000003
 31
0.0
  0
LINE
  5
77
100
AcDbEntity
100
AcDbLine
  8
CONTOUR
 62
256
370
-1
  6
DASHED2
 10
2.0
 20
-56.0
 30
0.0
 11
2.0
 21
-2.0
 31
0.0
  0
LINE
  5
78
100
AcDbEntity
100
AcDbLine
  8
CONTOUR
 62
256
370
-1
  6
DASHED2
 10
2.0
 20
-56.0
 30
0.0
 11
17.0
 21
-56.0
 31
0.0
  0
LINE
  5
79
100
AcDbEntity
100
AcDbLine
  8
CONTOUR
 62
256
370
-1
  6
DASHED2
 10
2.0
 20
-2.0
 30
0.0
 11
17.0
 21
-2.0
 31
0.0
  0
LINE
  5
7A
100
AcDbEntity
100
AcDbLine
  8
CONTOUR
 62
256
370
-1
  6
DASHED2
 10
-10.0
 20
-20.800000000000011
 30
0.0
 11
0.0
 21
-20.800000000000011
 31
0.0
  0
LINE
  5
7B
100
AcDbEntity
100
AcDbLine
  8
CONTOUR
 62
256
370
-1
  6
DASHED2
 10
-10.0
 20
-23.199999999999989
 30
0.0
 11
0.0
 21
-23.199999999999989
 31
0.0
  0
LINE
  5
7C
100
AcDbEntity
100
AcDbLine
  8
CONTOUR
 62
256
370
-1
  6
DASHED2
 10
-10.0
 20
-34.799999999999997
 30
0.0
 11
0.0
 21
-34.799999999999997
 31
0.0
  0
LINE
  5
7D
100
AcDbEntity
100
AcDbLine
  8
CONTOUR
 62
256
370
-1
  6
DASHED2
 10
-10.0
 20
-37.200000000000003
 30
0.0
 11
0.0
 21
-37.200000000000003
 31
0.0
  0
DIMENSION
  5
7E
100
AcDbEntity
  8
TEXT
 62
256
370
-1
  6
ByLayer
100
AcDbDimension
 10
27.0
 20
-58.0
 30
0.0
 11
25.125
 21
-29.0
 31
0.0
 70
0
 71
5
 72
0
 41
1.0
 42
0.0
  1

  3
Standard
100
AcDbAlignedDimension
 13
17.0
 23
0.0
 33
0.0
 14
17.0
 24
-58.0
 34
0.0
 50
90.0
100
AcDbRotatedDimension
  0
DIMENSION
  5
7F
100
AcDbEntity
  8
TEXT
 62
256
370
-1
  6
ByLayer
100
AcDbDimension
 10
17.0
 20
3.0
 30
0.0
 11
8.5
 21
4.875
 31
0.0
 70
0
 71
5
 72
0
 41
1.0
 42
0.0
  1

  3
Standard
100
AcDbAlignedDimension
 13
0.0
 23
0.0
 33
0.0
 14
17.0
 24
0.0
 34
0.0
 50
0.0
100
AcDbRotatedDimension
  0
ENDBLK
  5
80
100
AcDbEntity
  8
0
100
AcDbBlockEnd
  0
BLOCK
  5
81
100
AcDbEntity
  8
0
100
AcDbBlockBegin
  2
controller front
 70
0
 10
0.0
 20
0.0
 30
0.0
  3
controller front
  1

  0
LINE
  5
82
100
AcDbEntity
100
AcDbLine
  8
CONTOUR
 62
256
370
-1
  6
ByLayer
 10
0.0
 20
-20.0
 30
0.0
 11
0.0
 21
20.0
 31
0.0
  0
CIRCLE
  5
83
100
AcDbEntity
100
AcDbCircle
  8
CONTOUR
 62
256
370
-1
  6
ByLayer
 10
20.0
 20
-10.000000000000014
 30
0.0
 40
3.5
  0
CIRCLE
  5
84
100
AcDbEntity
100
AcDbCircle
  8
CONTOUR
 62
256
370
-1
  6
ByLayer
 10
20.0
 20
0.0
 30
0.0
 40
1.5
  0
CIRCLE
  5
85
100
AcDbEntity
100
AcDbCircle
  8
CONTOUR
 62
256
370
-1
  6
ByLayer
 10
20.0
 20
9.0
 30
0.0
 40
2.5
  0
CIRCLE
  5
86
100
AcDbEntity
100
AcDbCircle
  8
CONTOUR
 62
256
370
-1
  6
ByLayer
 10
20.0
 20
-10.000000000000014
 30
0.0
 40
5.0
  0
LINE
  5
87
100
AcDbEntity
100
AcDbLine
  8
CONTOUR
 62
256
370
-1
  6
ByLayer
 10
15.699999999999989
 20
4.7000000000000455
 30
0.0
 11
15.699999999999989
 21
15.0
 31
0.0
  0
LINE
  5
88
100
AcDbEntity
100
AcDbLine
  8
CONTOUR
 62
256
370
-1
  6
ByLayer
 10
24.300000000000011
 20
4.7000000000000455
 30
0.0
 11
24.300000000000011
 21
14.999999999999986
 31
0.0
  0
LINE
  5
89
100
AcDbEntity
100
AcDbLine
  8
CONTOUR
 62
256
370
-1
  6
ByLayer
 10
24.300000000000011
 20
14.999999999999986
 30
0.0
 11
15.699999999999989
 21
15.0
 31
0.0
  0
LINE
  5
8A
100
AcDbEntity
100
AcDbLine
  8
CONTOUR
 62
256
370
-1
  6
ByLayer
 10
24.300000000000011
 20
4.7000000000000455
 30
0.0
 11
15.699999999999989
 21
4.7000000000000455
 31
0.0
  0
CIRCLE
  5
8B
100
AcDbEntity
100
AcDbCircle
  8
CONTOUR
 62
256
370
-1
  6
ByLayer
 10
20.0
 20
0.0
 30
0.0
 40
1.8999999999999999
  0
LINE
  5
8C
100
AcDbEntity
100
AcDbLine
  8
CENTER
 62
256
370
-1
  6
ByLayer
 10
20.0
 20
-20.0
 30
0.0
 11
20.0
 21
20.0
 31
0.0
  0
DIMENSION
  5
8D
100
AcDbEntity
  8
TEXT
 62
256
370
-1
  6
ByLayer
100
AcDbDimension
 10
10.0
 20
9.0
 30
0.0
 11
8.125
 21
4.5
 31
0.0
 70
0
 71
5
 72
1
 41
1.0
 42
0.0
  1

  3
Standard
100
AcDbAlignedDimension
 13
10.0
 23
0.0
 33
0.0
 14
10.0
 24
9.0
 34
0.0
 50
90.0
100
AcDbRotatedDimension
  0
DIMENSION
  5
8E
100
AcDbEntity
  8
TEXT
 62
256
370
-1
  6
ByLayer
100
AcDbDimension
 10
10.0
 20
0.0
 30
0.0
 11
8.125
 21
-5.0
 31
0.0
 70
0
 71
5
 72
1
 41
1.0
 42
0.0
  1

  3
Standard
100
AcDbAlignedDimension
 13
10.0
 23
-10.0
 33
0.0
 14
10.0
 24
0.0
 34
0.0
 50
90.0
100
AcDbRotatedDimension
  0
DIMENSION
  5
8F
100
AcDbEntity
  8
TEXT
 62
256
370
-1
  6
ByLayer
100
AcDbDimension
 10
5.0
 20
0.0
 30
0.0
 11
3.125
 21
-10.0
 31
0.0
 70
0
 71
5
 72
1
 41
1.0
 42
0.0
  1

  3
Standard
100
AcDbAlignedDimension
 13
5.0
 23
-20.0
 33
0.0
 14
5.0
 24
0.0
 34
0.0
 50
90.0
100
AcDbRotatedDimension
  0
DIMENSION
  5
90
100
AcDbEntity
  8
TEXT
 62
256
370
-1
  6
ByLayer
100
AcDbDimension
 10
5.0
 20
20.0
 30
0.0
 11
3.125
 21
10.0
 31
0.0
 70
0
 71
5
 72
1
 41
1.0
 42
0.0
  1

  3
Standard
100
AcDbAlignedDimension
 13
5.0
 23
0.0
 33
0.0
 14
5.0
 24
20.0
 34
0.0
 50
90.0
100
AcDbRotatedDimension
  0
LINE
  5
91
100
AcDbEntity
100
AcDbLine
  8
CONTOUR
 62
256
370
-1
  6
ByLayer
 10
30.0
 20
-20.000000000000014
 30
0.0
 11
30.0
 21
20.0
 31
0.0
  0
LINE
  5
92
100
AcDbEntity
100
AcDbLine
  8
CONTOUR
 62
256
370
-1
  6
ByLayer
 10
0.0
 20
20.0
 30
0.0
 11
30.0
 21
20.0
 31
0.0
  0
LINE
  5
93
100
AcDbEntity
100
AcDbLine
  8
CENTER
 62
256
370
-1
  6
ByLayer
 10
30.0
 20
-0.0000000000000142
 30
0.0
 11
0.0
 21
0.0
 31
0.0
  0
LINE
  5
94
100
AcDbEntity
100
AcDbLine
  8
CONTOUR
 62
256
370
-1
  6
ByLayer
 10
30.0
 20
-20.0
 30
0.0
 11
0.0
 21
-20.0
 31
0.0
  0
LINE
  5
95
100
AcDbEntity
100
AcDbLine
  8
CENTER
 62
256
370
-1
  6
ByLayer
 10
30.0
 20
9.0
 30
0.0
 11
6.0
 21
9.0
 31
0.0
  0
LINE
  5
96
100
AcDbEntity
100
AcDbLine
  8
CENTER
 62
256
370
-1
  6
ByLayer
 10
30.0
 20
-10.0
 30
0.0
 11
6.0
 21
-10.0
 31
0.0
  0
DIMENSION
  5
97
100
AcDbEntity
  8
TEXT
 62
256
370
-1
  6
ByLayer
100
AcDbDimension
 10
20.0
 20
25.0
 30
0.0
 11
10.0
 21
26.875
 31
0.0
 70
0
 71
5
 72
0
 41
1.0
 42
0.0
  1

  3
Standard
100
AcDbAlignedDimension
 13
0.0
 23
20.0
 33
0.0
 14
20.0
 24
20.0
 34
0.0
 50
0.0
100
AcDbRotatedDimension
  0
DIMENSION
  5
98
100
AcDbEntity
  8
TEXT
 62
256
370
-1
  6
ByLayer
100
AcDbDimension
 10
30.0
 20
30.0
 30
0.0
 11
15.0
 21
31.875
 31
0.0
 70
0
 71
5
 72
0
 41
1.0
 42
0.0
  1

  3
Standard
100
AcDbAlignedDimension
 13
0.0
 23
20.0
 33
0.0
 14
30.0
 24
20.0
 34
0.0
 50
0.0
100
AcDbRotatedDimension
  0
ENDBLK
  5
99
100
AcDbEntity
  8
0
100
AcDbBlockEnd
  0
BLOCK
  5
9A
100
AcDbEntity
  8
0
100
AcDbBlockBegin
  2
battery 2AA front
 70
0
 10
0.0
 20
0.0
 30
0.0
  3
battery 2AA front
  1

  0
CIRCLE
  5
9B
100
AcDbEntity
100
AcDbCircle
  8
CONTOUR
 62
256
370
-1
  6
ByLayer
 10
22.0
 20
0.0
 30
0.0
 40
1.0
  0
CIRCLE
  5
9C
100
AcDbEntity
100
AcDbCircle
  8
CONTOUR
 62
256
370
-1
  6
ByLayer
 10
36.0
 20
0.0
 30
0.0
 40
1.0
  0
DIMENSION
  5
9D
100
AcDbEntity
  8
TEXT
 62
256
370
-1
  6
ByLayer
100
AcDbDimension
 10
41.0
 20
0.0
 30
0.0
 11
39.125
 21
7.75
 31
0.0
 70
0
 71
5
 72
0
 41
1.0
 42
0.0
  1

  3
Standard
100
AcDbAlignedDimension
 13
41.0
 23
15.5
 33
0.0
 14
41.0
 24
0.0
 34
0.0
 50
90.0
100
AcDbRotatedDimension
  0
DIMENSION
  5
9E
100
AcDbEntity
  8
TEXT
 62
256
370
-1
  6
ByLayer
100
AcDbDimension
 10
41.0
 20
-15.5
 30
0.0
 11
39.125
 21
-7.75
 31
0.0
 70
0
 71
5
 72
0
 41
1.0
 42
0.0
  1

  3
Standard
100
AcDbAlignedDimension
 13
41.0
 23
0.0
 33
0.0
 14
41.0
 24
-15.5
 34
0.0
 50
90.0
100
AcDbRotatedDimension
  0
LINE
  5
9F
100
AcDbEntity
100
AcDbLine
  8
CONTOUR
 62
256
370
-1
  6
ByLayer
 10
0.0
 20
-15.5
 30
0.0
 11
0.0
 21
15.5
 31
0.0
  0
LINE
  5
A0
100
AcDbEntity
100
AcDbLine
  8
CONTOUR
 62
256
370
-1
  6
ByLayer
 10
58.0
 20
-15.5
 30
0.0
 11
58.0
 21
15.5
 31
0.0
  0
LINE
  5
A1
100
AcDbEntity
100
AcDbLine
  8
CONTOUR
 62
256
370
-1
  6
ByLayer
 10
0.0
 20
15.5
 30
0.0
 11
58.0
 21
15.5
 31
0.0
  0
LINE
  5
A2
100
AcDbEntity
100
AcDbLine
  8
CONTOUR
 62
256
370
-1
  6
ByLayer
 10
0.0
 20
-15.5
 30
0.0
 11
58.0
 21
-15.5
 31
0.0
  0
LINE
  5
A3
100
AcDbEntity
100
AcDbLine
  8
CENTER
 62
256
370
-1
  6
ByLayer
 10
0.0
 20
0.0
 30
0.0
 11
58.0
 21
0.0
 31
0.0
  0
LINE
  5
A4
100
AcDbEntity
100
AcDbLine
  8
CENTER
 62
256
370
-1
  6
ByLayer
 10
36.0
 20
-15.5
 30
0.0
 11
36.0
 21
15.5
 31
0.0
  0
LINE
  5
A5
100
AcDbEntity
100
AcDbLine
  8
CENTER
 62
256
370
-1
  6
ByLayer
 10
22.0
 20
-15.5
 30
0.0
 11
22.0
 21
15.5
 31
0.0
  0
DIMENSION
  5
A6
100
AcDbEntity
  8
TEXT
 62
256
370
-1
  6
ByLayer
100
AcDbDimension
 10
22.0
 20
10.0
 30
0.0
 11
29.0
 21
11.875
 31
0.0
 70
0
 71
5
 72
0
 41
1.0
 42
0.0
  1

  3
Standard
100
AcDbAlignedDimension
 13
36.0
 23
10.0
 33
0.0
 14
22.0
 24
10.0
 34
0.0
 50
0.0
100
AcDbRotatedDimension
  0
DIMENSION
  5
A7
100
AcDbEntity
  8
TEXT
 62
256
370
-1
  6
ByLayer
100
AcDbDimension
 10
0.0
 20
10.0
 30
0.0
 11
11.0
 21
11.875
 31
0.0
 70
0
 71
5
 72
0
 41
1.0
 42
0.0
  1

  3
Standard
100
AcDbAlignedDimension
 13
22.0
 23
10.0
 33
0.0
 14
0.0
 24
10.0
 34
0.0
 50
0.0
100
AcDbRotatedDimension
  0
DIMENSION
  5
A8
100
AcDbEntity
  8
TEXT
 62
256
370
-1
  6
ByLayer
100
AcDbDimension
 10
58.0
 20
3.9999999999999964
 30
0.0
 11
29.0
 21
5.8749999999999964
 31
0.0
 70
0
 71
5
 72
0
 41
1.0
 42
0.0
  1

  3
Standard
100
AcDbAlignedDimension
 13
0.0
 23
0.0
 33
0.0
 14
58.0
 24
0.0
 34
0.0
 50
0.0
100
AcDbRotatedDimension
  0
ENDBLK
  5
A9
100
AcDbEntity
  8
0
100
AcDbBlockEnd
  0
BLOCK
  5
AA
100
AcDbEntity
  8
0
100
AcDbBlockBegin
  2
DS1-45 front
 70
0
 10
0.0
 20
0.0
 30
0.0
  3
DS1-45 front
  1

  0
CIRCLE
  5
AB
100
AcDbEntity
100
AcDbCircle
  8
CENTER
 62
256
370
-1
  6
ByLayer
 10
0.0
 20
0.0
 30
0.0
 40
22.5
  0
CIRCLE
  5
AC
100
AcDbEntity
100
AcDbCircle
  8
CONTOUR
 62
256
370
-1
  6
ByLayer
 10
0.0
 20
0.0
 30
0.0
 40
21.5
  0
CIRCLE
  5
AD
100
AcDbEntity
100
AcDbCircle
  8
CONTOUR
 62
256
370
-1
  6
ByLayer
 10
0.0
 20
0.0
 30
0.0
 40
23.5
  0
CIRCLE
  5
AE
100
AcDbEntity
100
AcDbCircle
  8
CONTOUR
 62
256
370
-1
  6
ByLayer
 10
0.0
 20
0.0
 30
0.0
 40
4.0
  0
CIRCLE
  5
AF
100
AcDbEntity
100
AcDbCircle
  8
CONTOUR
 62
256
370
-1
  6
ByLayer
 10
0.0
 20
0.0
 30
0.0
 40
8.0
  0
ENDBLK
  5
B0
100
AcDbEntity
  8
0
100
AcDbBlockEnd
  0
BLOCK
  5
B1
100
AcDbEntity
  8
0
100
AcDbBlockBegin
  2
DS1-70 front
 70
0
 10
0.0
 20
0.0
 30
0.0
  3
DS1-70 front
  1

  0
CIRCLE
  5
B2
100
AcDbEntity
100
AcDbCircle
  8
CONTOUR
 62
256
370
-1
  6
ByLayer
 10
0.0
 20
0.0
 30
0.0
 40
4.0
  0
CIRCLE
  5
B3
100
AcDbEntity
100
AcDbCircle
  8
CONTOUR
 62
256
370
-1
  6
ByLayer
 10
0.0
 20
0.0
 30
0.0
 40
8.0
  0
CIRCLE
  5
B4
100
AcDbEntity
100
AcDbCircle
  8
CENTER
 62
256
370
-1
  6
ByLayer
 10
0.0
 20
0.0
 30
0.0
 40
35.0
  0
CIRCLE
  5
B5
100
AcDbEntity
100
AcDbCircle
  8
CONTOUR
 62
256
370
-1
  6
ByLayer
 10
0.0
 20
0.0
 30
0.0
 40
34.0
  0
CIRCLE
  5
B6
100
AcDbEntity
100
AcDbCircle
  8
CONTOUR
 62
256
370
-1
  6
ByLayer
 10
0.0
 20
0.0
 30
0.0
 40
36.0
  0
ENDBLK
  5
B7
100
AcDbEntity
  8
0
100
AcDbBlockEnd
  0
BLOCK
  5
B8
100
AcDbEntity
  8
0
100
AcDbBlockBegin
  2
DS0.8-64 front
 70
0
 10
0.0
 20
0.0
 30
0.0
  3
DS0.8-64 front
  1

  0
CIRCLE
  5
B9
100
AcDbEntity
100
AcDbCircle
  8
CONTOUR
 62
256
370
-1
  6
ByLayer
 10
0.0
 20
0.0
 30
0.0
 40
3.0
  0
CIRCLE
  5
BA
100
AcDbEntity
100
AcDbCircle
  8
CONTOUR
 62
256
370
-1
  6
ByLayer
 10
0.0
 20
0.0
 30
0.0
 40
7.25
  0
CIRCLE
  5
BB
100
AcDbEntity
100
AcDbCircle
  8
CENTER
 62
256
370
-1
  6
ByLayer
 10
0.0
 20
0.0
 30
0.0
 40
25.600000000000001
  0
CIRCLE
  5
BC
100
AcDbEntity
100
AcDbCircle
  8
CONTOUR
 62
256
370
-1
  6
ByLayer
 10
0.0
 20
0.0
 30
0.0
 40
24.800000000000001
  0
CIRCLE
  5
BD
100
AcDbEntity
100
AcDbCircle
  8
CONTOUR
 62
256
370
-1
  6
ByLayer
 10
0.0
 20
0.0
 30
0.0
 40
26.400000000000002
  0
ENDBLK
  5
BE
100
AcDbEntity
  8
0
100
AcDbBlockEnd
  0
BLOCK
  5
BF
100
AcDbEntity
  8
0
100
AcDbBlockBegin
  2
DS0.8-56 front
 70
0
 10
0.0
 20
0.0
 30
0.0
  3
DS0.8-56 front
  1

  0
CIRCLE
  5
C0
100
AcDbEntity
100
AcDbCircle
  8
CONTOUR
 62
256
370
-1
  6
ByLayer
 10
0.0
 20
0.0
 30
0.0
 40
3.0
  0
CIRCLE
  5
C1
100
AcDbEntity
100
AcDbCircle
  8
CENTER
 62
256
370
-1
  6
ByLayer
 10
0.0
 20
0.0
 30
0.0
 40
22.399999999999999
  0
CIRCLE
  5
C2
100
AcDbEntity
100
AcDbCircle
  8
CONTOUR
 62
256
370
-1
  6
ByLayer
 10
0.0
 20
0.0
 30
0.0
 40
21.599999999999998
  0
CIRCLE
  5
C3
100
AcDbEntity
100
AcDbCircle
  8
CONTOUR
 62
256
370
-1
  6
ByLayer
 10
0.0
 20
0.0
 30
0.0
 40
23.199999999999999
  0
CIRCLE
  5
C4
100
AcDbEntity
100
AcDbCircle
  8
CONTOUR
 62
256
370
-1
  6
ByLayer
 10
0.0
 20
0.0
 30
0.0
 40
7.25
  0
ENDBLK
  5
C5
100
AcDbEntity
  8
0
100
AcDbBlockEnd
  0
BLOCK
  5
C6
100
AcDbEntity
  8
0
100
AcDbBlockBegin
  2
DS0.8-50 front
 70
0
 10
0.0
 20
0.0
 30
0.0
  3
DS0.8-50 front
  1

  0
CIRCLE
  5
C7
100
AcDbEntity
100
AcDbCircle
  8
CONTOUR
 62
256
370
-1
  6
ByLayer
 10
0.0
 20
0.0
 30
0.0
 40
3.0
  0
CIRCLE
  5
C8
100
AcDbEntity
100
AcDbCircle
  8
CENTER
 62
256
370
-1
  6
ByLayer
 10
0.0
 20
0.0
 30
0.0
 40
20.0
  0
CIRCLE
  5
C9
100
AcDbEntity
100
AcDbCircle
  8
CONTOUR
 62
256
370
-1
  6
ByLayer
 10
0.0
 20
0.0
 30
0.0
 40
20.800000000000001
  0
CIRCLE
  5
CA
100
AcDbEntity
100
AcDbCircle
  8
CONTOUR
 62
256
370
-1
  6
ByLayer
 10
0.0
 20
0.0
 30
0.0
 40
19.199999999999999
  0
CIRCLE
  5
CB
100
AcDbEntity
100
AcDbCircle
  8
CONTOUR
 62
256
370
-1
  6
ByLayer
 10
0.0
 20
0.0
 30
0.0
 40
7.25
  0
ENDBLK
  5
CC
100
AcDbEntity
  8
0
100
AcDbBlockEnd
  0
BLOCK
  5
CD
100
AcDbEntity
  8
0
100
AcDbBlockBegin
  2
DS0.8-45 front
 70
0
 10
0.0
 20
0.0
 30
0.0
  3
DS0.8-45 front
  1

  0
CIRCLE
  5
CE
100
AcDbEntity
100
AcDbCircle
  8
CONTOUR
 62
256
370
-1
  6
ByLayer
 10
0.0
 20
0.0
 30
0.0
 40
3.0
  0
CIRCLE
  5
CF
100
AcDbEntity
100
AcDbCircle
  8
CONTOUR
 62
256
370
-1
  6
ByLayer
 10
0.0
 20
0.0
 30
0.0
 40
6.0
  0
CIRCLE
  5
D0
100
AcDbEntity
100
AcDbCircle
  8
CENTER
 62
256
370
-1
  6
ByLayer
 10
0.0
 20
0.0
 30
0.0
 40
18.0
  0
CIRCLE
  5
D1
100
AcDbEntity
100
AcDbCircle
  8
CONTOUR
 62
256
370
-1
  6
ByLayer
 10
0.0
 20
0.0
 30
0.0
 40
17.199999999999999
  0
CIRCLE
  5
D2
100
AcDbEntity
100
AcDbCircle
  8
CONTOUR
 62
256
370
-1
  6
ByLayer
 10
0.0
 20
0.0
 30
0.0
 40
18.800000000000001
  0
ENDBLK
  5
D3
100
AcDbEntity
  8
0
100
AcDbBlockEnd
  0
BLOCK
  5
D4
100
AcDbEntity
  8
0
100
AcDbBlockBegin
  2
DS0.8-15 front
 70
0
 10
0.0
 20
0.0
 30
0.0
  3
DS0.8-15 front
  1

  0
CIRCLE
  5
D5
100
AcDbEntity
100
AcDbCircle
  8
CENTER
 62
256
370
-1
  6
ByLayer
 10
0.0
 20
0.0
 30
0.0
 40
6.0
  0
CIRCLE
  5
D6
100
AcDbEntity
100
AcDbCircle
  8
CONTOUR
 62
256
370
-1
  6
ByLayer
 10
0.0
 20
0.0
 30
0.0
 40
1.5
  0
CIRCLE
  5
D7
100
AcDbEntity
100
AcDbCircle
  8
CONTOUR
 62
256
370
-1
  6
ByLayer
 10
0.0
 20
0.0
 30
0.0
 40
6.7999999999999998
  0
CIRCLE
  5
D8
100
AcDbEntity
100
AcDbCircle
  8
CONTOUR
 62
256
370
-1
  6
ByLayer
 10
0.0
 20
0.0
 30
0.0
 40
5.2000000000000002
  0
ENDBLK
  5
D9
100
AcDbEntity
  8
0
100
AcDbBlockEnd
  0
BLOCK
  5
DA
100
AcDbEntity
  8
0
100
AcDbBlockBegin
  2
DS0.8-16 front
 70
0
 10
0.0
 20
0.0
 30
0.0
  3
DS0.8-16 front
  1

  0
CIRCLE
  5
DB
100
AcDbEntity
100
AcDbCircle
  8
CONTOUR
 62
256
370
-1
  6
ByLayer
 10
0.0
 20
0.0
 30
0.0
 40
2.0
  0
CIRCLE
  5
DC
100
AcDbEntity
100
AcDbCircle
  8
CENTER
 62
256
370
-1
  6
ByLayer
 10
0.0
 20
0.0
 30
0.0
 40
6.4000000000000004
  0
CIRCLE
  5
DD
100
AcDbEntity
100
AcDbCircle
  8
CONTOUR
 62
256
370
-1
  6
ByLayer
 10
0.0
 20
0.0
 30
0.0
 40
5.5999999999999996
  0
CIRCLE
  5
DE
100
AcDbEntity
100
AcDbCircle
  8
CONTOUR
 62
256
370
-1
  6
ByLayer
 10
0.0
 20
0.0
 30
0.0
 40
7.2000000000000002
  0
ENDBLK
  5
DF
100
AcDbEntity
  8
0
100
AcDbBlockEnd
  0
BLOCK
  5
E0
100
AcDbEntity
  8
0
100
AcDbBlockBegin
  2
DS1-12 front
 70
0
 10
0.0
 20
0.0
 30
0.0
  3
DS1-12 front
  1

  0
CIRCLE
  5
E1
100
AcDbEntity
100
AcDbCircle
  8
CENTER
 62
256
370
-1
  6
ByLayer
 10
0.0
 20
0.0
 30
0.0
 40
6.0
  0
CIRCLE
  5
E2
100
AcDbEntity
100
AcDbCircle
  8
CONTOUR
 62
256
370
-1
  6
ByLayer
 10
0.0
 20
0.0
 30
0.0
 40
2.0
  0
CIRCLE
  5
E3
100
AcDbEntity
100
AcDbCircle
  8
CONTOUR
 62
256
370
-1
  6
ByLayer
 10
0.0
 20
0.0
 30
0.0
 40
5.0
  0
CIRCLE
  5
E4
100
AcDbEntity
100
AcDbCircle
  8
CONTOUR
 62
256
370
-1
  6
ByLayer
 10
0.0
 20
0.0
 30
0.0
 40
7.0
  0
ENDBLK
  5
E5
100
AcDbEntity
  8
0
100
AcDbBlockEnd
  0
BLOCK
  5
E6
100
AcDbEntity
  8
0
100
AcDbBlockBegin
  2
DS1-12 side
 70
0
 10
0.0
 20
0.0
 30
0.0
  3
DS1-12 side
  1

  0
LINE
  5
E7
100
AcDbEntity
100
AcDbLine
  8
CONTOUR
 62
256
370
-1
  6
ByLayer
 10
11.999999999999996
 20
-4.0000000000000036
 30
0.0
 11
11.999999999999995
 21
3.9999999999999964
 31
0.0
  0
LINE
  5
E8
100
AcDbEntity
100
AcDbLine
  8
CONTOUR
 62
256
370
-1
  6
ByLayer
 10
11.999999999999995
 20
3.9999999999999964
 30
0.0
 11
5.9999999999999956
 21
4.0000000000000018
 31
0.0
  0
LINE
  5
E9
100
AcDbEntity
100
AcDbLine
  8
CONTOUR
 62
256
370
-1
  6
ByLayer
 10
11.999999999999996
 20
-4.0000000000000036
 30
0.0
 11
5.9999999999999964
 21
-3.9999999999999964
 31
0.0
  0
LINE
  5
EA
100
AcDbEntity
100
AcDbLine
  8
CONTOUR
 62
256
370
-1
  6
ByLayer
 10
6.0
 20
7.0
 30
0.0
 11
-0.0000000000000024
 21
7.0
 31
0.0
  0
LINE
  5
EB
100
AcDbEntity
100
AcDbLine
  8
CENTER
 62
256
370
-1
  6
ByLayer
 10
5.9999999999999973
 20
5.9999999999999964
 30
0.0
 11
-0.0000000000000026
 21
6.0
 31
0.0
  0
LINE
  5
EC
100
AcDbEntity
100
AcDbLine
  8
CONTOUR
 62
256
370
-1
  6
ByLayer
 10
5.9999999999999964
 20
5.0
 30
0.0
 11
-0.0000000000000028
 21
5.0
 31
0.0
  0
LINE
  5
ED
100
AcDbEntity
100
AcDbLine
  8
CONTOUR
 62
256
370
-1
  6
ByLayer
 10
6.0000000000000018
 20
-5.0
 30
0.0
 11
-0.0000000000000046
 21
-5.0
 31
0.0
  0
LINE
  5
EE
100
AcDbEntity
100
AcDbLine
  8
CENTER
 62
256
370
-1
  6
ByLayer
 10
5.9999999999999831
 20
-6.0000000000000071
 30
0.0
 11
-0.0000000000000048
 21
-6.0
 31
0.0
  0
LINE
  5
EF
100
AcDbEntity
100
AcDbLine
  8
CONTOUR
 62
256
370
-1
  6
ByLayer
 10
5.9999999999999938
 20
-7.0
 30
0.0
 11
-0.000000000000005
 21
-7.0
 31
0.0
  0
LINE
  5
F0
100
AcDbEntity
100
AcDbLine
  8
CONTOUR
 62
256
370
-1
  6
ByLayer
 10
5.9999999999999938
 20
-7.0
 30
0.0
 11
6.0
 21
7.0
 31
0.0
  0
LINE
  5
F1
100
AcDbEntity
100
AcDbLine
  8
CONTOUR
 62
256
370
-1
  6
ByLayer
 10
-0.000000000000005
 20
-7.0
 30
0.0
 11
-0.0000000000000024
 21
7.0
 31
0.0
  0
LINE
  5
F2
100
AcDbEntity
100
AcDbLine
  8
CONTOUR
 62
256
370
-1
  6
ByLayer
 10
11.999999999999993
 20
-2.0000000000000036
 30
0.0
 11
-0.000000000000004
 21
-2.0
 31
0.0
  0
LINE
  5
F3
100
AcDbEntity
100
AcDbLine
  8
CONTOUR
 62
256
370
-1
  6
ByLayer
 10
11.999999999999988
 20
1.9999999999999893
 30
0.0
 11
-0.0000000000000033
 21
2.0
 31
0.0
  0
ENDBLK
  5
F4
100
AcDbEntity
  8
0
100
AcDbBlockEnd
  0
BLOCK
  5
F5
100
AcDbEntity
  8
0
100
AcDbBlockBegin
  2
DS0.8-15 side
 70
0
 10
0.0
 20
0.0
 30
0.0
  3
DS0.8-15 side
  1

  0
LINE
  5
F6
100
AcDbEntity
100
AcDbLine
  8
CONTOUR
 62
256
370
-1
  6
ByLayer
 10
0.0
 20
-6.8000000000000682
 30
0.0
 11
4.0
 21
-6.8000000000000682
 31
0.0
  0
LINE
  5
F7
100
AcDbEntity
100
AcDbLine
  8
CENTER
 62
256
370
-1
  6
ByLayer
 10
0.0
 20
-6.0
 30
0.0
 11
4.0
 21
-6.0
 31
0.0
  0
LINE
  5
F8
100
AcDbEntity
100
AcDbLine
  8
CONTOUR
 62
256
370
-1
  6
ByLayer
 10
0.0
 20
-5.1999999999999318
 30
0.0
 11
4.0
 21
-5.1999999999999318
 31
0.0
  0
LINE
  5
F9
100
AcDbEntity
100
AcDbLine
  8
CONTOUR
 62
256
370
-1
  6
ByLayer
 10
0.0
 20
5.1999999999999318
 30
0.0
 11
4.0
 21
5.1999999999999318
 31
0.0
  0
LINE
  5
FA
100
AcDbEntity
100
AcDbLine
  8
CENTER
 62
256
370
-1
  6
ByLayer
 10
0.0
 20
6.0
 30
0.0
 11
4.0
 21
6.0
 31
0.0
  0
LINE
  5
FB
100
AcDbEntity
100
AcDbLine
  8
CONTOUR
 62
256
370
-1
  6
ByLayer
 10
0.0
 20
6.8000000000000682
 30
0.0
 11
4.0
 21
6.8000000000000682
 31
0.0
  0
LINE
  5
FC
100
AcDbEntity
100
AcDbLine
  8
CONTOUR
 62
256
370
-1
  6
ByLayer
 10
4.0
 20
3.0
 30
0.0
 11
9.0
 21
3.0
 31
0.0
  0
LINE
  5
FD
100
AcDbEntity
100
AcDbLine
  8
CONTOUR
 62
256
370
-1
  6
ByLayer
 10
4.0
 20
-3.0
 30
0.0
 11
9.0
 21
-3.0
 31
0.0
  0
LINE
  5
FE
100
AcDbEntity
100
AcDbLine
  8
CONTOUR
 62
256
370
-1
  6
ByLayer
 10
9.0
 20
-3.0
 30
0.0
 11
9.0
 21
3.0
 31
0.0
  0
LINE
  5
FF
100
AcDbEntity
100
AcDbLine
  8
CONTOUR
 62
256
370
-1
  6
ByLayer
 10
4.0
 20
-6.8000000000000682
 30
0.0
 11
4.0
 21
6.8000000000000682
 31
0.0
  0
LINE
  5
100
100
AcDbEntity
100
AcDbLine
  8
CONTOUR
 62
256
370
-1
  6
ByLayer
 10
0.0
 20
-6.8000000000000682
 30
0.0
 11
0.0
 21
6.8000000000000682
 31
0.0
  0
LINE
  5
101
100
AcDbEntity
100
AcDbLine
  8
CONTOUR
 62
256
370
-1
  6
ByLayer
 10
0.0
 20
1.5
 30
0.0
 11
9.0
 21
1.5
 31
0.0
  0
LINE
  5
102
100
AcDbEntity
100
AcDbLine
  8
CONTOUR
 62
256
370
-1
  6
ByLayer
 10
0.0
 20
-1.5
 30
0.0
 11
9.0
 21
-1.5
 31
0.0
  0
ENDBLK
  5
103
100
AcDbEntity
  8
0
100
AcDbBlockEnd
  0
BLOCK
  5
104
100
AcDbEntity
  8
0
100
AcDbBlockBegin
  2
DS0.8-16 side
 70
0
 10
0.0
 20
0.0
 30
0.0
  3
DS0.8-16 side
  1

  0
LINE
  5
105
100
AcDbEntity
100
AcDbLine
  8
CONTOUR
 62
256
370
-1
  6
ByLayer
 10
0.0
 20
7.1999999999999318
 30
0.0
 11
4.0
 21
7.1999999999999318
 31
0.0
  0
LINE
  5
106
100
AcDbEntity
100
AcDbLine
  8
CENTER
 62
256
370
-1
  6
ByLayer
 10
0.0
 20
6.3999999999999773
 30
0.0
 11
4.0
 21
6.3999999999999773
 31
0.0
  0
LINE
  5
107
100
AcDbEntity
100
AcDbLine
  8
CONTOUR
 62
256
370
-1
  6
ByLayer
 10
0.0
 20
5.5999999999999091
 30
0.0
 11
4.0
 21
5.5999999999999091
 31
0.0
  0
LINE
  5
108
100
AcDbEntity
100
AcDbLine
  8
CONTOUR
 62
256
370
-1
  6
ByLayer
 10
0.0
 20
-5.6000000000000227
 30
0.0
 11
4.0
 21
-5.6000000000000227
 31
0.0
  0
LINE
  5
109
100
AcDbEntity
100
AcDbLine
  8
CENTER
 62
256
370
-1
  6
ByLayer
 10
0.0
 20
-6.3999999999999773
 30
0.0
 11
4.0
 21
-6.3999999999999773
 31
0.0
  0
LINE
  5
10A
100
AcDbEntity
100
AcDbLine
  8
CONTOUR
 62
256
370
-1
  6
ByLayer
 10
0.0
 20
-7.2000000000000455
 30
0.0
 11
4.0
 21
-7.2000000000000455
 31
0.0
  0
LINE
  5
10B
100
AcDbEntity
100
AcDbLine
  8
CONTOUR
 62
256
370
-1
  6
ByLayer
 10
0.0
 20
-7.2000000000000455
 30
0.0
 11
0.0
 21
7.0
 31
0.0
  0
LINE
  5
10C
100
AcDbEntity
100
AcDbLine
  8
CONTOUR
 62
256
370
-1
  6
ByLayer
 10
9.0
 20
-4.0
 30
0.0
 11
9.0
 21
4.0
 31
0.0
  0
LINE
  5
10D
100
AcDbEntity
100
AcDbLine
  8
CONTOUR
 62
256
370
-1
  6
ByLayer
 10
4.0
 20
4.0
 30
0.0
 11
9.0
 21
4.0
 31
0.0
  0
LINE
  5
10E
100
AcDbEntity
100
AcDbLine
  8
CONTOUR
 62
256
370
-1
  6
ByLayer
 10
4.0
 20
-4.0
 30
0.0
 11
9.0
 21
-4.0
 31
0.0
  0
LINE
  5
10F
100
AcDbEntity
100
AcDbLine
  8
CONTOUR
 62
256
370
-1
  6
ByLayer
 10
4.0
 20
-7.2000000000000455
 30
0.0
 11
4.0
 21
7.1999999999999318
 31
0.0
  0
LINE
  5
110
100
AcDbEntity
100
AcDbLine
  8
CONTOUR
 62
256
370
-1
  6
ByLayer
 10
0.0
 20
2.0
 30
0.0
 11
9.0
 21
2.0
 31
0.0
  0
LINE
  5
111
100
AcDbEntity
100
AcDbLine
  8
CONTOUR
 62
256
370
-1
  6
ByLayer
 10
0.0
 20
-2.0
 30
0.0
 11
9.0
 21
-2.0
 31
0.0
  0
LINE
  5
112
100
AcDbEntity
100
AcDbLine
  8
CENTER
 62
256
370
-1
  6
ByLayer
 10
0.0
 20
0.0
 30
0.0
 11
9.0
 21
0.0
 31
0.0
  0
ENDBLK
  5
113
100
AcDbEntity
  8
0
100
AcDbBlockEnd
  0
BLOCK
  5
114
100
AcDbEntity
  8
0
100
AcDbBlockBegin
  2
DS0.8-45 side
 70
0
 10
0.0
 20
0.0
 30
0.0
  3
DS0.8-45 side
  1

  0
LINE
  5
115
100
AcDbEntity
100
AcDbLine
  8
CONTOUR
 62
256
370
-1
  6
ByLayer
 10
4.0
 20
-6.0
 30
0.0
 11
9.0
 21
-6.0
 31
0.0
  0
LINE
  5
116
100
AcDbEntity
100
AcDbLine
  8
CONTOUR
 62
256
370
-1
  6
ByLayer
 10
4.0
 20
6.0
 30
0.0
 11
9.0
 21
6.0
 31
0.0
  0
LINE
  5
117
100
AcDbEntity
100
AcDbLine
  8
CONTOUR
 62
256
370
-1
  6
ByLayer
 10
9.0
 20
-6.0
 30
0.0
 11
9.0
 21
6.0
 31
0.0
  0
LINE
  5
118
100
AcDbEntity
100
AcDbLine
  8
CONTOUR
 62
256
370
-1
  6
ByLayer
 10
0.0
 20
18.799999999999955
 30
0.0
 11
4.0
 21
18.799999999999955
 31
0.0
  0
LINE
  5
119
100
AcDbEntity
100
AcDbLine
  8
CENTER
 62
256
370
-1
  6
ByLayer
 10
0.0
 20
18.0
 30
0.0
 11
4.0
 21
18.0
 31
0.0
  0
LINE
  5
11A
100
AcDbEntity
100
AcDbLine
  8
CONTOUR
 62
256
370
-1
  6
ByLayer
 10
0.0
 20
17.200000000000045
 30
0.0
 11
4.0
 21
17.200000000000045
 31
0.0
  0
LINE
  5
11B
100
AcDbEntity
100
AcDbLine
  8
CONTOUR
 62
256
370
-1
  6
ByLayer
 10
0.0
 20
3.0
 30
0.0
 11
9.0
 21
3.0
 31
0.0
  0
LINE
  5
11C
100
AcDbEntity
100
AcDbLine
  8
CONTOUR
 62
256
370
-1
  6
ByLayer
 10
0.0
 20
-3.0
 30
0.0
 11
9.0
 21
-3.0
 31
0.0
  0
LINE
  5
11D
100
AcDbEntity
100
AcDbLine
  8
CENTER
 62
256
370
-1
  6
ByLayer
 10
0.0
 20
0.0
 30
0.0
 11
9.0
 21
0.0
 31
0.0
  0
LINE
  5
11E
100
AcDbEntity
100
AcDbLine
  8
CONTOUR
 62
256
370
-1
  6
ByLayer
 10
0.0
 20
-18.799999999999955
 30
0.0
 11
4.0
 21
-18.799999999999955
 31
0.0
  0
LINE
  5
11F
100
AcDbEntity
100
AcDbLine
  8
CENTER
 62
256
370
-1
  6
ByLayer
 10
0.0
 20
-18.000000000000004
 30
0.0
 11
4.0
 21
-18.0
 31
0.0
  0
LINE
  5
120
100
AcDbEntity
100
AcDbLine
  8
CONTOUR
 62
256
370
-1
  6
ByLayer
 10
0.0
 20
-17.200000000000045
 30
0.0
 11
4.0
 21
-17.200000000000045
 31
0.0
  0
LINE
  5
121
100
AcDbEntity
100
AcDbLine
  8
CONTOUR
 62
256
370
-1
  6
ByLayer
 10
4.0
 20
-18.799999999999955
 30
0.0
 11
4.0
 21
18.799999999999955
 31
0.0
  0
LINE
  5
122
100
AcDbEntity
100
AcDbLine
  8
CONTOUR
 62
256
370
-1
  6
ByLayer
 10
0.0
 20
-18.799999999999955
 30
0.0
 11
0.0
 21
18.799999999999955
 31
0.0
  0
ENDBLK
  5
123
100
AcDbEntity
  8
0
100
AcDbBlockEnd
  0
BLOCK
  5
124
100
AcDbEntity
  8
0
100
AcDbBlockBegin
  2
DS0.8-50 side
 70
0
 10
0.0
 20
0.0
 30
0.0
  3
DS0.8-50 side
  1

  0
LINE
  5
125
100
AcDbEntity
100
AcDbLine
  8
CONTOUR
 62
256
370
-1
  6
ByLayer
 10
0.0
 20
20.800000000000011
 30
0.0
 11
4.0
 21
20.800000000000011
 31
0.0
  0
LINE
  5
126
100
AcDbEntity
100
AcDbLine
  8
CONTOUR
 62
256
370
-1
  6
ByLayer
 10
0.0
 20
19.199999999999989
 30
0.0
 11
4.0
 21
19.199999999999989
 31
0.0
  0
LINE
  5
127
100
AcDbEntity
100
AcDbLine
  8
CENTER
 62
256
370
-1
  6
ByLayer
 10
0.0
 20
20.0
 30
0.0
 11
4.0
 21
20.0
 31
0.0
  0
LINE
  5
128
100
AcDbEntity
100
AcDbLine
  8
CONTOUR
 62
256
370
-1
  6
ByLayer
 10
4.0
 20
-7.25
 30
0.0
 11
10.0
 21
-7.25
 31
0.0
  0
LINE
  5
129
100
AcDbEntity
100
AcDbLine
  8
CONTOUR
 62
256
370
-1
  6
ByLayer
 10
4.0
 20
7.25
 30
0.0
 11
10.0
 21
7.25
 31
0.0
  0
LINE
  5
12A
100
AcDbEntity
100
AcDbLine
  8
CONTOUR
 62
256
370
-1
  6
ByLayer
 10
10.0
 20
-7.25
 30
0.0
 11
10.0
 21
7.25
 31
0.0
  0
LINE
  5
12B
100
AcDbEntity
100
AcDbLine
  8
CONTOUR
 62
256
370
-1
  6
ByLayer
 10
0.0
 20
3.0
 30
0.0
 11
10.0
 21
3.0
 31
0.0
  0
LINE
  5
12C
100
AcDbEntity
100
AcDbLine
  8
CENTER
 62
256
370
-1
  6
ByLayer
 10
0.0
 20
0.0
 30
0.0
 11
10.0
 21
0.0
 31
0.0
  0
LINE
  5
12D
100
AcDbEntity
100
AcDbLine
  8
CONTOUR
 62
256
370
-1
  6
ByLayer
 10
0.0
 20
-3.0
 30
0.0
 11
10.0
 21
-3.0
 31
0.0
  0
LINE
  5
12E
100
AcDbEntity
100
AcDbLine
  8
CONTOUR
 62
256
370
-1
  6
ByLayer
 10
0.0000000000000013
 20
-20.800000000000011
 30
0.0
 11
4.0
 21
-20.800000000000011
 31
0.0
  0
LINE
  5
12F
100
AcDbEntity
100
AcDbLine
  8
CONTOUR
 62
256
370
-1
  6
ByLayer
 10
0.0000000000000012
 20
-19.199999999999989
 30
0.0
 11
4.0000000000000018
 21
-19.199999999999989
 31
0.0
  0
LINE
  5
130
100
AcDbEntity
100
AcDbLine
  8
CENTER
 62
256
370
-1
  6
ByLayer
 10
0.0000000000000012
 20
-20.0
 30
0.0
 11
3.9999999999999987
 21
-19.999999999999996
 31
0.0
  0
LINE
  5
131
100
AcDbEntity
100
AcDbLine
  8
CONTOUR
 62
256
370
-1
  6
ByLayer
 10
4.0
 20
-20.800000000000011
 30
0.0
 11
4.0
 21
20.800000000000011
 31
0.0
  0
LINE
  5
132
100
AcDbEntity
100
AcDbLine
  8
CONTOUR
 62
256
370
-1
  6
ByLayer
 10
0.0
 20
-20.800000000000011
 30
0.0
 11
0.0
 21
20.800000000000011
 31
0.0
  0
ENDBLK
  5
133
100
AcDbEntity
  8
0
100
AcDbBlockEnd
  0
BLOCK
  5
134
100
AcDbEntity
  8
0
100
AcDbBlockBegin
  2
DS0.8-56 side
 70
0
 10
0.0
 20
0.0
 30
0.0
  3
DS0.8-56 side
  1

  0
LINE
  5
135
100
AcDbEntity
100
AcDbLine
  8
CONTOUR
 62
256
370
-1
  6
ByLayer
 10
0.0
 20
23.200000000000045
 30
0.0
 11
4.0
 21
23.200000000000045
 31
0.0
  0
LINE
  5
136
100
AcDbEntity
100
AcDbLine
  8
CENTER
 62
256
370
-1
  6
ByLayer
 10
0.0
 20
22.399999999999977
 30
0.0
 11
4.0
 21
22.399999999999977
 31
0.0
  0
LINE
  5
137
100
AcDbEntity
100
AcDbLine
  8
CONTOUR
 62
256
370
-1
  6
ByLayer
 10
0.0
 20
21.600000000000023
 30
0.0
 11
4.0
 21
21.600000000000023
 31
0.0
  0
LINE
  5
138
100
AcDbEntity
100
AcDbLine
  8
CONTOUR
 62
256
370
-1
  6
ByLayer
 10
4.0
 20
-7.25
 30
0.0
 11
10.0
 21
-7.25
 31
0.0
  0
LINE
  5
139
100
AcDbEntity
100
AcDbLine
  8
CONTOUR
 62
256
370
-1
  6
ByLayer
 10
4.0
 20
7.25
 30
0.0
 11
10.0
 21
7.25
 31
0.0
  0
LINE
  5
13A
100
AcDbEntity
100
AcDbLine
  8
CONTOUR
 62
256
370
-1
  6
ByLayer
 10
10.0
 20
-7.25
 30
0.0
 11
10.0
 21
7.25
 31
0.0
  0
LINE
  5
13B
100
AcDbEntity
100
AcDbLine
  8
CONTOUR
 62
256
370
-1
  6
ByLayer
 10
0.0000000000000014
 20
-23.200000000000045
 30
0.0
 11
4.0000000000000009
 21
-23.200000000000042
 31
0.0
  0
LINE
  5
13C
100
AcDbEntity
100
AcDbLine
  8
CENTER
 62
256
370
-1
  6
ByLayer
 10
0.0000000000000014
 20
-22.399999999999977
 30
0.0
 11
3.9999999999999996
 21
-22.399999999999974
 31
0.0
  0
LINE
  5
13D
100
AcDbEntity
100
AcDbLine
  8
CONTOUR
 62
256
370
-1
  6
ByLayer
 10
0.0000000000000013
 20
-21.600000000000023
 30
0.0
 11
3.9999999999999982
 21
-21.600000000000023
 31
0.0
  0
LINE
  5
13E
100
AcDbEntity
100
AcDbLine
  8
CONTOUR
 62
256
370
-1
  6
ByLayer
 10
4.0
 20
-23.200000000000042
 30
0.0
 11
4.0
 21
23.200000000000045
 31
0.0
  0
LINE
  5
13F
100
AcDbEntity
100
AcDbLine
  8
CONTOUR
 62
256
370
-1
  6
ByLayer
 10
0.0
 20
-23.200000000000045
 30
0.0
 11
0.0
 21
23.200000000000045
 31
0.0
  0
LINE
  5
140
100
AcDbEntity
100
AcDbLine
  8
CONTOUR
 62
256
370
-1
  6
ByLayer
 10
0.0
 20
3.0
 30
0.0
 11
10.0
 21
3.0
 31
0.0
  0
LINE
  5
141
100
AcDbEntity
100
AcDbLine
  8
CENTER
 62
256
370
-1
  6
ByLayer
 10
0.0
 20
0.0
 30
0.0
 11
10.0
 21
0.0
 31
0.0
  0
LINE
  5
142
100
AcDbEntity
100
AcDbLine
  8
CONTOUR
 62
256
370
-1
  6
ByLayer
 10
0.0
 20
-3.0
 30
0.0
 11
10.0
 21
-3.0
 31
0.0
  0
ENDBLK
  5
143
100
AcDbEntity
  8
0
100
AcDbBlockEnd
  0
BLOCK
  5
144
100
AcDbEntity
  8
0
100
AcDbBlockBegin
  2
DS0.8-64 side
 70
0
 10
0.0
 20
0.0
 30
0.0
  3
DS0.8-64 side
  1

  0
LINE
  5
145
100
AcDbEntity
100
AcDbLine
  8
CONTOUR
 62
256
370
-1
  6
ByLayer
 10
4.0
 20
-7.25
 30
0.0
 11
10.0
 21
-7.25
 31
0.0
  0
LINE
  5
146
100
AcDbEntity
100
AcDbLine
  8
CONTOUR
 62
256
370
-1
  6
ByLayer
 10
4.0
 20
7.25
 30
0.0
 11
10.0
 21
7.25
 31
0.0
  0
LINE
  5
147
100
AcDbEntity
100
AcDbLine
  8
CONTOUR
 62
256
370
-1
  6
ByLayer
 10
10.0
 20
-7.25
 30
0.0
 11
10.0
 21
7.25
 31
0.0
  0
LINE
  5
148
100
AcDbEntity
100
AcDbLine
  8
CONTOUR
 62
256
370
-1
  6
ByLayer
 10
4.0
 20
-26.400000000000002
 30
0.0
 11
4.0
 21
26.400000000000002
 31
0.0
  0
LINE
  5
149
100
AcDbEntity
100
AcDbLine
  8
CONTOUR
 62
256
370
-1
  6
ByLayer
 10
0.0
 20
-26.400000000000002
 30
0.0
 11
0.0
 21
26.400000000000002
 31
0.0
  0
LINE
  5
14A
100
AcDbEntity
100
AcDbLine
  8
CENTER
 62
256
370
-1
  6
ByLayer
 10
0.0
 20
25.600000000000001
 30
0.0
 11
4.0
 21
25.600000000000001
 31
0.0
  0
LINE
  5
14B
100
AcDbEntity
100
AcDbLine
  8
CONTOUR
 62
256
370
-1
  6
ByLayer
 10
0.0
 20
24.800000000000001
 30
0.0
 11
4.0
 21
24.800000000000001
 31
0.0
  0
LINE
  5
14C
100
AcDbEntity
100
AcDbLine
  8
CONTOUR
 62
256
370
-1
  6
ByLayer
 10
0.0
 20
26.400000000000002
 30
0.0
 11
4.0
 21
26.400000000000002
 31
0.0
  0
LINE
  5
14D
100
AcDbEntity
100
AcDbLine
  8
CONTOUR
 62
256
370
-1
  6
ByLayer
 10
0.0
 20
-24.800000000000001
 30
0.0
 11
4.0
 21
-24.800000000000001
 31
0.0
  0
LINE
  5
14E
100
AcDbEntity
100
AcDbLine
  8
CENTER
 62
256
370
-1
  6
ByLayer
 10
0.0
 20
-25.600000000000001
 30
0.0
 11
4.0
 21
-25.600000000000001
 31
0.0
  0
LINE
  5
14F
100
AcDbEntity
100
AcDbLine
  8
CONTOUR
 62
256
370
-1
  6
ByLayer
 10
0.0
 20
-26.400000000000002
 30
0.0
 11
4.0
 21
-26.400000000000002
 31
0.0
  0
LINE
  5
150
100
AcDbEntity
100
AcDbLine
  8
CONTOUR
 62
256
370
-1
  6
ByLayer
 10
0.0
 20
3.0
 30
0.0
 11
10.0
 21
3.0
 31
0.0
  0
LINE
  5
151
100
AcDbEntity
100
AcDbLine
  8
CONTOUR
 62
256
370
-1
  6
ByLayer
 10
0.0
 20
-3.0
 30
0.0
 11
10.0
 21
-3.0
 31
0.0
  0
LINE
  5
152
100
AcDbEntity
100
AcDbLine
  8
CENTER
 62
256
370
-1
  6
ByLayer
 10
0.0
 20
0.0
 30
0.0
 11
10.0
 21
0.0
 31
0.0
  0
ENDBLK
  5
153
100
AcDbEntity
  8
0
100
AcDbBlockEnd
  0
BLOCK
  5
154
100
AcDbEntity
  8
0
100
AcDbBlockBegin
  2
DS1-70 side
 70
0
 10
0.0
 20
0.0
 30
0.0
  3
DS1-70 side
  1

  0
LINE
  5
155
100
AcDbEntity
100
AcDbLine
  8
CONTOUR
 62
256
370
-1
  6
ByLayer
 10
14.0
 20
-8.0
 30
0.0
 11
14.0
 21
8.0
 31
0.0
  0
LINE
  5
156
100
AcDbEntity
100
AcDbLine
  8
CENTER
 62
256
370
-1
  6
ByLayer
 10
0.0
 20
35.0
 30
0.0
 11
6.0
 21
35.0
 31
0.0
  0
LINE
  5
157
100
AcDbEntity
100
AcDbLine
  8
CONTOUR
 62
256
370
-1
  6
ByLayer
 10
0.0
 20
34.0
 30
0.0
 11
6.0
 21
34.0
 31
0.0
  0
LINE
  5
158
100
AcDbEntity
100
AcDbLine
  8
CONTOUR
 62
256
370
-1
  6
ByLayer
 10
0.0
 20
36.0
 30
0.0
 11
6.0
 21
36.0
 31
0.0
  0
LINE
  5
159
100
AcDbEntity
100
AcDbLine
  8
CONTOUR
 62
256
370
-1
  6
ByLayer
 10
6.0
 20
8.0
 30
0.0
 11
14.0
 21
8.0
 31
0.0
  0
LINE
  5
15A
100
AcDbEntity
100
AcDbLine
  8
CONTOUR
 62
256
370
-1
  6
ByLayer
 10
6.0
 20
-8.0
 30
0.0
 11
14.0
 21
-8.0
 31
0.0
  0
LINE
  5
15B
100
AcDbEntity
100
AcDbLine
  8
CONTOUR
 62
256
370
-1
  6
ByLayer
 10
0.0
 20
-4.0
 30
0.0
 11
14.0
 21
-4.0
 31
0.0
  0
LINE
  5
15C
100
AcDbEntity
100
AcDbLine
  8
CONTOUR
 62
256
370
-1
  6
ByLayer
 10
0.0
 20
4.0
 30
0.0
 11
14.0
 21
4.0
 31
0.0
  0
LINE
  5
15D
100
AcDbEntity
100
AcDbLine
  8
CENTER
 62
256
370
-1
  6
ByLayer
 10
0.0
 20
0.0
 30
0.0
 11
14.0
 21
0.0
 31
0.0
  0
LINE
  5
15E
100
AcDbEntity
100
AcDbLine
  8
CENTER
 62
256
370
-1
  6
ByLayer
 10
0.0000000000000021
 20
-35.0
 30
0.0
 11
6.0000000000000018
 21
-35.0
 31
0.0
  0
LINE
  5
15F
100
AcDbEntity
100
AcDbLine
  8
CONTOUR
 62
256
370
-1
  6
ByLayer
 10
0.0000000000000021
 20
-34.0
 30
0.0
 11
5.9999999999999991
 21
-34.0
 31
0.0
  0
LINE
  5
160
100
AcDbEntity
100
AcDbLine
  8
CONTOUR
 62
256
370
-1
  6
ByLayer
 10
0.0000000000000022
 20
-36.0
 30
0.0
 11
5.9999999999999973
 21
-36.0
 31
0.0
  0
LINE
  5
161
100
AcDbEntity
100
AcDbLine
  8
CONTOUR
 62
256
370
-1
  6
ByLayer
 10
6.0
 20
-36.0
 30
0.0
 11
6.0
 21
36.0
 31
0.0
  0
LINE
  5
162
100
AcDbEntity
100
AcDbLine
  8
CONTOUR
 62
256
370
-1
  6
ByLayer
 10
0.0
 20
-36.0
 30
0.0
 11
0.0
 21
36.0
 31
0.0
  0
ENDBLK
  5
163
100
AcDbEntity
  8
0
100
AcDbBlockEnd
  0
BLOCK
  5
164
100
AcDbEntity
  8
0
100
AcDbBlockBegin
  2
DS1-45 side
 70
0
 10
0.0
 20
0.0
 30
0.0
  3
DS1-45 side
  1

  0
LINE
  5
165
100
AcDbEntity
100
AcDbLine
  8
CONTOUR
 62
256
370
-1
  6
ByLayer
 10
12.0
 20
-8.0
 30
0.0
 11
12.0
 21
8.0
 31
0.0
  0
LINE
  5
166
100
AcDbEntity
100
AcDbLine
  8
CONTOUR
 62
256
370
-1
  6
ByLayer
 10
0.0
 20
23.5
 30
0.0
 11
6.0
 21
23.5
 31
0.0
  0
LINE
  5
167
100
AcDbEntity
100
AcDbLine
  8
CONTOUR
 62
256
370
-1
  6
ByLayer
 10
6.0
 20
8.0
 30
0.0
 11
12.0
 21
8.0
 31
0.0
  0
LINE
  5
168
100
AcDbEntity
100
AcDbLine
  8
CONTOUR
 62
256
370
-1
  6
ByLayer
 10
6.0
 20
-8.0
 30
0.0
 11
12.0
 21
-8.0
 31
0.0
  0
LINE
  5
169
100
AcDbEntity
100
AcDbLine
  8
CENTER
 62
256
370
-1
  6
ByLayer
 10
0.0
 20
22.5
 30
0.0
 11
6.0
 21
22.5
 31
0.0
  0
LINE
  5
16A
100
AcDbEntity
100
AcDbLine
  8
CONTOUR
 62
256
370
-1
  6
ByLayer
 10
0.0
 20
21.5
 30
0.0
 11
6.0
 21
21.5
 31
0.0
  0
LINE
  5
16B
100
AcDbEntity
100
AcDbLine
  8
CONTOUR
 62
256
370
-1
  6
ByLayer
 10
0.0000000000000014
 20
-23.5
 30
0.0
 11
6.0
 21
-23.5
 31
0.0
  0
LINE
  5
16C
100
AcDbEntity
100
AcDbLine
  8
CENTER
 62
256
370
-1
  6
ByLayer
 10
0.0000000000000014
 20
-22.5
 30
0.0
 11
6.0000000000000018
 21
-22.5
 31
0.0
  0
LINE
  5
16D
100
AcDbEntity
100
AcDbLine
  8
CONTOUR
 62
256
370
-1
  6
ByLayer
 10
0.0000000000000013
 20
-21.5
 30
0.0
 11
6.0000000000000018
 21
-21.499999999999996
 31
0.0
  0
LINE
  5
16E
100
AcDbEntity
100
AcDbLine
  8
CONTOUR
 62
256
370
-1
  6
ByLayer
 10
6.0
 20
-23.5
 30
0.0
 11
6.0
 21
23.5
 31
0.0
  0
LINE
  5
16F
100
AcDbEntity
100
AcDbLine
  8
CONTOUR
 62
256
370
-1
  6
ByLayer
 10
0.0
 20
-23.5
 30
0.0
 11
0.0
 21
23.5
 31
0.0
  0
LINE
  5
170
100
AcDbEntity
100
AcDbLine
  8
CONTOUR
 62
256
370
-1
  6
ByLayer
 10
0.0
 20
4.0
 30
0.0
 11
12.0
 21
4.0
 31
0.0
  0
LINE
  5
171
100
AcDbEntity
100
AcDbLine
  8
CONTOUR
 62
256
370
-1
  6
ByLayer
 10
0.0
 20
-4.0
 30
0.0
 11
12.0
 21
-4.0
 31
0.0
  0
LINE
  5
172
100
AcDbEntity
100
AcDbLine
  8
CENTER
 62
256
370
-1
  6
ByLayer
 10
0.0
 20
0.0
 30
0.0
 11
12.0
 21
0.0
 31
0.0
  0
ENDBLK
  5
173
100
AcDbEntity
  8
0
100
AcDbBlockEnd
  0
BLOCK
  5
174
100
AcDbEntity
  8
0
100
AcDbBlockBegin
  2
6-speed HE front
 70
0
 10
0.0
 20
0.0
 30
0.0
  3
6-speed HE front
  1

  0
LINE
  5
175
100
AcDbEntity
100
AcDbLine
  8
CONTOUR
 62
256
370
-1
  6
ByLayer
 10
-26.0
 20
-33.699999999999989
 30
0.0
 11
26.0
 21
-33.699999999999989
 31
0.0
  0
DIMENSION
  5
176
100
AcDbEntity
  8
TEXT
 62
256
370
-1
  6
ByLayer
100
AcDbDimension
 10
22.5
 20
-40.5
 30
0.0
 11
0.0
 21
-38.625
 31
0.0
 70
0
 71
5
 72
0
 41
1.0
 42
0.0
  1

  3
Standard
100
AcDbAlignedDimension
 13
-22.5
 23
-35.190139133156777
 33
0.0
 14
22.5
 24
-35.190139133156777
 34
0.0
 50
0.0
100
AcDbRotatedDimension
  0
LINE
  5
177
100
AcDbEntity
100
AcDbLine
  8
CENTER
 62
256
370
-1
  6
ByLayer
 10
0.0
 20
-33.699999999999989
 30
0.0
 11
0.0
 21
34.300000000000011
 31
0.0
  0
LINE
  5
178
100
AcDbEntity
100
AcDbLine
  8
CONTOUR
 62
256
370
-1
  6
ByLayer
 10
-20.199999999999989
 20
-33.699999999999989
 30
0.0
 11
-20.199999999999989
 21
34.300000000000011
 31
0.0
  0
LINE
  5
179
100
AcDbEntity
100
AcDbLine
  8
CONTOUR
 62
256
370
-1
  6
ByLayer
 10
20.200000000000045
 20
-33.699999999999989
 30
0.0
 11
20.200000000000045
 21
34.300000000000011
 31
0.0
  0
LINE
  5
17A
100
AcDbEntity
100
AcDbLine
  8
CONTOUR
 62
256
370
-1
  6
ByLayer
 10
-20.199999999999989
 20
-6.0
 30
0.0
 11
-26.0
 21
-6.0
 31
0.0
  0
LINE
  5
17B
100
AcDbEntity
100
AcDbLine
  8
CONTOUR
 62
256
370
-1
  6
ByLayer
 10
-20.199999999999989
 20
6.0
 30
0.0
 11
-26.0
 21
6.0
 31
0.0
  0
LINE
  5
17C
100
AcDbEntity
100
AcDbLine
  8
CONTOUR
 62
256
370
-1
  6
ByLayer
 10
26.0
 20
6.0
 30
0.0
 11
20.200000000000045
 21
6.0
 31
0.0
  0
LINE
  5
17D
100
AcDbEntity
100
AcDbLine
  8
CONTOUR
 62
256
370
-1
  6
ByLayer
 10
26.0
 20
-6.0
 30
0.0
 11
20.200000000000045
 21
-6.0
 31
0.0
  0
LINE
  5
17E
100
AcDbEntity
100
AcDbLine
  8
CONTOUR
 62
256
370
-1
  6
ByLayer
 10
-26.0
 20
-6.0
 30
0.0
 11
-26.0
 21
6.0
 31
0.0
  0
LINE
  5
17F
100
AcDbEntity
100
AcDbLine
  8
CONTOUR
 62
256
370
-1
  6
ByLayer
 10
-26.0
 20
-33.699999999999989
 30
0.0
 11
-26.0
 21
-31.800000000000011
 31
0.0
  0
LINE
  5
180
100
AcDbEntity
100
AcDbLine
  8
CONTOUR
 62
256
370
-1
  6
ByLayer
 10
26.0
 20
-33.699999999999989
 30
0.0
 11
26.0
 21
-31.800000000000011
 31
0.0
  0
LINE
  5
181
100
AcDbEntity
100
AcDbLine
  8
CONTOUR
 62
256
370
-1
  6
ByLayer
 10
26.0
 20
-6.0
 30
0.0
 11
26.0
 21
6.0
 31
0.0
  0
LINE
  5
182
100
AcDbEntity
100
AcDbLine
  8
CONTOUR
 62
256
370
-1
  6
ByLayer
 10
26.0
 20
-31.800000000000011
 30
0.0
 11
20.200000000000045
 21
-31.800000000000011
 31
0.0
  0
LINE
  5
183
100
AcDbEntity
100
AcDbLine
  8
CONTOUR
 62
256
370
-1
  6
ByLayer
 10
-20.199999999999989
 20
-31.800000000000011
 30
0.0
 11
-26.0
 21
-31.800000000000011
 31
0.0
  0
LINE
  5
184
100
AcDbEntity
100
AcDbLine
  8
CONTOUR
 62
256
370
-1
  6
ByLayer
 10
21.899999999999977
 20
15.300000000000068
 30
0.0
 11
21.899999999999977
 21
19.63883476483187
 31
0.0
  0
LINE
  5
185
100
AcDbEntity
100
AcDbLine
  8
CONTOUR
 62
256
370
-1
  6
ByLayer
 10
21.899999999999977
 20
19.63883476483187
 30
0.0
 11
21.899999999999977
 21
23.299999999999955
 31
0.0
  0
LINE
  5
186
100
AcDbEntity
100
AcDbLine
  8
CONTOUR
 62
256
370
-1
  6
ByLayer
 10
21.899999999999977
 20
2.8000000000000682
 30
0.0
 11
21.899999999999977
 21
10.799999999999955
 31
0.0
  0
LINE
  5
187
100
AcDbEntity
100
AcDbLine
  8
CONTOUR
 62
256
370
-1
  6
ByLayer
 10
-21.899999999999977
 20
2.8000000000000682
 30
0.0
 11
-21.899999999999977
 21
10.799999999999955
 31
0.0
  0
LINE
  5
188
100
AcDbEntity
100
AcDbLine
  8
CONTOUR
 62
256
370
-1
  6
ByLayer
 10
-21.899999999999977
 20
15.300000000000068
 30
0.0
 11
-21.899999999999977
 21
19.63883476483187
 31
0.0
  0
LINE
  5
189
100
AcDbEntity
100
AcDbLine
  8
CONTOUR
 62
256
370
-1
  6
ByLayer
 10
-21.899999999999977
 20
19.63883476483187
 30
0.0
 11
-21.899999999999977
 21
23.299999999999955
 31
0.0
  0
LINE
  5
18A
100
AcDbEntity
100
AcDbLine
  8
CONTOUR
 62
256
370
-1
  6
ByLayer
 10
-20.199999999999989
 20
2.8000000000000682
 30
0.0
 11
-21.899999999999977
 21
2.8000000000000682
 31
0.0
  0
LINE
  5
18B
100
AcDbEntity
100
AcDbLine
  8
CONTOUR
 62
256
370
-1
  6
ByLayer
 10
-20.199999999999989
 20
10.799999999999955
 30
0.0
 11
-21.899999999999977
 21
10.799999999999955
 31
0.0
  0
LINE
  5
18C
100
AcDbEntity
100
AcDbLine
  8
CONTOUR
 62
256
370
-1
  6
ByLayer
 10
-20.199999999999989
 20
15.300000000000068
 30
0.0
 11
-21.899999999999977
 21
15.300000000000068
 31
0.0
  0
LINE
  5
18D
100
AcDbEntity
100
AcDbLine
  8
CONTOUR
 62
256
370
-1
  6
ByLayer
 10
-20.199999999999989
 20
23.299999999999955
 30
0.0
 11
-21.899999999999977
 21
23.299999999999955
 31
0.0
  0
LINE
  5
18E
100
AcDbEntity
100
AcDbLine
  8
CONTOUR
 62
256
370
-1
  6
ByLayer
 10
21.899999999999977
 20
23.299999999999955
 30
0.0
 11
20.200000000000045
 21
23.299999999999955
 31
0.0
  0
LINE
  5
18F
100
AcDbEntity
100
AcDbLine
  8
CONTOUR
 62
256
370
-1
  6
ByLayer
 10
21.899999999999977
 20
15.300000000000068
 30
0.0
 11
20.200000000000045
 21
15.300000000000068
 31
0.0
  0
LINE
  5
190
100
AcDbEntity
100
AcDbLine
  8
CONTOUR
 62
256
370
-1
  6
ByLayer
 10
21.899999999999977
 20
10.799999999999955
 30
0.0
 11
20.200000000000045
 21
10.799999999999955
 31
0.0
  0
LINE
  5
191
100
AcDbEntity
100
AcDbLine
  8
CONTOUR
 62
256
370
-1
  6
ByLayer
 10
21.899999999999977
 20
2.8000000000000682
 30
0.0
 11
20.200000000000045
 21
2.8000000000000682
 31
0.0
  0
LINE
  5
192
100
AcDbEntity
100
AcDbLine
  8
CENTER
 62
256
370
-1
  6
ByLayer
 10
-26.0
 20
0.0
 30
0.0
 11
26.0
 21
0.0
 31
0.0
  0
LINE
  5
193
100
AcDbEntity
100
AcDbLine
  8
CENTER
 62
256
370
-1
  6
ByLayer
 10
20.200000000000045
 20
-5.6999999999999886
 30
0.0
 11
-20.199999999999989
 21
-5.6999999999999886
 31
0.0
  0
LINE
  5
194
100
AcDbEntity
100
AcDbLine
  8
CENTER
 62
256
370
-1
  6
ByLayer
 10
20.200000000000045
 20
-16.699999999999989
 30
0.0
 11
-20.199999999999989
 21
-16.699999999999989
 31
0.0
  0
LINE
  5
195
100
AcDbEntity
100
AcDbLine
  8
CONTOUR
 62
256
370
-1
  6
ByLayer
 10
21.899999999999977
 20
21.300000000000011
 30
0.0
 11
-21.899999999999977
 21
21.300000000000011
 31
0.0
  0
LINE
  5
196
100
AcDbEntity
100
AcDbLine
  8
CONTOUR
 62
256
370
-1
  6
ByLayer
 10
21.899999999999977
 20
17.300000000000011
 30
0.0
 11
-21.899999999999977
 21
17.300000000000011
 31
0.0
  0
LINE
  5
197
100
AcDbEntity
100
AcDbLine
  8
CONTOUR
 62
256
370
-1
  6
ByLayer
 10
21.899999999999977
 20
8.8000000000000114
 30
0.0
 11
-21.899999999999977
 21
8.8000000000000114
 31
0.0
  0
LINE
  5
198
100
AcDbEntity
100
AcDbLine
  8
CONTOUR
 62
256
370
-1
  6
ByLayer
 10
21.899999999999977
 20
4.8000000000000114
 30
0.0
 11
-21.899999999999977
 21
4.8000000000000114
 31
0.0
  0
LINE
  5
199
100
AcDbEntity
100
AcDbLine
  8
CONTOUR
 62
256
370
-1
  6
ByLayer
 10
-20.199999999999989
 20
34.300000000000011
 30
0.0
 11
20.200000000000045
 21
34.300000000000011
 31
0.0
  0
LINE
  5
19A
100
AcDbEntity
100
AcDbLine
  8
CENTER
 62
256
370
-1
  6
ByLayer
 10
-22.5
 20
-34.890139133156765
 30
0.0
 11
-22.5
 21
6.0
 31
0.0
  0
LINE
  5
19B
100
AcDbEntity
100
AcDbLine
  8
CENTER
 62
256
370
-1
  6
ByLayer
 10
22.5
 20
-34.890139133156765
 30
0.0
 11
22.5
 21
6.0
 31
0.0
  0
LINE
  5
19C
100
AcDbEntity
100
AcDbLine
  8
CENTER
 62
256
370
-1
  6
ByLayer
 10
26.0
 20
6.8000000000000114
 30
0.0
 11
-26.0
 21
6.8000000000000114
 31
0.0
  0
LINE
  5
19D
100
AcDbEntity
100
AcDbLine
  8
CENTER
 62
256
370
-1
  6
ByLayer
 10
26.0
 20
19.300000000000011
 30
0.0
 11
-26.0
 21
19.300000000000011
 31
0.0
  0
CIRCLE
  5
19E
100
AcDbEntity
100
AcDbCircle
  8
CONTOUR
 62
256
370
-1
  6
ByLayer
 10
-22.5
 20
0.0
 30
0.0
 40
1.5
  0
CIRCLE
  5
19F
100
AcDbEntity
100
AcDbCircle
  8
CONTOUR
 62
256
370
-1
  6
ByLayer
 10
22.5
 20
0.0
 30
0.0
 40
1.5
  0
LINE
  5
1A0
100
AcDbEntity
100
AcDbLine
  8
CONTOUR
 62
256
370
-1
  6
ByLayer
 10
24.0
 20
-33.699999999999989
 30
0.0
 11
24.0
 21
-31.800000000000011
 31
0.0
  0
LINE
  5
1A1
100
AcDbEntity
100
AcDbLine
  8
CONTOUR
 62
256
370
-1
  6
ByLayer
 10
21.0
 20
-33.699999999999989
 30
0.0
 11
21.0
 21
-31.800000000000011
 31
0.0
  0
LINE
  5
1A2
100
AcDbEntity
100
AcDbLine
  8
CONTOUR
 62
256
370
-1
  6
ByLayer
 10
-21.0
 20
-33.699999999999989
 30
0.0
 11
-21.0
 21
-31.800000000000011
 31
0.0
  0
LINE
  5
1A3
100
AcDbEntity
100
AcDbLine
  8
CONTOUR
 62
256
370
-1
  6
ByLayer
 10
-24.0
 20
-33.699999999999989
 30
0.0
 11
-24.0
 21
-31.800000000000011
 31
0.0
  0
ENDBLK
  5
1A4
100
AcDbEntity
  8
0
100
AcDbBlockEnd
  0
BLOCK
  5
1A5
100
AcDbEntity
  8
0
100
AcDbBlockBegin
  2
6-speed HE side
 70
0
 10
0.0
 20
0.0
 30
0.0
  3
6-speed HE side
  1

  0
LINE
  5
1A6
100
AcDbEntity
100
AcDbLine
  8
CENTER
 62
256
370
-1
  6
ByLayer
 10
13.5
 20
-33.5
 30
0.0
 11
13.5
 21
34.5
 31
0.0
  0
CIRCLE
  5
1A7
100
AcDbEntity
100
AcDbCircle
  8
CONTOUR
 62
256
370
-1
  6
ByLayer
 10
13.5
 20
19.300000000000011
 30
0.0
 40
2.0
  0
CIRCLE
  5
1A8
100
AcDbEntity
100
AcDbCircle
  8
CONTOUR
 62
256
370
-1
  6
ByLayer
 10
13.5
 20
19.300000000000011
 30
0.0
 40
4.0
  0
LINE
  5
1A9
100
AcDbEntity
100
AcDbLine
  8
CONTOUR
 62
256
370
-1
  6
ByLayer
 10
1.7000000000000455
 20
-6.0
 30
0.0
 11
1.7000000000000455
 21
6.0
 31
0.0
  0
LINE
  5
1AA
100
AcDbEntity
100
AcDbLine
  8
CONTOUR
 62
256
370
-1
  6
ByLayer
 10
0.0
 20
6.0
 30
0.0
 11
1.7000000000000455
 21
6.0
 31
0.0
  0
LINE
  5
1AB
100
AcDbEntity
100
AcDbLine
  8
CONTOUR
 62
256
370
-1
  6
ByLayer
 10
0.0
 20
-6.0
 30
0.0
 11
1.7000000000000455
 21
-6.0
 31
0.0
  0
LINE
  5
1AC
100
AcDbEntity
100
AcDbLine
  8
CONTOUR
 62
256
370
-1
  6
ByLayer
 10
0.0
 20
1.5
 30
0.0
 11
1.7000000000000455
 21
1.5
 31
0.0
  0
LINE
  5
1AD
100
AcDbEntity
100
AcDbLine
  8
CONTOUR
 62
256
370
-1
  6
ByLayer
 10
0.0
 20
-1.5
 30
0.0
 11
1.7000000000000455
 21
-1.5
 31
0.0
  0
LINE
  5
1AE
100
AcDbEntity
100
AcDbLine
  8
CENTER
 62
256
370
-1
  6
ByLayer
 10
0.0
 20
0.0
 30
0.0
 11
27.0
 21
0.0
 31
0.0
  0
LINE
  5
1AF
100
AcDbEntity
100
AcDbLine
  8
CENTER
 62
256
370
-1
  6
ByLayer
 10
0.0
 20
6.8000000000000114
 30
0.0
 11
27.0
 21
6.8000000000000114
 31
0.0
  0
CIRCLE
  5
1B0
100
AcDbEntity
100
AcDbCircle
  8
CONTOUR
 62
256
370
-1
  6
ByLayer
 10
13.5
 20
6.8000000000000114
 30
0.0
 40
4.0
  0
CIRCLE
  5
1B1
100
AcDbEntity
100
AcDbCircle
  8
CONTOUR
 62
256
370
-1
  6
ByLayer
 10
4.6611652351681414
 20
15.63883476483187
 30
0.0
 40
4.0
  0
CIRCLE
  5
1B2
100
AcDbEntity
100
AcDbCircle
  8
CONTOUR
 62
256
370
-1
  6
ByLayer
 10
22.338834764831859
 20
15.63883476483187
 30
0.0
 40
4.0
  0
CIRCLE
  5
1B3
100
AcDbEntity
100
AcDbCircle
  8
CONTOUR
 62
256
370
-1
  6
ByLayer
 10
4.6611652351681414
 20
15.63883476483187
 30
0.0
 40
2.0
  0
CIRCLE
  5
1B4
100
AcDbEntity
100
AcDbCircle
  8
CONTOUR
 62
256
370
-1
  6
ByLayer
 10
13.5
 20
6.8000000000000114
 30
0.0
 40
2.0
  0
LINE
  5
1B5
100
AcDbEntity
100
AcDbLine
  8
CENTER
 62
256
370
-1
  6
ByLayer
 10
13.5
 20
6.8000000000000114
 30
0.0
 11
0.0
 21
20.300000000000011
 31
0.0
  0
LINE
  5
1B6
100
AcDbEntity
100
AcDbLine
  8
CENTER
 62
256
370
-1
  6
ByLayer
 10
13.5
 20
6.8000000000000114
 30
0.0
 11
27.0
 21
20.300000000000011
 31
0.0
  0
CIRCLE
  5
1B7
100
AcDbEntity
100
AcDbCircle
  8
CONTOUR
 62
256
370
-1
  6
ByLayer
 10
22.338834764831859
 20
15.63883476483187
 30
0.0
 40
2.0
  0
LINE
  5
1B8
100
AcDbEntity
100
AcDbLine
  8
CENTER
 62
256
370
-1
  6
ByLayer
 10
0.0
 20
-5.6999999999999886
 30
0.0
 11
27.0
 21
-5.6999999999999886
 31
0.0
  0
LINE
  5
1B9
100
AcDbEntity
100
AcDbLine
  8
CENTER
 62
256
370
-1
  6
ByLayer
 10
0.0
 20
-16.699999999999989
 30
0.0
 11
27.0
 21
-16.699999999999989
 31
0.0
  0
CIRCLE
  5
1BA
100
AcDbEntity
100
AcDbCircle
  8
CONTOUR
 62
256
370
-1
  6
ByLayer
 10
13.5
 20
-16.699999999999989
 30
0.0
 40
1.0
  0
CIRCLE
  5
1BB
100
AcDbEntity
100
AcDbCircle
  8
CONTOUR
 62
256
370
-1
  6
ByLayer
 10
13.5
 20
-5.6999999999999886
 30
0.0
 40
1.0
  0
ARC
  5
1BC
100
AcDbEntity
  8
CENTER
 62
7
370
18
  6
DASHDOT
100
AcDbCircle
 10
13.5
 20
6.8000000000000114
 30
0.0
 40
12.5
100
AcDbArc
 50
0.0
 51
180.0
  0
LINE
  5
1BD
100
AcDbEntity
100
AcDbLine
  8
CONTOUR
 62
256
370
-1
  6
ByLayer
 10
7.5
 20
-33.5
 30
0.0
 11
7.5
 21
-31.800000000000011
 31
0.0
  0
LINE
  5
1BE
100
AcDbEntity
100
AcDbLine
  8
CONTOUR
 62
256
370
-1
  6
ByLayer
 10
19.5
 20
-33.5
 30
0.0
 11
19.5
 21
-31.800000000000011
 31
0.0
  0
LINE
  5
1BF
100
AcDbEntity
100
AcDbLine
  8
CONTOUR
 62
256
370
-1
  6
ByLayer
 10
7.5
 20
-31.800000000000011
 30
0.0
 11
19.5
 21
-31.800000000000011
 31
0.0
  0
LINE
  5
1C0
100
AcDbEntity
100
AcDbLine
  8
CONTOUR
 62
256
370
-1
  6
ByLayer
 10
12.0
 20
-33.5
 30
0.0
 11
12.0
 21
-31.800000000000011
 31
0.0
  0
LINE
  5
1C1
100
AcDbEntity
100
AcDbLine
  8
CONTOUR
 62
256
370
-1
  6
ByLayer
 10
15.0
 20
-33.5
 30
0.0
 11
15.0
 21
-31.800000000000011
 31
0.0
  0
LINE
  5
1C2
100
AcDbEntity
100
AcDbLine
  8
CONTOUR
 62
256
370
-1
  6
ByLayer
 10
0.0
 20
-30.5
 30
0.0
 11
0.0
 21
31.5
 31
0.0
  0
LINE
  5
1C3
100
AcDbEntity
100
AcDbLine
  8
CONTOUR
 62
256
370
-1
  6
ByLayer
 10
27.0
 20
-30.5
 30
0.0
 11
27.0
 21
31.5
 31
0.0
  0
LINE
  5
1C4
100
AcDbEntity
100
AcDbLine
  8
CONTOUR
 62
256
370
-1
  6
ByLayer
 10
3.0
 20
-33.5
 30
0.0
 11
24.0
 21
-33.5
 31
0.0
  0
LINE
  5
1C5
100
AcDbEntity
100
AcDbLine
  8
CONTOUR
 62
256
370
-1
  6
ByLayer
 10
3.0
 20
34.5
 30
0.0
 11
24.0
 21
34.5
 31
0.0
  0
ARC
  5
1C6
100
AcDbEntity
  8
CONTOUR
 62
7
370
35
  6
CONTINUOUS
100
AcDbCircle
 10
3.0
 20
31.5
 30
0.0
 40
3.0
100
AcDbArc
 50
90.0
 51
180.0
  0
ARC
  5
1C7
100
AcDbEntity
  8
CONTOUR
 62
7
370
35
  6
CONTINUOUS
100
AcDbCircle
 10
24.0
 20
31.5
 30
0.0
 40
3.0
100
AcDbArc
 50
0.0
 51
90.0
  0
ARC
  5
1C8
100
AcDbEntity
  8
CONTOUR
 62
7
370
35
  6
CONTINUOUS
100
AcDbCircle
 10
3.0
 20
-30.5
 30
0.0
 40
3.0
100
AcDbArc
 50
180.0
 51
270.0
  0
ARC
  5
1C9
100
AcDbEntity
  8
CONTOUR
 62
7
370
35
  6
CONTINUOUS
100
AcDbCircle
 10
24.0
 20
-30.5
 30
0.0
 40
3.0
100
AcDbArc
 50
270.0
 51
0.0
  0
LINE
  5
1CA
100
AcDbEntity
100
AcDbLine
  8
CENTER
 62
256
370
-1
  6
ByLayer
 10
23.5
 20
-33.5
 30
0.0
 11
23.5
 21
34.5
 31
0.0
  0
LINE
  5
1CB
100
AcDbEntity
100
AcDbLine
  8
CENTER
 62
256
370
-1
  6
ByLayer
 10
3.5
 20
-33.5
 30
0.0
 11
3.5
 21
34.5
 31
0.0
  0
LINE
  5
1CC
100
AcDbEntity
100
AcDbLine
  8
CENTER
 62
256
370
-1
  6
ByLayer
 10
2.9999999999999996
 20
31.0
 30
0.0
 11
24.0
 21
31.0
 31
0.0
  0
LINE
  5
1CD
100
AcDbEntity
100
AcDbLine
  8
CENTER
 62
256
370
-1
  6
ByLayer
 10
3.0
 20
-30.0
 30
0.0
 11
24.0
 21
-30.0
 31
0.0
  0
CIRCLE
  5
1CE
100
AcDbEntity
100
AcDbCircle
  8
CONTOUR
 62
256
370
-1
  6
ByLayer
 10
23.5
 20
31.0
 30
0.0
 40
1.5
  0
CIRCLE
  5
1CF
100
AcDbEntity
100
AcDbCircle
  8
CONTOUR
 62
256
370
-1
  6
ByLayer
 10
3.5
 20
31.0
 30
0.0
 40
1.5
  0
CIRCLE
  5
1D0
100
AcDbEntity
100
AcDbCircle
  8
CONTOUR
 62
256
370
-1
  6
ByLayer
 10
3.5
 20
-30.0
 30
0.0
 40
1.5
  0
CIRCLE
  5
1D1
100
AcDbEntity
100
AcDbCircle
  8
CONTOUR
 62
256
370
-1
  6
ByLayer
 10
23.5
 20
-30.0
 30
0.0
 40
1.5
  0
CIRCLE
  5
1D2
100
AcDbEntity
100
AcDbCircle
  8
CONTOUR
 62
256
370
-1
  6
ByLayer
 10
23.5
 20
31.0
 30
0.0
 40
3.0
  0
CIRCLE
  5
1D3
100
AcDbEntity
100
AcDbCircle
  8
CONTOUR
 62
256
370
-1
  6
ByLayer
 10
3.5
 20
31.0
 30
0.0
 40
3.0
  0
CIRCLE
  5
1D4
100
AcDbEntity
100
AcDbCircle
  8
CONTOUR
 62
256
370
-1
  6
ByLayer
 10
3.5
 20
-30.0
 30
0.0
 40
3.0
  0
CIRCLE
  5
1D5
100
AcDbEntity
100
AcDbCircle
  8
CONTOUR
 62
256
370
-1
  6
ByLayer
 10
23.5
 20
-30.0
 30
0.0
 40
3.0
  0
CIRCLE
  5
1D6
100
AcDbEntity
100
AcDbCircle
  8
CONTOUR
 62
256
370
-1
  6
DASHED
 10
13.5
 20
-16.699999999999989
 30
0.0
 40
11.800000000000001
  0
ENDBLK
  5
1D7
100
AcDbEntity
  8
0
100
AcDbBlockEnd
  0
BLOCK
  5
1D8
100
AcDbEntity
  8
0
100
AcDbBlockBegin
  2
twin motor front
 70
0
 10
0.0
 20
0.0
 30
0.0
  3
twin motor front
  1

  0
DIMENSION
  5
1D9
100
AcDbEntity
  8
TEXT
 62
256
370
-1
  6
ByLayer
100
AcDbDimension
 10
24.0
 20
-40.512748284681606
 30
0.0
 11
0.0
 21
-38.637748284681606
 31
0.0
 70
0
 71
5
 72
1
 41
1.0
 42
0.0
  1

  3
Standard
100
AcDbAlignedDimension
 13
-24.0
 23
-40.512748284681606
 33
0.0
 14
24.0
 24
-40.512748284681606
 34
0.0
 50
0.0
100
AcDbRotatedDimension
  0
CIRCLE
  5
1DA
100
AcDbEntity
100
AcDbCircle
  8
CONTOUR
 62
256
370
-1
  6
ByLayer
 10
-24.0
 20
0.0
 30
0.0
 40
1.5
  0
CIRCLE
  5
1DB
100
AcDbEntity
100
AcDbCircle
  8
CONTOUR
 62
256
370
-1
  6
ByLayer
 10
24.0
 20
0.0
 30
0.0
 40
1.5
  0
LINE
  5
1DC
100
AcDbEntity
100
AcDbLine
  8
CONTOUR
 62
256
370
-1
  6
ByLayer
 10
-24.0
 20
24.0
 30
0.0
 11
24.0
 21
24.0
 31
0.0
  0
LINE
  5
1DD
100
AcDbEntity
100
AcDbLine
  8
CENTER
 62
256
370
-1
  6
ByLayer
 10
0.0
 20
-52.0
 30
0.0
 11
0.0
 21
24.0
 31
0.0
  0
LINE
  5
1DE
100
AcDbEntity
100
AcDbLine
  8
CONTOUR
 62
256
370
-1
  6
ByLayer
 10
24.0
 20
17.0
 30
0.0
 11
24.0
 21
24.0
 31
0.0
  0
LINE
  5
1DF
100
AcDbEntity
100
AcDbLine
  8
CONTOUR
 62
256
370
-1
  6
ByLayer
 10
24.0
 20
3.5
 30
0.0
 11
24.0
 21
10.5
 31
0.0
  0
LINE
  5
1E0
100
AcDbEntity
100
AcDbLine
  8
CONTOUR
 62
256
370
-1
  6
ByLayer
 10
-24.0
 20
3.5
 30
0.0
 11
-24.0
 21
10.5
 31
0.0
  0
LINE
  5
1E1
100
AcDbEntity
100
AcDbLine
  8
CONTOUR
 62
256
370
-1
  6
ByLayer
 10
-24.0
 20
17.0
 30
0.0
 11
-24.0
 21
24.0
 31
0.0
  0
LINE
  5
1E2
100
AcDbEntity
100
AcDbLine
  8
CONTOUR
 62
256
370
-1
  6
ByLayer
 10
-24.0
 20
17.0
 30
0.0
 11
-22.199999999999989
 21
17.0
 31
0.0
  0
LINE
  5
1E3
100
AcDbEntity
100
AcDbLine
  8
CONTOUR
 62
256
370
-1
  6
ByLayer
 10
22.200000000000045
 20
17.0
 30
0.0
 11
24.0
 21
17.0
 31
0.0
  0
LINE
  5
1E4
100
AcDbEntity
100
AcDbLine
  8
CONTOUR
 62
256
370
-1
  6
ByLayer
 10
-24.0
 20
10.5
 30
0.0
 11
-22.199999999999989
 21
10.5
 31
0.0
  0
LINE
  5
1E5
100
AcDbEntity
100
AcDbLine
  8
CONTOUR
 62
256
370
-1
  6
ByLayer
 10
22.200000000000045
 20
10.5
 30
0.0
 11
24.0
 21
10.5
 31
0.0
  0
LINE
  5
1E6
100
AcDbEntity
100
AcDbLine
  8
CONTOUR
 62
256
370
-1
  6
ByLayer
 10
22.200000000000045
 20
3.5
 30
0.0
 11
24.0
 21
3.5
 31
0.0
  0
LINE
  5
1E7
100
AcDbEntity
100
AcDbLine
  8
CONTOUR
 62
256
370
-1
  6
ByLayer
 10
-24.0
 20
3.5
 30
0.0
 11
-22.199999999999989
 21
3.5
 31
0.0
  0
ARC
  5
1E8
100
AcDbEntity
  8
CONTOUR
 62
7
370
35
  6
CONTINUOUS
100
AcDbCircle
 10
-24.0
 20
0.0
 30
0.0
 40
5.0
100
AcDbArc
 50
90.0
 51
270.0
  0
ARC
  5
1E9
100
AcDbEntity
  8
CONTOUR
 62
7
370
35
  6
CONTINUOUS
100
AcDbCircle
 10
24.0
 20
0.0
 30
0.0
 40
5.0
100
AcDbArc
 50
270.0
 51
90.0
  0
LINE
  5
1EA
100
AcDbEntity
100
AcDbLine
  8
CONTOUR
 62
256
370
-1
  6
ByLayer
 10
22.200000000000045
 20
5.0
 30
0.0
 11
24.0
 21
5.0
 31
0.0
  0
LINE
  5
1EB
100
AcDbEntity
100
AcDbLine
  8
CONTOUR
 62
256
370
-1
  6
ByLayer
 10
-24.0
 20
5.0
 30
0.0
 11
-22.199999999999989
 21
5.0
 31
0.0
  0
LINE
  5
1EC
100
AcDbEntity
100
AcDbLine
  8
CONTOUR
 62
256
370
-1
  6
ByLayer
 10
-24.0
 20
-5.0
 30
0.0
 11
-22.199999999999989
 21
-5.0
 31
0.0
  0
LINE
  5
1ED
100
AcDbEntity
100
AcDbLine
  8
CONTOUR
 62
256
370
-1
  6
ByLayer
 10
22.200000000000045
 20
-5.0
 30
0.0
 11
24.0
 21
-5.0
 31
0.0
  0
LINE
  5
1EE
100
AcDbEntity
100
AcDbLine
  8
CENTER
 62
256
370
-1
  6
ByLayer
 10
24.0
 20
-52.0
 30
0.0
 11
24.0
 21
24.0
 31
0.0
  0
LINE
  5
1EF
100
AcDbEntity
100
AcDbLine
  8
CENTER
 62
256
370
-1
  6
ByLayer
 10
-24.0
 20
-52.0
 30
0.0
 11
-24.0
 21
24.0
 31
0.0
  0
LINE
  5
1F0
100
AcDbEntity
100
AcDbLine
  8
CONTOUR
 62
256
370
-1
  6
ByLayer
 10
-22.199999999999989
 20
-8.0
 30
0.0
 11
22.200000000000045
 21
-8.0
 31
0.0
  0
LINE
  5
1F1
100
AcDbEntity
100
AcDbLine
  8
CONTOUR
 62
256
370
-1
  6
ByLayer
 10
-22.199999999999989
 20
-5.0
 30
0.0
 11
22.200000000000045
 21
-5.0
 31
0.0
  0
LINE
  5
1F2
100
AcDbEntity
100
AcDbLine
  8
CONTOUR
 62
256
370
-1
  6
ByLayer
 10
-24.0
 20
8.5
 30
0.0
 11
24.0
 21
8.5
 31
0.0
  0
LINE
  5
1F3
100
AcDbEntity
100
AcDbLine
  8
CONTOUR
 62
256
370
-1
  6
ByLayer
 10
-24.0
 20
5.5
 30
0.0
 11
24.0
 21
5.5
 31
0.0
  0
LINE
  5
1F4
100
AcDbEntity
100
AcDbLine
  8
CENTER
 62
256
370
-1
  6
ByLayer
 10
-24.0
 20
7.0
 30
0.0
 11
24.0
 21
7.0
 31
0.0
  0
LINE
  5
1F5
100
AcDbEntity
100
AcDbLine
  8
CENTER
 62
256
370
-1
  6
ByLayer
 10
-24.0
 20
20.5
 30
0.0
 11
24.0
 21
20.5
 31
0.0
  0
LINE
  5
1F6
100
AcDbEntity
100
AcDbLine
  8
CONTOUR
 62
256
370
-1
  6
ByLayer
 10
-24.0
 20
22.0
 30
0.0
 11
24.0
 21
22.0
 31
0.0
  0
LINE
  5
1F7
100
AcDbEntity
100
AcDbLine
  8
CONTOUR
 62
256
370
-1
  6
ByLayer
 10
-24.0
 20
19.0
 30
0.0
 11
24.0
 21
19.0
 31
0.0
  0
LINE
  5
1F8
100
AcDbEntity
100
AcDbLine
  8
CENTER
 62
256
370
-1
  6
ByLayer
 10
-29.0
 20
0.0
 30
0.0
 11
29.0
 21
0.0
 31
0.0
  0
LINE
  5
1F9
100
AcDbEntity
100
AcDbLine
  8
CENTER
 62
256
370
-1
  6
ByLayer
 10
-22.199999999999989
 20
-6.5
 30
0.0
 11
22.200000000000045
 21
-6.5
 31
0.0
  0
LINE
  5
1FA
100
AcDbEntity
100
AcDbLine
  8
CONTOUR
 62
256
370
-1
  6
ByLayer
 10
-22.199999999999989
 20
-16.0
 30
0.0
 11
-22.199999999999989
 21
24.0
 31
0.0
  0
LINE
  5
1FB
100
AcDbEntity
100
AcDbLine
  8
CONTOUR
 62
256
370
-1
  6
ByLayer
 10
22.200000000000045
 20
-16.0
 30
0.0
 11
22.200000000000045
 21
24.0
 31
0.0
  0
LINE
  5
1FC
100
AcDbEntity
100
AcDbLine
  8
CONTOUR
 62
256
370
-1
  6
ByLayer
 10
19.5
 20
-52.0
 30
0.0
 11
19.5
 21
-16.0
 31
0.0
  0
LINE
  5
1FD
100
AcDbEntity
100
AcDbLine
  8
CONTOUR
 62
256
370
-1
  6
ByLayer
 10
-19.5
 20
-52.0
 30
0.0
 11
-19.5
 21
-16.0
 31
0.0
  0
LINE
  5
1FE
100
AcDbEntity
100
AcDbLine
  8
CONTOUR
 62
256
370
-1
  6
ByLayer
 10
-19.5
 20
-52.0
 30
0.0
 11
19.5
 21
-52.0
 31
0.0
  0
LINE
  5
1FF
100
AcDbEntity
100
AcDbLine
  8
CONTOUR
 62
256
370
-1
  6
ByLayer
 10
-22.199999999999989
 20
-16.0
 30
0.0
 11
22.200000000000045
 21
-16.0
 31
0.0
  0
ENDBLK
  5
200
100
AcDbEntity
  8
0
100
AcDbBlockEnd
  0
BLOCK
  5
201
100
AcDbEntity
  8
0
100
AcDbBlockBegin
  2
twin motor side
 70
0
 10
0.0
 20
0.0
 30
0.0
  3
twin motor side
  1

  0
LINE
  5
202
100
AcDbEntity
100
AcDbLine
  8
CONTOUR
 62
256
370
-1
  6
ByLayer
 10
0.0
 20
-52.0
 30
0.0
 11
23.200000000000045
 21
-52.0
 31
0.0
  0
CIRCLE
  5
203
100
AcDbEntity
100
AcDbCircle
  8
CONTOUR
 62
256
370
-1
  6
ByLayer
 10
11.5
 20
7.0
 30
0.0
 40
1.5
  0
CIRCLE
  5
204
100
AcDbEntity
100
AcDbCircle
  8
CONTOUR
 62
256
370
-1
  6
ByLayer
 10
11.5
 20
7.0
 30
0.0
 40
3.5
  0
CIRCLE
  5
205
100
AcDbEntity
100
AcDbCircle
  8
CONTOUR
 62
256
370
-1
  6
ByLayer
 10
11.5
 20
20.5
 30
0.0
 40
3.5
  0
CIRCLE
  5
206
100
AcDbEntity
100
AcDbCircle
  8
CONTOUR
 62
256
370
-1
  6
ByLayer
 10
11.5
 20
-6.5
 30
0.0
 40
1.5
  0
CIRCLE
  5
207
100
AcDbEntity
100
AcDbCircle
  8
CONTOUR
 62
256
370
-1
  6
ByLayer
 10
11.5
 20
20.5
 30
0.0
 40
1.5
  0
LINE
  5
208
100
AcDbEntity
100
AcDbLine
  8
CONTOUR
 62
256
370
-1
  6
ByLayer
 10
0.0
 20
5.0
 30
0.0
 11
2.0
 21
5.0
 31
0.0
  0
LINE
  5
209
100
AcDbEntity
100
AcDbLine
  8
CONTOUR
 62
256
370
-1
  6
ByLayer
 10
0.0
 20
1.5
 30
0.0
 11
2.0
 21
1.5
 31
0.0
  0
LINE
  5
20A
100
AcDbEntity
100
AcDbLine
  8
CONTOUR
 62
256
370
-1
  6
ByLayer
 10
0.0
 20
-1.5
 30
0.0
 11
2.0
 21
-1.5
 31
0.0
  0
LINE
  5
20B
100
AcDbEntity
100
AcDbLine
  8
CONTOUR
 62
256
370
-1
  6
ByLayer
 10
0.0
 20
-5.0
 30
0.0
 11
2.0
 21
-5.0
 31
0.0
  0
LINE
  5
20C
100
AcDbEntity
100
AcDbLine
  8
CONTOUR
 62
256
370
-1
  6
ByLayer
 10
2.0
 20
-5.0
 30
0.0
 11
2.0
 21
5.0
 31
0.0
  0
LINE
  5
20D
100
AcDbEntity
100
AcDbLine
  8
CENTER
 62
256
370
-1
  6
ByLayer
 10
11.5
 20
-52.0
 30
0.0
 11
11.5
 21
24.0
 31
0.0
  0
LINE
  5
20E
100
AcDbEntity
100
AcDbLine
  8
CENTER
 62
256
370
-1
  6
ByLayer
 10
0.1000000000000227
 20
7.0
 30
0.0
 11
23.200000000000045
 21
7.0
 31
0.0
  0
LINE
  5
20F
100
AcDbEntity
100
AcDbLine
  8
CENTER
 62
256
370
-1
  6
ByLayer
 10
0.1000000000000227
 20
-6.5
 30
0.0
 11
23.200000000000045
 21
-6.5
 31
0.0
  0
LINE
  5
210
100
AcDbEntity
100
AcDbLine
  8
CENTER
 62
256
370
-1
  6
ByLayer
 10
0.0
 20
0.0
 30
0.0
 11
23.200000000000045
 21
0.0
 31
0.0
  0
CIRCLE
  5
211
100
AcDbEntity
100
AcDbCircle
  8
CONTOUR
 62
256
370
-1
  6
ByLayer
 10
3.5
 20
17.874281585465724
 30
0.0
 40
3.5
  0
CIRCLE
  5
212
100
AcDbEntity
100
AcDbCircle
  8
CONTOUR
 62
256
370
-1
  6
ByLayer
 10
3.5
 20
17.874281585465724
 30
0.0
 40
1.5
  0
LINE
  5
213
100
AcDbEntity
100
AcDbLine
  8
CENTER
 62
256
370
-1
  6
ByLayer
 10
3.5
 20
-52.0
 30
0.0
 11
3.5
 21
24.0
 31
0.0
  0
CIRCLE
  5
214
100
AcDbEntity
100
AcDbCircle
  8
CONTOUR
 62
256
370
-1
  6
ByLayer
 10
19.700000000000045
 20
17.724271537032223
 30
0.0
 40
3.5
  0
LINE
  5
215
100
AcDbEntity
100
AcDbLine
  8
CONTOUR
 62
256
370
-1
  6
ByLayer
 10
0.0
 20
-52.0
 30
0.0
 11
0.0
 21
17.874281585465724
 31
0.0
  0
LINE
  5
216
100
AcDbEntity
100
AcDbLine
  8
CONTOUR
 62
256
370
-1
  6
ByLayer
 10
23.200000000000045
 20
-52.0
 30
0.0
 11
23.200000000000045
 21
17.724271537032223
 31
0.0
  0
LINE
  5
217
100
AcDbEntity
100
AcDbLine
  8
CONTOUR
 62
256
370
-1
  6
ByLayer
 10
2.4085339356822715
 20
21.199744234548234
 30
0.0
 11
10.408533935682271
 21
23.82546264908251
 31
0.0
  0
LINE
  5
218
100
AcDbEntity
100
AcDbLine
  8
CONTOUR
 62
256
370
-1
  6
ByLayer
 10
12.622211336658211
 20
23.815213675749362
 30
0.0
 11
20.822211336658256
 21
21.039485212781585
 31
0.0
  0
ARC
  5
219
100
AcDbEntity
  8
CENTER
 62
7
370
18
  6
DASHDOT
100
AcDbCircle
 10
11.5
 20
7.0
 30
0.0
 40
13.5
100
AcDbArc
 50
37.701342078751097
 51
141.23758421586732
  0
LINE
  5
21A
100
AcDbEntity
100
AcDbLine
  8
CONTOUR
 62
256
370
-1
  6
ByLayer
 10
0.0
 20
-16.0
 30
0.0
 11
23.200000000000045
 21
-16.0
 31
0.0
  0
ENDBLK
  5
21B
100
AcDbEntity
  8
0
100
AcDbBlockEnd
  0
BLOCK
  5
21C
100
AcDbEntity
  8
0
100
AcDbBlockBegin
  2
4-speed crank front
 70
0
 10
0.0
 20
0.0
 30
0.0
  3
4-speed crank front
  1

  0
LINE
  5
21D
100
AcDbEntity
100
AcDbLine
  8
CENTER
 62
256
370
-1
  6
ByLayer
 10
-15.0
 20
-33.930563475439953
 30
0.0
 11
-15.0
 21
36.069436524560047
 31
0.0
  0
LINE
  5
21E
100
AcDbEntity
100
AcDbLine
  8
CENTER
 62
256
370
-1
  6
ByLayer
 10
15.0
 20
-33.930563475439953
 30
0.0
 11
15.0
 21
36.069436524560047
 31
0.0
  0
CIRCLE
  5
21F
100
AcDbEntity
100
AcDbCircle
  8
CONTOUR
 62
256
370
-1
  6
ByLayer
 10
-15.0
 20
0.0
 30
0.0
 40
1.5
  0
CIRCLE
  5
220
100
AcDbEntity
100
AcDbCircle
  8
CONTOUR
 62
256
370
-1
  6
ByLayer
 10
15.0
 20
0.0
 30
0.0
 40
1.5
  0
DIMENSION
  5
221
100
AcDbEntity
  8
TEXT
 62
256
370
-1
  6
ByLayer
100
AcDbDimension
 10
15.0
 20
-15.130563475439999
 30
0.0
 11
0.0
 21
-13.255563475439999
 31
0.0
 70
0
 71
5
 72
1
 41
1.0
 42
0.0
  1

  3
Standard
100
AcDbAlignedDimension
 13
-15.0
 23
-15.130563475439999
 33
0.0
 14
15.0
 24
-15.130563475439999
 34
0.0
 50
0.0
100
AcDbRotatedDimension
  0
ARC
  5
222
100
AcDbEntity
  8
CONTOUR
 62
7
370
35
  6
CONTINUOUS
100
AcDbCircle
 10
-15.0
 20
0.0
 30
0.0
 40
3.5
100
AcDbArc
 50
90.0
 51
270.0
  0
ARC
  5
223
100
AcDbEntity
  8
CONTOUR
 62
7
370
35
  6
CONTINUOUS
100
AcDbCircle
 10
15.0
 20
0.0
 30
0.0
 40
3.5
100
AcDbArc
 50
270.0
 51
90.0
  0
LINE
  5
224
100
AcDbEntity
100
AcDbLine
  8
CONTOUR
 62
256
370
-1
  6
ByLayer
 10
-15.0
 20
3.5
 30
0.0
 11
-11.5
 21
3.5
 31
0.0
  0
LINE
  5
225
100
AcDbEntity
100
AcDbLine
  8
CONTOUR
 62
256
370
-1
  6
ByLayer
 10
-11.5
 20
-3.5
 30
0.0
 11
-15.0
 21
-3.5
 31
0.0
  0
LINE
  5
226
100
AcDbEntity
100
AcDbLine
  8
CONTOUR
 62
256
370
-1
  6
ByLayer
 10
12.0
 20
3.5
 30
0.0
 11
15.0
 21
3.5
 31
0.0
  0
LINE
  5
227
100
AcDbEntity
100
AcDbLine
  8
CONTOUR
 62
256
370
-1
  6
ByLayer
 10
15.0
 20
-3.5
 30
0.0
 11
12.0
 21
-3.5
 31
0.0
  0
LINE
  5
228
100
AcDbEntity
100
AcDbLine
  8
CONTOUR
 62
256
370
-1
  6
ByLayer
 10
-13.5
 20
28.5
 30
0.0
 11
-11.5
 21
28.5
 31
0.0
  0
LINE
  5
229
100
AcDbEntity
100
AcDbLine
  8
CONTOUR
 62
256
370
-1
  6
ByLayer
 10
12.0
 20
28.5
 30
0.0
 11
12.5
 21
28.5
 31
0.0
  0
LINE
  5
22A
100
AcDbEntity
100
AcDbLine
  8
CONTOUR
 62
256
370
-1
  6
ByLayer
 10
12.0
 20
21.5
 30
0.0
 11
12.5
 21
21.5
 31
0.0
  0
LINE
  5
22B
100
AcDbEntity
100
AcDbLine
  8
CONTOUR
 62
256
370
-1
  6
ByLayer
 10
-13.5
 20
26.5
 30
0.0
 11
12.5
 21
26.5
 31
0.0
  0
LINE
  5
22C
100
AcDbEntity
100
AcDbLine
  8
CENTER
 62
256
370
-1
  6
ByLayer
 10
-13.5
 20
25.0
 30
0.0
 11
12.5
 21
25.0
 31
0.0
  0
LINE
  5
22D
100
AcDbEntity
100
AcDbLine
  8
CONTOUR
 62
256
370
-1
  6
ByLayer
 10
-13.5
 20
23.5
 30
0.0
 11
12.5
 21
23.5
 31
0.0
  0
LINE
  5
22E
100
AcDbEntity
100
AcDbLine
  8
CONTOUR
 62
256
370
-1
  6
ByLayer
 10
-13.5
 20
21.5
 30
0.0
 11
-11.5
 21
21.5
 31
0.0
  0
LINE
  5
22F
100
AcDbEntity
100
AcDbLine
  8
CONTOUR
 62
256
370
-1
  6
ByLayer
 10
-13.5
 20
21.5
 30
0.0
 11
-13.5
 21
28.5
 31
0.0
  0
LINE
  5
230
100
AcDbEntity
100
AcDbLine
  8
CONTOUR
 62
256
370
-1
  6
ByLayer
 10
12.5
 20
21.5
 30
0.0
 11
12.5
 21
28.5
 31
0.0
  0
LINE
  5
231
100
AcDbEntity
100
AcDbLine
  8
CENTER
 62
256
370
-1
  6
ByLayer
 10
0.0
 20
-36.799999999999955
 30
0.0
 11
0.0
 21
36.069436524560047
 31
0.0
  0
LINE
  5
232
100
AcDbEntity
100
AcDbLine
  8
CENTER
 62
256
370
-1
  6
ByLayer
 10
-18.5
 20
0.0
 30
0.0
 11
18.5
 21
0.0
 31
0.0
  0
LINE
  5
233
100
AcDbEntity
100
AcDbLine
  8
CONTOUR
 62
256
370
-1
  6
ByLayer
 10
-13.5
 20
36.0
 30
0.0
 11
12.5
 21
36.0
 31
0.0
  0
LINE
  5
234
100
AcDbEntity
100
AcDbLine
  8
CONTOUR
 62
256
370
-1
  6
ByLayer
 10
12.0
 20
-38.0
 30
0.0
 11
12.0
 21
36.0
 31
0.0
  0
LINE
  5
235
100
AcDbEntity
100
AcDbLine
  8
CENTER
 62
256
370
-1
  6
ByLayer
 10
-13.5
 20
16.0
 30
0.0
 11
12.5
 21
16.0
 31
0.0
  0
LINE
  5
236
100
AcDbEntity
100
AcDbLine
  8
CONTOUR
 62
256
370
-1
  6
ByLayer
 10
-13.5
 20
19.5
 30
0.0
 11
-11.5
 21
19.5
 31
0.0
  0
LINE
  5
237
100
AcDbEntity
100
AcDbLine
  8
CONTOUR
 62
256
370
-1
  6
ByLayer
 10
12.0
 20
19.5
 30
0.0
 11
12.5
 21
19.5
 31
0.0
  0
LINE
  5
238
100
AcDbEntity
100
AcDbLine
  8
CONTOUR
 62
256
370
-1
  6
ByLayer
 10
12.0
 20
12.5
 30
0.0
 11
12.5
 21
12.5
 31
0.0
  0
LINE
  5
239
100
AcDbEntity
100
AcDbLine
  8
CONTOUR
 62
256
370
-1
  6
ByLayer
 10
-13.5
 20
17.5
 30
0.0
 11
12.5
 21
17.5
 31
0.0
  0
LINE
  5
23A
100
AcDbEntity
100
AcDbLine
  8
CONTOUR
 62
256
370
-1
  6
ByLayer
 10
-13.5
 20
14.5
 30
0.0
 11
12.5
 21
14.5
 31
0.0
  0
LINE
  5
23B
100
AcDbEntity
100
AcDbLine
  8
CONTOUR
 62
256
370
-1
  6
ByLayer
 10
-13.5
 20
12.5
 30
0.0
 11
-11.5
 21
12.5
 31
0.0
  0
LINE
  5
23C
100
AcDbEntity
100
AcDbLine
  8
CONTOUR
 62
256
370
-1
  6
ByLayer
 10
-13.5
 20
12.5
 30
0.0
 11
-13.5
 21
19.5
 31
0.0
  0
LINE
  5
23D
100
AcDbEntity
100
AcDbLine
  8
CONTOUR
 62
256
370
-1
  6
ByLayer
 10
12.5
 20
12.5
 30
0.0
 11
12.5
 21
19.5
 31
0.0
  0
LINE
  5
23E
100
AcDbEntity
100
AcDbLine
  8
CONTOUR
 62
256
370
-1
  6
ByLayer
 10
-11.5
 20
-9.0
 30
0.0
 11
12.0
 21
-9.0
 31
0.0
  0
LINE
  5
23F
100
AcDbEntity
100
AcDbLine
  8
CONTOUR
 62
256
370
-1
  6
ByLayer
 10
-8.0
 20
-38.0
 30
0.0
 11
12.0
 21
-38.0
 31
0.0
  0
LINE
  5
240
100
AcDbEntity
100
AcDbLine
  8
CONTOUR
 62
256
370
-1
  6
ByLayer
 10
-8.0
 20
-38.0
 30
0.0
 11
-8.0
 21
-9.0
 31
0.0
  0
LINE
  5
241
100
AcDbEntity
100
AcDbLine
  8
CONTOUR
 62
256
370
-1
  6
ByLayer
 10
-11.5
 20
-9.0
 30
0.0
 11
-11.5
 21
36.0
 31
0.0
  0
ENDBLK
  5
242
100
AcDbEntity
  8
0
100
AcDbBlockEnd
  0
BLOCK
  5
243
100
AcDbEntity
  8
0
100
AcDbBlockBegin
  2
4-speed crank side
 70
0
 10
0.0
 20
0.0
 30
0.0
  3
4-speed crank side
  1

  0
CIRCLE
  5
244
100
AcDbEntity
100
AcDbCircle
  8
CONTOUR
 62
256
370
-1
  6
ByLayer
 10
11.5
 20
25.0
 30
0.0
 40
1.5
  0
CIRCLE
  5
245
100
AcDbEntity
100
AcDbCircle
  8
CONTOUR
 62
256
370
-1
  6
ByLayer
 10
11.5
 20
25.0
 30
0.0
 40
3.5
  0
LINE
  5
246
100
AcDbEntity
100
AcDbLine
  8
CENTER
 62
256
370
-1
  6
ByLayer
 10
11.5
 20
-36.799999999999955
 30
0.0
 11
11.5
 21
36.069436524560047
 31
0.0
  0
LINE
  5
247
100
AcDbEntity
100
AcDbLine
  8
CENTER
 62
256
370
-1
  6
ByLayer
 10
0.0
 20
25.0
 30
0.0
 11
33.200000000000045
 21
25.0
 31
0.0
  0
LINE
  5
248
100
AcDbEntity
100
AcDbLine
  8
CENTER
 62
256
370
-1
  6
ByLayer
 10
0.0
 20
0.0
 30
0.0
 11
33.200000000000045
 21
0.0
 31
0.0
  0
LINE
  5
249
100
AcDbEntity
100
AcDbLine
  8
CONTOUR
 62
256
370
-1
  6
ByLayer
 10
0.0
 20
36.0
 30
0.0
 11
33.200000000000045
 21
36.0
 31
0.0
  0
LINE
  5
24A
100
AcDbEntity
100
AcDbLine
  8
CONTOUR
 62
256
370
-1
  6
ByLayer
 10
0.0
 20
-38.0
 30
0.0
 11
0.0
 21
36.0
 31
0.0
  0
LINE
  5
24B
100
AcDbEntity
100
AcDbLine
  8
CENTER
 62
256
370
-1
  6
ByLayer
 10
0.0
 20
16.0
 30
0.0
 11
33.200000000000045
 21
16.0
 31
0.0
  0
LINE
  5
24C
100
AcDbEntity
100
AcDbLine
  8
CENTER
 62
256
370
-1
  6
ByLayer
 10
22.0
 20
-36.799999999999955
 30
0.0
 11
22.0
 21
36.069436524560047
 31
0.0
  0
CIRCLE
  5
24D
100
AcDbEntity
100
AcDbCircle
  8
CONTOUR
 62
256
370
-1
  6
ByLayer
 10
22.0
 20
16.0
 30
0.0
 40
1.5
  0
CIRCLE
  5
24E
100
AcDbEntity
100
AcDbCircle
  8
CONTOUR
 62
256
370
-1
  6
ByLayer
 10
22.0
 20
16.0
 30
0.0
 40
3.5
  0
LINE
  5
24F
100
AcDbEntity
100
AcDbLine
  8
CONTOUR
 62
256
370
-1
  6
ByLayer
 10
0.0
 20
-9.0
 30
0.0
 11
33.200000000000045
 21
-9.0
 31
0.0
  0
CIRCLE
  5
250
100
AcDbEntity
100
AcDbCircle
  8
CONTOUR
 62
256
370
-1
  6
ByLayer
 10
25.5
 20
-16.0
 30
0.0
 40
2.5
  0
LINE
  5
251
100
AcDbEntity
100
AcDbLine
  8
CONTOUR
 62
256
370
-1
  6
ByLayer
 10
33.200000000000045
 20
-9.0
 30
0.0
 11
33.200000000000045
 21
36.0
 31
0.0
  0
LINE
  5
252
100
AcDbEntity
100
AcDbLine
  8
CONTOUR
 62
256
370
-1
  6
ByLayer
 10
23.0
 20
-38.0
 30
0.0
 11
23.0
 21
-9.0
 31
0.0
  0
LINE
  5
253
100
AcDbEntity
100
AcDbLine
  8
CONTOUR
 62
256
370
-1
  6
ByLayer
 10
0.0
 20
-38.0
 30
0.0
 11
23.0
 21
-38.0
 31
0.0
  0
LINE
  5
254
100
AcDbEntity
100
AcDbLine
  8
CONTOUR
 62
256
370
-1
  6
ByLayer
 10
0.0
 20
3.5
 30
0.0
 11
2.0
 21
3.5
 31
0.0
  0
LINE
  5
255
100
AcDbEntity
100
AcDbLine
  8
CONTOUR
 62
256
370
-1
  6
ByLayer
 10
0.0
 20
1.5
 30
0.0
 11
2.0
 21
1.5
 31
0.0
  0
LINE
  5
256
100
AcDbEntity
100
AcDbLine
  8
CONTOUR
 62
256
370
-1
  6
ByLayer
 10
0.0
 20
-1.5
 30
0.0
 11
2.0
 21
-1.5
 31
0.0
  0
LINE
  5
257
100
AcDbEntity
100
AcDbLine
  8
CONTOUR
 62
256
370
-1
  6
ByLayer
 10
0.0
 20
-3.5
 30
0.0
 11
2.0
 21
-3.5
 31
0.0
  0
LINE
  5
258
100
AcDbEntity
100
AcDbLine
  8
CONTOUR
 62
256
370
-1
  6
ByLayer
 10
2.0
 20
-3.5
 30
0.0
 11
2.0
 21
3.5
 31
0.0
  0
ENDBLK
  5
259
100
AcDbEntity
  8
0
100
AcDbBlockEnd
  0
BLOCK
  5
25A
100
AcDbEntity
  8
0
100
AcDbBlockBegin
  2
double gear box front
 70
0
 10
0.0
 20
0.0
 30
0.0
  3
double gear box front
  1

  0
CIRCLE
  5
25B
100
AcDbEntity
100
AcDbCircle
  8
CONTOUR
 62
256
370
-1
  6
ByLayer
 10
-30.0
 20
0.0
 30
0.0
 40
1.5
  0
CIRCLE
  5
25C
100
AcDbEntity
100
AcDbCircle
  8
CONTOUR
 62
256
370
-1
  6
ByLayer
 10
30.0
 20
0.0
 30
0.0
 40
1.5
  0
LINE
  5
25D
100
AcDbEntity
100
AcDbLine
  8
CENTER
 62
256
370
-1
  6
ByLayer
 10
-30.0
 20
-51.079528589215045
 30
0.0
 11
-30.0
 21
18.920471410784955
 31
0.0
  0
LINE
  5
25E
100
AcDbEntity
100
AcDbLine
  8
CENTER
 62
256
370
-1
  6
ByLayer
 10
30.0
 20
-51.079528589215045
 30
0.0
 11
30.0
 21
18.920471410784955
 31
0.0
  0
DIMENSION
  5
25F
100
AcDbEntity
  8
TEXT
 62
256
370
-1
  6
ByLayer
100
AcDbDimension
 10
30.0
 20
-47.120471410784944
 30
0.0
 11
0.0
 21
-45.245471410784944
 31
0.0
 70
0
 71
5
 72
1
 41
1.0
 42
0.0
  1

  3
Standard
100
AcDbAlignedDimension
 13
-30.0
 23
-47.120471410784944
 33
0.0
 14
30.0
 24
-47.120471410784944
 34
0.0
 50
0.0
100
AcDbRotatedDimension
  0
LINE
  5
260
100
AcDbEntity
100
AcDbLine
  8
CONTOUR
 62
256
370
-1
  6
ByLayer
 10
-20.0
 20
-51.0
 30
0.0
 11
-20.0
 21
-20.0
 31
0.0
  0
LINE
  5
261
100
AcDbEntity
100
AcDbLine
  8
CONTOUR
 62
256
370
-1
  6
ByLayer
 10
20.0
 20
-51.0
 30
0.0
 11
20.0
 21
-20.0
 31
0.0
  0
LINE
  5
262
100
AcDbEntity
100
AcDbLine
  8
CENTER
 62
256
370
-1
  6
ByLayer
 10
0.0
 20
-51.079528589215045
 30
0.0
 11
0.0
 21
18.920471410784955
 31
0.0
  0
LINE
  5
263
100
AcDbEntity
100
AcDbLine
  8
CONTOUR
 62
256
370
-1
  6
ByLayer
 10
-20.0
 20
-51.0
 30
0.0
 11
20.0
 21
-51.0
 31
0.0
  0
LINE
  5
264
100
AcDbEntity
100
AcDbLine
  8
CONTOUR
 62
256
370
-1
  6
ByLayer
 10
-27.0
 20
-20.0
 30
0.0
 11
27.0
 21
-20.0
 31
0.0
  0
LINE
  5
265
100
AcDbEntity
100
AcDbLine
  8
CONTOUR
 62
256
370
-1
  6
ByLayer
 10
-27.0
 20
19.0
 30
0.0
 11
27.0
 21
19.0
 31
0.0
  0
LINE
  5
266
100
AcDbEntity
100
AcDbLine
  8
CONTOUR
 62
256
370
-1
  6
ByLayer
 10
-29.0
 20
2.5
 30
0.0
 11
-29.0
 21
9.5
 31
0.0
  0
LINE
  5
267
100
AcDbEntity
100
AcDbLine
  8
CONTOUR
 62
256
370
-1
  6
ByLayer
 10
-29.0
 20
-9.5
 30
0.0
 11
-29.0
 21
-2.5
 31
0.0
  0
LINE
  5
268
100
AcDbEntity
100
AcDbLine
  8
CONTOUR
 62
256
370
-1
  6
ByLayer
 10
29.0
 20
-9.5
 30
0.0
 11
29.0
 21
-2.5
 31
0.0
  0
LINE
  5
269
100
AcDbEntity
100
AcDbLine
  8
CONTOUR
 62
256
370
-1
  6
ByLayer
 10
29.0
 20
2.5
 30
0.0
 11
29.0
 21
9.5
 31
0.0
  0
LINE
  5
26A
100
AcDbEntity
100
AcDbLine
  8
CONTOUR
 62
256
370
-1
  6
ByLayer
 10
27.0
 20
9.5
 30
0.0
 11
29.0
 21
9.5
 31
0.0
  0
LINE
  5
26B
100
AcDbEntity
100
AcDbLine
  8
CONTOUR
 62
256
370
-1
  6
ByLayer
 10
-29.0
 20
9.5
 30
0.0
 11
-27.0
 21
9.5
 31
0.0
  0
LINE
  5
26C
100
AcDbEntity
100
AcDbLine
  8
CONTOUR
 62
256
370
-1
  6
ByLayer
 10
-29.0
 20
-9.5
 30
0.0
 11
-27.0
 21
-9.5
 31
0.0
  0
LINE
  5
26D
100
AcDbEntity
100
AcDbLine
  8
CONTOUR
 62
256
370
-1
  6
ByLayer
 10
27.0
 20
-9.5
 30
0.0
 11
29.0
 21
-9.5
 31
0.0
  0
LINE
  5
26E
100
AcDbEntity
100
AcDbLine
  8
CONTOUR
 62
256
370
-1
  6
ByLayer
 10
27.0
 20
2.5
 30
0.0
 11
29.0
 21
2.5
 31
0.0
  0
LINE
  5
26F
100
AcDbEntity
100
AcDbLine
  8
CONTOUR
 62
256
370
-1
  6
ByLayer
 10
27.0
 20
-2.5
 30
0.0
 11
29.0
 21
-2.5
 31
0.0
  0
LINE
  5
270
100
AcDbEntity
100
AcDbLine
  8
CONTOUR
 62
256
370
-1
  6
ByLayer
 10
-29.0
 20
7.5
 30
0.0
 11
29.0
 21
7.5
 31
0.0
  0
LINE
  5
271
100
AcDbEntity
100
AcDbLine
  8
CONTOUR
 62
256
370
-1
  6
ByLayer
 10
-29.0
 20
4.5
 30
0.0
 11
29.0
 21
4.5
 31
0.0
  0
LINE
  5
272
100
AcDbEntity
100
AcDbLine
  8
CONTOUR
 62
256
370
-1
  6
ByLayer
 10
-29.0
 20
2.5
 30
0.0
 11
-27.0
 21
2.5
 31
0.0
  0
LINE
  5
273
100
AcDbEntity
100
AcDbLine
  8
CONTOUR
 62
256
370
-1
  6
ByLayer
 10
-29.0
 20
-2.5
 30
0.0
 11
-27.0
 21
-2.5
 31
0.0
  0
LINE
  5
274
100
AcDbEntity
100
AcDbLine
  8
CONTOUR
 62
256
370
-1
  6
ByLayer
 10
-29.0
 20
-4.5
 30
0.0
 11
29.0
 21
-4.5
 31
0.0
  0
LINE
  5
275
100
AcDbEntity
100
AcDbLine
  8
CONTOUR
 62
256
370
-1
  6
ByLayer
 10
-29.0
 20
-7.5
 30
0.0
 11
29.0
 21
-7.5
 31
0.0
  0
ARC
  5
276
100
AcDbEntity
  8
CONTOUR
 62
7
370
35
  6
CONTINUOUS
100
AcDbCircle
 10
-30.0
 20
0.0
 30
0.0
 40
5.0
100
AcDbArc
 50
90.0
 51
270.0
  0
ARC
  5
277
100
AcDbEntity
  8
CONTOUR
 62
7
370
35
  6
CONTINUOUS
100
AcDbCircle
 10
30.0
 20
0.0
 30
0.0
 40
5.0
100
AcDbArc
 50
270.0
 51
90.0
  0
LINE
  5
278
100
AcDbEntity
100
AcDbLine
  8
CONTOUR
 62
256
370
-1
  6
ByLayer
 10
-30.0
 20
5.0
 30
0.0
 11
-27.0
 21
5.0
 31
0.0
  0
LINE
  5
279
100
AcDbEntity
100
AcDbLine
  8
CONTOUR
 62
256
370
-1
  6
ByLayer
 10
27.0
 20
5.0
 30
0.0
 11
30.0
 21
5.0
 31
0.0
  0
LINE
  5
27A
100
AcDbEntity
100
AcDbLine
  8
CONTOUR
 62
256
370
-1
  6
ByLayer
 10
27.0
 20
-5.0
 30
0.0
 11
30.0
 21
-5.0
 31
0.0
  0
LINE
  5
27B
100
AcDbEntity
100
AcDbLine
  8
CONTOUR
 62
256
370
-1
  6
ByLayer
 10
-30.0
 20
-5.0
 30
0.0
 11
-27.0
 21
-5.0
 31
0.0
  0
LINE
  5
27C
100
AcDbEntity
100
AcDbLine
  8
CONTOUR
 62
256
370
-1
  6
ByLayer
 10
-27.0
 20
-20.0
 30
0.0
 11
-27.0
 21
18.920471410784955
 31
0.0
  0
LINE
  5
27D
100
AcDbEntity
100
AcDbLine
  8
CONTOUR
 62
256
370
-1
  6
ByLayer
 10
27.0
 20
-20.0
 30
0.0
 11
27.0
 21
18.920471410784955
 31
0.0
  0
LINE
  5
27E
100
AcDbEntity
100
AcDbLine
  8
CENTER
 62
256
370
-1
  6
ByLayer
 10
-29.0
 20
6.0
 30
0.0
 11
29.0
 21
6.0
 31
0.0
  0
LINE
  5
27F
100
AcDbEntity
100
AcDbLine
  8
CENTER
 62
256
370
-1
  6
ByLayer
 10
-29.0
 20
-6.0
 30
0.0
 11
29.0
 21
-6.0
 31
0.0
  0
LINE
  5
280
100
AcDbEntity
100
AcDbLine
  8
CENTER
 62
256
370
-1
  6
ByLayer
 10
-35.0
 20
0.0
 30
0.0
 11
35.0
 21
0.0
 31
0.0
  0
ENDBLK
  5
281
100
AcDbEntity
  8
0
100
AcDbBlockEnd
  0
BLOCK
  5
282
100
AcDbEntity
  8
0
100
AcDbBlockBegin
  2
double gear box side
 70
0
 10
0.0
 20
0.0
 30
0.0
  3
double gear box side
  1

  0
LINE
  5
283
100
AcDbEntity
100
AcDbLine
  8
CONTOUR
 62
256
370
-1
  6
ByLayer
 10
0.0
 20
-51.0
 30
0.0
 11
0.0
 21
19.0
 31
0.0
  0
LINE
  5
284
100
AcDbEntity
100
AcDbLine
  8
CONTOUR
 62
256
370
-1
  6
ByLayer
 10
23.0
 20
-51.0
 30
0.0
 11
23.0
 21
19.0
 31
0.0
  0
LINE
  5
285
100
AcDbEntity
100
AcDbLine
  8
CENTER
 62
256
370
-1
  6
ByLayer
 10
11.5
 20
-51.0
 30
0.0
 11
11.5
 21
19.0
 31
0.0
  0
CIRCLE
  5
286
100
AcDbEntity
100
AcDbCircle
  8
CONTOUR
 62
256
370
-1
  6
ByLayer
 10
11.5
 20
6.0
 30
0.0
 40
3.5
  0
CIRCLE
  5
287
100
AcDbEntity
100
AcDbCircle
  8
CONTOUR
 62
256
370
-1
  6
ByLayer
 10
11.5
 20
-6.0
 30
0.0
 40
3.5
  0
CIRCLE
  5
288
100
AcDbEntity
100
AcDbCircle
  8
CONTOUR
 62
256
370
-1
  6
ByLayer
 10
11.5
 20
6.0
 30
0.0
 40
1.5
  0
CIRCLE
  5
289
100
AcDbEntity
100
AcDbCircle
  8
CONTOUR
 62
256
370
-1
  6
ByLayer
 10
11.5
 20
-6.0
 30
0.0
 40
1.5
  0
LINE
  5
28A
100
AcDbEntity
100
AcDbLine
  8
CONTOUR
 62
256
370
-1
  6
ByLayer
 10
0.0
 20
-20.0
 30
0.0
 11
23.0
 21
-20.0
 31
0.0
  0
LINE
  5
28B
100
AcDbEntity
100
AcDbLine
  8
CONTOUR
 62
256
370
-1
  6
ByLayer
 10
0.0
 20
19.0
 30
0.0
 11
23.0
 21
19.0
 31
0.0
  0
LINE
  5
28C
100
AcDbEntity
100
AcDbLine
  8
CONTOUR
 62
256
370
-1
  6
ByLayer
 10
0.0
 20
-51.0
 30
0.0
 11
23.0
 21
-51.0
 31
0.0
  0
LINE
  5
28D
100
AcDbEntity
100
AcDbLine
  8
CONTOUR
 62
256
370
-1
  6
ByLayer
 10
0.0
 20
-5.0
 30
0.0
 11
2.0
 21
-5.0
 31
0.0
  0
LINE
  5
28E
100
AcDbEntity
100
AcDbLine
  8
CONTOUR
 62
256
370
-1
  6
ByLayer
 10
0.0
 20
-1.5
 30
0.0
 11
2.0
 21
-1.5
 31
0.0
  0
LINE
  5
28F
100
AcDbEntity
100
AcDbLine
  8
CONTOUR
 62
256
370
-1
  6
ByLayer
 10
0.0
 20
1.5
 30
0.0
 11
2.0
 21
1.5
 31
0.0
  0
LINE
  5
290
100
AcDbEntity
100
AcDbLine
  8
CONTOUR
 62
256
370
-1
  6
ByLayer
 10
0.0
 20
5.0
 30
0.0
 11
2.0
 21
5.0
 31
0.0
  0
LINE
  5
291
100
AcDbEntity
100
AcDbLine
  8
CENTER
 62
256
370
-1
  6
ByLayer
 10
0.0
 20
6.0
 30
0.0
 11
23.0
 21
6.0
 31
0.0
  0
LINE
  5
292
100
AcDbEntity
100
AcDbLine
  8
CENTER
 62
256
370
-1
  6
ByLayer
 10
0.0
 20
0.0
 30
0.0
 11
23.0
 21
0.0
 31
0.0
  0
LINE
  5
293
100
AcDbEntity
100
AcDbLine
  8
CENTER
 62
256
370
-1
  6
ByLayer
 10
0.0
 20
-6.0
 30
0.0
 11
23.0
 21
-6.0
 31
0.0
  0
LINE
  5
294
100
AcDbEntity
100
AcDbLine
  8
CONTOUR
 62
256
370
-1
  6
ByLayer
 10
2.0
 20
-5.0
 30
0.0
 11
2.0
 21
5.0
 31
0.0
  0
ENDBLK
  5
295
100
AcDbEntity
  8
0
100
AcDbBlockEnd
  0
BLOCK
  5
296
100
AcDbEntity
  8
0
100
AcDbBlockBegin
  2
M4x70
 70
0
 10
0.0
 20
0.0
 30
0.0
  3
M4x70
  1

  0
LINE
  5
297
100
AcDbEntity
100
AcDbLine
  8
CENTER
 62
256
370
-1
  6
ByLayer
 10
-70.0
 20
0.0
 30
0.0
 11
4.0
 21
0.0
 31
0.0
  0
LINE
  5
298
100
AcDbEntity
100
AcDbLine
  8
CONTOUR
 62
256
370
-1
  6
ByLayer
 10
-0.0000000000000002
 20
-3.6000000000000001
 30
0.0
 11
0.0000000000000002
 21
3.6000000000000001
 31
0.0
  0
LINE
  5
299
100
AcDbEntity
100
AcDbLine
  8
CONTOUR
 62
256
370
-1
  6
ByLayer
 10
4.0
 20
-3.6000000000000001
 30
0.0
 11
4.0
 21
3.6000000000000001
 31
0.0
  0
LINE
  5
29A
100
AcDbEntity
100
AcDbLine
  8
CONTOUR
 62
256
370
-1
  6
ByLayer
 10
-70.0
 20
1.6499999999999999
 30
0.0
 11
-48.0
 21
1.6499999999999999
 31
0.0
  0
LINE
  5
29B
100
AcDbEntity
100
AcDbLine
  8
CONTOUR
 62
256
370
-1
  6
ByLayer
 10
-70.0
 20
-1.6499999999999999
 30
0.0
 11
-48.0
 21
-1.6499999999999999
 31
0.0
  0
LINE
  5
29C
100
AcDbEntity
100
AcDbLine
  8
CONTOUR
 62
256
370
-1
  6
ByLayer
 10
-48.0
 20
-2.0
 30
0.0
 11
-48.0
 21
2.0
 31
0.0
  0
LINE
  5
29D
100
AcDbEntity
100
AcDbLine
  8
CONTOUR
 62
256
370
-1
  6
ByLayer
 10
-70.0
 20
-2.0
 30
0.0
 11
-70.0
 21
2.0
 31
0.0
  0
LINE
  5
29E
100
AcDbEntity
100
AcDbLine
  8
CONTOUR
 62
256
370
-1
  6
ByLayer
 10
-70.0
 20
2.0
 30
0.0
 11
0.0000000000000001
 21
2.0
 31
0.0
  0
LINE
  5
29F
100
AcDbEntity
100
AcDbLine
  8
CONTOUR
 62
256
370
-1
  6
ByLayer
 10
-70.0
 20
-2.0
 30
0.0
 11
-0.0000000000000001
 21
-2.0
 31
0.0
  0
LINE
  5
2A0
100
AcDbEntity
100
AcDbLine
  8
CONTOUR
 62
256
370
-1
  6
ByLayer
 10
0.0000000000000002
 20
3.6000000000000001
 30
0.0
 11
4.0
 21
3.6000000000000001
 31
0.0
  0
LINE
  5
2A1
100
AcDbEntity
100
AcDbLine
  8
CONTOUR
 62
256
370
-1
  6
ByLayer
 10
-0.0000000000000002
 20
-3.6000000000000001
 30
0.0
 11
3.9999999999999996
 21
-3.6000000000000001
 31
0.0
  0
ENDBLK
  5
2A2
100
AcDbEntity
  8
0
100
AcDbBlockEnd
  0
BLOCK
  5
2A3
100
AcDbEntity
  8
0
100
AcDbBlockBegin
  2
M3x50
 70
0
 10
0.0
 20
0.0
 30
0.0
  3
M3x50
  1

  0
LINE
  5
2A4
100
AcDbEntity
100
AcDbLine
  8
CENTER
 62
256
370
-1
  6
ByLayer
 10
-50.0
 20
0.0
 30
0.0
 11
3.0
 21
0.0
 31
0.0
  0
LINE
  5
2A5
100
AcDbEntity
100
AcDbLine
  8
CONTOUR
 62
256
370
-1
  6
ByLayer
 10
-50.0
 20
1.5
 30
0.0
 11
-50.0
 21
-1.5
 31
0.0
  0
LINE
  5
2A6
100
AcDbEntity
100
AcDbLine
  8
CONTOUR
 62
256
370
-1
  6
ByLayer
 10
3.0
 20
2.75
 30
0.0
 11
2.9999999999999996
 21
-2.75
 31
0.0
  0
LINE
  5
2A7
100
AcDbEntity
100
AcDbLine
  8
CONTOUR
 62
256
370
-1
  6
ByLayer
 10
0.0
 20
2.7500000000000009
 30
0.0
 11
-0.0000000000000004
 21
-2.7499999999999991
 31
0.0
  0
LINE
  5
2A8
100
AcDbEntity
100
AcDbLine
  8
CONTOUR
 62
256
370
-1
  6
ByLayer
 10
-30.0
 20
1.4999999999999951
 30
0.0
 11
-30.0
 21
-1.5000000000000049
 31
0.0
  0
LINE
  5
2A9
100
AcDbEntity
100
AcDbLine
  8
CONTOUR
 62
256
370
-1
  6
ByLayer
 10
-50.0
 20
1.25
 30
0.0
 11
-30.0
 21
1.25
 31
0.0
  0
LINE
  5
2AA
100
AcDbEntity
100
AcDbLine
  8
CONTOUR
 62
256
370
-1
  6
ByLayer
 10
-50.0
 20
-1.25
 30
0.0
 11
-30.0
 21
-1.25
 31
0.0
  0
LINE
  5
2AB
100
AcDbEntity
100
AcDbLine
  8
CONTOUR
 62
256
370
-1
  6
ByLayer
 10
0.0
 20
2.75
 30
0.0
 11
3.0
 21
2.75
 31
0.0
  0
LINE
  5
2AC
100
AcDbEntity
100
AcDbLine
  8
CONTOUR
 62
256
370
-1
  6
ByLayer
 10
-0.0000000000000004
 20
-2.75
 30
0.0
 11
2.9999999999999996
 21
-2.75
 31
0.0
  0
LINE
  5
2AD
100
AcDbEntity
100
AcDbLine
  8
CONTOUR
 62
256
370
-1
  6
ByLayer
 10
-50.0
 20
-1.5
 30
0.0
 11
-0.0000000000000003
 21
-1.5
 31
0.0
  0
LINE
  5
2AE
100
AcDbEntity
100
AcDbLine
  8
CONTOUR
 62
256
370
-1
  6
ByLayer
 10
-50.0
 20
1.5
 30
0.0
 11
-0.0000000000000001
 21
1.5
 31
0.0
  0
ENDBLK
  5
2AF
100
AcDbEntity
  8
0
100
AcDbBlockEnd
  0
BLOCK
  5
2B0
100
AcDbEntity
  8
0
100
AcDbBlockBegin
  2
M3x70
 70
0
 10
0.0
 20
0.0
 30
0.0
  3
M3x70
  1

  0
LINE
  5
2B1
100
AcDbEntity
100
AcDbLine
  8
CONTOUR
 62
256
370
-1
  6
ByLayer
 10
3.0
 20
2.75
 30
0.0
 11
2.9999999999999996
 21
-2.75
 31
0.0
  0
LINE
  5
2B2
100
AcDbEntity
100
AcDbLine
  8
CONTOUR
 62
256
370
-1
  6
ByLayer
 10
0.0
 20
2.7500000000000009
 30
0.0
 11
-0.0000000000000004
 21
-2.7499999999999991
 31
0.0
  0
LINE
  5
2B3
100
AcDbEntity
100
AcDbLine
  8
CONTOUR
 62
256
370
-1
  6
ByLayer
 10
0.0
 20
2.75
 30
0.0
 11
3.0
 21
2.75
 31
0.0
  0
LINE
  5
2B4
100
AcDbEntity
100
AcDbLine
  8
CONTOUR
 62
256
370
-1
  6
ByLayer
 10
-0.0000000000000004
 20
-2.75
 30
0.0
 11
2.9999999999999996
 21
-2.75
 31
0.0
  0
LINE
  5
2B5
100
AcDbEntity
100
AcDbLine
  8
CONTOUR
 62
256
370
-1
  6
ByLayer
 10
-70.0
 20
1.5
 30
0.0
 11
-70.0
 21
-1.5
 31
0.0
  0
LINE
  5
2B6
100
AcDbEntity
100
AcDbLine
  8
CONTOUR
 62
256
370
-1
  6
ByLayer
 10
-50.0
 20
1.4999999999999951
 30
0.0
 11
-50.0
 21
-1.5000000000000049
 31
0.0
  0
LINE
  5
2B7
100
AcDbEntity
100
AcDbLine
  8
CONTOUR
 62
256
370
-1
  6
ByLayer
 10
-70.0
 20
1.25
 30
0.0
 11
-50.0
 21
1.25
 31
0.0
  0
LINE
  5
2B8
100
AcDbEntity
100
AcDbLine
  8
CONTOUR
 62
256
370
-1
  6
ByLayer
 10
-70.0
 20
-1.25
 30
0.0
 11
-50.0
 21
-1.25
 31
0.0
  0
LINE
  5
2B9
100
AcDbEntity
100
AcDbLine
  8
CONTOUR
 62
256
370
-1
  6
ByLayer
 10
-70.0
 20
1.5
 30
0.0
 11
0.0
 21
1.5
 31
0.0
  0
LINE
  5
2BA
100
AcDbEntity
100
AcDbLine
  8
CENTER
 62
256
370
-1
  6
ByLayer
 10
-70.0
 20
0.0
 30
0.0
 11
3.0
 21
0.0
 31
0.0
  0
LINE
  5
2BB
100
AcDbEntity
100
AcDbLine
  8
CONTOUR
 62
256
370
-1
  6
ByLayer
 10
-70.0
 20
-1.5
 30
0.0
 11
0.0
 21
-1.5
 31
0.0
  0
ENDBLK
  5
2BC
100
AcDbEntity
  8
0
100
AcDbBlockEnd
  0
BLOCK
  5
2BD
100
AcDbEntity
  8
0
100
AcDbBlockBegin
  2
M3x80
 70
0
 10
0.0
 20
0.0
 30
0.0
  3
M3x80
  1

  0
LINE
  5
2BE
100
AcDbEntity
100
AcDbLine
  8
CONTOUR
 62
256
370
-1
  6
ByLayer
 10
3.0
 20
2.75
 30
0.0
 11
2.9999999999999996
 21
-2.75
 31
0.0
  0
LINE
  5
2BF
100
AcDbEntity
100
AcDbLine
  8
CONTOUR
 62
256
370
-1
  6
ByLayer
 10
0.0
 20
2.7500000000000009
 30
0.0
 11
-0.0000000000000004
 21
-2.7499999999999991
 31
0.0
  0
LINE
  5
2C0
100
AcDbEntity
100
AcDbLine
  8
CONTOUR
 62
256
370
-1
  6
ByLayer
 10
0.0
 20
2.75
 30
0.0
 11
3.0
 21
2.75
 31
0.0
  0
LINE
  5
2C1
100
AcDbEntity
100
AcDbLine
  8
CONTOUR
 62
256
370
-1
  6
ByLayer
 10
-0.0000000000000004
 20
-2.75
 30
0.0
 11
2.9999999999999996
 21
-2.75
 31
0.0
  0
LINE
  5
2C2
100
AcDbEntity
100
AcDbLine
  8
CONTOUR
 62
256
370
-1
  6
ByLayer
 10
-80.0
 20
1.5
 30
0.0
 11
-80.0
 21
-1.5
 31
0.0
  0
LINE
  5
2C3
100
AcDbEntity
100
AcDbLine
  8
CONTOUR
 62
256
370
-1
  6
ByLayer
 10
-60.0
 20
1.4999999999999951
 30
0.0
 11
-60.0
 21
-1.5000000000000049
 31
0.0
  0
LINE
  5
2C4
100
AcDbEntity
100
AcDbLine
  8
CONTOUR
 62
256
370
-1
  6
ByLayer
 10
-80.0
 20
1.25
 30
0.0
 11
-60.0
 21
1.25
 31
0.0
  0
LINE
  5
2C5
100
AcDbEntity
100
AcDbLine
  8
CONTOUR
 62
256
370
-1
  6
ByLayer
 10
-80.0
 20
-1.25
 30
0.0
 11
-60.0
 21
-1.25
 31
0.0
  0
LINE
  5
2C6
100
AcDbEntity
100
AcDbLine
  8
CONTOUR
 62
256
370
-1
  6
ByLayer
 10
-80.0
 20
1.5
 30
0.0
 11
0.0
 21
1.5
 31
0.0
  0
LINE
  5
2C7
100
AcDbEntity
100
AcDbLine
  8
CENTER
 62
256
370
-1
  6
ByLayer
 10
-80.0
 20
0.0
 30
0.0
 11
3.0
 21
0.0
 31
0.0
  0
LINE
  5
2C8
100
AcDbEntity
100
AcDbLine
  8
CONTOUR
 62
256
370
-1
  6
ByLayer
 10
-80.0
 20
-1.5
 30
0.0
 11
0.0
 21
-1.5
 31
0.0
  0
ENDBLK
  5
2C9
100
AcDbEntity
  8
0
100
AcDbBlockEnd
  0
ENDSEC
  0
SECTION
  2
ENTITIES
  0
MTEXT
  5
2CA
100
AcDbEntity
100
AcDbMText
  8
TEXT
 62
256
370
-1
  6
ByLayer
 10
157.0
 20
496.0
 30
0.0
 40
5.0
 41
100.0
 71
1
 72
2
  1
DS1-12\~:\~DS1-70\~+\~6-speed\~HE
  7
normallatin1
 50
0.0
 73
1
 44
1.0
  0
MTEXT
  5
2CB
100
AcDbEntity
100
AcDbMText
  8
TEXT
 62
256
370
-1
  6
ByLayer
 10
157.0
 20
107.0
 30
0.0
 40
5.0
 41
100.0
 71
1
 72
2
  1
DS1-12\~:\~DS1-45\~+\~6-speed\~HE
  7
normallatin1
 50
0.0
 73
1
 44
1.0
  0
MTEXT
  5
2CC
100
AcDbEntity
100
AcDbMText
  8
TEXT
 62
256
370
-1
  6
ByLayer
 10
557.0
 20
507.0
 30
0.0
 40
5.0
 41
100.0
 71
1
 72
2
  1
DS0.8-16\~:\~DS0.8-56\~+\~6-speed\~HE
  7
normallatin1
 50
0.0
 73
1
 44
1.0
  0
LINE
  5
2CD
100
AcDbEntity
100
AcDbLine
  8
CONTOUR
 62
256
370
-1
  6
ByLayer
 10
504.5
 20
561.90000000000009
 30
0.0
 11
516.5
 21
561.90000000000009
 31
0.0
  0
LINE
  5
2CE
100
AcDbEntity
100
AcDbLine
  8
CONTOUR
 62
256
370
-1
  6
ByLayer
 10
504.5
 20
559.90000000000009
 30
0.0
 11
516.5
 21
559.90000000000009
 31
0.0
  0
DIMENSION
  5
2CF
100
AcDbEntity
  8
TEXT
 62
256
370
-1
  6
ByLayer
100
AcDbDimension
 10
620.0
 20
154.0
 30
0.0
 11
618.125
 21
171.0
 31
0.0
 70
0
 71
5
 72
0
 41
1.0
 42
0.0
  1

  3
Standard
100
AcDbAlignedDimension
 13
620.0
 23
188.0
 33
0.0
 14
620.0
 24
154.0
 34
0.0
 50
90.0
100
AcDbRotatedDimension
  0
DIMENSION
  5
2D0
100
AcDbEntity
  8
TEXT
 62
256
370
-1
  6
ByLayer
100
AcDbDimension
 10
620.0
 20
196.0
 30
0.0
 11
618.125
 21
192.0
 31
0.0
 70
0
 71
5
 72
0
 41
1.0
 42
0.0
  1

  3
Standard
100
AcDbAlignedDimension
 13
620.0
 23
188.0
 33
0.0
 14
620.0
 24
196.0
 34
0.0
 50
90.0
100
AcDbRotatedDimension
  0
LINE
  5
2D1
100
AcDbEntity
100
AcDbLine
  8
CONTOUR
 62
256
370
-1
  6
ByLayer
 10
107.00000000000001
 20
162.20000000000002
 30
0.0
 11
116.5
 21
162.20000000000002
 31
0.0
  0
LINE
  5
2D2
100
AcDbEntity
100
AcDbLine
  8
CONTOUR
 62
256
370
-1
  6
ByLayer
 10
107.0
 20
160.20000000000002
 30
0.0
 11
116.49999999999999
 21
160.20000000000002
 31
0.0
  0
DIMENSION
  5
2D3
100
AcDbEntity
  8
TEXT
 62
256
370
-1
  6
ByLayer
100
AcDbDimension
 10
213.0
 20
507.70000000000005
 30
0.0
 11
210.0
 21
509.57500000000005
 31
0.0
 70
0
 71
5
 72
0
 41
1.0
 42
0.0
  1

  3
Standard
100
AcDbAlignedDimension
 13
207.0
 23
513.00986086684327
 33
0.0
 14
213.0
 24
513.00986086684327
 34
0.0
 50
0.0
100
AcDbRotatedDimension
  0
DIMENSION
  5
2D4
100
AcDbEntity
  8
TEXT
 62
256
370
-1
  6
ByLayer
100
AcDbDimension
 10
213.0
 20
120.69999999999999
 30
0.0
 11
210.0
 21
122.57499999999999
 31
0.0
 70
0
 71
5
 72
0
 41
1.0
 42
0.0
  1

  3
Standard
100
AcDbAlignedDimension
 13
207.0
 23
126.00986086684321
 33
0.0
 14
213.0
 24
126.00986086684321
 34
0.0
 50
0.0
100
AcDbRotatedDimension
  0
CIRCLE
  5
2D5
100
AcDbEntity
100
AcDbCircle
  8
CONTOUR
 62
256
370
-1
  6
ByLayer
 10
250.0
 20
154.19999999999999
 30
0.0
 40
2.0
  0
CIRCLE
  5
2D6
100
AcDbEntity
100
AcDbCircle
  8
CONTOUR
 62
256
370
-1
  6
ByLayer
 10
250.0
 20
154.19999999999999
 30
0.0
 40
4.0
  0
CIRCLE
  5
2D7
100
AcDbEntity
100
AcDbCircle
  8
CONTOUR
 62
256
370
-1
  6
ByLayer
 10
250.0
 20
188.19999999999999
 30
0.0
 40
2.0
  0
CIRCLE
  5
2D8
100
AcDbEntity
100
AcDbCircle
  8
CONTOUR
 62
256
370
-1
  6
ByLayer
 10
250.0
 20
188.19999999999999
 30
0.0
 40
4.0
  0
LINE
  5
2D9
100
AcDbEntity
100
AcDbLine
  8
CONTOUR
 62
256
370
-1
  6
ByLayer
 10
207.0
 20
126.19999999999999
 30
0.0
 11
207.0
 21
196.19999999999999
 31
0.0
  0
LINE
  5
2DA
100
AcDbEntity
100
AcDbLine
  8
CONTOUR
 62
256
370
-1
  6
ByLayer
 10
116.0
 20
126.19999999999999
 30
0.0
 11
116.00000000000001
 21
196.19999999999999
 31
0.0
  0
LINE
  5
2DB
100
AcDbEntity
100
AcDbLine
  8
CONTOUR
 62
256
370
-1
  6
ByLayer
 10
114.0
 20
156.19999999999999
 30
0.0
 11
116.0
 21
158.19999999999999
 31
0.0
  0
LINE
  5
2DC
100
AcDbEntity
100
AcDbLine
  8
CONTOUR
 62
256
370
-1
  6
ByLayer
 10
114.0
 20
152.19999999999999
 30
0.0
 11
116.0
 21
150.19999999999999
 31
0.0
  0
LINE
  5
2DD
100
AcDbEntity
100
AcDbLine
  8
CONTOUR
 62
256
370
-1
  6
ByLayer
 10
114.0
 20
156.19999999999999
 30
0.0
 11
114.0
 21
152.19999999999999
 31
0.0
  0
LINE
  5
2DE
100
AcDbEntity
100
AcDbLine
  8
CONTOUR
 62
256
370
-1
  6
ByLayer
 10
114.0
 20
190.19999999999999
 30
0.0
 11
116.00000000000001
 21
192.19999999999999
 31
0.0
  0
LINE
  5
2DF
100
AcDbEntity
100
AcDbLine
  8
CONTOUR
 62
256
370
-1
  6
ByLayer
 10
114.0
 20
186.19999999999999
 30
0.0
 11
116.00000000000001
 21
184.19999999999999
 31
0.0
  0
LINE
  5
2E0
100
AcDbEntity
100
AcDbLine
  8
CONTOUR
 62
256
370
-1
  6
ByLayer
 10
114.0
 20
186.19999999999999
 30
0.0
 11
114.0
 21
190.19999999999999
 31
0.0
  0
LINE
  5
2E1
100
AcDbEntity
100
AcDbLine
  8
CONTOUR
 62
256
370
-1
  6
ByLayer
 10
107.00000000000001
 20
196.19999999999999
 30
0.0
 11
116.00000000000001
 21
196.19999999999999
 31
0.0
  0
LINE
  5
2E2
100
AcDbEntity
100
AcDbLine
  8
CONTOUR
 62
256
370
-1
  6
ByLayer
 10
107.0
 20
126.19999999999999
 30
0.0
 11
116.0
 21
126.19999999999999
 31
0.0
  0
LINE
  5
2E3
100
AcDbEntity
100
AcDbLine
  8
CONTOUR
 62
256
370
-1
  6
ByLayer
 10
101.00000000000001
 20
186.19999999999999
 30
0.0
 11
101.00000000000001
 21
190.19999999999999
 31
0.0
  0
LINE
  5
2E4
100
AcDbEntity
100
AcDbLine
  8
CONTOUR
 62
256
370
-1
  6
ByLayer
 10
101.00000000000001
 20
152.19999999999999
 30
0.0
 11
101.00000000000001
 21
156.19999999999999
 31
0.0
  0
LINE
  5
2E5
100
AcDbEntity
100
AcDbLine
  8
CONTOUR
 62
256
370
-1
  6
ByLayer
 10
101.00000000000001
 20
190.19999999999999
 30
0.0
 11
114.0
 21
190.19999999999999
 31
0.0
  0
LINE
  5
2E6
100
AcDbEntity
100
AcDbLine
  8
CONTOUR
 62
256
370
-1
  6
ByLayer
 10
101.00000000000001
 20
186.19999999999999
 30
0.0
 11
114.0
 21
186.19999999999999
 31
0.0
  0
LINE
  5
2E7
100
AcDbEntity
100
AcDbLine
  8
CONTOUR
 62
256
370
-1
  6
ByLayer
 10
101.00000000000001
 20
156.19999999999999
 30
0.0
 11
114.0
 21
156.19999999999999
 31
0.0
  0
LINE
  5
2E8
100
AcDbEntity
100
AcDbLine
  8
CONTOUR
 62
256
370
-1
  6
ByLayer
 10
101.00000000000001
 20
152.19999999999999
 30
0.0
 11
114.0
 21
152.19999999999999
 31
0.0
  0
DIMENSION
  5
2E9
100
AcDbEntity
  8
TEXT
 62
256
370
-1
  6
ByLayer
100
AcDbDimension
 10
227.0
 20
188.19999999999999
 30
0.0
 11
225.125
 21
192.19999999999999
 31
0.0
 70
0
 71
5
 72
0
 41
1.0
 42
0.0
  1

  3
Standard
100
AcDbAlignedDimension
 13
227.0
 23
196.19999999999999
 33
0.0
 14
227.0
 24
188.19999999999999
 34
0.0
 50
90.0
100
AcDbRotatedDimension
  0
DIMENSION
  5
2EA
100
AcDbEntity
  8
TEXT
 62
256
370
-1
  6
ByLayer
100
AcDbDimension
 10
227.0
 20
154.19999999999999
 30
0.0
 11
225.125
 21
171.19999999999999
 31
0.0
 70
0
 71
5
 72
0
 41
1.0
 42
0.0
  1

  3
Standard
100
AcDbAlignedDimension
 13
227.0
 23
188.19999999999999
 33
0.0
 14
227.0
 24
154.19999999999999
 34
0.0
 50
90.0
100
AcDbRotatedDimension
  0
LINE
  5
2EB
100
AcDbEntity
100
AcDbLine
  8
CONTOUR
 62
256
370
-1
  6
ByLayer
 10
107.0
 20
126.19999999999999
 30
0.0
 11
107.00000000000001
 21
196.5
 31
0.0
  0
DIMENSION
  5
2EC
100
AcDbEntity
  8
TEXT
 62
256
370
-1
  6
ByLayer
100
AcDbDimension
 10
220.0
 20
161.19999999999999
 30
0.0
 11
218.125
 21
178.69999999999999
 31
0.0
 70
0
 71
5
 72
0
 41
1.0
 42
0.0
  1

  3
Standard
100
AcDbAlignedDimension
 13
207.0
 23
196.19999999999999
 33
0.0
 14
213.0
 24
161.19999999999999
 34
0.0
 50
90.0
100
AcDbRotatedDimension
  0
CIRCLE
  5
2ED
100
AcDbEntity
100
AcDbCircle
  8
CONTOUR
 62
256
370
-1
  6
ByLayer
 10
650.0
 20
553.90000000000009
 30
0.0
 40
2.0
  0
CIRCLE
  5
2EE
100
AcDbEntity
100
AcDbCircle
  8
CONTOUR
 62
256
370
-1
  6
ByLayer
 10
650.0
 20
553.90000000000009
 30
0.0
 40
4.0
  0
CIRCLE
  5
2EF
100
AcDbEntity
100
AcDbCircle
  8
CONTOUR
 62
256
370
-1
  6
ByLayer
 10
650.0
 20
587.90000000000009
 30
0.0
 40
2.0
  0
CIRCLE
  5
2F0
100
AcDbEntity
100
AcDbCircle
  8
CONTOUR
 62
256
370
-1
  6
ByLayer
 10
650.0
 20
587.90000000000009
 30
0.0
 40
4.0
  0
DIMENSION
  5
2F1
100
AcDbEntity
  8
TEXT
 62
256
370
-1
  6
ByLayer
100
AcDbDimension
 10
627.0
 20
587.90000000000009
 30
0.0
 11
625.125
 21
591.90000000000009
 31
0.0
 70
0
 71
5
 72
0
 41
1.0
 42
0.0
  1

  3
Standard
100
AcDbAlignedDimension
 13
627.0
 23
595.90000000000009
 33
0.0
 14
627.0
 24
587.90000000000009
 34
0.0
 50
90.0
100
AcDbRotatedDimension
  0
DIMENSION
  5
2F2
100
AcDbEntity
  8
TEXT
 62
256
370
-1
  6
ByLayer
100
AcDbDimension
 10
627.0
 20
553.90000000000009
 30
0.0
 11
625.125
 21
570.90000000000009
 31
0.0
 70
0
 71
5
 72
0
 41
1.0
 42
0.0
  1

  3
Standard
100
AcDbAlignedDimension
 13
627.0
 23
587.90000000000009
 33
0.0
 14
627.0
 24
553.90000000000009
 34
0.0
 50
90.0
100
AcDbRotatedDimension
  0
LINE
  5
2F3
100
AcDbEntity
100
AcDbLine
  8
CONTOUR
 62
256
370
-1
  6
ByLayer
 10
516.0
 20
525.90000000000009
 30
0.0
 11
516.0
 21
595.90000000000009
 31
0.0
  0
LINE
  5
2F4
100
AcDbEntity
100
AcDbLine
  8
CONTOUR
 62
256
370
-1
  6
ByLayer
 10
514.0
 20
555.90000000000009
 30
0.0
 11
516.0
 21
557.90000000000009
 31
0.0
  0
LINE
  5
2F5
100
AcDbEntity
100
AcDbLine
  8
CONTOUR
 62
256
370
-1
  6
ByLayer
 10
514.0
 20
551.90000000000009
 30
0.0
 11
516.0
 21
549.90000000000009
 31
0.0
  0
LINE
  5
2F6
100
AcDbEntity
100
AcDbLine
  8
CONTOUR
 62
256
370
-1
  6
ByLayer
 10
514.0
 20
555.90000000000009
 30
0.0
 11
514.0
 21
551.90000000000009
 31
0.0
  0
LINE
  5
2F7
100
AcDbEntity
100
AcDbLine
  8
CONTOUR
 62
256
370
-1
  6
ByLayer
 10
514.0
 20
589.90000000000009
 30
0.0
 11
516.0
 21
591.90000000000009
 31
0.0
  0
LINE
  5
2F8
100
AcDbEntity
100
AcDbLine
  8
CONTOUR
 62
256
370
-1
  6
ByLayer
 10
514.0
 20
585.90000000000009
 30
0.0
 11
516.0
 21
583.90000000000009
 31
0.0
  0
LINE
  5
2F9
100
AcDbEntity
100
AcDbLine
  8
CONTOUR
 62
256
370
-1
  6
ByLayer
 10
514.0
 20
585.90000000000009
 30
0.0
 11
514.0
 21
589.90000000000009
 31
0.0
  0
LINE
  5
2FA
100
AcDbEntity
100
AcDbLine
  8
CONTOUR
 62
256
370
-1
  6
ByLayer
 10
507.0
 20
595.90000000000009
 30
0.0
 11
516.0
 21
595.90000000000009
 31
0.0
  0
LINE
  5
2FB
100
AcDbEntity
100
AcDbLine
  8
CONTOUR
 62
256
370
-1
  6
ByLayer
 10
507.0
 20
525.90000000000009
 30
0.0
 11
516.0
 21
525.90000000000009
 31
0.0
  0
LINE
  5
2FC
100
AcDbEntity
100
AcDbLine
  8
CONTOUR
 62
256
370
-1
  6
ByLayer
 10
501.0
 20
585.90000000000009
 30
0.0
 11
501.0
 21
589.90000000000009
 31
0.0
  0
LINE
  5
2FD
100
AcDbEntity
100
AcDbLine
  8
CONTOUR
 62
256
370
-1
  6
ByLayer
 10
501.0
 20
551.90000000000009
 30
0.0
 11
501.0
 21
555.90000000000009
 31
0.0
  0
LINE
  5
2FE
100
AcDbEntity
100
AcDbLine
  8
CONTOUR
 62
256
370
-1
  6
ByLayer
 10
501.0
 20
589.90000000000009
 30
0.0
 11
514.0
 21
589.90000000000009
 31
0.0
  0
LINE
  5
2FF
100
AcDbEntity
100
AcDbLine
  8
CONTOUR
 62
256
370
-1
  6
ByLayer
 10
501.0
 20
585.90000000000009
 30
0.0
 11
514.0
 21
585.90000000000009
 31
0.0
  0
LINE
  5
300
100
AcDbEntity
100
AcDbLine
  8
CONTOUR
 62
256
370
-1
  6
ByLayer
 10
501.0
 20
555.90000000000009
 30
0.0
 11
514.0
 21
555.90000000000009
 31
0.0
  0
LINE
  5
301
100
AcDbEntity
100
AcDbLine
  8
CONTOUR
 62
256
370
-1
  6
ByLayer
 10
501.0
 20
551.90000000000009
 30
0.0
 11
514.0
 21
551.90000000000009
 31
0.0
  0
LINE
  5
302
100
AcDbEntity
100
AcDbLine
  8
CONTOUR
 62
256
370
-1
  6
ByLayer
 10
507.0
 20
525.90000000000009
 30
0.0
 11
507.0
 21
596.5
 31
0.0
  0
DIMENSION
  5
303
100
AcDbEntity
  8
TEXT
 62
256
370
-1
  6
ByLayer
100
AcDbDimension
 10
250.0
 20
140.0
 30
0.0
 11
228.5
 21
141.875
 31
0.0
 70
0
 71
5
 72
0
 41
1.0
 42
0.0
  1

  3
Standard
100
AcDbAlignedDimension
 13
207.0
 23
154.19999999999999
 33
0.0
 14
250.0
 24
147.5
 34
0.0
 50
0.0
100
AcDbRotatedDimension
  0
LINE
  5
304
100
AcDbEntity
100
AcDbLine
  8
CONTOUR
 62
256
370
-1
  6
ByLayer
 10
607.0
 20
387.5
 30
0.0
 11
607.0
 21
373.5
 31
0.0
  0
DIMENSION
  5
305
100
AcDbEntity
  8
TEXT
 62
256
370
-1
  6
ByLayer
100
AcDbDimension
 10
650.0
 20
340.0
 30
0.0
 11
628.5
 21
341.875
 31
0.0
 70
0
 71
5
 72
0
 41
1.0
 42
0.0
  1

  3
Standard
100
AcDbAlignedDimension
 13
607.0
 23
354.19999999999999
 33
0.0
 14
650.0
 24
347.5
 34
0.0
 50
0.0
100
AcDbRotatedDimension
  0
MTEXT
  5
306
100
AcDbEntity
100
AcDbMText
  8
CONTOUR
 62
256
370
-1
  6
ByLayer
 10
550.0
 20
300.0
 30
0.0
 40
5.0
 41
100.0
 71
7
 72
2
  1
DS0.8-15\~:\~DS0.8-50\~+\~Double\~Gear\~Box
  7
normallatin1
 50
0.0
 73
0
 44
1.0
  0
MTEXT
  5
307
100
AcDbEntity
100
AcDbMText
  8
CONTOUR
 62
256
370
-1
  6
ByLayer
 10
550.0
 20
700.0
 30
0.0
 40
5.0
 41
100.0
 71
7
 72
2
  1
DS0.8-15\~:\~DS0.8-45\~+\~4-Speed\~Crank\~Gear\~Box
  7
normallatin1
 50
0.0
 73
0
 44
1.0
  0
LINE
  5
308
100
AcDbEntity
100
AcDbLine
  8
CONTOUR
 62
256
370
-1
  6
ByLayer
 10
507.0
 20
796.20000000000005
 30
0.0
 11
516.0
 21
796.20000000000005
 31
0.0
  0
CIRCLE
  5
309
100
AcDbEntity
100
AcDbCircle
  8
CONTOUR
 62
256
370
-1
  6
ByLayer
 10
650.0
 20
354.12047141078494
 30
0.0
 40
2.0
  0
CIRCLE
  5
30A
100
AcDbEntity
100
AcDbCircle
  8
CONTOUR
 62
256
370
-1
  6
ByLayer
 10
650.0
 20
354.12047141078494
 30
0.0
 40
4.0
  0
CIRCLE
  5
30B
100
AcDbEntity
100
AcDbCircle
  8
CONTOUR
 62
256
370
-1
  6
ByLayer
 10
650.0
 20
388.12047141078494
 30
0.0
 40
2.0
  0
CIRCLE
  5
30C
100
AcDbEntity
100
AcDbCircle
  8
CONTOUR
 62
256
370
-1
  6
ByLayer
 10
650.0
 20
388.12047141078494
 30
0.0
 40
4.0
  0
LINE
  5
30D
100
AcDbEntity
100
AcDbLine
  8
CONTOUR
 62
256
370
-1
  6
ByLayer
 10
507.0
 20
396.12047141078494
 30
0.0
 11
516.0
 21
396.12047141078494
 31
0.0
  0
DIMENSION
  5
30E
100
AcDbEntity
  8
TEXT
 62
256
370
-1
  6
ByLayer
100
AcDbDimension
 10
630.0
 20
388.12047141078494
 30
0.0
 11
628.125
 21
392.12047141078494
 31
0.0
 70
0
 71
5
 72
1
 41
1.0
 42
0.0
  1

  3
Standard
100
AcDbAlignedDimension
 13
630.0
 23
396.12047141078494
 33
0.0
 14
630.0
 24
388.12047141078494
 34
0.0
 50
90.0
100
AcDbRotatedDimension
  0
DIMENSION
  5
30F
100
AcDbEntity
  8
TEXT
 62
256
370
-1
  6
ByLayer
100
AcDbDimension
 10
630.0
 20
354.12047141078494
 30
0.0
 11
628.125
 21
371.12047141078494
 31
0.0
 70
0
 71
5
 72
1
 41
1.0
 42
0.0
  1

  3
Standard
100
AcDbAlignedDimension
 13
630.0
 23
388.12047141078494
 33
0.0
 14
630.0
 24
354.12047141078494
 34
0.0
 50
90.0
100
AcDbRotatedDimension
  0
DIMENSION
  5
310
100
AcDbEntity
  8
TEXT
 62
256
370
-1
  6
ByLayer
100
AcDbDimension
 10
620.0
 20
377.12047141078494
 30
0.0
 11
618.125
 21
386.62047141078494
 31
0.0
 70
0
 71
5
 72
1
 41
1.0
 42
0.0
  1

  3
Standard
100
AcDbAlignedDimension
 13
620.0
 23
396.12047141078494
 33
0.0
 14
620.0
 24
377.12047141078494
 34
0.0
 50
90.0
100
AcDbRotatedDimension
  0
DIMENSION
  5
311
100
AcDbEntity
  8
TEXT
 62
256
370
-1
  6
ByLayer
100
AcDbDimension
 10
613.0
 20
330.0
 30
0.0
 11
610.0
 21
331.875
 31
0.0
 70
0
 71
5
 72
1
 41
1.0
 42
0.0
  1

  3
Standard
100
AcDbAlignedDimension
 13
607.0
 23
330.0
 33
0.0
 14
613.0
 24
330.0
 34
0.0
 50
0.0
100
AcDbRotatedDimension
  0
LINE
  5
312
100
AcDbEntity
100
AcDbLine
  8
CONTOUR
 62
256
370
-1
  6
ByLayer
 10
640.0
 20
196.57952858921504
 30
0.0
 11
660.0
 21
196.57952858921504
 31
0.0
  0
CIRCLE
  5
313
100
AcDbEntity
100
AcDbCircle
  8
CONTOUR
 62
256
370
-1
  6
ByLayer
 10
650.0
 20
188.70159015068162
 30
0.0
 40
2.0
  0
CIRCLE
  5
314
100
AcDbEntity
100
AcDbCircle
  8
CONTOUR
 62
256
370
-1
  6
ByLayer
 10
650.0
 20
154.70159015068162
 30
0.0
 40
2.0
  0
CIRCLE
  5
315
100
AcDbEntity
100
AcDbCircle
  8
CONTOUR
 62
256
370
-1
  6
ByLayer
 10
650.0
 20
188.70159015068162
 30
0.0
 40
4.0
  0
CIRCLE
  5
316
100
AcDbEntity
100
AcDbCircle
  8
CONTOUR
 62
256
370
-1
  6
ByLayer
 10
650.0
 20
154.70159015068162
 30
0.0
 40
4.0
  0
LINE
  5
317
100
AcDbEntity
100
AcDbLine
  8
CONTOUR
 62
256
370
-1
  6
ByLayer
 10
514.0
 20
156.70159015068162
 30
0.0
 11
516.0
 21
158.70159015068162
 31
0.0
  0
LINE
  5
318
100
AcDbEntity
100
AcDbLine
  8
CONTOUR
 62
256
370
-1
  6
ByLayer
 10
514.0
 20
152.70159015068162
 30
0.0
 11
516.0
 21
150.70159015068162
 31
0.0
  0
LINE
  5
319
100
AcDbEntity
100
AcDbLine
  8
CONTOUR
 62
256
370
-1
  6
ByLayer
 10
514.0
 20
156.70159015068162
 30
0.0
 11
514.0
 21
152.70159015068162
 31
0.0
  0
LINE
  5
31A
100
AcDbEntity
100
AcDbLine
  8
CONTOUR
 62
256
370
-1
  6
ByLayer
 10
514.0
 20
190.70159015068162
 30
0.0
 11
516.0
 21
192.70159015068162
 31
0.0
  0
LINE
  5
31B
100
AcDbEntity
100
AcDbLine
  8
CONTOUR
 62
256
370
-1
  6
ByLayer
 10
514.0
 20
186.70159015068162
 30
0.0
 11
516.0
 21
184.70159015068162
 31
0.0
  0
LINE
  5
31C
100
AcDbEntity
100
AcDbLine
  8
CONTOUR
 62
256
370
-1
  6
ByLayer
 10
514.0
 20
186.70159015068162
 30
0.0
 11
514.0
 21
190.70159015068162
 31
0.0
  0
LINE
  5
31D
100
AcDbEntity
100
AcDbLine
  8
CONTOUR
 62
256
370
-1
  6
ByLayer
 10
501.0
 20
186.70159015068162
 30
0.0
 11
501.0
 21
190.70159015068162
 31
0.0
  0
LINE
  5
31E
100
AcDbEntity
100
AcDbLine
  8
CONTOUR
 62
256
370
-1
  6
ByLayer
 10
501.0
 20
152.70159015068162
 30
0.0
 11
501.0
 21
156.70159015068162
 31
0.0
  0
LINE
  5
31F
100
AcDbEntity
100
AcDbLine
  8
CONTOUR
 62
256
370
-1
  6
ByLayer
 10
501.0
 20
190.70159015068162
 30
0.0
 11
514.0
 21
190.70159015068162
 31
0.0
  0
LINE
  5
320
100
AcDbEntity
100
AcDbLine
  8
CONTOUR
 62
256
370
-1
  6
ByLayer
 10
501.0
 20
186.70159015068162
 30
0.0
 11
514.0
 21
186.70159015068162
 31
0.0
  0
LINE
  5
321
100
AcDbEntity
100
AcDbLine
  8
CONTOUR
 62
256
370
-1
  6
ByLayer
 10
501.0
 20
156.70159015068162
 30
0.0
 11
514.0
 21
156.70159015068162
 31
0.0
  0
LINE
  5
322
100
AcDbEntity
100
AcDbLine
  8
CONTOUR
 62
256
370
-1
  6
ByLayer
 10
501.0
 20
152.70159015068162
 30
0.0
 11
514.0
 21
152.70159015068162
 31
0.0
  0
LINE
  5
323
100
AcDbEntity
100
AcDbLine
  8
CONTOUR
 62
256
370
-1
  6
ByLayer
 10
507.0
 20
172.20159015068162
 30
0.0
 11
516.0
 21
172.20159015068162
 31
0.0
  0
LINE
  5
324
100
AcDbEntity
100
AcDbLine
  8
CONTOUR
 62
256
370
-1
  6
ByLayer
 10
507.0
 20
175.20159015068162
 30
0.0
 11
516.0
 21
175.20159015068162
 31
0.0
  0
LINE
  5
325
100
AcDbEntity
100
AcDbLine
  8
CONTOUR
 62
256
370
-1
  6
ByLayer
 10
608.0
 20
121.70159015068162
 30
0.0
 11
608.0
 21
196.70159015068162
 31
0.0
  0
LINE
  5
326
100
AcDbEntity
100
AcDbLine
  8
CONTOUR
 62
256
370
-1
  6
ByLayer
 10
608.0
 20
196.70159015068162
 30
0.0
 11
723.0
 21
196.70159015068162
 31
0.0
  0
LINE
  5
327
100
AcDbEntity
100
AcDbLine
  8
CONTOUR
 62
256
370
-1
  6
ByLayer
 10
608.0
 20
121.70159015068162
 30
0.0
 11
723.0
 21
121.70159015068162
 31
0.0
  0
LINE
  5
328
100
AcDbEntity
100
AcDbLine
  8
CONTOUR
 62
256
370
-1
  6
ByLayer
 10
516.0
 20
121.70159015068162
 30
0.0
 11
516.0
 21
196.70159015068162
 31
0.0
  0
LINE
  5
329
100
AcDbEntity
100
AcDbLine
  8
CONTOUR
 62
256
370
-1
  6
ByLayer
 10
507.0
 20
121.70159015068162
 30
0.0
 11
507.0
 21
196.70159015068162
 31
0.0
  0
DIMENSION
  5
32A
100
AcDbEntity
  8
TEXT
 62
256
370
-1
  6
ByLayer
100
AcDbDimension
 10
614.0
 20
130.0
 30
0.0
 11
611.0
 21
131.875
 31
0.0
 70
0
 71
5
 72
1
 41
1.0
 42
0.0
  1

  3
Standard
100
AcDbAlignedDimension
 13
608.0
 23
130.0
 33
0.0
 14
614.0
 24
130.0
 34
0.0
 50
0.0
100
AcDbRotatedDimension
  0
DIMENSION
  5
32B
100
AcDbEntity
  8
TEXT
 62
256
370
-1
  6
ByLayer
100
AcDbDimension
 10
650.0
 20
140.0
 30
0.0
 11
629.0
 21
141.875
 31
0.0
 70
0
 71
5
 72
1
 41
1.0
 42
0.0
  1

  3
Standard
100
AcDbAlignedDimension
 13
608.0
 23
140.0
 33
0.0
 14
650.0
 24
140.0
 34
0.0
 50
0.0
100
AcDbRotatedDimension
  0
LINE
  5
32C
100
AcDbEntity
100
AcDbLine
  8
CONTOUR
 62
256
370
-1
  6
ByLayer
 10
514.0
 20
356.12047141078494
 30
0.0
 11
516.0
 21
358.12047141078494
 31
0.0
  0
LINE
  5
32D
100
AcDbEntity
100
AcDbLine
  8
CONTOUR
 62
256
370
-1
  6
ByLayer
 10
514.0
 20
352.12047141078494
 30
0.0
 11
516.0
 21
350.12047141078494
 31
0.0
  0
LINE
  5
32E
100
AcDbEntity
100
AcDbLine
  8
CONTOUR
 62
256
370
-1
  6
ByLayer
 10
514.0
 20
356.12047141078494
 30
0.0
 11
514.0
 21
352.12047141078494
 31
0.0
  0
LINE
  5
32F
100
AcDbEntity
100
AcDbLine
  8
CONTOUR
 62
256
370
-1
  6
ByLayer
 10
514.0
 20
390.12047141078494
 30
0.0
 11
516.0
 21
392.12047141078494
 31
0.0
  0
LINE
  5
330
100
AcDbEntity
100
AcDbLine
  8
CONTOUR
 62
256
370
-1
  6
ByLayer
 10
514.0
 20
386.12047141078494
 30
0.0
 11
516.0
 21
384.12047141078494
 31
0.0
  0
LINE
  5
331
100
AcDbEntity
100
AcDbLine
  8
CONTOUR
 62
256
370
-1
  6
ByLayer
 10
514.0
 20
386.12047141078494
 30
0.0
 11
514.0
 21
390.12047141078494
 31
0.0
  0
LINE
  5
332
100
AcDbEntity
100
AcDbLine
  8
CONTOUR
 62
256
370
-1
  6
ByLayer
 10
501.0
 20
386.12047141078494
 30
0.0
 11
501.0
 21
390.12047141078494
 31
0.0
  0
LINE
  5
333
100
AcDbEntity
100
AcDbLine
  8
CONTOUR
 62
256
370
-1
  6
ByLayer
 10
501.0
 20
352.12047141078494
 30
0.0
 11
501.0
 21
356.12047141078494
 31
0.0
  0
LINE
  5
334
100
AcDbEntity
100
AcDbLine
  8
CONTOUR
 62
256
370
-1
  6
ByLayer
 10
501.0
 20
390.12047141078494
 30
0.0
 11
514.0
 21
390.12047141078494
 31
0.0
  0
LINE
  5
335
100
AcDbEntity
100
AcDbLine
  8
CONTOUR
 62
256
370
-1
  6
ByLayer
 10
501.0
 20
386.12047141078494
 30
0.0
 11
514.0
 21
386.12047141078494
 31
0.0
  0
LINE
  5
336
100
AcDbEntity
100
AcDbLine
  8
CONTOUR
 62
256
370
-1
  6
ByLayer
 10
501.0
 20
356.12047141078494
 30
0.0
 11
514.0
 21
356.12047141078494
 31
0.0
  0
LINE
  5
337
100
AcDbEntity
100
AcDbLine
  8
CONTOUR
 62
256
370
-1
  6
ByLayer
 10
501.0
 20
352.12047141078494
 30
0.0
 11
514.0
 21
352.12047141078494
 31
0.0
  0
LINE
  5
338
100
AcDbEntity
100
AcDbLine
  8
CONTOUR
 62
256
370
-1
  6
ByLayer
 10
507.0
 20
378.62047141078494
 30
0.0
 11
516.0
 21
378.62047141078494
 31
0.0
  0
LINE
  5
339
100
AcDbEntity
100
AcDbLine
  8
CONTOUR
 62
256
370
-1
  6
ByLayer
 10
507.0
 20
375.62047141078494
 30
0.0
 11
516.0
 21
375.62047141078494
 31
0.0
  0
MTEXT
  5
33A
100
AcDbEntity
100
AcDbMText
  8
CONTOUR
 62
256
370
-1
  6
ByLayer
 10
550.0
 20
100.0
 30
0.0
 40
5.0
 41
100.0
 71
7
 72
2
  1
DS0.8-15\~:\~DS0.8-56\~+\~Twin\~Motor\~Gear\~Box
  7
normallatin1
 50
0.0
 73
0
 44
1.0
  0
MTEXT
  5
33B
100
AcDbEntity
100
AcDbMText
  8
CONTOUR
 62
256
370
-1
  6
ByLayer
 10
550.0
 20
-100.0
 30
0.0
 40
5.0
 41
100.0
 71
7
 72
2
  1
DS0.8-15\~:\~DS0.8-64\~+\~Twin\~Motor\~Gear\~Box
  7
normallatin1
 50
0.0
 73
0
 44
1.0
  0
LINE
  5
33C
100
AcDbEntity
100
AcDbLine
  8
CONTOUR
 62
256
370
-1
  6
ByLayer
 10
507.0
 20
-30.987251715318365
 30
0.0
 11
516.0
 21
-30.987251715318365
 31
0.0
  0
LINE
  5
33D
100
AcDbEntity
100
AcDbLine
  8
CONTOUR
 62
256
370
-1
  6
ByLayer
 10
507.0
 20
-27.987251715318365
 30
0.0
 11
516.0
 21
-27.987251715318365
 31
0.0
  0
CIRCLE
  5
33E
100
AcDbEntity
100
AcDbCircle
  8
CONTOUR
 62
256
370
-1
  6
ByLayer
 10
650.0
 20
-11.487251715318365
 30
0.0
 40
2.0
  0
CIRCLE
  5
33F
100
AcDbEntity
100
AcDbCircle
  8
CONTOUR
 62
256
370
-1
  6
ByLayer
 10
650.0
 20
-45.487251715318365
 30
0.0
 40
2.0
  0
CIRCLE
  5
340
100
AcDbEntity
100
AcDbCircle
  8
CONTOUR
 62
256
370
-1
  6
ByLayer
 10
650.0
 20
-11.487251715318365
 30
0.0
 40
4.0
  0
CIRCLE
  5
341
100
AcDbEntity
100
AcDbCircle
  8
CONTOUR
 62
256
370
-1
  6
ByLayer
 10
650.0
 20
-45.487251715318365
 30
0.0
 40
4.0
  0
LINE
  5
342
100
AcDbEntity
100
AcDbLine
  8
CONTOUR
 62
256
370
-1
  6
ByLayer
 10
514.0
 20
-43.487251715318365
 30
0.0
 11
516.0
 21
-41.487251715318365
 31
0.0
  0
LINE
  5
343
100
AcDbEntity
100
AcDbLine
  8
CONTOUR
 62
256
370
-1
  6
ByLayer
 10
514.0
 20
-47.487251715318365
 30
0.0
 11
516.0
 21
-49.487251715318365
 31
0.0
  0
LINE
  5
344
100
AcDbEntity
100
AcDbLine
  8
CONTOUR
 62
256
370
-1
  6
ByLayer
 10
514.0
 20
-43.487251715318365
 30
0.0
 11
514.0
 21
-47.487251715318365
 31
0.0
  0
LINE
  5
345
100
AcDbEntity
100
AcDbLine
  8
CONTOUR
 62
256
370
-1
  6
ByLayer
 10
514.0
 20
-9.4872517153183651
 30
0.0
 11
516.0
 21
-7.4872517153183651
 31
0.0
  0
LINE
  5
346
100
AcDbEntity
100
AcDbLine
  8
CONTOUR
 62
256
370
-1
  6
ByLayer
 10
514.0
 20
-13.487251715318365
 30
0.0
 11
516.0
 21
-15.487251715318365
 31
0.0
  0
LINE
  5
347
100
AcDbEntity
100
AcDbLine
  8
CONTOUR
 62
256
370
-1
  6
ByLayer
 10
514.0
 20
-13.487251715318365
 30
0.0
 11
514.0
 21
-9.4872517153183651
 31
0.0
  0
LINE
  5
348
100
AcDbEntity
100
AcDbLine
  8
CONTOUR
 62
256
370
-1
  6
ByLayer
 10
501.0
 20
-13.487251715318365
 30
0.0
 11
501.0
 21
-9.4872517153183651
 31
0.0
  0
LINE
  5
349
100
AcDbEntity
100
AcDbLine
  8
CONTOUR
 62
256
370
-1
  6
ByLayer
 10
501.0
 20
-47.487251715318365
 30
0.0
 11
501.0
 21
-43.487251715318365
 31
0.0
  0
LINE
  5
34A
100
AcDbEntity
100
AcDbLine
  8
CONTOUR
 62
256
370
-1
  6
ByLayer
 10
501.0
 20
-9.4872517153183651
 30
0.0
 11
514.0
 21
-9.4872517153183651
 31
0.0
  0
LINE
  5
34B
100
AcDbEntity
100
AcDbLine
  8
CONTOUR
 62
256
370
-1
  6
ByLayer
 10
501.0
 20
-13.487251715318365
 30
0.0
 11
514.0
 21
-13.487251715318365
 31
0.0
  0
LINE
  5
34C
100
AcDbEntity
100
AcDbLine
  8
CONTOUR
 62
256
370
-1
  6
ByLayer
 10
501.0
 20
-43.487251715318365
 30
0.0
 11
514.0
 21
-43.487251715318365
 31
0.0
  0
LINE
  5
34D
100
AcDbEntity
100
AcDbLine
  8
CONTOUR
 62
256
370
-1
  6
ByLayer
 10
501.0
 20
-47.487251715318365
 30
0.0
 11
514.0
 21
-47.487251715318365
 31
0.0
  0
LINE
  5
34E
100
AcDbEntity
100
AcDbLine
  8
CONTOUR
 62
256
370
-1
  6
ByLayer
 10
516.0
 20
-83.487251715318365
 30
0.0
 11
516.0
 21
-3.4872517153183651
 31
0.0
  0
LINE
  5
34F
100
AcDbEntity
100
AcDbLine
  8
CONTOUR
 62
256
370
-1
  6
ByLayer
 10
507.0
 20
-83.487251715318365
 30
0.0
 11
507.0
 21
-3.4204714107849554
 31
0.0
  0
LINE
  5
350
100
AcDbEntity
100
AcDbLine
  8
CONTOUR
 62
256
370
-1
  6
ByLayer
 10
507.0
 20
-83.487251715318365
 30
0.0
 11
516.0
 21
-83.487251715318365
 31
0.0
  0
LINE
  5
351
100
AcDbEntity
100
AcDbLine
  8
CONTOUR
 62
256
370
-1
  6
ByLayer
 10
507.0
 20
-3.4872517153183651
 30
0.0
 11
516.0
 21
-3.4872517153183651
 31
0.0
  0
DIMENSION
  5
352
100
AcDbEntity
  8
TEXT
 62
256
370
-1
  6
ByLayer
100
AcDbDimension
 10
630.0
 20
-11.487251715318365
 30
0.0
 11
628.125
 21
-7.4872517153183651
 31
0.0
 70
0
 71
5
 72
1
 41
1.0
 42
0.0
  1

  3
Standard
100
AcDbAlignedDimension
 13
630.0
 23
-3.4872517153183651
 33
0.0
 14
630.0
 24
-11.487251715318365
 34
0.0
 50
90.0
100
AcDbRotatedDimension
  0
DIMENSION
  5
353
100
AcDbEntity
  8
TEXT
 62
256
370
-1
  6
ByLayer
100
AcDbDimension
 10
630.0
 20
-45.487251715318365
 30
0.0
 11
628.125
 21
-28.487251715318365
 31
0.0
 70
0
 71
5
 72
1
 41
1.0
 42
0.0
  1

  3
Standard
100
AcDbAlignedDimension
 13
630.0
 23
-11.487251715318365
 33
0.0
 14
630.0
 24
-45.487251715318365
 34
0.0
 50
90.0
100
AcDbRotatedDimension
  0
DIMENSION
  5
354
100
AcDbEntity
  8
TEXT
 62
256
370
-1
  6
ByLayer
100
AcDbDimension
 10
620.0
 20
-29.487251715318365
 30
0.0
 11
618.125
 21
-16.487251715318365
 31
0.0
 70
0
 71
5
 72
1
 41
1.0
 42
0.0
  1

  3
Standard
100
AcDbAlignedDimension
 13
620.0
 23
-3.4872517153183651
 33
0.0
 14
620.0
 24
-29.487251715318365
 34
0.0
 50
90.0
100
AcDbRotatedDimension
  0
DIMENSION
  5
355
100
AcDbEntity
  8
TEXT
 62
256
370
-1
  6
ByLayer
100
AcDbDimension
 10
350.0
 20
196.19999999999999
 30
0.0
 11
348.125
 21
161.19999999999999
 31
0.0
 70
0
 71
5
 72
1
 41
1.0
 42
0.0
  1

  3
Standard
100
AcDbAlignedDimension
 13
337.0
 23
126.19999999999999
 33
0.0
 14
322.0
 24
196.19999999999999
 34
0.0
 50
90.0
100
AcDbRotatedDimension
  0
CIRCLE
  5
356
100
AcDbEntity
100
AcDbCircle
  8
CONTOUR
 62
256
370
-1
  6
ByLayer
 10
650.0
 20
754.13056347544
 30
0.0
 40
2.0
  0
CIRCLE
  5
357
100
AcDbEntity
100
AcDbCircle
  8
CONTOUR
 62
256
370
-1
  6
ByLayer
 10
650.0
 20
754.13056347544
 30
0.0
 40
4.0
  0
CIRCLE
  5
358
100
AcDbEntity
100
AcDbCircle
  8
CONTOUR
 62
256
370
-1
  6
ByLayer
 10
650.0
 20
788.13056347544
 30
0.0
 40
2.0
  0
CIRCLE
  5
359
100
AcDbEntity
100
AcDbCircle
  8
CONTOUR
 62
256
370
-1
  6
ByLayer
 10
650.0
 20
788.13056347544
 30
0.0
 40
4.0
  0
LINE
  5
35A
100
AcDbEntity
100
AcDbLine
  8
CONTOUR
 62
256
370
-1
  6
ByLayer
 10
514.0
 20
756.13056347544
 30
0.0
 11
516.0
 21
758.13056347544
 31
0.0
  0
LINE
  5
35B
100
AcDbEntity
100
AcDbLine
  8
CONTOUR
 62
256
370
-1
  6
ByLayer
 10
514.0
 20
752.13056347544
 30
0.0
 11
516.0
 21
750.13056347544
 31
0.0
  0
LINE
  5
35C
100
AcDbEntity
100
AcDbLine
  8
CONTOUR
 62
256
370
-1
  6
ByLayer
 10
514.0
 20
756.13056347544
 30
0.0
 11
514.0
 21
752.13056347544
 31
0.0
  0
LINE
  5
35D
100
AcDbEntity
100
AcDbLine
  8
CONTOUR
 62
256
370
-1
  6
ByLayer
 10
514.0
 20
790.13056347544
 30
0.0
 11
516.0
 21
792.13056347544
 31
0.0
  0
LINE
  5
35E
100
AcDbEntity
100
AcDbLine
  8
CONTOUR
 62
256
370
-1
  6
ByLayer
 10
514.0
 20
786.13056347544
 30
0.0
 11
516.0
 21
784.13056347544
 31
0.0
  0
LINE
  5
35F
100
AcDbEntity
100
AcDbLine
  8
CONTOUR
 62
256
370
-1
  6
ByLayer
 10
514.0
 20
786.13056347544
 30
0.0
 11
514.0
 21
790.13056347544
 31
0.0
  0
LINE
  5
360
100
AcDbEntity
100
AcDbLine
  8
CONTOUR
 62
256
370
-1
  6
ByLayer
 10
501.0
 20
786.13056347544
 30
0.0
 11
501.0
 21
790.13056347544
 31
0.0
  0
LINE
  5
361
100
AcDbEntity
100
AcDbLine
  8
CONTOUR
 62
256
370
-1
  6
ByLayer
 10
501.0
 20
752.13056347544
 30
0.0
 11
501.0
 21
756.13056347544
 31
0.0
  0
LINE
  5
362
100
AcDbEntity
100
AcDbLine
  8
CONTOUR
 62
256
370
-1
  6
ByLayer
 10
501.0
 20
790.13056347544
 30
0.0
 11
514.0
 21
790.13056347544
 31
0.0
  0
LINE
  5
363
100
AcDbEntity
100
AcDbLine
  8
CONTOUR
 62
256
370
-1
  6
ByLayer
 10
501.0
 20
786.13056347544
 30
0.0
 11
514.0
 21
786.13056347544
 31
0.0
  0
LINE
  5
364
100
AcDbEntity
100
AcDbLine
  8
CONTOUR
 62
256
370
-1
  6
ByLayer
 10
501.0
 20
756.13056347544
 30
0.0
 11
514.0
 21
756.13056347544
 31
0.0
  0
LINE
  5
365
100
AcDbEntity
100
AcDbLine
  8
CONTOUR
 62
256
370
-1
  6
ByLayer
 10
501.0
 20
752.13056347544
 30
0.0
 11
514.0
 21
752.13056347544
 31
0.0
  0
DIMENSION
  5
366
100
AcDbEntity
  8
TEXT
 62
256
370
-1
  6
ByLayer
100
AcDbDimension
 10
627.0
 20
788.13056347544
 30
0.0
 11
625.125
 21
792.13056347544
 31
0.0
 70
0
 71
5
 72
0
 41
1.0
 42
0.0
  1

  3
Standard
100
AcDbAlignedDimension
 13
627.0
 23
796.13056347544
 33
0.0
 14
627.0
 24
788.13056347544
 34
0.0
 50
90.0
100
AcDbRotatedDimension
  0
DIMENSION
  5
367
100
AcDbEntity
  8
TEXT
 62
256
370
-1
  6
ByLayer
100
AcDbDimension
 10
627.0
 20
754.13056347544
 30
0.0
 11
625.125
 21
771.13056347544
 31
0.0
 70
0
 71
5
 72
0
 41
1.0
 42
0.0
  1

  3
Standard
100
AcDbAlignedDimension
 13
627.0
 23
788.13056347544
 33
0.0
 14
627.0
 24
754.13056347544
 34
0.0
 50
90.0
100
AcDbRotatedDimension
  0
DIMENSION
  5
368
100
AcDbEntity
  8
TEXT
 62
256
370
-1
  6
ByLayer
100
AcDbDimension
 10
606.0
 20
740.0
 30
0.0
 11
628.0
 21
741.875
 31
0.0
 70
0
 71
5
 72
1
 41
1.0
 42
0.0
  1

  3
Standard
100
AcDbAlignedDimension
 13
650.0
 23
747.5
 33
0.0
 14
606.0
 24
754.13056347544
 34
0.0
 50
0.0
100
AcDbRotatedDimension
  0
DIMENSION
  5
369
100
AcDbEntity
  8
TEXT
 62
256
370
-1
  6
ByLayer
100
AcDbDimension
 10
612.0
 20
745.0
 30
0.0
 11
609.0
 21
746.875
 31
0.0
 70
0
 71
5
 72
1
 41
1.0
 42
0.0
  1

  3
Standard
100
AcDbAlignedDimension
 13
606.0
 23
745.0
 33
0.0
 14
612.0
 24
745.0
 34
0.0
 50
0.0
100
AcDbRotatedDimension
  0
DIMENSION
  5
36A
100
AcDbEntity
  8
TEXT
 62
256
370
-1
  6
ByLayer
100
AcDbDimension
 10
620.0
 20
760.13056347544
 30
0.0
 11
618.125
 21
778.13056347544
 31
0.0
 70
0
 71
5
 72
1
 41
1.0
 42
0.0
  1

  3
Standard
100
AcDbAlignedDimension
 13
620.0
 23
796.13056347544
 33
0.0
 14
620.0
 24
760.13056347544
 34
0.0
 50
90.0
100
AcDbRotatedDimension
  0
LINE
  5
36B
100
AcDbEntity
100
AcDbLine
  8
CONTOUR
 62
256
370
-1
  6
ByLayer
 10
606.0
 20
721.13056347544
 30
0.0
 11
606.0
 21
796.13056347544
 31
0.0
  0
LINE
  5
36C
100
AcDbEntity
100
AcDbLine
  8
CONTOUR
 62
256
370
-1
  6
ByLayer
 10
507.0
 20
721.13056347544
 30
0.0
 11
507.0
 21
796.5
 31
0.0
  0
LINE
  5
36D
100
AcDbEntity
100
AcDbLine
  8
CONTOUR
 62
256
370
-1
  6
ByLayer
 10
516.0
 20
721.13056347544
 30
0.0
 11
516.0
 21
796.13056347544
 31
0.0
  0
LINE
  5
36E
100
AcDbEntity
100
AcDbLine
  8
CONTOUR
 62
256
370
-1
  6
ByLayer
 10
516.0
 20
721.13056347544
 30
0.0
 11
507.0
 21
721.13056347544
 31
0.0
  0
LINE
  5
36F
100
AcDbEntity
100
AcDbLine
  8
CONTOUR
 62
256
370
-1
  6
ByLayer
 10
507.0
 20
326.12047141078494
 30
0.0
 11
507.0
 21
396.5
 31
0.0
  0
LINE
  5
370
100
AcDbEntity
100
AcDbLine
  8
CONTOUR
 62
256
370
-1
  6
ByLayer
 10
516.0
 20
326.12047141078494
 30
0.0
 11
516.0
 21
396.12047141078494
 31
0.0
  0
LINE
  5
371
100
AcDbEntity
100
AcDbLine
  8
CONTOUR
 62
256
370
-1
  6
ByLayer
 10
292.0
 20
126.19999999999997
 30
0.0
 11
292.0
 21
196.19999999999996
 31
0.0
  0
DIMENSION
  5
372
100
AcDbEntity
  8
TEXT
 62
256
370
-1
  6
ByLayer
100
AcDbDimension
 10
292.0
 20
110.0
 30
0.0
 11
249.5
 21
111.875
 31
0.0
 70
0
 71
5
 72
1
 41
1.0
 42
0.0
  1

  3
Standard
100
AcDbAlignedDimension
 13
207.0
 23
126.19999999999999
 33
0.0
 14
292.0
 24
126.19999999999999
 34
0.0
 50
0.0
100
AcDbRotatedDimension
  0
LINE
  5
373
100
AcDbEntity
100
AcDbLine
  8
CONTOUR
 62
256
370
-1
  6
ByLayer
 10
723.0
 20
121.70159015068162
 30
0.0
 11
723.0
 21
196.7015901506816
 31
0.0
  0
LINE
  5
374
100
AcDbEntity
100
AcDbLine
  8
CONTOUR
 62
256
370
-1
  6
ByLayer
 10
665.0
 20
121.70159015068162
 30
0.0
 11
723.0
 21
121.70159015068162
 31
0.0
  0
DIMENSION
  5
375
100
AcDbEntity
  8
TEXT
 62
256
370
-1
  6
ByLayer
100
AcDbDimension
 10
723.0
 20
115.0
 30
0.0
 11
665.5
 21
116.875
 31
0.0
 70
0
 71
5
 72
1
 41
1.0
 42
0.0
  1

  3
Standard
100
AcDbAlignedDimension
 13
608.0
 23
121.70159015068162
 33
0.0
 14
723.0
 24
121.70159015068162
 34
0.0
 50
0.0
100
AcDbRotatedDimension
  0
DIMENSION
  5
376
100
AcDbEntity
  8
TEXT
 62
256
370
-1
  6
ByLayer
100
AcDbDimension
 10
750.0
 20
196.70159015068162
 30
0.0
 11
748.125
 21
159.20159015068162
 31
0.0
 70
0
 71
5
 72
1
 41
1.0
 42
0.0
  1

  3
Standard
100
AcDbAlignedDimension
 13
723.0
 23
121.70159015068162
 33
0.0
 14
723.0
 24
196.70159015068162
 34
0.0
 50
90.0
100
AcDbRotatedDimension
  0
DIMENSION
  5
377
100
AcDbEntity
  8
TEXT
 62
256
370
-1
  6
ByLayer
100
AcDbDimension
 10
724.0
 20
721.13056347544
 30
0.0
 11
722.125
 21
758.63056347544
 31
0.0
 70
0
 71
5
 72
1
 41
1.0
 42
0.0
  1

  3
Standard
100
AcDbAlignedDimension
 13
701.0
 23
796.13056347544
 33
0.0
 14
701.0
 24
721.13056347544
 34
0.0
 50
90.0
100
AcDbRotatedDimension
  0
DIMENSION
  5
378
100
AcDbEntity
  8
TEXT
 62
256
370
-1
  6
ByLayer
100
AcDbDimension
 10
750.0
 20
-3.4872517153183686
 30
0.0
 11
748.125
 21
-43.487251715318365
 31
0.0
 70
0
 71
5
 72
1
 41
1.0
 42
0.0
  1

  3
Standard
100
AcDbAlignedDimension
 13
723.0
 23
-83.487251715318365
 33
0.0
 14
723.0
 24
-3.4872517153183651
 34
0.0
 50
90.0
100
AcDbRotatedDimension
  0
DIMENSION
  5
379
100
AcDbEntity
  8
TEXT
 62
256
370
-1
  6
ByLayer
100
AcDbDimension
 10
750.0
 20
595.90000000000009
 30
0.0
 11
748.125
 21
560.90000000000009
 31
0.0
 70
0
 71
5
 72
1
 41
1.0
 42
0.0
  1

  3
Standard
100
AcDbAlignedDimension
 13
723.0
 23
525.90000000000009
 33
0.0
 14
723.0
 24
595.90000000000009
 34
0.0
 50
90.0
100
AcDbRotatedDimension
  0
INSERT
  5
37A
100
AcDbEntity
100
AcDbBlockReference
  8
0
 62
256
370
-1
  6
ByLayer
  2
controller front
 10
262.0
 20
150.0
 30
0.0
 44
1.0
 45
1.0
  0
INSERT
  5
37B
100
AcDbEntity
100
AcDbBlockReference
  8
0
 62
256
370
-1
  6
ByLayer
  2
controller front
 10
663.0
 20
554.0
 30
0.0
 44
1.0
 45
1.0
  0
INSERT
  5
37C
100
AcDbEntity
100
AcDbBlockReference
  8
0
 62
256
370
-1
  6
ByLayer
  2
battery 2AA front
 10
665.0
 20
137.20159015068162
 30
0.0
 44
1.0
 45
1.0
  0
INSERT
  5
37D
100
AcDbEntity
100
AcDbBlockReference
  8
0
 62
256
370
-1
  6
ByLayer
  2
controller front
 10
302.0
 20
545.70000000000005
 30
0.0
 50
270.0
 44
1.0
 45
1.0
  0
INSERT
  5
37E
100
AcDbEntity
100
AcDbBlockReference
  8
0
 62
256
370
-1
  6
ByLayer
  2
controller front
 10
703.0
 20
196.70159015068162
 30
0.0
 50
270.0
 44
1.0
 45
1.0
  0
INSERT
  5
37F
100
AcDbEntity
100
AcDbBlockReference
  8
0
 62
256
370
-1
  6
ByLayer
  2
DS1-45 front
 10
130.0
 20
209.0
 30
0.0
 44
1.0
 45
1.0
  0
INSERT
  5
380
100
AcDbEntity
100
AcDbBlockReference
  8
0
 62
256
370
-1
  6
ByLayer
  2
DS0.8-64 front
 10
530.0
 20
9.0
 30
0.0
 44
1.0
 45
1.0
  0
INSERT
  5
381
100
AcDbEntity
100
AcDbBlockReference
  8
0
 62
256
370
-1
  6
ByLayer
  2
DS0.8-56 front
 10
530.0
 20
209.0
 30
0.0
 44
1.0
 45
1.0
  0
INSERT
  5
382
100
AcDbEntity
100
AcDbBlockReference
  8
0
 62
256
370
-1
  6
ByLayer
  2
DS0.8-56 front
 10
530.0
 20
609.0
 30
0.0
 44
1.0
 45
1.0
  0
INSERT
  5
383
100
AcDbEntity
100
AcDbBlockReference
  8
0
 62
256
370
-1
  6
ByLayer
  2
DS0.8-50 front
 10
530.0
 20
409.0
 30
0.0
 44
1.0
 45
1.0
  0
INSERT
  5
384
100
AcDbEntity
100
AcDbBlockReference
  8
0
 62
256
370
-1
  6
ByLayer
  2
DS0.8-45 front
 10
530.0
 20
809.0
 30
0.0
 44
1.0
 45
1.0
  0
INSERT
  5
385
100
AcDbEntity
100
AcDbBlockReference
  8
0
 62
256
370
-1
  6
ByLayer
  2
DS0.8-15 front
 10
527.60000000000002
 20
-22.487251715318365
 30
0.0
 44
1.0
 45
1.0
  0
INSERT
  5
386
100
AcDbEntity
100
AcDbBlockReference
  8
0
 62
256
370
-1
  6
ByLayer
  2
DS0.8-15 front
 10
527.60000000000002
 20
180.70159015068162
 30
0.0
 44
1.0
 45
1.0
  0
INSERT
  5
387
100
AcDbEntity
100
AcDbBlockReference
  8
0
 62
256
370
-1
  6
ByLayer
  2
DS0.8-15 front
 10
527.5
 20
383.12047141078494
 30
0.0
 44
1.0
 45
1.0
  0
INSERT
  5
388
100
AcDbEntity
100
AcDbBlockReference
  8
0
 62
256
370
-1
  6
ByLayer
  2
DS0.8-15 front
 10
527.5
 20
371.12047141078494
 30
0.0
 44
1.0
 45
1.0
  0
INSERT
  5
389
100
AcDbEntity
100
AcDbBlockReference
  8
0
 62
256
370
-1
  6
ByLayer
  2
DS0.8-15 front
 10
527.5
 20
785.13056347544
 30
0.0
 44
1.0
 45
1.0
  0
INSERT
  5
38A
100
AcDbEntity
100
AcDbBlockReference
  8
0
 62
256
370
-1
  6
ByLayer
  2
DS1-12 side
 10
207.0
 20
180.5
 30
0.0
 41
1.0
 42
-1.0
 43
1.0
 50
180.0
 44
1.0
 45
1.0
  0
INSERT
  5
38B
100
AcDbEntity
100
AcDbBlockReference
  8
0
 62
256
370
-1
  6
ByLayer
  2
DS1-12 side
 10
206.0
 20
568.0
 30
0.0
 41
1.0
 42
-1.0
 43
1.0
 50
180.0
 44
1.0
 45
1.0
  0
INSERT
  5
38C
100
AcDbEntity
100
AcDbBlockReference
  8
0
 62
256
370
-1
  6
ByLayer
  2
DS0.8-15 side
 10
601.0
 20
785.13056347544
 30
0.0
 44
1.0
 45
1.0
  0
INSERT
  5
38D
100
AcDbEntity
100
AcDbBlockReference
  8
0
 62
256
370
-1
  6
ByLayer
  2
DS0.8-15 side
 10
601.0
 20
383.12047141078494
 30
0.0
 44
1.0
 45
1.0
  0
INSERT
  5
38E
100
AcDbEntity
100
AcDbBlockReference
  8
0
 62
256
370
-1
  6
ByLayer
  2
DS0.8-15 side
 10
601.0
 20
371.12047141078494
 30
0.0
 44
1.0
 45
1.0
  0
INSERT
  5
38F
100
AcDbEntity
100
AcDbBlockReference
  8
0
 62
256
370
-1
  6
ByLayer
  2
DS0.8-15 side
 10
601.0
 20
180.70159015068162
 30
0.0
 44
1.0
 45
1.0
  0
INSERT
  5
390
100
AcDbEntity
100
AcDbBlockReference
  8
0
 62
256
370
-1
  6
ByLayer
  2
DS0.8-15 side
 10
601.0
 20
-22.487251715318365
 30
0.0
 44
1.0
 45
1.0
  0
INSERT
  5
391
100
AcDbEntity
100
AcDbBlockReference
  8
0
 62
256
370
-1
  6
ByLayer
  2
DS0.8-16 side
 10
601.0
 20
580.20000000000005
 30
0.0
 44
1.0
 45
1.0
  0
INSERT
  5
392
100
AcDbEntity
100
AcDbBlockReference
  8
0
 62
256
370
-1
  6
ByLayer
  2
DS0.8-45 side
 10
601.0
 20
809.0
 30
0.0
 44
1.0
 45
1.0
  0
INSERT
  5
393
100
AcDbEntity
100
AcDbBlockReference
  8
0
 62
256
370
-1
  6
ByLayer
  2
DS0.8-50 side
 10
601.0
 20
409.0
 30
0.0
 44
1.0
 45
1.0
  0
INSERT
  5
394
100
AcDbEntity
100
AcDbBlockReference
  8
0
 62
256
370
-1
  6
ByLayer
  2
DS0.8-56 side
 10
601.0
 20
209.0
 30
0.0
 44
1.0
 45
1.0
  0
INSERT
  5
395
100
AcDbEntity
100
AcDbBlockReference
  8
0
 62
256
370
-1
  6
ByLayer
  2
DS0.8-56 side
 10
601.0
 20
609.0
 30
0.0
 44
1.0
 45
1.0
  0
INSERT
  5
396
100
AcDbEntity
100
AcDbBlockReference
  8
0
 62
256
370
-1
  6
ByLayer
  2
DS0.8-64 side
 10
601.0
 20
9.0
 30
0.0
 44
1.0
 45
1.0
  0
INSERT
  5
397
100
AcDbEntity
100
AcDbBlockReference
  8
0
 62
256
370
-1
  6
ByLayer
  2
DS1-70 side
 10
200.0
 20
609.0
 30
0.0
 44
1.0
 45
1.0
  0
INSERT
  5
398
100
AcDbEntity
100
AcDbBlockReference
  8
0
 62
256
370
-1
  6
ByLayer
  2
DS1-45 side
 10
201.0
 20
209.0
 30
0.0
 44
1.0
 45
1.0
  0
INSERT
  5
399
100
AcDbEntity
100
AcDbBlockReference
  8
0
 62
256
370
-1
  6
ByLayer
  2
6-speed HE front
 10
636.5
 20
560.90000000000009
 30
0.0
 44
1.0
 45
1.0
  0
INSERT
  5
39A
100
AcDbEntity
100
AcDbBlockReference
  8
0
 62
256
370
-1
  6
ByLayer
  2
6-speed HE front
 10
235.5
 20
548.70000000000005
 30
0.0
 44
1.0
 45
1.0
  0
INSERT
  5
39B
100
AcDbEntity
100
AcDbBlockReference
  8
0
 62
256
370
-1
  6
ByLayer
  2
6-speed HE front
 10
235.5
 20
161.19999999999999
 30
0.0
 44
1.0
 45
1.0
  0
INSERT
  5
39C
100
AcDbEntity
100
AcDbBlockReference
  8
0
 62
256
370
-1
  6
ByLayer
  2
twin motor front
 10
638.0
 20
-29.487251715318365
 30
0.0
 44
1.0
 45
1.0
  0
INSERT
  5
39D
100
AcDbEntity
100
AcDbBlockReference
  8
0
 62
256
370
-1
  6
ByLayer
  2
twin motor front
 10
638.0
 20
173.70159015068162
 30
0.0
 44
1.0
 45
1.0
  0
INSERT
  5
39E
100
AcDbEntity
100
AcDbBlockReference
  8
0
 62
256
370
-1
  6
ByLayer
  2
twin motor side
 10
516.0
 20
173.70159015068162
 30
0.0
 44
1.0
 45
1.0
  0
INSERT
  5
39F
100
AcDbEntity
100
AcDbBlockReference
  8
0
 62
256
370
-1
  6
ByLayer
  2
twin motor side
 10
516.0
 20
-29.487251715318365
 30
0.0
 44
1.0
 45
1.0
  0
INSERT
  5
3A0
100
AcDbEntity
100
AcDbBlockReference
  8
0
 62
256
370
-1
  6
ByLayer
  2
4-speed crank side
 10
516.0
 20
760.13056347544
 30
0.0
 44
1.0
 45
1.0
  0
INSERT
  5
3A1
100
AcDbEntity
100
AcDbBlockReference
  8
0
 62
256
370
-1
  6
ByLayer
  2
4-speed crank front
 10
627.0
 20
760.13056347544
 30
0.0
 44
1.0
 45
1.0
  0
INSERT
  5
3A2
100
AcDbEntity
100
AcDbBlockReference
  8
0
 62
256
370
-1
  6
ByLayer
  2
double gear box front
 10
643.0
 20
377.12047141078494
 30
0.0
 44
1.0
 45
1.0
  0
INSERT
  5
3A3
100
AcDbEntity
100
AcDbBlockReference
  8
0
 62
256
370
-1
  6
ByLayer
  2
double gear box side
 10
516.0
 20
377.12047141078494
 30
0.0
 44
1.0
 45
1.0
  0
LINE
  5
3A4
100
AcDbEntity
100
AcDbLine
  8
CONTOUR
 62
256
370
-1
  6
ByLayer
 10
507.0
 20
326.12047141078494
 30
0.0
 11
516.0
 21
326.12047141078494
 31
0.0
  0
INSERT
  5
3A5
100
AcDbEntity
100
AcDbBlockReference
  8
0
 62
256
370
-1
  6
ByLayer
  2
M4x70
 10
259.80000000000001
 20
180.5
 30
0.0
 44
1.0
 45
1.0
  0
INSERT
  5
3A6
100
AcDbEntity
100
AcDbBlockReference
  8
0
 62
256
370
-1
  6
ByLayer
  2
M4x70
 10
662.79999999999995
 20
580.20000000000005
 30
0.0
 44
1.0
 45
1.0
  0
INSERT
  5
3A7
100
AcDbEntity
100
AcDbBlockReference
  8
0
 62
256
370
-1
  6
ByLayer
  2
M4x70
 10
258.80000000000001
 20
568.0
 30
0.0
 44
1.0
 45
1.0
  0
INSERT
  5
3A8
100
AcDbEntity
100
AcDbBlockReference
  8
0
 62
256
370
-1
  6
ByLayer
  2
M3x70
 10
663.60000000000002
 20
-22.487251715318365
 30
0.0
 44
1.0
 45
1.0
  0
INSERT
  5
3A9
100
AcDbEntity
100
AcDbBlockReference
  8
0
 62
256
370
-1
  6
ByLayer
  2
M3x70
 10
663.60000000000002
 20
180.70159015068162
 30
0.0
 44
1.0
 45
1.0
  0
INSERT
  5
3AA
100
AcDbEntity
100
AcDbBlockReference
  8
0
 62
256
370
-1
  6
ByLayer
  2
M3x80
 10
673.60000000000002
 20
371.12047141078494
 30
0.0
 44
1.0
 45
1.0
  0
INSERT
  5
3AB
100
AcDbEntity
100
AcDbBlockReference
  8
0
 62
256
370
-1
  6
ByLayer
  2
M3x50
 10
643.60000000000002
 20
785.13056347544
 30
0.0
 44
1.0
 45
1.0
  0
LINE
  5
3AC
100
AcDbEntity
100
AcDbLine
  8
CONTOUR
 62
256
370
-1
  6
ByLayer
 10
207.0
 20
196.19999999999999
 30
0.0
 11
292.0
 21
196.19999999999999
 31
0.0
  0
LINE
  5
3AD
100
AcDbEntity
100
AcDbLine
  8
CONTOUR
 62
256
370
-1
  6
ByLayer
 10
207.0
 20
126.19999999999999
 30
0.0
 11
292.0
 21
126.19999999999999
 31
0.0
  0
CIRCLE
  5
3AE
100
AcDbEntity
100
AcDbCircle
  8
AUX
 62
256
370
-1
  6
ByLayer
 10
130.0
 20
209.0
 30
0.0
 40
28.5
  0
CIRCLE
  5
3AF
100
AcDbEntity
100
AcDbCircle
  8
AUX
 62
256
370
-1
  6
ByLayer
 10
530.0
 20
409.0
 30
0.0
 40
26.0
  0
CIRCLE
  5
3B0
100
AcDbEntity
100
AcDbCircle
  8
AUX
 62
256
370
-1
  6
ByLayer
 10
530.0
 20
209.0
 30
0.0
 40
28.399999999999999
  0
INSERT
  5
3B1
100
AcDbEntity
100
AcDbBlockReference
  8
0
 62
256
370
-1
  6
ByLayer
  2
battery 2AA side
 10
292.0
 20
188.19999999999999
 30
0.0
 44
1.0
 45
1.0
  0
INSERT
  5
3B2
100
AcDbEntity
100
AcDbBlockReference
  8
0
 62
256
370
-1
  6
ByLayer
  2
M3x80
 10
673.0
 20
383.12047141078494
 30
0.0
 44
1.0
 45
1.0
  0
LINE
  5
3B3
100
AcDbEntity
100
AcDbLine
  8
CONTOUR
 62
256
370
-1
  6
ByLayer
 10
607.0
 20
316.12047141078494
 30
0.0
 11
607.0
 21
396.12047141078494
 31
0.0
  0
LINE
  5
3B4
100
AcDbEntity
100
AcDbLine
  8
CONTOUR
 62
256
370
-1
  6
ByLayer
 10
692.0
 20
316.12047141078494
 30
0.0
 11
692.0
 21
396.12047141078494
 31
0.0
  0
LINE
  5
3B5
100
AcDbEntity
100
AcDbLine
  8
CONTOUR
 62
256
370
-1
  6
ByLayer
 10
607.0
 20
316.12047141078494
 30
0.0
 11
692.0
 21
316.12047141078494
 31
0.0
  0
LINE
  5
3B6
100
AcDbEntity
100
AcDbLine
  8
CONTOUR
 62
256
370
-1
  6
ByLayer
 10
607.0
 20
396.12047141078494
 30
0.0
 11
692.0
 21
396.12047141078494
 31
0.0
  0
INSERT
  5
3B7
100
AcDbEntity
100
AcDbBlockReference
  8
0
 62
256
370
-1
  6
ByLayer
  2
battery 2AA side
 10
692.0
 20
388.12047141078494
 30
0.0
 44
1.0
 45
1.0
  0
INSERT
  5
3B8
100
AcDbEntity
100
AcDbBlockReference
  8
0
 62
256
370
-1
  6
ByLayer
  2
controller front
 10
662.0
 20
336.12047141078494
 30
0.0
 44
1.0
 45
1.0
  0
LINE
  5
3B9
100
AcDbEntity
100
AcDbLine
  8
CONTOUR
 62
256
370
-1
  6
ByLayer
 10
691.0
 20
721.13056347544
 30
0.0
 11
691.0
 21
796.13056347544
 31
0.0
  0
LINE
  5
3BA
100
AcDbEntity
100
AcDbLine
  8
CONTOUR
 62
256
370
-1
  6
ByLayer
 10
606.0
 20
796.13056347544
 30
0.0
 11
691.0
 21
796.13056347544
 31
0.0
  0
LINE
  5
3BB
100
AcDbEntity
100
AcDbLine
  8
CONTOUR
 62
256
370
-1
  6
ByLayer
 10
606.0
 20
721.13056347544
 30
0.0
 11
691.0
 21
721.13056347544
 31
0.0
  0
LINE
  5
3BC
100
AcDbEntity
100
AcDbLine
  8
AUX
 62
256
370
-1
  6
ByLayer
 10
511.5
 20
721.13056347544
 30
0.0
 11
511.5
 21
796.5
 31
0.0
  0
INSERT
  5
3BD
100
AcDbEntity
100
AcDbBlockReference
  8
0
 62
256
370
-1
  6
ByLayer
  2
battery 2AA side
 10
691.0
 20
788.13056347544
 30
0.0
 44
1.0
 45
1.0
  0
DIMENSION
  5
3BE
100
AcDbEntity
  8
TEXT
 62
256
370
-1
  6
ByLayer
100
AcDbDimension
 10
691.0
 20
716.0
 30
0.0
 11
648.5
 21
717.875
 31
0.0
 70
0
 71
5
 72
0
 41
1.0
 42
0.0
  1

  3
Standard
100
AcDbAlignedDimension
 13
606.0
 23
721.13056347544
 33
0.0
 14
691.0
 24
721.13056347544
 34
0.0
 50
0.0
100
AcDbRotatedDimension
  0
INSERT
  5
3BF
100
AcDbEntity
100
AcDbBlockReference
  8
0
 62
256
370
-1
  6
ByLayer
  2
controller front
 10
660.0
 20
752.63056347544
 30
0.0
 50
360.0
 44
1.0
 45
1.0
  0
LINE
  5
3C0
100
AcDbEntity
100
AcDbLine
  8
CENTER
 62
256
370
-1
  6
ByLayer
 10
86.999999999999972
 20
188.19999999999999
 30
0.0
 11
292.0
 21
188.19999999999999
 31
0.0
  0
LINE
  5
3C1
100
AcDbEntity
100
AcDbLine
  8
CENTER
 62
256
370
-1
  6
ByLayer
 10
86.999999999999972
 20
154.19999999999999
 30
0.0
 11
292.0
 21
154.19999999999999
 31
0.0
  0
LINE
  5
3C2
100
AcDbEntity
100
AcDbLine
  8
CENTER
 62
256
370
-1
  6
ByLayer
 10
487.0
 20
-45.487251715318365
 30
0.0
 11
693.0
 21
-45.487251715318365
 31
0.0
  0
LINE
  5
3C3
100
AcDbEntity
100
AcDbLine
  8
CENTER
 62
256
370
-1
  6
ByLayer
 10
487.0
 20
-11.487251715318365
 30
0.0
 11
693.0
 21
-11.487251715318365
 31
0.0
  0
LINE
  5
3C4
100
AcDbEntity
100
AcDbLine
  8
CENTER
 62
256
370
-1
  6
ByLayer
 10
486.99999999999994
 20
188.70159015068162
 30
0.0
 11
723.0
 21
188.70159015068162
 31
0.0
  0
LINE
  5
3C5
100
AcDbEntity
100
AcDbLine
  8
CENTER
 62
256
370
-1
  6
ByLayer
 10
486.99999999999994
 20
154.70159015068162
 30
0.0
 11
723.0
 21
154.70159015068162
 31
0.0
  0
LINE
  5
3C6
100
AcDbEntity
100
AcDbLine
  8
CENTER
 62
256
370
-1
  6
ByLayer
 10
487.0
 20
388.12047141078494
 30
0.0
 11
692.0
 21
388.12047141078494
 31
0.0
  0
LINE
  5
3C7
100
AcDbEntity
100
AcDbLine
  8
CENTER
 62
256
370
-1
  6
ByLayer
 10
487.0
 20
354.12047141078494
 30
0.0
 11
692.0
 21
354.12047141078494
 31
0.0
  0
LINE
  5
3C8
100
AcDbEntity
100
AcDbLine
  8
CENTER
 62
256
370
-1
  6
ByLayer
 10
487.0
 20
587.90000000000009
 30
0.0
 11
693.0
 21
587.90000000000009
 31
0.0
  0
LINE
  5
3C9
100
AcDbEntity
100
AcDbLine
  8
CENTER
 62
256
370
-1
  6
ByLayer
 10
487.0
 20
553.90000000000009
 30
0.0
 11
693.0
 21
553.90000000000009
 31
0.0
  0
LINE
  5
3CA
100
AcDbEntity
100
AcDbLine
  8
CENTER
 62
256
370
-1
  6
ByLayer
 10
487.0
 20
788.13056347544
 30
0.0
 11
691.0
 21
788.13056347544
 31
0.0
  0
LINE
  5
3CB
100
AcDbEntity
100
AcDbLine
  8
CENTER
 62
256
370
-1
  6
ByLayer
 10
487.0
 20
754.13056347544
 30
0.0
 11
691.0
 21
754.13056347544
 31
0.0
  0
CIRCLE
  5
3CC
100
AcDbEntity
100
AcDbCircle
  8
AUX
 62
256
370
-1
  6
ByLayer
 10
530.0
 20
809.0
 30
0.0
 40
24.0
  0
CIRCLE
  5
3CD
100
AcDbEntity
100
AcDbCircle
  8
AUX
 62
256
370
-1
  6
ByLayer
 10
530.0
 20
609.0
 30
0.0
 40
28.800000000000001
  0
LINE
  5
3CE
100
AcDbEntity
100
AcDbLine
  8
AUX
 62
256
370
-1
  6
ByLayer
 10
527.49999999999977
 20
721.13056347544
 30
0.0
 11
527.49999999999977
 21
796.13056347544
 31
0.0
  0
LINE
  5
3CF
100
AcDbEntity
100
AcDbLine
  8
AUX
 62
256
370
-1
  6
ByLayer
 10
516.0
 20
721.13056347544
 30
0.0
 11
516.0
 21
796.13056347544
 31
0.0
  0
LINE
  5
3D0
100
AcDbEntity
100
AcDbLine
  8
AUX
 62
256
370
-1
  6
ByLayer
 10
527.5
 20
326.12047141078494
 30
0.0
 11
527.5
 21
396.12047141078494
 31
0.0
  0
LINE
  5
3D1
100
AcDbEntity
100
AcDbLine
  8
AUX
 62
256
370
-1
  6
ByLayer
 10
527.5
 20
121.70159015068162
 30
0.0
 11
527.5
 21
196.70159015068162
 31
0.0
  0
LINE
  5
3D2
100
AcDbEntity
100
AcDbLine
  8
AUX
 62
256
370
-1
  6
ByLayer
 10
527.5
 20
-83.487251715318365
 30
0.0
 11
527.5
 21
-3.4872517153183678
 31
0.0
  0
CIRCLE
  5
3D3
100
AcDbEntity
100
AcDbCircle
  8
AUX
 62
256
370
-1
  6
ByLayer
 10
530.0
 20
9.0000000000000391
 30
0.0
 40
31.600000000000001
  0
LINE
  5
3D4
100
AcDbEntity
100
AcDbLine
  8
AUX
 62
256
370
-1
  6
ByLayer
 10
129.5
 20
126.19999999999999
 30
0.0
 11
129.5
 21
196.19999999999999
 31
0.0
  0
LINE
  5
3D5
100
AcDbEntity
100
AcDbLine
  8
AUX
 62
256
370
-1
  6
ByLayer
 10
529.5
 20
525.90000000000009
 30
0.0
 11
529.5
 21
595.90000000000009
 31
0.0
  0
LINE
  5
3D6
100
AcDbEntity
100
AcDbLine
  8
AUX
 62
256
370
-1
  6
ByLayer
 10
638.0
 20
-129.0
 30
0.0
 11
638.0
 21
71.0
 31
0.0
  0
LINE
  5
3D7
100
AcDbEntity
100
AcDbLine
  8
AUX
 62
256
370
-1
  6
ByLayer
 10
638.0
 20
74.0
 30
0.0
 11
638.0
 21
274.0
 31
0.0
  0
LINE
  5
3D8
100
AcDbEntity
100
AcDbLine
  8
AUX
 62
256
370
-1
  6
ByLayer
 10
643.0
 20
276.0
 30
0.0
 11
643.0
 21
476.0
 31
0.0
  0
LINE
  5
3D9
100
AcDbEntity
100
AcDbLine
  8
AUX
 62
256
370
-1
  6
ByLayer
 10
636.5
 20
479.29999999999995
 30
0.0
 11
636.5
 21
679.29999999999995
 31
0.0
  0
LINE
  5
3DA
100
AcDbEntity
100
AcDbLine
  8
AUX
 62
256
370
-1
  6
ByLayer
 10
627.0
 20
685.0
 30
0.0
 11
627.0
 21
885.0
 31
0.0
  0
LINE
  5
3DB
100
AcDbEntity
100
AcDbLine
  8
AUX
 62
256
370
-1
  6
ByLayer
 10
235.5
 20
80.500000000000028
 30
0.0
 11
235.5
 21
280.5
 31
0.0
  0
LINE
  5
3DC
100
AcDbEntity
100
AcDbLine
  8
AUX
 62
256
370
-1
  6
ByLayer
 10
487.0
 20
785.13056347544
 30
0.0
 11
691.0
 21
785.13056347544
 31
0.0
  0
LINE
  5
3DD
100
AcDbEntity
100
AcDbLine
  8
AUX
 62
256
370
-1
  6
ByLayer
 10
487.0
 20
760.13056347544
 30
0.0
 11
691.0
 21
760.13056347544
 31
0.0
  0
LINE
  5
3DE
100
AcDbEntity
100
AcDbLine
  8
AUX
 62
256
370
-1
  6
ByLayer
 10
486.99999999999994
 20
580.20434060487594
 30
0.0
 11
693.0
 21
580.20434060487594
 31
0.0
  0
LINE
  5
3DF
100
AcDbEntity
100
AcDbLine
  8
AUX
 62
256
370
-1
  6
ByLayer
 10
486.99999999999994
 20
560.90434060487598
 30
0.0
 11
693.0
 21
560.90434060487598
 31
0.0
  0
LINE
  5
3E0
100
AcDbEntity
100
AcDbLine
  8
AUX
 62
256
370
-1
  6
ByLayer
 10
487.0
 20
371.12047141078494
 30
0.0
 11
692.0
 21
371.12047141078494
 31
0.0
  0
LINE
  5
3E1
100
AcDbEntity
100
AcDbLine
  8
AUX
 62
256
370
-1
  6
ByLayer
 10
487.0
 20
377.12047141078494
 30
0.0
 11
692.0
 21
377.12047141078494
 31
0.0
  0
LINE
  5
3E2
100
AcDbEntity
100
AcDbLine
  8
AUX
 62
256
370
-1
  6
ByLayer
 10
487.0
 20
383.12047141078494
 30
0.0
 11
692.0
 21
383.12047141078494
 31
0.0
  0
LINE
  5
3E3
100
AcDbEntity
100
AcDbLine
  8
AUX
 62
256
370
-1
  6
ByLayer
 10
487.0
 20
173.71024920576357
 30
0.0
 11
723.0
 21
173.71024920576357
 31
0.0
  0
LINE
  5
3E4
100
AcDbEntity
100
AcDbLine
  8
AUX
 62
256
370
-1
  6
ByLayer
 10
487.0
 20
180.71024920576357
 30
0.0
 11
723.0
 21
180.71024920576357
 31
0.0
  0
LINE
  5
3E5
100
AcDbEntity
100
AcDbLine
  8
AUX
 62
256
370
-1
  6
ByLayer
 10
487.0
 20
-29.500952366555474
 30
0.0
 11
693.0
 21
-29.500952366555474
 31
0.0
  0
LINE
  5
3E6
100
AcDbEntity
100
AcDbLine
  8
AUX
 62
256
370
-1
  6
ByLayer
 10
487.0
 20
-22.500952366555474
 30
0.0
 11
693.0
 21
-22.500952366555474
 31
0.0
  0
LINE
  5
3E7
100
AcDbEntity
100
AcDbLine
  8
AUX
 62
256
370
-1
  6
ByLayer
 10
86.999999999999972
 20
161.20438630245002
 30
0.0
 11
292.0
 21
161.20438630245002
 31
0.0
  0
LINE
  5
3E8
100
AcDbEntity
100
AcDbLine
  8
AUX
 62
256
370
-1
  6
ByLayer
 10
86.999999999999972
 20
180.50438630245003
 30
0.0
 11
292.0
 21
180.50438630245003
 31
0.0
  0
CIRCLE
  5
3E9
100
AcDbEntity
100
AcDbCircle
  8
CONTOUR
 62
256
370
-1
  6
ByLayer
 10
213.0
 20
548.70304889385068
 30
0.0
 40
1.0
  0
CIRCLE
  5
3EA
100
AcDbEntity
100
AcDbCircle
  8
CONTOUR
 62
256
370
-1
  6
ByLayer
 10
258.0
 20
548.70304889385068
 30
0.0
 40
1.0
  0
CIRCLE
  5
3EB
100
AcDbEntity
100
AcDbCircle
  8
CONTOUR
 62
256
370
-1
  6
ByLayer
 10
258.0
 20
161.20438630245002
 30
0.0
 40
1.0
  0
CIRCLE
  5
3EC
100
AcDbEntity
100
AcDbCircle
  8
CONTOUR
 62
256
370
-1
  6
ByLayer
 10
213.0
 20
161.19999999999999
 30
0.0
 40
1.0
  0
CIRCLE
  5
3ED
100
AcDbEntity
100
AcDbCircle
  8
CONTOUR
 62
256
370
-1
  6
ByLayer
 10
614.0
 20
-29.487251715318362
 30
0.0
 40
1.0
  0
CIRCLE
  5
3EE
100
AcDbEntity
100
AcDbCircle
  8
CONTOUR
 62
256
370
-1
  6
ByLayer
 10
662.0
 20
-29.500952366555474
 30
0.0
 40
1.0
  0
CIRCLE
  5
3EF
100
AcDbEntity
100
AcDbCircle
  8
CONTOUR
 62
256
370
-1
  6
ByLayer
 10
614.0
 20
173.70159015068162
 30
0.0
 40
1.0
  0
CIRCLE
  5
3F0
100
AcDbEntity
100
AcDbCircle
  8
CONTOUR
 62
256
370
-1
  6
ByLayer
 10
662.0
 20
173.71024920576357
 30
0.0
 40
1.0
  0
CIRCLE
  5
3F1
100
AcDbEntity
100
AcDbCircle
  8
CONTOUR
 62
256
370
-1
  6
ByLayer
 10
613.0
 20
377.12047141078494
 30
0.0
 40
1.0
  0
CIRCLE
  5
3F2
100
AcDbEntity
100
AcDbCircle
  8
CONTOUR
 62
256
370
-1
  6
ByLayer
 10
673.0
 20
377.12047141078494
 30
0.0
 40
1.0
  0
CIRCLE
  5
3F3
100
AcDbEntity
100
AcDbCircle
  8
CONTOUR
 62
256
370
-1
  6
ByLayer
 10
614.0
 20
560.90434060487598
 30
0.0
 40
1.0
  0
CIRCLE
  5
3F4
100
AcDbEntity
100
AcDbCircle
  8
CONTOUR
 62
256
370
-1
  6
ByLayer
 10
659.0
 20
560.90434060487598
 30
0.0
 40
1.0
  0
CIRCLE
  5
3F5
100
AcDbEntity
100
AcDbCircle
  8
CONTOUR
 62
256
370
-1
  6
ByLayer
 10
612.0
 20
760.13056347544
 30
0.0
 40
1.0
  0
CIRCLE
  5
3F6
100
AcDbEntity
100
AcDbCircle
  8
CONTOUR
 62
256
370
-1
  6
ByLayer
 10
642.0
 20
760.13056347544
 30
0.0
 40
1.0
  0
LINE
  5
3F7
100
AcDbEntity
100
AcDbLine
  8
CONTOUR
 62
256
370
-1
  6
ByLayer
 10
507.0
 20
761.13056347544
 30
0.0
 11
516.0
 21
761.13056347544
 31
0.0
  0
LINE
  5
3F8
100
AcDbEntity
100
AcDbLine
  8
CONTOUR
 62
256
370
-1
  6
ByLayer
 10
507.0
 20
759.13056347544
 30
0.0
 11
516.0
 21
759.13056347544
 31
0.0
  0
DIMENSION
  5
3F9
100
AcDbEntity
  8
TEXT
 62
256
370
-1
  6
ByLayer
100
AcDbDimension
 10
638.0
 20
173.71024920576357
 30
0.0
 11
636.125
 21
185.20591967822259
 31
0.0
 70
0
 71
5
 72
1
 41
1.0
 42
0.0
  1

  3
Standard
100
AcDbAlignedDimension
 13
638.0
 23
196.70159015068162
 33
0.0
 14
638.0
 24
173.71024920576357
 34
0.0
 50
90.0
100
AcDbRotatedDimension
  0
DIMENSION
  5
3FA
100
AcDbEntity
  8
TEXT
 62
256
370
-1
  6
ByLayer
100
AcDbDimension
 10
636.5
 20
560.90434060487598
 30
0.0
 11
634.625
 21
578.40217030243798
 31
0.0
 70
0
 71
5
 72
1
 41
1.0
 42
0.0
  1

  3
Standard
100
AcDbAlignedDimension
 13
636.5
 23
595.90000000000009
 33
0.0
 14
636.5
 24
560.90434060487598
 34
0.0
 50
90.0
100
AcDbRotatedDimension
  0
INSERT
  5
3FB
100
AcDbEntity
100
AcDbBlockReference
  8
0
 62
256
370
-1
  6
ByLayer
  2
battery 2AA front
 10
111.49567618095706
 20
188.19999999999999
 30
0.0
 41
1.0
 42
-1.0
 43
1.0
 50
270.0
 44
1.0
 45
1.0
  0
INSERT
  5
3FC
100
AcDbEntity
100
AcDbBlockReference
  8
0
 62
256
370
-1
  6
ByLayer
  2
DS1-12 front
 10
129.5
 20
180.50438630245003
 30
0.0
 44
1.0
 45
1.0
  0
INSERT
  5
3FD
100
AcDbEntity
100
AcDbBlockReference
  8
0
 62
256
370
-1
  6
ByLayer
  2
6-speed HE side
 10
116.0
 20
161.20438630245002
 30
0.0
 44
1.0
 45
1.0
  0
INSERT
  5
3FE
100
AcDbEntity
100
AcDbBlockReference
  8
0
 62
256
370
-1
  6
ByLayer
  2
DS0.8-16 front
 10
529.5
 20
580.20434060487594
 30
0.0
 44
1.0
 45
1.0
  0
INSERT
  5
3FF
100
AcDbEntity
100
AcDbBlockReference
  8
0
 62
256
370
-1
  6
ByLayer
  2
6-speed HE side
 10
516.0
 20
560.90434060487598
 30
0.0
 44
1.0
 45
1.0
  0
INSERT
  5
400
100
AcDbEntity
100
AcDbBlockReference
  8
0
 62
256
370
-1
  6
ByLayer
  2
battery 2AA front
 10
511.5
 20
587.90000000000009
 30
0.0
 41
1.0
 42
-1.0
 43
1.0
 50
270.0
 44
1.0
 45
1.0
  0
INSERT
  5
401
100
AcDbEntity
100
AcDbBlockReference
  8
0
 62
256
370
-1
  6
ByLayer
  2
battery 2AA front
 10
511.5
 20
388.12047141078494
 30
0.0
 41
1.0
 42
-1.0
 43
1.0
 50
270.0
 44
1.0
 45
1.0
  0
INSERT
  5
402
100
AcDbEntity
100
AcDbBlockReference
  8
0
 62
256
370
-1
  6
ByLayer
  2
battery 2AA front
 10
511.5
 20
-11.487251715318365
 30
0.0
 41
1.0
 42
-1.0
 43
1.0
 50
270.0
 44
1.0
 45
1.0
  0
INSERT
  5
403
100
AcDbEntity
100
AcDbBlockReference
  8
0
 62
256
370
-1
  6
ByLayer
  2
battery 2AA front
 10
511.5
 20
785.13056347544
 30
0.0
 41
1.0
 42
-1.0
 43
1.0
 50
270.0
 44
1.0
 45
1.0
  0
DIMENSION
  5
404
100
AcDbEntity
  8
TEXT
 62
256
370
-1
  6
ByLayer
100
AcDbDimension
 10
692.0
 20
310.0
 30
0.0
 11
649.5
 21
311.875
 31
0.0
 70
0
 71
5
 72
1
 41
1.0
 42
0.0
  1

  3
Standard
100
AcDbAlignedDimension
 13
607.0
 23
316.12047141078494
 33
0.0
 14
692.0
 24
316.12047141078494
 34
0.0
 50
0.0
100
AcDbRotatedDimension
  0
DIMENSION
  5
405
100
AcDbEntity
  8
TEXT
 62
256
370
-1
  6
ByLayer
100
AcDbDimension
 10
725.0
 20
396.12047141078494
 30
0.0
 11
723.125
 21
356.12047141078494
 31
0.0
 70
0
 71
5
 72
1
 41
1.0
 42
0.0
  1

  3
Standard
100
AcDbAlignedDimension
 13
692.0
 23
316.12047141078494
 33
0.0
 14
692.0
 24
396.12047141078494
 34
0.0
 50
90.0
100
AcDbRotatedDimension
  0
LINE
  5
406
100
AcDbEntity
100
AcDbLine
  8
CONTOUR
 62
256
370
-1
  6
ByLayer
 10
607.0
 20
-83.487251715318365
 30
0.0
 11
607.0
 21
-3.4872517153183651
 31
0.0
  0
LINE
  5
407
100
AcDbEntity
100
AcDbLine
  8
CONTOUR
 62
256
370
-1
  6
ByLayer
 10
607.0
 20
-3.4872517153183651
 30
0.0
 11
692.0
 21
-3.4872517153183651
 31
0.0
  0
LINE
  5
408
100
AcDbEntity
100
AcDbLine
  8
CONTOUR
 62
256
370
-1
  6
ByLayer
 10
607.0
 20
-83.487251715318365
 30
0.0
 11
692.0
 21
-83.487251715318365
 31
0.0
  0
LINE
  5
409
100
AcDbEntity
100
AcDbLine
  8
CONTOUR
 62
256
370
-1
  6
ByLayer
 10
692.0
 20
-83.487251715318379
 30
0.0
 11
692.0
 21
-3.4872517153183651
 31
0.0
  0
DIMENSION
  5
40A
100
AcDbEntity
  8
TEXT
 62
256
370
-1
  6
ByLayer
100
AcDbDimension
 10
650.0
 20
-56.0
 30
0.0
 11
628.5
 21
-54.125
 31
0.0
 70
0
 71
5
 72
0
 41
1.0
 42
0.0
  1

  3
Standard
100
AcDbAlignedDimension
 13
607.0
 23
-56.0
 33
0.0
 14
650.0
 24
-54.0
 34
0.0
 50
0.0
100
AcDbRotatedDimension
  0
DIMENSION
  5
40B
100
AcDbEntity
  8
TEXT
 62
256
370
-1
  6
ByLayer
100
AcDbDimension
 10
614.0
 20
-70.0
 30
0.0
 11
610.5
 21
-68.125
 31
0.0
 70
0
 71
5
 72
0
 41
1.0
 42
0.0
  1

  3
Standard
100
AcDbAlignedDimension
 13
607.0
 23
-70.0
 33
0.0
 14
614.0
 24
-70.0
 34
0.0
 50
0.0
100
AcDbRotatedDimension
  0
INSERT
  5
40C
100
AcDbEntity
100
AcDbBlockReference
  8
0
 62
256
370
-1
  6
ByLayer
  2
controller front
 10
662.0
 20
-55.0
 30
0.0
 44
1.0
 45
1.0
  0
LINE
  5
40D
100
AcDbEntity
100
AcDbLine
  8
CONTOUR
 62
256
370
-1
  6
ByLayer
 10
607.0
 20
525.90000000000009
 30
0.0
 11
607.0
 21
595.90000000000009
 31
0.0
  0
LINE
  5
40E
100
AcDbEntity
100
AcDbLine
  8
CONTOUR
 62
256
370
-1
  6
ByLayer
 10
692.0
 20
525.90000000000009
 30
0.0
 11
692.0
 21
595.90000000000009
 31
0.0
  0
DIMENSION
  5
40F
100
AcDbEntity
  8
TEXT
 62
256
370
-1
  6
ByLayer
100
AcDbDimension
 10
692.0
 20
510.0
 30
0.0
 11
649.5
 21
511.875
 31
0.0
 70
0
 71
5
 72
1
 41
1.0
 42
0.0
  1

  3
Standard
100
AcDbAlignedDimension
 13
607.0
 23
525.90000000000009
 33
0.0
 14
692.0
 24
525.90000000000009
 34
0.0
 50
0.0
100
AcDbRotatedDimension
  0
INSERT
  5
410
100
AcDbEntity
100
AcDbBlockReference
  8
0
 62
256
370
-1
  6
ByLayer
  2
battery 2AA side
 10
692.0
 20
587.90000000000009
 30
0.0
 44
1.0
 45
1.0
  0
LINE
  5
411
100
AcDbEntity
100
AcDbLine
  8
CONTOUR
 62
256
370
-1
  6
ByLayer
 10
607.0
 20
595.90000000000009
 30
0.0
 11
692.0
 21
595.90000000000009
 31
0.0
  0
LINE
  5
412
100
AcDbEntity
100
AcDbLine
  8
CONTOUR
 62
256
370
-1
  6
ByLayer
 10
607.0
 20
525.90000000000009
 30
0.0
 11
692.0
 21
525.90000000000009
 31
0.0
  0
DIMENSION
  5
413
100
AcDbEntity
  8
TEXT
 62
256
370
-1
  6
ByLayer
100
AcDbDimension
 10
614.0
 20
520.0
 30
0.0
 11
610.5
 21
521.875
 31
0.0
 70
0
 71
5
 72
0
 41
1.0
 42
0.0
  1

  3
Standard
100
AcDbAlignedDimension
 13
607.0
 23
520.0
 33
0.0
 14
614.0
 24
520.0
 34
0.0
 50
0.0
100
AcDbRotatedDimension
  0
DIMENSION
  5
414
100
AcDbEntity
  8
TEXT
 62
256
370
-1
  6
ByLayer
100
AcDbDimension
 10
650.0
 20
546.0
 30
0.0
 11
628.5
 21
547.875
 31
0.0
 70
0
 71
5
 72
0
 41
1.0
 42
0.0
  1

  3
Standard
100
AcDbAlignedDimension
 13
607.0
 23
548.0
 33
0.0
 14
650.0
 24
547.0
 34
0.0
 50
0.0
100
AcDbRotatedDimension
  0
DIMENSION
  5
415
100
AcDbEntity
  8
TEXT
 62
256
370
-1
  6
ByLayer
100
AcDbDimension
 10
692.0
 20
-89.512748284681635
 30
0.0
 11
649.5
 21
-87.637748284681635
 31
0.0
 70
0
 71
5
 72
1
 41
1.0
 42
0.0
  1

  3
Standard
100
AcDbAlignedDimension
 13
607.0
 23
-76.0
 33
0.0
 14
692.0
 24
-83.0
 34
0.0
 50
0.0
100
AcDbRotatedDimension
  0
INSERT
  5
416
100
AcDbEntity
100
AcDbBlockReference
  8
0
 62
256
370
-1
  6
ByLayer
  2
battery 2AA side
 10
692.0
 20
-11.487251715318365
 30
0.0
 44
1.0
 45
1.0
  0
MTEXT
  5
417
100
AcDbEntity
100
AcDbMText
  8
TEXT
 62
256
370
-1
  6
ByLayer
 10
157.0
 20
296.0
 30
0.0
 40
5.0
 41
100.0
 71
1
 72
2
  1
DS1-12\~:\~DS1-70\~+\~6-speed\~HE
  7
normallatin1
 50
0.0
 73
1
 44
1.0
  0
INSERT
  5
418
100
AcDbEntity
100
AcDbBlockReference
  8
0
 62
256
370
-1
  6
ByLayer
  2
DS1-70 front
 10
130.0
 20
610.0
 30
0.0
 44
1.0
 45
1.0
  0
LINE
  5
419
100
AcDbEntity
100
AcDbLine
  8
CENTER
 62
256
370
-1
  6
ByLayer
 10
80.0
 20
608.0
 30
0.0
 11
180.0
 21
608.0
 31
0.0
  0
CIRCLE
  5
41A
100
AcDbEntity
100
AcDbCircle
  8
AUX
 62
256
370
-1
  6
ByLayer
 10
130.0
 20
610.0
 30
0.0
 40
41.0
  0
INSERT
  5
41B
100
AcDbEntity
100
AcDbBlockReference
  8
0
 62
256
370
-1
  6
ByLayer
  2
6-speed HE side
 10
75.548809541113457
 20
601.20000000000005
 30
0.0
 44
1.0
 45
1.0
  0
INSERT
  5
41C
100
AcDbEntity
100
AcDbBlockReference
  8
0
 62
256
370
-1
  6
ByLayer
  2
DS1-12 front
 10
89.048809541113457
 20
608.00000000000011
 30
0.0
 44
1.0
 45
1.0
  0
INSERT
  5
41D
100
AcDbEntity
100
AcDbBlockReference
  8
0
 62
256
370
-1
  6
ByLayer
  2
DS1-70 front
 10
200.0
 20
400.0
 30
0.0
 44
1.0
 45
1.0
  0
CIRCLE
  5
41E
100
AcDbEntity
100
AcDbCircle
  8
AUX
 62
256
370
-1
  6
ByLayer
 10
200.0
 20
400.0
 30
0.0
 40
41.0
  0
LINE
  5
41F
100
AcDbEntity
100
AcDbLine
  8
CENTER
 62
256
370
-1
  6
ByLayer
 10
150.0
 20
415.0
 30
0.0
 11
250.0
 21
415.0
 31
0.0
  0
INSERT
  5
420
100
AcDbEntity
100
AcDbBlockReference
  8
0
 62
256
370
-1
  6
ByLayer
  2
DS1-12 front
 10
161.8424319433222
 20
415.0
 30
0.0
 44
1.0
 45
1.0
  0
INSERT
  5
421
100
AcDbEntity
100
AcDbBlockReference
  8
0
 62
256
370
-1
  6
ByLayer
  2
6-speed HE side
 10
139.50359717849034
 20
399.36116523516813
 30
0.0
 44
1.0
 45
1.0
  0
ENDSEC
  0
SECTION
  2
OBJECTS
  0
DICTIONARY
  5
C
100
AcDbDictionary
280
0
281
1
  3
ACAD_GROUP
350
D
  3
ACAD_LAYOUT
350
1A
  3
ACAD_MLINESTYLE
350
17
  3
ACAD_PLOTSETTINGS
350
19
  3
ACAD_PLOTSTYLENAME
350
E
  3
AcDbVariableDictionary
350
422
  0
DICTIONARY
  5
D
100
AcDbDictionary
280
0
281
1
  0
ACDBDICTIONARYWDFLT
  5
E
100
AcDbDictionary
281
1
  3
Normal
350
F
100
AcDbDictionaryWithDefault
340
F
  0
ACDBPLACEHOLDER
  5
F
  0
DICTIONARY
  5
17
100
AcDbDictionary
280
0
281
1
  3
Standard
350
18
  0
MLINESTYLE
  5
18
100
AcDbMlineStyle
  2
STANDARD
 70
0
  3

 62
256
 51
90.0
 52
90.0
 71
2
 49
0.5
 62
256
  6
BYLAYER
 49
-0.5
 62
256
  6
BYLAYER
  0
DICTIONARY
  5
19
100
AcDbDictionary
280
0
281
1
  0
DICTIONARY
  5
1A
100
AcDbDictionary
281
1
  3
Layout1
350
1E
  3
Layout2
350
26
  3
Model
350
22
  0
LAYOUT
  5
1E
100
AcDbPlotSettings
  1

  2
C:\Program Files\AutoCAD 2002\plotters\DWF ePlot (optimized for plotting).pc3
  4

  6

 40
0.0
 41
0.0
 42
0.0
 43
0.0
 44
0.0
 45
0.0
 46
0.0
 47
0.0
 48
0.0
 49
0.0
140
0.0
141
0.0
142
1.0
143
1.0
 70
688
 72
0
 73
0
 74
5
  7

 75
16
147
1.0
148
0.0
149
0.0
100
AcDbLayout
  1
Layout1
 70
1
 71
1
 10
0.0
 20
0.0
 11
420.0
 21
297.0
 12
0.0
 22
0.0
 32
0.0
 14
100000000000000000000.0
 24
100000000000000000000.0
 34
100000000000000000000.0
 15
-100000000000000000000.0
 25
-100000000000000000000.0
 35
-100000000000000000000.0
146
0.0
 13
0.0
 23
0.0
 33
0.0
 16
1.0
 26
0.0
 36
0.0
 17
0.0
 27
1.0
 37
0.0
 76
0
330
1B
  0
LAYOUT
  5
22
100
AcDbPlotSettings
  1

  2
C:\Program Files\AutoCAD 2002\plotters\DWF ePlot (optimized for plotting).pc3
  4

  6

 40
0.0
 41
0.0
 42
0.0
 43
0.0
 44
0.0
 45
0.0
 46
0.0
 47
0.0
 48
0.0
 49
0.0
140
0.0
141
0.0
142
1.0
143
1.0
 70
1712
 72
0
 73
0
 74
0
  7

 75
0
147
1.0
148
0.0
149
0.0
100
AcDbLayout
  1
Model
 70
1
 71
0
 10
0.0
 20
0.0
 11
12.0
 21
9.0
 12
0.0
 22
0.0
 32
0.0
 14
0.0
 24
0.0
 34
0.0
 15
0.0
 25
0.0
 35
0.0
146
0.0
 13
0.0
 23
0.0
 33
0.0
 16
1.0
 26
0.0
 36
0.0
 17
0.0
 27
1.0
 37
0.0
 76
0
330
1F
  0
LAYOUT
  5
26
100
AcDbPlotSettings
  1

  2
C:\Program Files\AutoCAD 2002\plotters\DWF ePlot (optimized for plotting).pc3
  4

  6

 40
0.0
 41
0.0
 42
0.0
 43
0.0
 44
0.0
 45
0.0
 46
0.0
 47
0.0
 48
0.0
 49
0.0
140
0.0
141
0.0
142
1.0
143
1.0
 70
688
 72
0
 73
0
 74
5
  7

 75
16
147
1.0
148
0.0
149
0.0
100
AcDbLayout
  1
Layout2
 70
1
 71
2
 10
0.0
 20
0.0
 11
12.0
 21
9.0
 12
0.0
 22
0.0
 32
0.0
 14
0.0
 24
0.0
 34
0.0
 15
0.0
 25
0.0
 35
0.0
146
0.0
 13
0.0
 23
0.0
 33
0.0
 16
1.0
 26
0.0
 36
0.0
 17
0.0
 27
1.0
 37
0.0
 76
0
330
23
  0
DICTIONARY
  5
422
100
AcDbDictionary
281
1
  3
DIMASSOC
350
424
  3
HIDETEXT
350
423
  0
DICTIONARYVAR
  5
423
100
DictionaryVariables
280
0
  1
2
  0
DICTIONARYVAR
  5
424
100
DictionaryVariables
280
0
  1
1
  0
ENDSEC
  0
EOF
