999
dxflib 2.0.4.8
  0
SECTION
  2
HEADER
  9
$ACADVER
  1
AC1015
  9
$HANDSEED
  5
FFFF
  9
$REALWORLDSCALE
290
1
  9
$LOFTMAG1
 40
0.0
  9
$DIMASSOC
280
1
  9
$USERR4
 40
0.0
  9
$DIMTDEC
 70
2
  9
$DIMTAD
 70
1
  9
$LOFTMAG2
 40
0.0
  9
$CAMERAHEIGHT
 40
0.0
  9
$XCLIPFRAME
290
0
  9
$CMLSTYLE
  2
Standard
  9
$VISRETAIN
 70
1
  9
$TILEMODE
 70
1
  9
$SHADEDIF
 70
70
  9
$USERR5
 40
0.0
  9
$UCSYDIR
 10
0.0
 20
1.0
 30
0.0
  9
$CHAMFERA
 40
0.0
  9
$MENU
  1
.
  9
$DIMALTZ
 70
0
  9
$CLAYER
  8
Center
  9
$DWFFRAME
280
2
  9
$SHOWHIST
280
1
  9
$OLESTARTUP
290
0
  9
$UCSXDIR
 10
1.0
 20
0.0
 30
0.0
  9
$CHAMFERB
 40
0.0
  9
$DIMADEC
 70
0
  9
$DIMUPT
 70
0
  9
$DIMASZ
 40
2.5
  9
$TRACEWID
 40
15.68
  9
$REGENMODE
 70
1
  9
$ORTHOMODE
 70
0
  9
$EXTMIN
 10
-132.0
 20
-483.44228634059948
 30
0.0
  9
$CAMERADISPLAY
290
0
  9
$ENDCAPS
280
0
  9
$MEASUREMENT
 70
1
  9
$CMLJUST
 70
0
  9
$SNAPSTYLE
 70
0
  9
$PUCSYDIR
 10
0.0
 20
1.0
 30
0.0
  9
$ANGBASE
 50
0.0
  9
$USRTIMER
 70
1
  9
$CHAMFERC
 40
0.0
  9
$SKETCHINC
 40
1.0
  9
$DIMGAP
 40
0.625
  9
$DIMTFAC
 40
1.0
  9
$DIMSAH
 70
0
  9
$DIMALT
 70
0
  9
$DIMSHO
 70
1
  9
$LONGITUDE
 40
1.0
  9
$LOFTNORMALS
280
1
  9
$STEPSIZE
 40
50.0
  9
$LWDISPLAY
290
0
  9
$PUCSXDIR
 10
1.0
 20
0.0
 30
0.0
  9
$SURFTYPE
 70
6
  9
$SPLFRAME
 70
0
  9
$CHAMFERD
 40
0.0
  9
$DIMFXLON
 70
0
  9
$DIMALTRND
 40
0.0
  9
$DIMALTTD
 70
3
  9
$DIMTSZ
 40
0.0
  9
$LIMMIN
 10
0.0
 20
0.0
  9
$SHADOWPLANELOCATION
 40
0.0
  9
$STEPSPERSEC
 40
2.0
  9
$SORTENTS
280
127
  9
$CELWEIGHT
370
-1
  9
$SURFTAB1
 70
6
  9
$SPLINESEGS
 70
8
  9
$AUPREC
 70
2
  9
$LUNITS
 70
2
  9
$DIMTFILL
 70
0
  9
$DIMFXL
 40
1.0
  9
$DWGCODEPAGE
  3
ANSI_1252
  9
$TILEMODELIGHTSYNCH
280
1
  9
$PSTYLEMODE
290
1
  9
$UNITMODE
 70
0
  9
$USERI1
 70
0
  9
$UCSORTHOVIEW
 70
0
  9
$SURFTAB2
 70
6
  9
$SKPOLY
 70
0
  9
$ELEVATION
 40
0.0
  9
$DIMDSEP
 70
44
  9
$DIMCEN
 40
2.5
  9
$DIMRND
 40
0.0
  9
$INSBASE
 10
0.0
 20
0.0
 30
0.0
  9
$SOLIDHIST
280
1
  9
$LIGHTGLYPHDISPLAY
280
1
  9
$LOFTPARAM
 70
7
  9
$INSUNITS
 70
4
  9
$USERI2
 70
0
  9
$UCSORGRIGHT
 10
0.0
 20
0.0
 30
0.0
  9
$UCSORG
 10
0.0
 20
0.0
 30
0.0
  9
$PELEVATION
 40
0.0
  9
$DIMEXO
 40
0.625
  9
$TEXTSIZE
 40
2.5
  9
$FILLMODE
 70
1
  9
$EXTMAX
 10
1233.0
 20
1200.0
 30
0.0
  9
$3DDWFPREC
 40
2.0
  9
$LENSLENGTH
 40
50.0
  9
$JOINSTYLE
280
0
  9
$USERI3
 70
0
  9
$PUCSORGBOTTOM
 10
0.0
 20
0.0
 30
0.0
  9
$SURFU
 70
6
  9
$ANGDIR
 70
0
  9
$DIMLWD
 70
-2
  9
$DIMTZIN
 70
8
  9
$DIMTOLJ
 70
0
  9
$DIMZIN
 70
8
  9
$DIMDLE
 40
0.0
  9
$DIMSCALE
 40
2.5
  9
$WORLDVIEW
 70
1
  9
$USERI4
 70
0
  9
$SURFV
 70
6
  9
$DIMARCSYM
 70
0
  9
$DIMLWE
 70
-2
  9
$DIMLUNIT
 70
2
  9
$DIMATFIT
 70
3
  9
$DIMALTTZ
 70
0
  9
$DIMJUST
 70
0
  9
$QTEXTMODE
 70
0
  9
$LIMMAX
 10
420.0
 20
297.0
  9
$DGNFRAME
280
0
  9
$LOFTANG1
 40
1.570796326794897
  9
$PSOLHEIGHT
 40
80.0
  9
$INTERSECTIONDISPLAY
280
0
  9
$HIDETEXT
280
1
  9
$EXTNAMES
290
1
  9
$PROXYGRAPHICS
 70
1
  9
$GRIDMODE
 70
1
  9
$USERI5
 70
0
  9
$UCSORGTOP
 10
0.0
 20
0.0
 30
0.0
  9
$PDMODE
 70
34
  9
$LIMCHECK
 70
0
  9
$THICKNESS
 40
0.0
  9
$DIMJOGANG
 40
0.7854
  9
$DIMAZIN
 70
0
  9
$DIMSE1
 70
0
  9
$DIMLIM
 70
0
  9
$DIMTXT
 40
2.5
  9
$ATTMODE
 70
0
  9
$LOFTANG2
 40
1.570796326794897
  9
$PSOLWIDTH
 40
5.0
  9
$INTERSECTIONCOLOR
 70
257
  9
$OBSLTYPE
280
0
  9
$OBSCOLOR
 70
257
  9
$XEDIT
290
1
  9
$PEXTMAX
 10
0.0
 20
0.0
 30
0.0
  9
$PEXTMIN
 10
0.0
 20
0.0
 30
0.0
  9
$PUCSORG
 10
0.0
 20
0.0
 30
0.0
  9
$SPLINETYPE
 70
2
  9
$LUPREC
 70
4
  9
$DIMLDRBLK
  1
STANDARD
  9
$DIMSOXD
 70
0
  9
$DIMLFAC
 40
1.0
  9
$DIMSE2
 70
0
  9
$DIMTOH
 70
0
  9
$CELTYPE
  6
BYLAYER
  9
$NORTHDIRECTION
 40
0.0
  9
$PSVPSCALE
 40
1.0
  9
$PLIMCHECK
 70
0
  9
$PUCSORGRIGHT
 10
0.0
 20
0.0
 30
0.0
  9
$PLINEWID
 40
0.0
  9
$DIMFRAC
 70
0
  9
$DIMSTYLE
  2
STANDARD
  9
$DIMTVP
 40
0.0
  9
$DIMASO
 70
1
  9
$DIMTM
 40
0.0
  9
$DIMDLI
 40
3.75
  9
$DISPSILH
 70
0
  9
$CECOLOR
 62
256
  9
$INDEXCTL
280
0
  9
$TREEDEPTH
 70
3020
  9
$PLIMMAX
 10
297.0
 20
420.0
  9
$PLIMMIN
 10
0.0
 20
0.0
  9
$MAXACTVP
 70
64
  9
$UCSORGBACK
 10
0.0
 20
0.0
 30
0.0
  9
$UCSORGLEFT
 10
0.0
 20
0.0
 30
0.0
  9
$FILLETRAD
 40
0.0
  9
$DIMTFILLCLR
 70
0
  9
$DIMALTU
 70
2
  9
$DIMDEC
 70
2
  9
$DIMCLRT
 70
0
  9
$DIMALTD
 70
3
  9
$DIMTIH
 70
0
  9
$LTSCALE
 40
1.0
  9
$CSHADOW
280
0
  9
$CEPSNTYPE
380
0
  9
$CMLSCALE
 40
20.0
  9
$PINSBASE
 10
0.0
 20
0.0
 30
0.0
  9
$USERR1
 40
0.0
  9
$PUCSORTHOVIEW
 70
0
  9
$PDSIZE
 40
0.0
  9
$DIMTXSTY
  7
STANDARD
  9
$DIMCLRD
 70
0
  9
$DIMEXE
 40
1.25
  9
$CELTSCALE
 40
1.0
  9
$INTERFERECOLOR
 62
1
  9
$LATITUDE
 40
1.0
  9
$PSLTSCALE
 70
1
  9
$PLINEGEN
 70
0
  9
$SHADEDGE
 70
3
  9
$USERR2
 40
0.0
  9
$PUCSORGTOP
 10
0.0
 20
0.0
 30
0.0
  9
$UCSORGFRONT
 10
0.0
 20
0.0
 30
0.0
  9
$DIMTMOVE
 70
0
  9
$DIMAUNIT
 70
0
  9
$DIMSD1
 70
0
  9
$DIMCLRE
 70
0
  9
$DIMTOFL
 70
1
  9
$DIMALTF
 40
0.03937
  9
$DIMTOL
 70
0
  9
$DIMTP
 40
0.0
  9
$TEXTSTYLE
  7
STANDARD
  9
$TIMEZONE
 70
-8000
  9
$HALOGAP
280
0
  9
$USERR3
 40
0.0
  9
$PUCSORGBACK
 10
0.0
 20
0.0
 30
0.0
  9
$PUCSORGFRONT
 10
0.0
 20
0.0
 30
0.0
  9
$PUCSORGLEFT
 10
0.0
 20
0.0
 30
0.0
  9
$UCSORGBOTTOM
 10
0.0
 20
0.0
 30
0.0
  9
$AUNITS
 70
0
  9
$DIMSD2
 70
0
  9
$DIMTIX
 70
0
  9
$MIRRTEXT
 70
0
  0
ENDSEC
  0
SECTION
  2
TABLES
  0
TABLE
  2
VPORT
  5
8
100
AcDbSymbolTable
 70
1
  0
VPORT
  5
30
100
AcDbSymbolTableRecord
100
AcDbViewportTableRecord
  2
*Active
 70
0
 10
0.0
 20
0.0
 11
1.0
 21
1.0
 12
286.30555555555549
 22
148.5
 13
0.0
 23
0.0
 14
10.0
 24
10.0
 15
10.0
 25
10.0
 16
0.0
 26
0.0
 36
1.0
 17
0.0
 27
0.0
 37
0.0
 40
297.0
 41
1.92798353909465
 42
50.0
 43
0.0
 44
0.0
 50
0.0
 51
0.0
 71
0
 72
100
 73
1
 74
3
 75
1
 76
1
 77
0
 78
0
281
0
 65
1
110
0.0
120
0.0
130
0.0
111
1.0
121
0.0
131
0.0
112
0.0
122
1.0
132
0.0
 79
0
146
0.0
  0
ENDTAB
  0
TABLE
  2
LTYPE
  5
5
100
AcDbSymbolTable
 70
21
  0
LTYPE
  5
14
100
AcDbSymbolTableRecord
100
AcDbLinetypeTableRecord
  2
ByBlock
 70
0
  3

 72
65
 73
0
 40
0.0
  0
LTYPE
  5
15
100
AcDbSymbolTableRecord
100
AcDbLinetypeTableRecord
  2
ByLayer
 70
0
  3

 72
65
 73
0
 40
0.0
  0
LTYPE
  5
16
100
AcDbSymbolTableRecord
100
AcDbLinetypeTableRecord
  2
CONTINUOUS
 70
0
  3
Solid line
 72
65
 73
0
 40
0.0
  0
LTYPE
  5
31
100
AcDbSymbolTableRecord
100
AcDbLinetypeTableRecord
  2
DOT
 70
0
  3
Dot . . . . . . . . . . . . . . . . . . . . . .
 72
65
 73
2
 40
6.3499999999999996
 49
0.0
 74
0
 49
-6.3499999999999996
 74
0
  0
LTYPE
  5
32
100
AcDbSymbolTableRecord
100
AcDbLinetypeTableRecord
  2
DOT2
 70
0
  3
Dot (.5x) .....................................
 72
65
 73
2
 40
3.1749999999999998
 49
0.0
 74
0
 49
-3.1749999999999998
 74
0
  0
LTYPE
  5
33
100
AcDbSymbolTableRecord
100
AcDbLinetypeTableRecord
  2
DOTX2
 70
0
  3
Dot (2x) .  .  .  .  .  .  .  .  .  .  .  .  .
 72
65
 73
2
 40
12.699999999999999
 49
0.0
 74
0
 49
-12.699999999999999
 74
0
  0
LTYPE
  5
34
100
AcDbSymbolTableRecord
100
AcDbLinetypeTableRecord
  2
DASHED
 70
0
  3
Dashed __ __ __ __ __ __ __ __ __ __ __ __ __ _
 72
65
 73
2
 40
19.050000000000001
 49
12.699999999999999
 74
0
 49
-6.3499999999999996
 74
0
  0
LTYPE
  5
35
100
AcDbSymbolTableRecord
100
AcDbLinetypeTableRecord
  2
DASHED2
 70
0
  3
Dashed (.5x) _ _ _ _ _ _ _ _ _ _ _ _ _ _ _ _ _
 72
65
 73
2
 40
9.5250000000000004
 49
6.3499999999999996
 74
0
 49
-3.1749999999999998
 74
0
  0
LTYPE
  5
36
100
AcDbSymbolTableRecord
100
AcDbLinetypeTableRecord
  2
DASHEDX2
 70
0
  3
Dashed (2x) ____  ____  ____  ____  ____  ___
 72
65
 73
2
 40
38.100000000000001
 49
25.399999999999999
 74
0
 49
-12.699999999999999
 74
0
  0
LTYPE
  5
37
100
AcDbSymbolTableRecord
100
AcDbLinetypeTableRecord
  2
DASHDOT
 70
0
  3
Dash dot __ . __ . __ . __ . __ . __ . __ . __
 72
65
 73
4
 40
25.399999999999999
 49
12.699999999999999
 74
0
 49
-6.3499999999999996
 74
0
 49
0.0
 74
0
 49
-6.3499999999999996
 74
0
  0
LTYPE
  5
38
100
AcDbSymbolTableRecord
100
AcDbLinetypeTableRecord
  2
DASHDOT2
 70
0
  3
Dash dot (.5x) _._._._._._._._._._._._._._._.
 72
65
 73
4
 40
12.699999999999999
 49
6.3499999999999996
 74
0
 49
-3.1749999999999998
 74
0
 49
0.0
 74
0
 49
-3.1749999999999998
 74
0
  0
LTYPE
  5
39
100
AcDbSymbolTableRecord
100
AcDbLinetypeTableRecord
  2
DASHDOTX2
 70
0
  3
Dash dot (2x) ____  .  ____  .  ____  .  ___
 72
65
 73
4
 40
50.799999999999997
 49
25.399999999999999
 74
0
 49
-12.699999999999999
 74
0
 49
0.0
 74
0
 49
-12.699999999999999
 74
0
  0
LTYPE
  5
3A
100
AcDbSymbolTableRecord
100
AcDbLinetypeTableRecord
  2
DIVIDE
 70
0
  3
Divide ____ . . ____ . . ____ . . ____ . . ____
 72
65
 73
6
 40
31.75
 49
12.699999999999999
 74
0
 49
-6.3499999999999996
 74
0
 49
0.0
 74
0
 49
-6.3499999999999996
 74
0
 49
0.0
 74
0
 49
-6.3499999999999996
 74
0
  0
LTYPE
  5
3B
100
AcDbSymbolTableRecord
100
AcDbLinetypeTableRecord
  2
DIVIDE2
 70
0
  3
Divide (.5x) __..__..__..__..__..__..__..__.._
 72
65
 73
6
 40
15.875
 49
6.3499999999999996
 74
0
 49
-3.1749999999999998
 74
0
 49
0.0
 74
0
 49
-3.1749999999999998
 74
0
 49
0.0
 74
0
 49
-3.1749999999999998
 74
0
  0
LTYPE
  5
3C
100
AcDbSymbolTableRecord
100
AcDbLinetypeTableRecord
  2
DIVIDEX2
 70
0
  3
Divide (2x) ________  .  .  ________  .  .  _
 72
65
 73
6
 40
63.5
 49
25.399999999999999
 74
0
 49
-12.699999999999999
 74
0
 49
0.0
 74
0
 49
-12.699999999999999
 74
0
 49
0.0
 74
0
 49
-12.699999999999999
 74
0
  0
LTYPE
  5
3D
100
AcDbSymbolTableRecord
100
AcDbLinetypeTableRecord
  2
CENTER
 70
0
  3
Center ____ _ ____ _ ____ _ ____ _ ____ _ ____
 72
65
 73
4
 40
50.799999999999997
 49
31.75
 74
0
 49
-6.3499999999999996
 74
0
 49
6.3499999999999996
 74
0
 49
-6.3499999999999996
 74
0
  0
LTYPE
  5
3E
100
AcDbSymbolTableRecord
100
AcDbLinetypeTableRecord
  2
CENTER2
 70
0
  3
Center (.5x) ___ _ ___ _ ___ _ ___ _ ___ _ ___
 72
65
 73
4
 40
28.574999999999999
 49
19.050000000000001
 74
0
 49
-3.1749999999999998
 74
0
 49
3.1749999999999998
 74
0
 49
-3.1749999999999998
 74
0
  0
LTYPE
  5
3F
100
AcDbSymbolTableRecord
100
AcDbLinetypeTableRecord
  2
CENTERX2
 70
0
  3
Center (2x) ________  __  ________  __  _____
 72
65
 73
4
 40
101.59999999999999
 49
63.5
 74
0
 49
-12.699999999999999
 74
0
 49
12.699999999999999
 74
0
 49
-12.699999999999999
 74
0
  0
LTYPE
  5
40
100
AcDbSymbolTableRecord
100
AcDbLinetypeTableRecord
  2
BORDER
 70
0
  3
Border __ __ . __ __ . __ __ . __ __ . __ __ .
 72
65
 73
6
 40
44.450000000000003
 49
12.699999999999999
 74
0
 49
-6.3499999999999996
 74
0
 49
12.699999999999999
 74
0
 49
-6.3499999999999996
 74
0
 49
0.0
 74
0
 49
-6.3499999999999996
 74
0
  0
LTYPE
  5
41
100
AcDbSymbolTableRecord
100
AcDbLinetypeTableRecord
  2
BORDER2
 70
0
  3
Border (.5x) __.__.__.__.__.__.__.__.__.__.__.
 72
65
 73
6
 40
22.225000000000001
 49
6.3499999999999996
 74
0
 49
-3.1749999999999998
 74
0
 49
6.3499999999999996
 74
0
 49
-3.1749999999999998
 74
0
 49
0.0
 74
0
 49
-3.1749999999999998
 74
0
  0
LTYPE
  5
42
100
AcDbSymbolTableRecord
100
AcDbLinetypeTableRecord
  2
BORDERX2
 70
0
  3
Border (2x) ____  ____  .  ____  ____  .  ___
 72
65
 73
6
 40
88.900000000000006
 49
25.399999999999999
 74
0
 49
-12.699999999999999
 74
0
 49
25.399999999999999
 74
0
 49
-12.699999999999999
 74
0
 49
0.0
 74
0
 49
-12.699999999999999
 74
0
  0
ENDTAB
  0
TABLE
  2
LAYER
  5
2
100
AcDbSymbolTable
 70
5
  0
LAYER
  5
10
100
AcDbSymbolTableRecord
100
AcDbLayerTableRecord
  2
0
 70
0
 62
7
  6
CONTINUOUS
370
0
390
F
  0
LAYER
  5
43
100
AcDbSymbolTableRecord
100
AcDbLayerTableRecord
  2
AUX
 70
0
 62
1
  6
CONTINUOUS
370
18
390
F
  0
LAYER
  5
44
100
AcDbSymbolTableRecord
100
AcDbLayerTableRecord
  2
CENTER
 70
0
 62
7
  6
DASHDOT
370
18
390
F
  0
LAYER
  5
45
100
AcDbSymbolTableRecord
100
AcDbLayerTableRecord
  2
CONTOUR
 70
0
 62
7
  6
CONTINUOUS
370
35
390
F
  0
LAYER
  5
46
100
AcDbSymbolTableRecord
100
AcDbLayerTableRecord
  2
TEXT
 70
0
 62
7
  6
CONTINUOUS
370
18
390
F
  0
ENDTAB
  0
TABLE
  2
STYLE
  5
3
100
AcDbSymbolTable
 70
1
  0
STYLE
  5
11
100
AcDbSymbolTableRecord
100
AcDbTextStyleTableRecord
  2
Standard
 70
0
 40
0.0
 41
0.75
 50
0.0
 71
0
 42
2.5
  3
txt
  4

  0
ENDTAB
  0
TABLE
  2
VIEW
  5
6
100
AcDbSymbolTable
 70
0
  0
ENDTAB
  0
TABLE
  2
UCS
  5
7
100
AcDbSymbolTable
 70
0
  0
ENDTAB
  0
TABLE
  2
APPID
  5
9
100
AcDbSymbolTable
 70
1
  0
APPID
  5
12
100
AcDbSymbolTableRecord
100
AcDbRegAppTableRecord
  2
ACAD
 70
0
  0
ENDTAB
  0
TABLE
  2
DIMSTYLE
  5
A
100
AcDbSymbolTable
 70
1
100
AcDbDimStyleTable
 71
0
  0
DIMSTYLE
105
27
100
AcDbSymbolTableRecord
100
AcDbDimStyleTableRecord
  2
Standard
 41
2.5
 42
0.625
 43
3.75
 44
1.25
 70
0
 73
0
 74
0
 77
1
 78
8
140
2.5
141
2.5
143
0.03937007874016
147
0.625
171
3
172
1
271
2
272
2
274
3
278
44
283
0
284
8
340
11
  0
ENDTAB
  0
TABLE
  2
BLOCK_RECORD
  5
1
100
AcDbSymbolTable
 70
1
  0
BLOCK_RECORD
  5
1F
100
AcDbSymbolTableRecord
100
AcDbBlockTableRecord
  2
*Model_Space
340
22
  0
BLOCK_RECORD
  5
1B
100
AcDbSymbolTableRecord
100
AcDbBlockTableRecord
  2
*Paper_Space
340
1E
  0
BLOCK_RECORD
  5
23
100
AcDbSymbolTableRecord
100
AcDbBlockTableRecord
  2
*Paper_Space0
340
26
  0
BLOCK_RECORD
  5
47
100
AcDbSymbolTableRecord
100
AcDbBlockTableRecord
  2
*D4
340
0
  0
BLOCK_RECORD
  5
48
100
AcDbSymbolTableRecord
100
AcDbBlockTableRecord
  2
*D1
340
0
  0
BLOCK_RECORD
  5
49
100
AcDbSymbolTableRecord
100
AcDbBlockTableRecord
  2
*D8
340
0
  0
BLOCK_RECORD
  5
4A
100
AcDbSymbolTableRecord
100
AcDbBlockTableRecord
  2
*D5
340
0
  0
BLOCK_RECORD
  5
4B
100
AcDbSymbolTableRecord
100
AcDbBlockTableRecord
  2
*D12
340
0
  0
BLOCK_RECORD
  5
4C
100
AcDbSymbolTableRecord
100
AcDbBlockTableRecord
  2
*D6
340
0
  0
BLOCK_RECORD
  5
4D
100
AcDbSymbolTableRecord
100
AcDbBlockTableRecord
  2
*D3
340
0
  0
BLOCK_RECORD
  5
4E
100
AcDbSymbolTableRecord
100
AcDbBlockTableRecord
  2
*D10
340
0
  0
BLOCK_RECORD
  5
4F
100
AcDbSymbolTableRecord
100
AcDbBlockTableRecord
  2
*D11
340
0
  0
BLOCK_RECORD
  5
50
100
AcDbSymbolTableRecord
100
AcDbBlockTableRecord
  2
*D13
340
0
  0
BLOCK_RECORD
  5
51
100
AcDbSymbolTableRecord
100
AcDbBlockTableRecord
  2
*D2
340
0
  0
BLOCK_RECORD
  5
52
100
AcDbSymbolTableRecord
100
AcDbBlockTableRecord
  2
*D15
340
0
  0
BLOCK_RECORD
  5
53
100
AcDbSymbolTableRecord
100
AcDbBlockTableRecord
  2
*D7
340
0
  0
BLOCK_RECORD
  5
54
100
AcDbSymbolTableRecord
100
AcDbBlockTableRecord
  2
*D9
340
0
  0
BLOCK_RECORD
  5
55
100
AcDbSymbolTableRecord
100
AcDbBlockTableRecord
  2
*D14
340
0
  0
ENDTAB
  0
ENDSEC
  0
SECTION
  2
BLOCKS
  0
BLOCK
  5
20
100
AcDbEntity
  8
0
100
AcDbBlockBegin
  2
*Model_Space
 70
0
 10
0.0
 20
0.0
 30
0.0
  3
*Model_Space
  1

  0
ENDBLK
  5
21
100
AcDbEntity
  8
0
100
AcDbBlockEnd
  0
BLOCK
  5
1C
100
AcDbEntity
 67
1
  8
0
100
AcDbBlockBegin
  2
*Paper_Space
 70
0
 10
0.0
 20
0.0
 30
0.0
  3
*Paper_Space
  1

  0
ENDBLK
  5
1D
100
AcDbEntity
 67
1
  8
0
100
AcDbBlockEnd
  0
BLOCK
  5
24
100
AcDbEntity
  8
0
100
AcDbBlockBegin
  2
*Paper_Space0
 70
0
 10
0.0
 20
0.0
 30
0.0
  3
*Paper_Space0
  1

  0
ENDBLK
  5
25
100
AcDbEntity
  8
0
100
AcDbBlockEnd
  0
BLOCK
  5
56
100
AcDbEntity
  8
0
100
AcDbBlockBegin
  2
*D4
 70
0
 10
0.0
 20
0.0
 30
0.0
  3
*D4
  1

  0
LINE
  5
57
100
AcDbEntity
100
AcDbLine
  8
0
 62
0
370
-2
  6
ByBlock
 10
274.98457503767997
 20
-98.324817644981565
 30
0.0
 11
287.36601480894711
 21
-110.7011734765794
 31
0.0
  0
LINE
  5
58
100
AcDbEntity
100
AcDbLine
  8
0
 62
0
370
-2
  6
ByBlock
 10
282.30506997724609
 20
-88.805642662609785
 30
0.0
 11
297.45377586581361
 21
-97.551752085248722
 31
0.0
  0
ARC
  5
59
100
AcDbEntity
  8
0
 62
0
370
-2
  6
ByBlock
100
AcDbCircle
 10
242.43035630201709
 20
-65.783965988357039
 30
0.0
 40
60.410572193783317
100
AcDbArc
 50
315.01176551769498
 51
330.0
  0
MTEXT
  5
5A
100
AcDbEntity
100
AcDbMText
  8
0
 62
0
370
-2
  6
CONTINUOUS
 10
289.12134892123998
 20
-101.6036087721202
 30
0.0
 40
6.25
 41
10.41666666666705
 71
8
 72
0
  1
15%%D
  7
STANDARD
 50
3008.3654816906737
 73
1
 44
1.0
  0
ENDBLK
  5
5B
100
AcDbEntity
  8
0
100
AcDbBlockEnd
  0
BLOCK
  5
5C
100
AcDbEntity
  8
0
100
AcDbBlockBegin
  2
*D1
 70
0
 10
0.0
 20
0.0
 30
0.0
  3
*D1
  1

  0
LINE
  5
5D
100
AcDbEntity
100
AcDbLine
  8
0
 62
0
370
-2
  6
ByBlock
 10
136.7980947161669
 20
-37.706116670466571
 30
0.0
 11
266.7019052838329
 21
-112.7061166704663
 31
0.0
  0
MTEXT
  5
5E
100
AcDbEntity
100
AcDbMText
  8
0
 62
0
370
-2
  6
CONTINUOUS
 10
204.09375
 20
-71.146622590226713
 30
0.0
 40
6.25
 41
11.1111111111115
 71
5
 72
0
  1
150
  7
STANDARD
 50
18907.607239317174
 73
1
 44
1.0
  0
LINE
  5
5F
100
AcDbEntity
100
AcDbLine
  8
0
 62
0
370
-2
  6
ByBlock
 10
144.5168447161671
 20
-24.33684949954398
 30
0.0
 11
135.2355947161669
 21
-40.412446057292939
 31
0.0
  0
LINE
  5
60
100
AcDbEntity
100
AcDbLine
  8
0
 62
0
370
-2
  6
ByBlock
 10
274.4206552838329
 20
-99.336849499543973
 30
0.0
 11
265.1394052838329
 21
-115.4124460572927
 31
0.0
  0
ENDBLK
  5
61
100
AcDbEntity
  8
0
100
AcDbBlockEnd
  0
BLOCK
  5
62
100
AcDbEntity
  8
0
100
AcDbBlockBegin
  2
*D8
 70
0
 10
0.0
 20
0.0
 30
0.0
  3
*D8
  1

  0
LINE
  5
63
100
AcDbEntity
100
AcDbLine
  8
0
 62
0
370
-2
  6
ByBlock
 10
400.0
 20
190.0
 30
0.0
 11
591.0
 21
190.0
 31
0.0
  0
MTEXT
  5
64
100
AcDbEntity
100
AcDbMText
  8
0
 62
0
370
-2
  6
CONTINUOUS
 10
495.5
 20
194.6875
 30
0.0
 40
6.25
 41
9.7222222222222214
 71
5
 72
0
  1
191
  7
STANDARD
 50
0.0
 73
1
 44
1.0
  0
LINE
  5
65
100
AcDbEntity
100
AcDbLine
  8
0
 62
0
370
-2
  6
ByBlock
 10
400.0
 20
151.5625
 30
0.0
 11
400.0
 21
193.125
 31
0.0
  0
LINE
  5
66
100
AcDbEntity
100
AcDbLine
  8
0
 62
0
370
-2
  6
ByBlock
 10
591.0
 20
151.5625
 30
0.0
 11
591.0
 21
193.125
 31
0.0
  0
ENDBLK
  5
67
100
AcDbEntity
  8
0
100
AcDbBlockEnd
  0
BLOCK
  5
68
100
AcDbEntity
  8
0
100
AcDbBlockBegin
  2
*D5
 70
0
 10
0.0
 20
0.0
 30
0.0
  3
*D5
  1

  0
LINE
  5
69
100
AcDbEntity
100
AcDbLine
  8
0
 62
0
370
-2
  6
ByBlock
 10
613.0
 20
-10.0
 30
0.0
 11
1173.0
 21
-10.0
 31
0.0
  0
MTEXT
  5
6A
100
AcDbEntity
100
AcDbMText
  8
0
 62
0
370
-2
  6
CONTINUOUS
 10
893.0
 20
-5.3125
 30
0.0
 40
6.25
 41
12.500000000000769
 71
5
 72
0
  1
560
  7
STANDARD
 50
0.0
 73
1
 44
1.0
  0
LINE
  5
6B
100
AcDbEntity
100
AcDbLine
  8
0
 62
0
370
-2
  6
ByBlock
 10
613.0
 20
45.4375
 30
0.0
 11
613.0
 21
-13.125
 31
0.0
  0
LINE
  5
6C
100
AcDbEntity
100
AcDbLine
  8
0
 62
0
370
-2
  6
ByBlock
 10
1173.0
 20
45.4375
 30
0.0
 11
1173.0
 21
-13.125
 31
0.0
  0
ENDBLK
  5
6D
100
AcDbEntity
  8
0
100
AcDbBlockEnd
  0
BLOCK
  5
6E
100
AcDbEntity
  8
0
100
AcDbBlockBegin
  2
*D12
 70
0
 10
0.0
 20
0.0
 30
0.0
  3
*D12
  1

  0
LINE
  5
6F
100
AcDbEntity
100
AcDbLine
  8
0
 62
0
370
-2
  6
ByBlock
 10
766.19999999999993
 20
30.0
 30
0.0
 11
633.0
 21
30.0
 31
0.0
  0
MTEXT
  5
70
100
AcDbEntity
100
AcDbMText
  8
0
 62
0
370
-2
  6
CONTINUOUS
 10
699.59999999999991
 20
34.6875
 30
0.0
 40
6.25
 41
18.40277777777855
 71
5
 72
0
  1
133,2
  7
STANDARD
 50
20626.480624709635
 73
1
 44
1.0
  0
LINE
  5
71
100
AcDbEntity
100
AcDbLine
  8
0
 62
0
370
-2
  6
ByBlock
 10
766.19999999999993
 20
48.4375
 30
0.0
 11
766.19999999999993
 21
26.875
 31
0.0
  0
LINE
  5
72
100
AcDbEntity
100
AcDbLine
  8
0
 62
0
370
-2
  6
ByBlock
 10
633.0
 20
48.4375
 30
0.0
 11
633.0
 21
26.875
 31
0.0
  0
ENDBLK
  5
73
100
AcDbEntity
  8
0
100
AcDbBlockEnd
  0
BLOCK
  5
74
100
AcDbEntity
  8
0
100
AcDbBlockBegin
  2
*D6
 70
0
 10
0.0
 20
0.0
 30
0.0
  3
*D6
  1

  0
LINE
  5
75
100
AcDbEntity
100
AcDbLine
  8
0
 62
0
370
-2
  6
ByBlock
 10
1173.0
 20
-10.0
 30
0.0
 11
1233.0
 21
-10.0
 31
0.0
  0
MTEXT
  5
76
100
AcDbEntity
100
AcDbMText
  8
0
 62
0
370
-2
  6
CONTINUOUS
 10
1203.0
 20
-5.3125
 30
0.0
 40
6.25
 41
7.6388888888892774
 71
5
 72
0
  1
60
  7
STANDARD
 50
0.0
 73
1
 44
1.0
  0
LINE
  5
77
100
AcDbEntity
100
AcDbLine
  8
0
 62
0
370
-2
  6
ByBlock
 10
1173.0
 20
45.4375
 30
0.0
 11
1173.0
 21
-13.125
 31
0.0
  0
LINE
  5
78
100
AcDbEntity
100
AcDbLine
  8
0
 62
0
370
-2
  6
ByBlock
 10
1233.0
 20
45.4375
 30
0.0
 11
1233.0
 21
-13.125
 31
0.0
  0
ENDBLK
  5
79
100
AcDbEntity
  8
0
100
AcDbBlockEnd
  0
BLOCK
  5
7A
100
AcDbEntity
  8
0
100
AcDbBlockBegin
  2
*D3
 70
0
 10
0.0
 20
0.0
 30
0.0
  3
*D3
  1

  0
LINE
  5
7B
100
AcDbEntity
100
AcDbLine
  8
0
 62
0
370
-2
  6
ByBlock
 10
161.79809471616699
 20
5.5951535187556143
 30
0.0
 11
183.44872981077799
 21
-6.9048464812443591
 31
0.0
  0
MTEXT
  5
7C
100
AcDbEntity
100
AcDbMText
  8
0
 62
0
370
-2
  6
CONTINUOUS
 10
174.9671622634726
 20
3.4046475989952261
 30
0.0
 40
6.25
 41
7.6388888888892774
 71
5
 72
0
  1
25
  7
STANDARD
 50
18907.607239317174
 73
1
 44
1.0
  0
LINE
  5
7D
100
AcDbEntity
100
AcDbLine
  8
0
 62
0
370
-2
  6
ByBlock
 10
151.8293447161671
 20
-11.67122796919657
 30
0.0
 11
163.36059471616699
 21
8.3014829055819881
 31
0.0
  0
LINE
  5
7E
100
AcDbEntity
100
AcDbLine
  8
0
 62
0
370
-2
  6
ByBlock
 10
173.4799798107781
 20
-24.171227969196568
 30
0.0
 11
185.01122981077799
 21
-4.1985170944179826
 31
0.0
  0
ENDBLK
  5
7F
100
AcDbEntity
  8
0
100
AcDbBlockEnd
  0
BLOCK
  5
80
100
AcDbEntity
  8
0
100
AcDbBlockBegin
  2
*D10
 70
0
 10
0.0
 20
0.0
 30
0.0
  3
*D10
  1

  0
LINE
  5
81
100
AcDbEntity
100
AcDbLine
  8
0
 62
0
370
-2
  6
ByBlock
 10
1168.8
 20
30.0
 30
0.0
 11
1031.8
 21
30.0
 31
0.0
  0
MTEXT
  5
82
100
AcDbEntity
100
AcDbMText
  8
0
 62
0
370
-2
  6
CONTINUOUS
 10
1100.3
 20
34.6875
 30
0.0
 40
6.25
 41
11.1111111111115
 71
5
 72
0
  1
137
  7
STANDARD
 50
20626.480624709635
 73
1
 44
1.0
  0
LINE
  5
83
100
AcDbEntity
100
AcDbLine
  8
0
 62
0
370
-2
  6
ByBlock
 10
1168.8
 20
48.4375
 30
0.0
 11
1168.8
 21
26.875
 31
0.0
  0
LINE
  5
84
100
AcDbEntity
100
AcDbLine
  8
0
 62
0
370
-2
  6
ByBlock
 10
1031.8
 20
48.4375
 30
0.0
 11
1031.8
 21
26.875
 31
0.0
  0
ENDBLK
  5
85
100
AcDbEntity
  8
0
100
AcDbBlockEnd
  0
BLOCK
  5
86
100
AcDbEntity
  8
0
100
AcDbBlockBegin
  2
*D11
 70
0
 10
0.0
 20
0.0
 30
0.0
  3
*D11
  1

  0
LINE
  5
87
100
AcDbEntity
100
AcDbLine
  8
0
 62
0
370
-2
  6
ByBlock
 10
1026.5
 20
30.0
 30
0.0
 11
771.49999999999989
 21
30.0
 31
0.0
  0
MTEXT
  5
88
100
AcDbEntity
100
AcDbMText
  8
0
 62
0
370
-2
  6
CONTINUOUS
 10
899.0
 20
34.6875
 30
0.0
 40
6.25
 41
12.50000000000078
 71
5
 72
0
  1
255
  7
STANDARD
 50
20626.480624709635
 73
1
 44
1.0
  0
LINE
  5
89
100
AcDbEntity
100
AcDbLine
  8
0
 62
0
370
-2
  6
ByBlock
 10
1026.5
 20
48.4375
 30
0.0
 11
1026.5
 21
26.875
 31
0.0
  0
LINE
  5
8A
100
AcDbEntity
100
AcDbLine
  8
0
 62
0
370
-2
  6
ByBlock
 10
771.49999999999989
 20
48.4375
 30
0.0
 11
771.49999999999989
 21
26.875
 31
0.0
  0
ENDBLK
  5
8B
100
AcDbEntity
  8
0
100
AcDbBlockEnd
  0
BLOCK
  5
8C
100
AcDbEntity
  8
0
100
AcDbBlockBegin
  2
*D13
 70
0
 10
0.0
 20
0.0
 30
0.0
  3
*D13
  1

  0
LINE
  5
8D
100
AcDbEntity
100
AcDbLine
  8
0
 62
0
370
-2
  6
ByBlock
 10
1174.0
 20
30.0
 30
0.0
 11
1217.0
 21
30.0
 31
0.0
  0
MTEXT
  5
8E
100
AcDbEntity
100
AcDbMText
  8
0
 62
0
370
-2
  6
CONTINUOUS
 10
1195.5
 20
34.6875
 30
0.0
 40
6.25
 41
8.3333333333337194
 71
5
 72
0
  1
43
  7
STANDARD
 50
0.0
 73
1
 44
1.0
  0
LINE
  5
8F
100
AcDbEntity
100
AcDbLine
  8
0
 62
0
370
-2
  6
ByBlock
 10
1174.0
 20
48.4375
 30
0.0
 11
1174.0
 21
26.875
 31
0.0
  0
LINE
  5
90
100
AcDbEntity
100
AcDbLine
  8
0
 62
0
370
-2
  6
ByBlock
 10
1217.0
 20
48.4375
 30
0.0
 11
1217.0
 21
26.875
 31
0.0
  0
ENDBLK
  5
91
100
AcDbEntity
  8
0
100
AcDbBlockEnd
  0
BLOCK
  5
92
100
AcDbEntity
  8
0
100
AcDbBlockBegin
  2
*D2
 70
0
 10
0.0
 20
0.0
 30
0.0
  3
*D2
  1

  0
LINE
  5
93
100
AcDbEntity
100
AcDbLine
  8
0
 62
0
370
-2
  6
ByBlock
 10
154.78847577293359
 20
-36.545862632622097
 30
0.0
 11
258.71152708803078
 21
-96.545864284400452
 31
0.0
  0
MTEXT
  5
94
100
AcDbEntity
100
AcDbMText
  8
0
 62
0
370
-2
  6
CONTINUOUS
 10
209.0937514304822
 20
-62.486369378271618
 30
0.0
 40
6.25
 41
11.111111111111111
 71
5
 72
0
  1
120
  7
STANDARD
 50
18907.607239317174
 73
1
 44
1.0
  0
LINE
  5
95
100
AcDbEntity
100
AcDbLine
  8
0
 62
0
370
-2
  6
ByBlock
 10
159.31078439558519
 20
-28.712994330682641
 30
0.0
 11
153.22597577293359
 21
-39.252192019448472
 31
0.0
  0
LINE
  5
96
100
AcDbEntity
100
AcDbLine
  8
0
 62
0
370
-2
  6
ByBlock
 10
263.23383526845299
 20
-88.712996748424757
 30
0.0
 11
257.14902708803078
 21
-99.25219367122682
 31
0.0
  0
ENDBLK
  5
97
100
AcDbEntity
  8
0
100
AcDbBlockEnd
  0
BLOCK
  5
98
100
AcDbEntity
  8
0
100
AcDbBlockBegin
  2
*D15
 70
0
 10
0.0
 20
0.0
 30
0.0
  3
*D15
  1

  0
LINE
  5
99
100
AcDbEntity
100
AcDbLine
  8
0
 62
0
370
-2
  6
ByBlock
 10
1029.0
 20
90.0
 30
0.0
 11
769.0
 21
90.0
 31
0.0
  0
MTEXT
  5
9A
100
AcDbEntity
100
AcDbMText
  8
0
 62
0
370
-2
  6
CONTINUOUS
 10
899.0
 20
94.6875
 30
0.0
 40
6.25
 41
12.500000000000391
 71
5
 72
0
  1
260
  7
STANDARD
 50
20626.480624709635
 73
1
 44
1.0
  0
LINE
  5
9B
100
AcDbEntity
100
AcDbLine
  8
0
 62
0
370
-2
  6
ByBlock
 10
1029.0
 20
91.5625
 30
0.0
 11
1029.0
 21
93.125
 31
0.0
  0
LINE
  5
9C
100
AcDbEntity
100
AcDbLine
  8
0
 62
0
370
-2
  6
ByBlock
 10
769.0
 20
91.5625
 30
0.0
 11
769.0
 21
93.125
 31
0.0
  0
ENDBLK
  5
9D
100
AcDbEntity
  8
0
100
AcDbBlockEnd
  0
BLOCK
  5
9E
100
AcDbEntity
  8
0
100
AcDbBlockBegin
  2
*D7
 70
0
 10
0.0
 20
0.0
 30
0.0
  3
*D7
  1

  0
LINE
  5
9F
100
AcDbEntity
100
AcDbLine
  8
0
 62
0
370
-2
  6
ByBlock
 10
633.0
 20
190.0
 30
0.0
 11
1229.0
 21
190.0
 31
0.0
  0
MTEXT
  5
A0
100
AcDbEntity
100
AcDbMText
  8
0
 62
0
370
-2
  6
CONTINUOUS
 10
931.0
 20
194.6875
 30
0.0
 40
6.25
 41
12.500000000000769
 71
5
 72
0
  1
596
  7
STANDARD
 50
0.0
 73
1
 44
1.0
  0
LINE
  5
A1
100
AcDbEntity
100
AcDbLine
  8
0
 62
0
370
-2
  6
ByBlock
 10
633.0
 20
151.5625
 30
0.0
 11
633.0
 21
193.125
 31
0.0
  0
LINE
  5
A2
100
AcDbEntity
100
AcDbLine
  8
0
 62
0
370
-2
  6
ByBlock
 10
1229.0
 20
151.5625
 30
0.0
 11
1229.0
 21
193.125
 31
0.0
  0
ENDBLK
  5
A3
100
AcDbEntity
  8
0
100
AcDbBlockEnd
  0
BLOCK
  5
A4
100
AcDbEntity
  8
0
100
AcDbBlockBegin
  2
*D9
 70
0
 10
0.0
 20
0.0
 30
0.0
  3
*D9
  1

  0
LINE
  5
A5
100
AcDbEntity
100
AcDbLine
  8
0
 62
0
370
-2
  6
ByBlock
 10
591.0
 20
190.0
 30
0.0
 11
633.0
 21
190.0
 31
0.0
  0
MTEXT
  5
A6
100
AcDbEntity
100
AcDbMText
  8
0
 62
0
370
-2
  6
CONTINUOUS
 10
612.0
 20
194.6875
 30
0.0
 40
6.25
 41
8.3333333333333321
 71
5
 72
0
  1
42
  7
STANDARD
 50
0.0
 73
1
 44
1.0
  0
LINE
  5
A7
100
AcDbEntity
100
AcDbLine
  8
0
 62
0
370
-2
  6
ByBlock
 10
591.0
 20
151.5625
 30
0.0
 11
591.0
 21
193.125
 31
0.0
  0
LINE
  5
A8
100
AcDbEntity
100
AcDbLine
  8
0
 62
0
370
-2
  6
ByBlock
 10
633.0
 20
151.5625
 30
0.0
 11
633.0
 21
193.125
 31
0.0
  0
ENDBLK
  5
A9
100
AcDbEntity
  8
0
100
AcDbBlockEnd
  0
BLOCK
  5
AA
100
AcDbEntity
  8
0
100
AcDbBlockBegin
  2
*D14
 70
0
 10
0.0
 20
0.0
 30
0.0
  3
*D14
  1

  0
LINE
  5
AB
100
AcDbEntity
100
AcDbLine
  8
0
 62
0
370
-2
  6
ByBlock
 10
1229.0
 20
90.0
 30
0.0
 11
1029.0
 21
90.0
 31
0.0
  0
MTEXT
  5
AC
100
AcDbEntity
100
AcDbMText
  8
0
 62
0
370
-2
  6
CONTINUOUS
 10
1129.0
 20
94.6875
 30
0.0
 40
6.25
 41
12.5
 71
5
 72
0
  1
200
  7
STANDARD
 50
20626.480624709635
 73
1
 44
1.0
  0
LINE
  5
AD
100
AcDbEntity
100
AcDbLine
  8
0
 62
0
370
-2
  6
ByBlock
 10
1229.0
 20
98.4375
 30
0.0
 11
1229.0
 21
86.875
 31
0.0
  0
LINE
  5
AE
100
AcDbEntity
100
AcDbLine
  8
0
 62
0
370
-2
  6
ByBlock
 10
1029.0
 20
98.4375
 30
0.0
 11
1029.0
 21
86.875
 31
0.0
  0
ENDBLK
  5
AF
100
AcDbEntity
  8
0
100
AcDbBlockEnd
  0
ENDSEC
  0
SECTION
  2
ENTITIES
  0
LINE
  5
B0
100
AcDbEntity
100
AcDbLine
  8
CENTER
 62
256
370
-1
  6
ByLayer
 10
100.0
 20
200.0
 30
0.0
 11
100.0000000000001
 21
1200.0
 31
0.0
  0
LINE
  5
B1
100
AcDbEntity
100
AcDbLine
  8
CENTER
 62
256
370
-1
  6
ByLayer
 10
200.0
 20
100.0
 30
0.0
 11
1200.0
 21
100.0
 31
0.0
  0
LINE
  5
B2
100
AcDbEntity
100
AcDbLine
  8
CENTER
 62
256
370
-1
  6
ByLayer
 10
20.0
 20
500.0
 30
0.0
 11
180.0
 21
500.0
 31
0.0
  0
LINE
  5
B3
100
AcDbEntity
100
AcDbLine
  8
CENTER
 62
256
370
-1
  6
ByLayer
 10
20.000000000000039
 20
1060.0
 30
0.0
 11
180.0
 21
1060.0
 31
0.0
  0
LINE
  5
B4
100
AcDbEntity
100
AcDbLine
  8
CONTOUR
 62
256
370
-1
  6
ByLayer
 10
47.000000000000007
 20
286.0
 30
0.0
 11
153.0
 21
286.0
 31
0.0
  0
LINE
  5
B5
100
AcDbEntity
100
AcDbLine
  8
CONTOUR
 62
256
370
-1
  6
ByLayer
 10
153.0
 20
286.0
 30
0.0
 11
153.00000000000011
 21
1120.0
 31
0.0
  0
LINE
  5
B6
100
AcDbEntity
100
AcDbLine
  8
CONTOUR
 62
256
370
-1
  6
ByLayer
 10
47.000000000000007
 20
286.0
 30
0.0
 11
47.000000000000057
 21
1120.0
 31
0.0
  0
LINE
  5
B7
100
AcDbEntity
100
AcDbLine
  8
CONTOUR
 62
256
370
-1
  6
ByLayer
 10
50.000000000000007
 20
286.0
 30
0.0
 11
50.000000000000057
 21
1116.0
 31
0.0
  0
LINE
  5
B8
100
AcDbEntity
100
AcDbLine
  8
CONTOUR
 62
256
370
-1
  6
ByLayer
 10
150.0
 20
286.0
 30
0.0
 11
150.00000000000011
 21
1116.0
 31
0.0
  0
LINE
  5
B9
100
AcDbEntity
100
AcDbLine
  8
CONTOUR
 62
256
370
-1
  6
ByLayer
 10
125.0
 20
1060.0
 30
0.0
 11
125.0
 21
1116.0
 31
0.0
  0
LINE
  5
BA
100
AcDbEntity
100
AcDbLine
  8
CONTOUR
 62
256
370
-1
  6
ByLayer
 10
75.000000000000043
 20
1060.0
 30
0.0
 11
75.000000000000043
 21
1116.0
 31
0.0
  0
LINE
  5
BB
100
AcDbEntity
100
AcDbLine
  8
CONTOUR
 62
256
370
-1
  6
ByLayer
 10
47.000000000000057
 20
1120.0
 30
0.0
 11
153.00000000000011
 21
1120.0
 31
0.0
  0
LINE
  5
BC
100
AcDbEntity
100
AcDbLine
  8
CONTOUR
 62
256
370
-1
  6
ByLayer
 10
47.000000000000057
 20
1116.0
 30
0.0
 11
153.00000000000011
 21
1116.0
 31
0.0
  0
LINE
  5
BD
100
AcDbEntity
100
AcDbLine
  8
CONTOUR
 62
256
370
-1
  6
ByLayer
 10
60.000000000000021
 20
490.0
 30
0.0
 11
60.000000000000021
 21
510.0
 31
0.0
  0
LINE
  5
BE
100
AcDbEntity
100
AcDbLine
  8
CONTOUR
 62
256
370
-1
  6
ByLayer
 10
140.0
 20
490.0
 30
0.0
 11
140.0
 21
510.0
 31
0.0
  0
LINE
  5
BF
100
AcDbEntity
100
AcDbLine
  8
CONTOUR
 62
256
370
-1
  6
ByLayer
 10
50.000000000000007
 20
510.0
 30
0.0
 11
150.00000000000011
 21
510.0
 31
0.0
  0
LINE
  5
C0
100
AcDbEntity
100
AcDbLine
  8
CONTOUR
 62
256
370
-1
  6
ByLayer
 10
50.000000000000007
 20
490.0
 30
0.0
 11
150.00000000000011
 21
490.0
 31
0.0
  0
LINE
  5
C1
100
AcDbEntity
100
AcDbLine
  8
CENTER
 62
256
370
-1
  6
ByLayer
 10
10.000000000000121
 20
551.0
 30
0.0
 11
189.99999999999989
 21
551.0
 31
0.0
  0
LINE
  5
C2
100
AcDbEntity
100
AcDbLine
  8
CONTOUR
 62
256
370
-1
  6
ByLayer
 10
10.000000000000121
 20
536.0
 30
0.0
 11
189.99999999999989
 21
536.0
 31
0.0
  0
LINE
  5
C3
100
AcDbEntity
100
AcDbLine
  8
CENTER
 62
256
370
-1
  6
ByLayer
 10
10.00000000000014
 20
851.0
 30
0.0
 11
189.99999999999989
 21
851.0
 31
0.0
  0
LINE
  5
C4
100
AcDbEntity
100
AcDbLine
  8
CONTOUR
 62
256
370
-1
  6
ByLayer
 10
10.00000000000014
 20
866.0
 30
0.0
 11
189.99999999999989
 21
866.0
 31
0.0
  0
LINE
  5
C5
100
AcDbEntity
100
AcDbLine
  8
CONTOUR
 62
256
370
-1
  6
ByLayer
 10
145.0
 20
536.0
 30
0.0
 11
145.00000000000011
 21
865.99999999999989
 31
0.0
  0
LINE
  5
C6
100
AcDbEntity
100
AcDbLine
  8
CONTOUR
 62
256
370
-1
  6
ByLayer
 10
189.9999999999998
 20
536.0
 30
0.0
 11
189.99999999999989
 21
865.99999999999989
 31
0.0
  0
LINE
  5
C7
100
AcDbEntity
100
AcDbLine
  8
CONTOUR
 62
256
370
-1
  6
ByLayer
 10
55.000000000000163
 20
536.0
 30
0.0
 11
55.000000000000178
 21
865.99999999999989
 31
0.0
  0
LINE
  5
C8
100
AcDbEntity
100
AcDbLine
  8
CONTOUR
 62
256
370
-1
  6
ByLayer
 10
10.000000000000121
 20
536.0
 30
0.0
 11
10.00000000000014
 21
865.99999999999989
 31
0.0
  0
LINE
  5
C9
100
AcDbEntity
100
AcDbLine
  8
AUX
 62
256
370
-1
  6
ByLayer
 10
501.0
 20
140.0
 30
0.0
 11
1044.0
 21
125.0
 31
0.0
  0
LINE
  5
CA
100
AcDbEntity
100
AcDbLine
  8
AUX
 62
256
370
-1
  6
ByLayer
 10
501.0
 20
60.0
 30
0.0
 11
1044.0
 21
75.0
 31
0.0
  0
LINE
  5
CB
100
AcDbEntity
100
AcDbLine
  8
CENTER
 62
256
370
-1
  6
ByLayer
 10
100.0
 20
-353.5
 30
0.0
 11
100.0
 21
190.0
 31
0.0
  0
CIRCLE
  5
CC
100
AcDbEntity
100
AcDbCircle
  8
CONTOUR
 62
256
370
-1
  6
ByLayer
 10
100.0
 20
-251.44228634059951
 30
0.0
 40
232.0
  0
LINE
  5
CD
100
AcDbEntity
100
AcDbLine
  8
CENTER
 62
256
370
-1
  6
ByLayer
 10
38.499999999999957
 20
-251.44228634059951
 30
0.0
 11
461.5
 21
-251.44228634059951
 31
0.0
  0
LINE
  5
CE
100
AcDbEntity
100
AcDbLine
  8
CONTOUR
 62
256
370
-1
  6
ByLayer
 10
332.0
 20
-301.44228634059948
 30
0.0
 11
332.0
 21
-201.44228634059951
 31
0.0
  0
LINE
  5
CF
100
AcDbEntity
100
AcDbLine
  8
CONTOUR
 62
256
370
-1
  6
ByLayer
 10
337.0
 20
-301.44228634059948
 30
0.0
 11
337.0
 21
-201.44228634059951
 31
0.0
  0
LINE
  5
D0
100
AcDbEntity
100
AcDbLine
  8
CONTOUR
 62
256
370
-1
  6
ByLayer
 10
332.0
 20
-301.44228634059948
 30
0.0
 11
337.0
 21
-301.44228634059948
 31
0.0
  0
LINE
  5
D1
100
AcDbEntity
100
AcDbLine
  8
CONTOUR
 62
256
370
-1
  6
ByLayer
 10
332.0
 20
-201.44228634059951
 30
0.0
 11
337.0
 21
-201.44228634059951
 31
0.0
  0
LINE
  5
D2
100
AcDbEntity
100
AcDbLine
  8
CENTER
 62
256
370
-1
  6
ByLayer
 10
100.0
 20
-251.4422863405994
 30
0.0
 11
619.6152422706632
 21
48.557713659400548
 31
0.0
  0
LINE
  5
D3
100
AcDbEntity
100
AcDbLine
  8
CENTER
 62
256
370
-1
  6
ByLayer
 10
100.0000000000001
 20
-251.44228634059931
 30
0.0
 11
400.00000000000011
 21
268.17295593006378
 31
0.0
  0
LINE
  5
D4
100
AcDbEntity
100
AcDbLine
  8
CONTOUR
 62
256
370
-1
  6
ByLayer
 10
288.4178936779897
 20
-113.7916512459885
 30
0.0
 11
313.41789367798981
 21
-157.0929214352104
 31
0.0
  0
LINE
  5
D5
100
AcDbEntity
100
AcDbLine
  8
CONTOUR
 62
256
370
-1
  6
ByLayer
 10
297.07814771583401
 20
-108.7916512459885
 30
0.0
 11
322.07814771583401
 21
-152.0929214352104
 31
0.0
  0
LINE
  5
D6
100
AcDbEntity
100
AcDbLine
  8
CONTOUR
 62
256
370
-1
  6
ByLayer
 10
318.07814771583401
 20
-145.16471820493501
 30
0.0
 11
417.67106915104432
 21
-87.664718204934957
 31
0.0
  0
LINE
  5
D7
100
AcDbEntity
100
AcDbLine
  8
CONTOUR
 62
256
370
-1
  6
ByLayer
 10
301.07814771583412
 20
-115.719854476264
 30
0.0
 11
400.67106915104449
 21
-58.219854476264018
 31
0.0
  0
LINE
  5
D8
100
AcDbEntity
100
AcDbLine
  8
CONTOUR
 62
256
370
-1
  6
ByLayer
 10
400.67106915104449
 20
-58.219854476264061
 30
0.0
 11
417.67106915104438
 21
-87.66471820493507
 31
0.0
  0
LINE
  5
D9
100
AcDbEntity
100
AcDbLine
  8
CONTOUR
 62
256
370
-1
  6
ByLayer
 10
313.41789367798981
 20
-157.0929214352104
 30
0.0
 11
322.07814771583401
 21
-152.0929214352104
 31
0.0
  0
LINE
  5
DA
100
AcDbEntity
100
AcDbLine
  8
CONTOUR
 62
256
370
-1
  6
ByLayer
 10
288.4178936779897
 20
-113.7916512459885
 30
0.0
 11
297.07814771583401
 21
-108.7916512459885
 31
0.0
  0
CIRCLE
  5
DB
100
AcDbEntity
100
AcDbCircle
  8
CONTOUR
 62
256
370
-1
  6
ByLayer
 10
275.72114317029968
 20
52.915661594444458
 30
0.0
 40
50.0
  0
CIRCLE
  5
DC
100
AcDbEntity
100
AcDbCircle
  8
CONTOUR
 62
256
370
-1
  6
ByLayer
 10
275.72114317029968
 20
52.915661594444458
 30
0.0
 40
53.0
  0
CIRCLE
  5
DD
100
AcDbEntity
100
AcDbCircle
  8
CONTOUR
 62
256
370
-1
  6
ByLayer
 10
275.72114317029968
 20
52.915661594444458
 30
0.0
 40
40.0
  0
LINE
  5
DE
100
AcDbEntity
100
AcDbLine
  8
CENTER
 62
256
370
-1
  6
ByLayer
 10
197.77885682970029
 20
97.915661594444444
 30
0.0
 11
353.66342951089922
 21
7.9156615944444653
 31
0.0
  0
LINE
  5
DF
100
AcDbEntity
100
AcDbLine
  8
CONTOUR
 62
256
370
-1
  6
ByLayer
 10
275.72114317029968
 20
142.91566159444449
 30
0.0
 11
353.66342951089922
 21
97.915661594444501
 31
0.0
  0
LINE
  5
E0
100
AcDbEntity
100
AcDbLine
  8
CONTOUR
 62
256
370
-1
  6
ByLayer
 10
353.66342951089922
 20
97.915661594444501
 30
0.0
 11
353.66342951089922
 21
7.9156615944444653
 31
0.0
  0
LINE
  5
E1
100
AcDbEntity
100
AcDbLine
  8
CONTOUR
 62
256
370
-1
  6
ByLayer
 10
353.66342951089922
 20
7.9156615944444653
 30
0.0
 11
275.72114317029968
 21
-37.084338405555542
 31
0.0
  0
LINE
  5
E2
100
AcDbEntity
100
AcDbLine
  8
CONTOUR
 62
256
370
-1
  6
ByLayer
 10
275.72114317029968
 20
-37.084338405555542
 30
0.0
 11
197.77885682970029
 21
7.9156615944444439
 31
0.0
  0
LINE
  5
E3
100
AcDbEntity
100
AcDbLine
  8
CONTOUR
 62
256
370
-1
  6
ByLayer
 10
197.77885682970029
 20
7.9156615944444439
 30
0.0
 11
197.77885682970029
 21
97.915661594444444
 31
0.0
  0
LINE
  5
E4
100
AcDbEntity
100
AcDbLine
  8
CONTOUR
 62
256
370
-1
  6
ByLayer
 10
197.77885682970029
 20
97.915661594444444
 30
0.0
 11
275.72114317029951
 21
142.91566159444471
 31
0.0
  0
LINE
  5
E5
100
AcDbEntity
100
AcDbLine
  8
CONTOUR
 62
256
370
-1
  6
ByLayer
 10
275.72114317029951
 20
129.05925513389371
 30
0.0
 11
341.66342951089928
 21
90.987458364169001
 31
0.0
  0
LINE
  5
E6
100
AcDbEntity
100
AcDbLine
  8
CONTOUR
 62
256
370
-1
  6
ByLayer
 10
341.66342951089928
 20
90.987458364169001
 30
0.0
 11
341.66342951089922
 21
14.84386482471997
 31
0.0
  0
LINE
  5
E7
100
AcDbEntity
100
AcDbLine
  8
CONTOUR
 62
256
370
-1
  6
ByLayer
 10
341.66342951089922
 20
14.84386482471997
 30
0.0
 11
275.72114317029968
 21
-23.227931945004531
 31
0.0
  0
LINE
  5
E8
100
AcDbEntity
100
AcDbLine
  8
CONTOUR
 62
256
370
-1
  6
ByLayer
 10
275.72114317029968
 20
-23.227931945004531
 30
0.0
 11
209.77885682970029
 21
14.84386482471996
 31
0.0
  0
LINE
  5
E9
100
AcDbEntity
100
AcDbLine
  8
CONTOUR
 62
256
370
-1
  6
ByLayer
 10
209.77885682970029
 20
90.987458364168944
 30
0.0
 11
275.72114317029951
 21
129.05925513389371
 31
0.0
  0
LINE
  5
EA
100
AcDbEntity
100
AcDbLine
  8
CONTOUR
 62
256
370
-1
  6
ByLayer
 10
209.77885682970029
 20
14.84386482471996
 30
0.0
 11
209.77885682970029
 21
90.987458364168944
 31
0.0
  0
LINE
  5
EB
100
AcDbEntity
100
AcDbLine
  8
CONTOUR
 62
256
370
-1
  6
ByLayer
 10
341.66342951089928
 20
90.987458364169001
 30
0.0
 11
353.66342951089922
 21
97.915661594444501
 31
0.0
  0
LINE
  5
EC
100
AcDbEntity
100
AcDbLine
  8
CONTOUR
 62
256
370
-1
  6
ByLayer
 10
275.72114317029951
 20
129.05925513389371
 30
0.0
 11
275.7211431702994
 21
142.91566159444471
 31
0.0
  0
LINE
  5
ED
100
AcDbEntity
100
AcDbLine
  8
CONTOUR
 62
256
370
-1
  6
ByLayer
 10
197.77885682970029
 20
97.915661594444444
 30
0.0
 11
209.77885682970029
 21
90.987458364168887
 31
0.0
  0
LINE
  5
EE
100
AcDbEntity
100
AcDbLine
  8
CONTOUR
 62
256
370
-1
  6
ByLayer
 10
197.77885682970029
 20
7.9156615944444439
 30
0.0
 11
209.77885682970029
 21
14.84386482471996
 31
0.0
  0
LINE
  5
EF
100
AcDbEntity
100
AcDbLine
  8
CONTOUR
 62
256
370
-1
  6
ByLayer
 10
275.72114317029968
 20
-37.084338405555542
 30
0.0
 11
275.72114317029968
 21
-23.227931945004531
 31
0.0
  0
LINE
  5
F0
100
AcDbEntity
100
AcDbLine
  8
CONTOUR
 62
256
370
-1
  6
ByLayer
 10
341.66342951089922
 20
14.84386482471997
 30
0.0
 11
353.66342951089922
 21
7.9156615944444653
 31
0.0
  0
LINE
  5
F1
100
AcDbEntity
100
AcDbLine
  8
CONTOUR
 62
256
370
-1
  6
ByLayer
 10
271.22114317029968
 20
-44.878567039615497
 30
0.0
 11
193.27885682970029
 21
0.1214329603844959
 31
0.0
  0
LINE
  5
F2
100
AcDbEntity
100
AcDbLine
  8
CONTOUR
 62
256
370
-1
  6
ByLayer
 10
193.27885682970029
 20
0.1214329603844959
 30
0.0
 11
197.77885682970029
 21
7.9156615944444439
 31
0.0
  0
LINE
  5
F3
100
AcDbEntity
100
AcDbLine
  8
CONTOUR
 62
256
370
-1
  6
ByLayer
 10
271.22114317029968
 20
-44.878567039615497
 30
0.0
 11
275.72114317029968
 21
-37.08433840555557
 31
0.0
  0
LINE
  5
F4
100
AcDbEntity
100
AcDbLine
  8
CENTER
 62
256
370
-1
  6
ByLayer
 10
325.7211431702998
 20
-33.68687878399944
 30
0.0
 11
225.7211431702998
 21
139.51820197288831
 31
0.0
  0
LINE
  5
F5
100
AcDbEntity
100
AcDbLine
  8
CENTER
 62
256
370
-1
  6
ByLayer
 10
175.72114317029971
 20
52.91566159444443
 30
0.0
 11
375.72114317029968
 21
52.915661594444472
 31
0.0
  0
LINE
  5
F6
100
AcDbEntity
100
AcDbLine
  8
CONTOUR
 62
256
370
-1
  6
ByLayer
 10
221.359927238132
 20
130.07204955018179
 30
0.0
 11
236.08235910246739
 21
138.57204955018179
 31
0.0
  0
LINE
  5
F7
100
AcDbEntity
100
AcDbLine
  8
CONTOUR
 62
256
370
-1
  6
ByLayer
 10
219.859927238132
 20
132.6701257615351
 30
0.0
 11
234.58235910246739
 21
141.1701257615351
 31
0.0
  0
LINE
  5
F8
100
AcDbEntity
100
AcDbLine
  8
CONTOUR
 62
256
370
-1
  6
ByLayer
 10
236.08235910246739
 20
138.57204955018179
 30
0.0
 11
234.58235910246739
 21
141.1701257615351
 31
0.0
  0
LINE
  5
F9
100
AcDbEntity
100
AcDbLine
  8
CONTOUR
 62
256
370
-1
  6
ByLayer
 10
221.359927238132
 20
130.07204955018179
 30
0.0
 11
219.859927238132
 21
132.6701257615351
 31
0.0
  0
LINE
  5
FA
100
AcDbEntity
100
AcDbLine
  8
CONTOUR
 62
256
370
-1
  6
ByLayer
 10
246.12306695894631
 20
98.181033398804217
 30
0.0
 11
251.319219381653
 21
101.1810333988043
 31
0.0
  0
LINE
  5
FB
100
AcDbEntity
100
AcDbLine
  8
CONTOUR
 62
256
370
-1
  6
ByLayer
 10
251.319219381653
 20
101.1810333988043
 30
0.0
 11
231.31921938165311
 21
135.82204955018179
 31
0.0
  0
LINE
  5
FC
100
AcDbEntity
100
AcDbLine
  8
CONTOUR
 62
256
370
-1
  6
ByLayer
 10
246.12306695894631
 20
98.181033398804217
 30
0.0
 11
226.1230669589464
 21
132.82204955018179
 31
0.0
  0
LINE
  5
FD
100
AcDbEntity
100
AcDbLine
  8
CONTOUR
 62
256
370
-1
  6
ByLayer
 10
236.08235910246739
 20
-32.740726361292893
 30
0.0
 11
221.35992723813189
 21
-24.240726361292889
 31
0.0
  0
LINE
  5
FE
100
AcDbEntity
100
AcDbLine
  8
CONTOUR
 62
256
370
-1
  6
ByLayer
 10
234.58235910246739
 20
-35.338802572646202
 30
0.0
 11
219.85992723813189
 21
-26.838802572646209
 31
0.0
  0
LINE
  5
FF
100
AcDbEntity
100
AcDbLine
  8
CONTOUR
 62
256
370
-1
  6
ByLayer
 10
221.35992723813189
 20
-24.240726361292889
 30
0.0
 11
219.85992723813189
 21
-26.838802572646209
 31
0.0
  0
LINE
  5
100
100
AcDbEntity
100
AcDbLine
  8
CONTOUR
 62
256
370
-1
  6
ByLayer
 10
236.08235910246739
 20
-32.740726361292893
 30
0.0
 11
234.58235910246739
 21
-35.338802572646202
 31
0.0
  0
LINE
  5
101
100
AcDbEntity
100
AcDbLine
  8
CONTOUR
 62
256
370
-1
  6
ByLayer
 10
251.319219381653
 20
4.6502897900846563
 30
0.0
 11
246.1230669589464
 21
7.6502897900846563
 31
0.0
  0
LINE
  5
102
100
AcDbEntity
100
AcDbLine
  8
CONTOUR
 62
256
370
-1
  6
ByLayer
 10
246.1230669589464
 20
7.6502897900846563
 30
0.0
 11
226.1230669589464
 21
-26.990726361292889
 31
0.0
  0
LINE
  5
103
100
AcDbEntity
100
AcDbLine
  8
CONTOUR
 62
256
370
-1
  6
ByLayer
 10
251.319219381653
 20
4.6502897900846563
 30
0.0
 11
231.319219381653
 21
-29.990726361292889
 31
0.0
  0
LINE
  5
104
100
AcDbEntity
100
AcDbLine
  8
CONTOUR
 62
256
370
-1
  6
ByLayer
 10
369.7211431702998
 20
61.415661594444472
 30
0.0
 11
369.72114317029991
 21
44.415661594444558
 31
0.0
  0
LINE
  5
105
100
AcDbEntity
100
AcDbLine
  8
CONTOUR
 62
256
370
-1
  6
ByLayer
 10
372.7211431702998
 20
61.415661594444472
 30
0.0
 11
372.72114317029991
 21
44.415661594444558
 31
0.0
  0
LINE
  5
106
100
AcDbEntity
100
AcDbLine
  8
CONTOUR
 62
256
370
-1
  6
ByLayer
 10
369.72114317029991
 20
44.415661594444558
 30
0.0
 11
372.72114317029991
 21
44.415661594444558
 31
0.0
  0
LINE
  5
107
100
AcDbEntity
100
AcDbLine
  8
CONTOUR
 62
256
370
-1
  6
ByLayer
 10
369.7211431702998
 20
61.415661594444472
 30
0.0
 11
372.7211431702998
 21
61.415661594444472
 31
0.0
  0
LINE
  5
108
100
AcDbEntity
100
AcDbLine
  8
CONTOUR
 62
256
370
-1
  6
ByLayer
 10
329.72114317029991
 20
55.915661594444472
 30
0.0
 11
329.72114317029991
 21
49.915661594444487
 31
0.0
  0
LINE
  5
109
100
AcDbEntity
100
AcDbLine
  8
CONTOUR
 62
256
370
-1
  6
ByLayer
 10
329.72114317029991
 20
49.915661594444487
 30
0.0
 11
369.7211431702998
 21
49.915661594444472
 31
0.0
  0
LINE
  5
10A
100
AcDbEntity
100
AcDbLine
  8
CONTOUR
 62
256
370
-1
  6
ByLayer
 10
329.72114317029991
 20
55.915661594444472
 30
0.0
 11
369.7211431702998
 21
55.915661594444529
 31
0.0
  0
LINE
  5
10B
100
AcDbEntity
100
AcDbLine
  8
CONTOUR
 62
256
370
-1
  6
ByLayer
 10
259.85511776651532
 20
-62.565100519088723
 30
0.0
 11
273.85511776651532
 21
-38.316389213124417
 31
0.0
  0
LINE
  5
10C
100
AcDbEntity
100
AcDbLine
  8
CONTOUR
 62
256
370
-1
  6
ByLayer
 10
183.64488223348471
 20
-18.56510051908872
 30
0.0
 11
197.64488223348471
 21
5.6836107868755619
 31
0.0
  0
LINE
  5
10D
100
AcDbEntity
100
AcDbLine
  8
CONTOUR
 62
256
370
-1
  6
ByLayer
 10
197.64488223348471
 20
5.6836107868755619
 30
0.0
 11
273.85511776651532
 21
-38.316389213124417
 31
0.0
  0
LINE
  5
10E
100
AcDbEntity
100
AcDbLine
  8
CONTOUR
 62
256
370
-1
  6
ByLayer
 10
151.0480947161671
 20
-13.02439266260976
 30
0.0
 11
280.9519052838329
 21
-88.02439266260977
 31
0.0
  0
LINE
  5
10F
100
AcDbEntity
100
AcDbLine
  8
CONTOUR
 62
256
370
-1
  6
ByLayer
 10
156.7980947161671
 20
-3.0651005190887162
 30
0.0
 11
286.7019052838329
 21
-78.065100519088716
 31
0.0
  0
LINE
  5
110
100
AcDbEntity
100
AcDbLine
  8
CONTOUR
 62
256
370
-1
  6
ByLayer
 10
275.2019052838329
 20
-97.983684806130782
 30
0.0
 11
286.7019052838329
 21
-78.065100519088716
 31
0.0
  0
LINE
  5
111
100
AcDbEntity
100
AcDbLine
  8
CONTOUR
 62
256
370
-1
  6
ByLayer
 10
145.2980947161671
 20
-22.98368480613081
 30
0.0
 11
156.7980947161671
 21
-3.0651005190887162
 31
0.0
  0
LINE
  5
112
100
AcDbEntity
100
AcDbLine
  8
CONTOUR
 62
256
370
-1
  6
ByLayer
 10
273.87949383682229
 20
-97.220190201219708
 30
0.0
 11
275.2019052838329
 21
-97.983684806130782
 31
0.0
  0
LINE
  5
113
100
AcDbEntity
100
AcDbLine
  8
CONTOUR
 62
256
370
-1
  6
ByLayer
 10
145.2980947161671
 20
-22.9836848061308
 30
0.0
 11
146.62050616317779
 21
-23.74717941104187
 31
0.0
  0
LINE
  5
114
100
AcDbEntity
100
AcDbLine
  8
CENTER
 62
256
370
-1
  6
ByLayer
 10
158.28847577293371
 20
-30.48368480613081
 30
0.0
 11
169.78847577293371
 21
-10.565100519088711
 31
0.0
  0
LINE
  5
115
100
AcDbEntity
100
AcDbLine
  8
CENTER
 62
256
370
-1
  6
ByLayer
 10
262.21152422706632
 20
-90.483684806130782
 30
0.0
 11
273.71152422706632
 21
-70.565100519088716
 31
0.0
  0
LINE
  5
116
100
AcDbEntity
100
AcDbLine
  8
CONTOUR
 62
256
370
-1
  6
ByLayer
 10
146.62050616317779
 20
-23.74717941104187
 30
0.0
 11
170.09093400474191
 21
-30.041227494429421
 31
0.0
  0
LINE
  5
117
100
AcDbEntity
100
AcDbLine
  8
CONTOUR
 62
256
370
-1
  6
ByLayer
 10
256.69347438318579
 20
-80.041227494429435
 30
0.0
 11
273.87949383682252
 21
-97.22019020121995
 31
0.0
  0
LINE
  5
118
100
AcDbEntity
100
AcDbLine
  8
CONTOUR
 62
256
370
-1
  6
ByLayer
 10
170.09093400474191
 20
-30.041227494429421
 30
0.0
 11
172.6987298107781
 21
-25.52439266260976
 31
0.0
  0
LINE
  5
119
100
AcDbEntity
100
AcDbLine
  8
CONTOUR
 62
256
370
-1
  6
ByLayer
 10
256.69347438318579
 20
-80.041227494429435
 30
0.0
 11
259.30127018922201
 21
-75.524392662609785
 31
0.0
  0
DIMENSION
  5
11A
100
AcDbEntity
  8
0
 62
256
370
-1
  6
ByLayer
100
AcDbDimension
 10
266.7019052838329
 20
-112.7061166704663
 30
0.0
 11
204.09375
 21
-71.146622590226713
 31
0.0
 70
0
 71
5
 72
0
 41
1.0
 42
0.0
  1

  3
Standard
100
AcDbAlignedDimension
 13
145.2980947161671
 23
-22.9836848061308
 33
0.0
 14
275.2019052838329
 24
-97.983684806130782
 34
0.0
 50
330.00000000000011
100
AcDbRotatedDimension
  0
DIMENSION
  5
11B
100
AcDbEntity
  8
0
 62
256
370
-1
  6
ByLayer
100
AcDbDimension
 10
258.71152708803078
 20
-96.545864284400466
 30
0.0
 11
209.0937514304822
 21
-62.486369378271618
 31
0.0
 70
0
 71
5
 72
0
 41
1.0
 42
0.0
  1

  3
Standard
100
AcDbAlignedDimension
 13
160.09203439558519
 23
-27.35982963726946
 33
0.0
 14
264.01508526845299
 24
-87.359832055011566
 34
0.0
 50
330.00000000000011
100
AcDbRotatedDimension
  0
DIMENSION
  5
11C
100
AcDbEntity
  8
0
 62
256
370
-1
  6
ByLayer
100
AcDbDimension
 10
183.44872981077799
 20
-6.9048464812443342
 30
0.0
 11
174.9671622634726
 21
3.4046475989952261
 31
0.0
 70
0
 71
5
 72
0
 41
1.0
 42
0.0
  1

  3
Standard
100
AcDbAlignedDimension
 13
151.0480947161671
 23
-13.02439266260976
 33
0.0
 14
172.6987298107781
 24
-25.52439266260976
 34
0.0
 50
330.00000000000011
100
AcDbRotatedDimension
  0
DIMENSION
  5
11D
100
AcDbEntity
  8
0
 62
256
370
-1
  6
ByLayer
100
AcDbDimension
 10
151.0480947161671
 20
-13.02439266260976
 30
0.0
 11
139.11860279185589
 21
16.313121216000582
 31
0.0
 70
2
 71
5
 72
0
 41
1.0
 42
0.0
  1

  3
Standard
100
AcDb2LineAngularDimension
 13
256.69347438318579
 23
-80.041227494429435
 33
0.0
 14
273.87949383682252
 24
-97.22019020121995
 34
0.0
 15
280.9519052838329
 25
-88.02439266260977
 35
0.0
 16
288.66342951089922
 26
-104.66764089753261
 36
0.0
  0
LINE
  5
11E
100
AcDbEntity
100
AcDbLine
  8
CENTER
 62
256
370
-1
  6
ByLayer
 10
613.0
 20
20.0
 30
0.0
 11
613.0
 21
180.0
 31
0.0
  0
LINE
  5
11F
100
AcDbEntity
100
AcDbLine
  8
CONTOUR
 62
256
370
-1
  6
ByLayer
 10
1229.0
 20
47.0
 30
0.0
 11
1229.0
 21
153.0
 31
0.0
  0
LINE
  5
120
100
AcDbEntity
100
AcDbLine
  8
CONTOUR
 62
256
370
-1
  6
ByLayer
 10
1233.0
 20
47.0
 30
0.0
 11
1233.0
 21
153.0
 31
0.0
  0
DIMENSION
  5
121
100
AcDbEntity
  8
0
 62
256
370
-1
  6
ByLayer
100
AcDbDimension
 10
1173.0
 20
-10.0
 30
0.0
 11
893.0
 21
-5.3125
 31
0.0
 70
0
 71
5
 72
1
 41
1.0
 42
0.0
  1

  3
Standard
100
AcDbAlignedDimension
 13
613.0
 23
47.0
 33
0.0
 14
1173.0
 24
47.0
 34
0.0
 50
0.0
100
AcDbRotatedDimension
  0
DIMENSION
  5
122
100
AcDbEntity
  8
0
 62
256
370
-1
  6
ByLayer
100
AcDbDimension
 10
1233.0
 20
-10.0
 30
0.0
 11
1203.0
 21
-5.3125
 31
0.0
 70
0
 71
5
 72
1
 41
1.0
 42
0.0
  1

  3
Standard
100
AcDbAlignedDimension
 13
1173.0
 23
47.0
 33
0.0
 14
1233.0
 24
47.0
 34
0.0
 50
0.0
100
AcDbRotatedDimension
  0
LINE
  5
123
100
AcDbEntity
100
AcDbLine
  8
CONTOUR
 62
256
370
-1
  6
ByLayer
 10
400.0
 20
153.0
 30
0.0
 11
1233.0
 21
153.0
 31
0.0
  0
LINE
  5
124
100
AcDbEntity
100
AcDbLine
  8
CONTOUR
 62
256
370
-1
  6
ByLayer
 10
400.0
 20
150.0
 30
0.0
 11
1229.0
 21
150.0
 31
0.0
  0
LINE
  5
125
100
AcDbEntity
100
AcDbLine
  8
CONTOUR
 62
256
370
-1
  6
ByLayer
 10
400.0
 20
50.0
 30
0.0
 11
1229.0
 21
50.0
 31
0.0
  0
LINE
  5
126
100
AcDbEntity
100
AcDbLine
  8
CONTOUR
 62
256
370
-1
  6
ByLayer
 10
400.0
 20
47.0
 30
0.0
 11
1233.0
 21
47.0
 31
0.0
  0
LINE
  5
127
100
AcDbEntity
100
AcDbLine
  8
CONTOUR
 62
256
370
-1
  6
ByLayer
 10
400.0
 20
47.0
 30
0.0
 11
400.0
 21
153.0
 31
0.0
  0
LINE
  5
128
100
AcDbEntity
100
AcDbLine
  8
CONTOUR
 62
256
370
-1
  6
ByLayer
 10
654.0
 20
57.0
 30
0.0
 11
654.0
 21
143.0
 31
0.0
  0
LINE
  5
129
100
AcDbEntity
100
AcDbLine
  8
CONTOUR
 62
256
370
-1
  6
ByLayer
 10
633.0
 20
143.0
 30
0.0
 11
633.0
 21
150.0
 31
0.0
  0
LINE
  5
12A
100
AcDbEntity
100
AcDbLine
  8
CONTOUR
 62
256
370
-1
  6
ByLayer
 10
633.0
 20
50.0
 30
0.0
 11
633.0
 21
57.0
 31
0.0
  0
LINE
  5
12B
100
AcDbEntity
100
AcDbLine
  8
CONTOUR
 62
256
370
-1
  6
ByLayer
 10
591.0
 20
50.0
 30
0.0
 11
591.0
 21
150.0
 31
0.0
  0
LINE
  5
12C
100
AcDbEntity
100
AcDbLine
  8
CONTOUR
 62
256
370
-1
  6
ByLayer
 10
633.0
 20
143.0
 30
0.0
 11
654.0
 21
143.0
 31
0.0
  0
LINE
  5
12D
100
AcDbEntity
100
AcDbLine
  8
CONTOUR
 62
256
370
-1
  6
ByLayer
 10
633.0
 20
57.0
 30
0.0
 11
654.0
 21
57.0
 31
0.0
  0
DIMENSION
  5
12E
100
AcDbEntity
  8
0
 62
256
370
-1
  6
ByLayer
100
AcDbDimension
 10
1229.0
 20
190.0
 30
0.0
 11
931.0
 21
194.6875
 31
0.0
 70
0
 71
5
 72
1
 41
1.0
 42
0.0
  1

  3
Standard
100
AcDbAlignedDimension
 13
633.0
 23
150.0
 33
0.0
 14
1229.0
 24
150.0
 34
0.0
 50
0.0
100
AcDbRotatedDimension
  0
DIMENSION
  5
12F
100
AcDbEntity
  8
0
 62
256
370
-1
  6
ByLayer
100
AcDbDimension
 10
591.0
 20
190.0
 30
0.0
 11
495.5
 21
194.6875
 31
0.0
 70
0
 71
5
 72
1
 41
1.0
 42
0.0
  1

  3
Standard
100
AcDbAlignedDimension
 13
400.0
 23
150.0
 33
0.0
 14
591.0
 24
150.0
 34
0.0
 50
0.0
100
AcDbRotatedDimension
  0
DIMENSION
  5
130
100
AcDbEntity
  8
0
 62
256
370
-1
  6
ByLayer
100
AcDbDimension
 10
633.0
 20
190.0
 30
0.0
 11
612.0
 21
194.6875
 31
0.0
 70
0
 71
5
 72
1
 41
1.0
 42
0.0
  1

  3
Standard
100
AcDbAlignedDimension
 13
591.0
 23
150.0
 33
0.0
 14
633.0
 24
150.0
 34
0.0
 50
0.0
100
AcDbRotatedDimension
  0
LINE
  5
131
100
AcDbEntity
100
AcDbLine
  8
CONTOUR
 62
256
370
-1
  6
ByLayer
 10
1047.0
 20
22.057713659400509
 30
0.0
 11
1047.0
 21
177.9422863405994
 31
0.0
  0
LINE
  5
132
100
AcDbEntity
100
AcDbLine
  8
CONTOUR
 62
256
370
-1
  6
ByLayer
 10
750.99999999999989
 20
22.057713659400541
 30
0.0
 11
750.99999999999989
 21
177.9422863405994
 31
0.0
  0
LINE
  5
133
100
AcDbEntity
100
AcDbLine
  8
CONTOUR
 62
256
370
-1
  6
ByLayer
 10
750.99999999999989
 20
177.9422863405994
 30
0.0
 11
1047.0
 21
177.9422863405994
 31
0.0
  0
LINE
  5
134
100
AcDbEntity
100
AcDbLine
  8
CONTOUR
 62
256
370
-1
  6
ByLayer
 10
750.99999999999989
 20
22.057713659400509
 30
0.0
 11
1047.0
 21
22.057713659400509
 31
0.0
  0
LINE
  5
135
100
AcDbEntity
100
AcDbLine
  8
CONTOUR
 62
256
370
-1
  6
ByLayer
 10
750.99999999999989
 20
100.0
 30
0.0
 11
1047.0
 21
100.0
 31
0.0
  0
LINE
  5
136
100
AcDbEntity
100
AcDbLine
  8
CONTOUR
 62
256
370
-1
  6
ByLayer
 10
610.0
 20
140.0
 30
0.0
 11
630.0
 21
140.0
 31
0.0
  0
LINE
  5
137
100
AcDbEntity
100
AcDbLine
  8
CONTOUR
 62
256
370
-1
  6
ByLayer
 10
610.0
 20
60.0
 30
0.0
 11
630.0
 21
60.0
 31
0.0
  0
LINE
  5
138
100
AcDbEntity
100
AcDbLine
  8
CONTOUR
 62
256
370
-1
  6
ByLayer
 10
630.0
 20
60.0
 30
0.0
 11
630.0
 21
140.0
 31
0.0
  0
LINE
  5
139
100
AcDbEntity
100
AcDbLine
  8
CONTOUR
 62
256
370
-1
  6
ByLayer
 10
610.0
 20
60.0
 30
0.0
 11
610.0
 21
140.0
 31
0.0
  0
LINE
  5
13A
100
AcDbEntity
100
AcDbLine
  8
CONTOUR
 62
256
370
-1
  6
ByLayer
 10
1217.0
 20
50.0
 30
0.0
 11
1217.0
 21
150.0
 31
0.0
  0
LINE
  5
13B
100
AcDbEntity
100
AcDbLine
  8
CONTOUR
 62
256
370
-1
  6
ByLayer
 10
1168.8
 20
75.0
 30
0.0
 11
1174.0
 21
75.0
 31
0.0
  0
LINE
  5
13C
100
AcDbEntity
100
AcDbLine
  8
CONTOUR
 62
256
370
-1
  6
ByLayer
 10
1168.8
 20
125.0
 30
0.0
 11
1174.0
 21
125.0
 31
0.0
  0
LINE
  5
13D
100
AcDbEntity
100
AcDbLine
  8
CONTOUR
 62
256
370
-1
  6
ByLayer
 10
1026.5
 20
71.02209944751381
 30
0.0
 11
1031.8
 21
71.02209944751381
 31
0.0
  0
LINE
  5
13E
100
AcDbEntity
100
AcDbLine
  8
CONTOUR
 62
256
370
-1
  6
ByLayer
 10
1026.5
 20
128.9779005524862
 30
0.0
 11
1031.8
 21
128.9779005524862
 31
0.0
  0
LINE
  5
13F
100
AcDbEntity
100
AcDbLine
  8
CONTOUR
 62
256
370
-1
  6
ByLayer
 10
766.20000000000016
 20
63.839779005524861
 30
0.0
 11
771.5
 21
63.839779005524868
 31
0.0
  0
LINE
  5
140
100
AcDbEntity
100
AcDbLine
  8
CONTOUR
 62
256
370
-1
  6
ByLayer
 10
766.20000000000016
 20
136.16022099447511
 30
0.0
 11
771.5
 21
136.16022099447511
 31
0.0
  0
LINE
  5
141
100
AcDbEntity
100
AcDbLine
  8
CONTOUR
 62
256
370
-1
  6
ByLayer
 10
766.19999999999993
 20
50.0
 30
0.0
 11
766.19999999999993
 21
63.839779005524868
 31
0.0
  0
LINE
  5
142
100
AcDbEntity
100
AcDbLine
  8
CONTOUR
 62
256
370
-1
  6
ByLayer
 10
771.49999999999989
 20
50.0
 30
0.0
 11
771.5
 21
63.839779005524868
 31
0.0
  0
LINE
  5
143
100
AcDbEntity
100
AcDbLine
  8
CONTOUR
 62
256
370
-1
  6
ByLayer
 10
771.5
 20
136.16022099447511
 30
0.0
 11
771.5
 21
150.0
 31
0.0
  0
LINE
  5
144
100
AcDbEntity
100
AcDbLine
  8
CONTOUR
 62
256
370
-1
  6
ByLayer
 10
766.20000000000016
 20
136.16022099447511
 30
0.0
 11
766.20000000000016
 21
150.0
 31
0.0
  0
LINE
  5
145
100
AcDbEntity
100
AcDbLine
  8
CONTOUR
 62
256
370
-1
  6
ByLayer
 10
1026.5
 20
128.9779005524862
 30
0.0
 11
1026.5
 21
150.0
 31
0.0
  0
LINE
  5
146
100
AcDbEntity
100
AcDbLine
  8
CONTOUR
 62
256
370
-1
  6
ByLayer
 10
1031.8
 20
128.9779005524862
 30
0.0
 11
1031.8
 21
150.0
 31
0.0
  0
LINE
  5
147
100
AcDbEntity
100
AcDbLine
  8
CONTOUR
 62
256
370
-1
  6
ByLayer
 10
1031.8
 20
50.0
 30
0.0
 11
1031.8
 21
71.02209944751381
 31
0.0
  0
LINE
  5
148
100
AcDbEntity
100
AcDbLine
  8
CONTOUR
 62
256
370
-1
  6
ByLayer
 10
1026.5
 20
50.0
 30
0.0
 11
1026.5
 21
71.02209944751381
 31
0.0
  0
LINE
  5
149
100
AcDbEntity
100
AcDbLine
  8
CONTOUR
 62
256
370
-1
  6
ByLayer
 10
1168.8
 20
50.0
 30
0.0
 11
1168.8
 21
75.0
 31
0.0
  0
LINE
  5
14A
100
AcDbEntity
100
AcDbLine
  8
CONTOUR
 62
256
370
-1
  6
ByLayer
 10
1174.0
 20
50.0
 30
0.0
 11
1174.0
 21
75.0
 31
0.0
  0
LINE
  5
14B
100
AcDbEntity
100
AcDbLine
  8
CONTOUR
 62
256
370
-1
  6
ByLayer
 10
1174.0
 20
125.0
 30
0.0
 11
1174.0
 21
150.0
 31
0.0
  0
LINE
  5
14C
100
AcDbEntity
100
AcDbLine
  8
CONTOUR
 62
256
370
-1
  6
ByLayer
 10
1168.8
 20
125.0
 30
0.0
 11
1168.8
 21
150.0
 31
0.0
  0
DIMENSION
  5
14D
100
AcDbEntity
  8
0
 62
256
370
-1
  6
ByLayer
100
AcDbDimension
 10
1031.8
 20
30.0
 30
0.0
 11
1100.3
 21
34.6875
 31
0.0
 70
0
 71
5
 72
0
 41
1.0
 42
0.0
  1

  3
Standard
100
AcDbAlignedDimension
 13
1168.8
 23
50.0
 33
0.0
 14
1031.8
 24
50.0
 34
0.0
 50
0.0
100
AcDbRotatedDimension
  0
DIMENSION
  5
14E
100
AcDbEntity
  8
0
 62
256
370
-1
  6
ByLayer
100
AcDbDimension
 10
771.49999999999989
 20
30.0
 30
0.0
 11
899.0
 21
34.6875
 31
0.0
 70
0
 71
5
 72
0
 41
1.0
 42
0.0
  1

  3
Standard
100
AcDbAlignedDimension
 13
1026.5
 23
50.0
 33
0.0
 14
771.49999999999989
 24
50.0
 34
0.0
 50
0.0
100
AcDbRotatedDimension
  0
DIMENSION
  5
14F
100
AcDbEntity
  8
0
 62
256
370
-1
  6
ByLayer
100
AcDbDimension
 10
633.0
 20
30.0
 30
0.0
 11
699.59999999999991
 21
34.6875
 31
0.0
 70
0
 71
5
 72
0
 41
1.0
 42
0.0
  1

  3
Standard
100
AcDbAlignedDimension
 13
766.19999999999993
 23
50.0
 33
0.0
 14
633.0
 24
50.0
 34
0.0
 50
0.0
100
AcDbRotatedDimension
  0
DIMENSION
  5
150
100
AcDbEntity
  8
0
 62
256
370
-1
  6
ByLayer
100
AcDbDimension
 10
1217.0
 20
30.0
 30
0.0
 11
1195.5
 21
34.6875
 31
0.0
 70
0
 71
5
 72
0
 41
1.0
 42
0.0
  1

  3
Standard
100
AcDbAlignedDimension
 13
1174.0
 23
50.0
 33
0.0
 14
1217.0
 24
50.0
 34
0.0
 50
0.0
100
AcDbRotatedDimension
  0
LINE
  5
151
100
AcDbEntity
100
AcDbLine
  8
CENTER
 62
256
370
-1
  6
ByLayer
 10
899.0
 20
37.0
 30
0.0
 11
899.00000000000011
 21
163.0
 31
0.0
  0
LINE
  5
152
100
AcDbEntity
100
AcDbLine
  8
CENTER
 62
256
370
-1
  6
ByLayer
 10
1029.0
 20
36.999999999999851
 30
0.0
 11
1029.0
 21
162.99999999999989
 31
0.0
  0
LINE
  5
153
100
AcDbEntity
100
AcDbLine
  8
CENTER
 62
256
370
-1
  6
ByLayer
 10
769.0
 20
37.000000000000128
 30
0.0
 11
769.00000000000011
 21
163.00000000000011
 31
0.0
  0
DIMENSION
  5
154
100
AcDbEntity
  8
0
 62
256
370
-1
  6
ByLayer
100
AcDbDimension
 10
1029.0
 20
90.0
 30
0.0
 11
1129.0
 21
94.6875
 31
0.0
 70
0
 71
5
 72
0
 41
1.0
 42
0.0
  1

  3
Standard
100
AcDbAlignedDimension
 13
1229.0
 23
100.0
 33
0.0
 14
1029.0
 24
100.0
 34
0.0
 50
0.0
100
AcDbRotatedDimension
  0
DIMENSION
  5
155
100
AcDbEntity
  8
0
 62
256
370
-1
  6
ByLayer
100
AcDbDimension
 10
769.0
 20
90.0
 30
0.0
 11
899.0
 21
94.6875
 31
0.0
 70
0
 71
5
 72
0
 41
1.0
 42
0.0
  1

  3
Standard
100
AcDbAlignedDimension
 13
1029.0
 23
90.0
 33
0.0
 14
769.0
 24
90.0
 34
0.0
 50
0.0
100
AcDbRotatedDimension
  0
ENDSEC
  0
SECTION
  2
OBJECTS
  0
DICTIONARY
  5
C
100
AcDbDictionary
280
0
281
1
  3
ACAD_GROUP
350
D
  3
ACAD_LAYOUT
350
1A
  3
ACAD_MLINESTYLE
350
17
  3
ACAD_PLOTSETTINGS
350
19
  3
ACAD_PLOTSTYLENAME
350
E
  3
AcDbVariableDictionary
350
156
  0
DICTIONARY
  5
D
100
AcDbDictionary
280
0
281
1
  0
ACDBDICTIONARYWDFLT
  5
E
100
AcDbDictionary
281
1
  3
Normal
350
F
100
AcDbDictionaryWithDefault
340
F
  0
ACDBPLACEHOLDER
  5
F
  0
DICTIONARY
  5
17
100
AcDbDictionary
280
0
281
1
  3
Standard
350
18
  0
MLINESTYLE
  5
18
100
AcDbMlineStyle
  2
STANDARD
 70
0
  3

 62
256
 51
90.0
 52
90.0
 71
2
 49
0.5
 62
256
  6
BYLAYER
 49
-0.5
 62
256
  6
BYLAYER
  0
DICTIONARY
  5
19
100
AcDbDictionary
280
0
281
1
  0
DICTIONARY
  5
1A
100
AcDbDictionary
281
1
  3
Layout1
350
1E
  3
Layout2
350
26
  3
Model
350
22
  0
LAYOUT
  5
1E
100
AcDbPlotSettings
  1

  2
C:\Program Files\AutoCAD 2002\plotters\DWF ePlot (optimized for plotting).pc3
  4

  6

 40
0.0
 41
0.0
 42
0.0
 43
0.0
 44
0.0
 45
0.0
 46
0.0
 47
0.0
 48
0.0
 49
0.0
140
0.0
141
0.0
142
1.0
143
1.0
 70
688
 72
0
 73
0
 74
5
  7

 75
16
147
1.0
148
0.0
149
0.0
100
AcDbLayout
  1
Layout1
 70
1
 71
1
 10
0.0
 20
0.0
 11
420.0
 21
297.0
 12
0.0
 22
0.0
 32
0.0
 14
100000000000000000000.0
 24
100000000000000000000.0
 34
100000000000000000000.0
 15
-100000000000000000000.0
 25
-100000000000000000000.0
 35
-100000000000000000000.0
146
0.0
 13
0.0
 23
0.0
 33
0.0
 16
1.0
 26
0.0
 36
0.0
 17
0.0
 27
1.0
 37
0.0
 76
0
330
1B
  0
LAYOUT
  5
22
100
AcDbPlotSettings
  1

  2
C:\Program Files\AutoCAD 2002\plotters\DWF ePlot (optimized for plotting).pc3
  4

  6

 40
0.0
 41
0.0
 42
0.0
 43
0.0
 44
0.0
 45
0.0
 46
0.0
 47
0.0
 48
0.0
 49
0.0
140
0.0
141
0.0
142
1.0
143
1.0
 70
1712
 72
0
 73
0
 74
0
  7

 75
0
147
1.0
148
0.0
149
0.0
100
AcDbLayout
  1
Model
 70
1
 71
0
 10
0.0
 20
0.0
 11
12.0
 21
9.0
 12
0.0
 22
0.0
 32
0.0
 14
0.0
 24
0.0
 34
0.0
 15
0.0
 25
0.0
 35
0.0
146
0.0
 13
0.0
 23
0.0
 33
0.0
 16
1.0
 26
0.0
 36
0.0
 17
0.0
 27
1.0
 37
0.0
 76
0
330
1F
  0
LAYOUT
  5
26
100
AcDbPlotSettings
  1

  2
C:\Program Files\AutoCAD 2002\plotters\DWF ePlot (optimized for plotting).pc3
  4

  6

 40
0.0
 41
0.0
 42
0.0
 43
0.0
 44
0.0
 45
0.0
 46
0.0
 47
0.0
 48
0.0
 49
0.0
140
0.0
141
0.0
142
1.0
143
1.0
 70
688
 72
0
 73
0
 74
5
  7

 75
16
147
1.0
148
0.0
149
0.0
100
AcDbLayout
  1
Layout2
 70
1
 71
2
 10
0.0
 20
0.0
 11
12.0
 21
9.0
 12
0.0
 22
0.0
 32
0.0
 14
0.0
 24
0.0
 34
0.0
 15
0.0
 25
0.0
 35
0.0
146
0.0
 13
0.0
 23
0.0
 33
0.0
 16
1.0
 26
0.0
 36
0.0
 17
0.0
 27
1.0
 37
0.0
 76
0
330
23
  0
DICTIONARY
  5
156
100
AcDbDictionary
281
1
  3
DIMASSOC
350
158
  3
HIDETEXT
350
157
  0
DICTIONARYVAR
  5
157
100
DictionaryVariables
280
0
  1
2
  0
DICTIONARYVAR
  5
158
100
DictionaryVariables
280
0
  1
1
  0
ENDSEC
  0
EOF
