999
dxflib 2.0.4.8
  0
SECTION
  2
HEADER
  9
$ACADVER
  1
AC1015
  9
$HANDSEED
  5
FFFF
  9
$DIMASZ
 40
2.5
  9
$DIMGAP
 40
0.625
  9
$INSUNITS
 70
4
  9
$DIMEXO
 40
0.625
  9
$DIMTXT
 40
2.5
  9
$DIMSTYLE
  2
Standard
  9
$PLIMMIN
 10
0.0
 20
0.0
  9
$PLIMMAX
 10
210.0
 20
297.0
  9
$DIMEXE
 40
1.25
  0
ENDSEC
  0
SECTION
  2
TABLES
  0
TABLE
  2
VPORT
  5
8
100
AcDbSymbolTable
 70
1
  0
VPORT
  5
30
100
AcDbSymbolTableRecord
100
AcDbViewportTableRecord
  2
*Active
 70
0
 10
0.0
 20
0.0
 11
1.0
 21
1.0
 12
286.30555555555549
 22
148.5
 13
0.0
 23
0.0
 14
10.0
 24
10.0
 15
10.0
 25
10.0
 16
0.0
 26
0.0
 36
1.0
 17
0.0
 27
0.0
 37
0.0
 40
297.0
 41
1.92798353909465
 42
50.0
 43
0.0
 44
0.0
 50
0.0
 51
0.0
 71
0
 72
100
 73
1
 74
3
 75
1
 76
1
 77
0
 78
0
281
0
 65
1
110
0.0
120
0.0
130
0.0
111
1.0
121
0.0
131
0.0
112
0.0
122
1.0
132
0.0
 79
0
146
0.0
  0
ENDTAB
  0
TABLE
  2
LTYPE
  5
5
100
AcDbSymbolTable
 70
21
  0
LTYPE
  5
14
100
AcDbSymbolTableRecord
100
AcDbLinetypeTableRecord
  2
ByBlock
 70
0
  3

 72
65
 73
0
 40
0.0
  0
LTYPE
  5
15
100
AcDbSymbolTableRecord
100
AcDbLinetypeTableRecord
  2
ByLayer
 70
0
  3

 72
65
 73
0
 40
0.0
  0
LTYPE
  5
16
100
AcDbSymbolTableRecord
100
AcDbLinetypeTableRecord
  2
CONTINUOUS
 70
0
  3
Solid line
 72
65
 73
0
 40
0.0
  0
LTYPE
  5
31
100
AcDbSymbolTableRecord
100
AcDbLinetypeTableRecord
  2
DOT
 70
0
  3
Dot . . . . . . . . . . . . . . . . . . . . . .
 72
65
 73
2
 40
6.3499999999999996
 49
0.0
 74
0
 49
-6.3499999999999996
 74
0
  0
LTYPE
  5
32
100
AcDbSymbolTableRecord
100
AcDbLinetypeTableRecord
  2
DOT2
 70
0
  3
Dot (.5x) .....................................
 72
65
 73
2
 40
3.1749999999999998
 49
0.0
 74
0
 49
-3.1749999999999998
 74
0
  0
LTYPE
  5
33
100
AcDbSymbolTableRecord
100
AcDbLinetypeTableRecord
  2
DOTX2
 70
0
  3
Dot (2x) .  .  .  .  .  .  .  .  .  .  .  .  .
 72
65
 73
2
 40
12.699999999999999
 49
0.0
 74
0
 49
-12.699999999999999
 74
0
  0
LTYPE
  5
34
100
AcDbSymbolTableRecord
100
AcDbLinetypeTableRecord
  2
DASHED
 70
0
  3
Dashed __ __ __ __ __ __ __ __ __ __ __ __ __ _
 72
65
 73
2
 40
19.050000000000001
 49
12.699999999999999
 74
0
 49
-6.3499999999999996
 74
0
  0
LTYPE
  5
35
100
AcDbSymbolTableRecord
100
AcDbLinetypeTableRecord
  2
DASHED2
 70
0
  3
Dashed (.5x) _ _ _ _ _ _ _ _ _ _ _ _ _ _ _ _ _
 72
65
 73
2
 40
9.5250000000000004
 49
6.3499999999999996
 74
0
 49
-3.1749999999999998
 74
0
  0
LTYPE
  5
36
100
AcDbSymbolTableRecord
100
AcDbLinetypeTableRecord
  2
DASHEDX2
 70
0
  3
Dashed (2x) ____  ____  ____  ____  ____  ___
 72
65
 73
2
 40
38.100000000000001
 49
25.399999999999999
 74
0
 49
-12.699999999999999
 74
0
  0
LTYPE
  5
37
100
AcDbSymbolTableRecord
100
AcDbLinetypeTableRecord
  2
DASHDOT
 70
0
  3
Dash dot __ . __ . __ . __ . __ . __ . __ . __
 72
65
 73
4
 40
25.399999999999999
 49
12.699999999999999
 74
0
 49
-6.3499999999999996
 74
0
 49
0.0
 74
0
 49
-6.3499999999999996
 74
0
  0
LTYPE
  5
38
100
AcDbSymbolTableRecord
100
AcDbLinetypeTableRecord
  2
DASHDOT2
 70
0
  3
Dash dot (.5x) _._._._._._._._._._._._._._._.
 72
65
 73
4
 40
12.699999999999999
 49
6.3499999999999996
 74
0
 49
-3.1749999999999998
 74
0
 49
0.0
 74
0
 49
-3.1749999999999998
 74
0
  0
LTYPE
  5
39
100
AcDbSymbolTableRecord
100
AcDbLinetypeTableRecord
  2
DASHDOTX2
 70
0
  3
Dash dot (2x) ____  .  ____  .  ____  .  ___
 72
65
 73
4
 40
50.799999999999997
 49
25.399999999999999
 74
0
 49
-12.699999999999999
 74
0
 49
0.0
 74
0
 49
-12.699999999999999
 74
0
  0
LTYPE
  5
3A
100
AcDbSymbolTableRecord
100
AcDbLinetypeTableRecord
  2
DIVIDE
 70
0
  3
Divide ____ . . ____ . . ____ . . ____ . . ____
 72
65
 73
6
 40
31.75
 49
12.699999999999999
 74
0
 49
-6.3499999999999996
 74
0
 49
0.0
 74
0
 49
-6.3499999999999996
 74
0
 49
0.0
 74
0
 49
-6.3499999999999996
 74
0
  0
LTYPE
  5
3B
100
AcDbSymbolTableRecord
100
AcDbLinetypeTableRecord
  2
DIVIDE2
 70
0
  3
Divide (.5x) __..__..__..__..__..__..__..__.._
 72
65
 73
6
 40
15.875
 49
6.3499999999999996
 74
0
 49
-3.1749999999999998
 74
0
 49
0.0
 74
0
 49
-3.1749999999999998
 74
0
 49
0.0
 74
0
 49
-3.1749999999999998
 74
0
  0
LTYPE
  5
3C
100
AcDbSymbolTableRecord
100
AcDbLinetypeTableRecord
  2
DIVIDEX2
 70
0
  3
Divide (2x) ________  .  .  ________  .  .  _
 72
65
 73
6
 40
63.5
 49
25.399999999999999
 74
0
 49
-12.699999999999999
 74
0
 49
0.0
 74
0
 49
-12.699999999999999
 74
0
 49
0.0
 74
0
 49
-12.699999999999999
 74
0
  0
LTYPE
  5
3D
100
AcDbSymbolTableRecord
100
AcDbLinetypeTableRecord
  2
CENTER
 70
0
  3
Center ____ _ ____ _ ____ _ ____ _ ____ _ ____
 72
65
 73
4
 40
50.799999999999997
 49
31.75
 74
0
 49
-6.3499999999999996
 74
0
 49
6.3499999999999996
 74
0
 49
-6.3499999999999996
 74
0
  0
LTYPE
  5
3E
100
AcDbSymbolTableRecord
100
AcDbLinetypeTableRecord
  2
CENTER2
 70
0
  3
Center (.5x) ___ _ ___ _ ___ _ ___ _ ___ _ ___
 72
65
 73
4
 40
28.574999999999999
 49
19.050000000000001
 74
0
 49
-3.1749999999999998
 74
0
 49
3.1749999999999998
 74
0
 49
-3.1749999999999998
 74
0
  0
LTYPE
  5
3F
100
AcDbSymbolTableRecord
100
AcDbLinetypeTableRecord
  2
CENTERX2
 70
0
  3
Center (2x) ________  __  ________  __  _____
 72
65
 73
4
 40
101.59999999999999
 49
63.5
 74
0
 49
-12.699999999999999
 74
0
 49
12.699999999999999
 74
0
 49
-12.699999999999999
 74
0
  0
LTYPE
  5
40
100
AcDbSymbolTableRecord
100
AcDbLinetypeTableRecord
  2
BORDER
 70
0
  3
Border __ __ . __ __ . __ __ . __ __ . __ __ .
 72
65
 73
6
 40
44.450000000000003
 49
12.699999999999999
 74
0
 49
-6.3499999999999996
 74
0
 49
12.699999999999999
 74
0
 49
-6.3499999999999996
 74
0
 49
0.0
 74
0
 49
-6.3499999999999996
 74
0
  0
LTYPE
  5
41
100
AcDbSymbolTableRecord
100
AcDbLinetypeTableRecord
  2
BORDER2
 70
0
  3
Border (.5x) __.__.__.__.__.__.__.__.__.__.__.
 72
65
 73
6
 40
22.225000000000001
 49
6.3499999999999996
 74
0
 49
-3.1749999999999998
 74
0
 49
6.3499999999999996
 74
0
 49
-3.1749999999999998
 74
0
 49
0.0
 74
0
 49
-3.1749999999999998
 74
0
  0
LTYPE
  5
42
100
AcDbSymbolTableRecord
100
AcDbLinetypeTableRecord
  2
BORDERX2
 70
0
  3
Border (2x) ____  ____  .  ____  ____  .  ___
 72
65
 73
6
 40
88.900000000000006
 49
25.399999999999999
 74
0
 49
-12.699999999999999
 74
0
 49
25.399999999999999
 74
0
 49
-12.699999999999999
 74
0
 49
0.0
 74
0
 49
-12.699999999999999
 74
0
  0
ENDTAB
  0
TABLE
  2
LAYER
  5
2
100
AcDbSymbolTable
 70
5
  0
LAYER
  5
10
100
AcDbSymbolTableRecord
100
AcDbLayerTableRecord
  2
0
 70
0
 62
7
  6
CONTINUOUS
370
0
390
F
  0
LAYER
  5
43
100
AcDbSymbolTableRecord
100
AcDbLayerTableRecord
  2
CONTOUR
 70
0
 62
7
  6
CONTINUOUS
370
35
390
F
  0
LAYER
  5
44
100
AcDbSymbolTableRecord
100
AcDbLayerTableRecord
  2
AUX
 70
0
 62
1
  6
CONTINUOUS
370
13
390
F
  0
LAYER
  5
45
100
AcDbSymbolTableRecord
100
AcDbLayerTableRecord
  2
CENTER
 70
0
 62
7
  6
CENTER
370
18
390
F
  0
LAYER
  5
46
100
AcDbSymbolTableRecord
100
AcDbLayerTableRecord
  2
TEXT
 70
0
 62
7
  6
CONTINUOUS
370
13
390
F
  0
ENDTAB
  0
TABLE
  2
STYLE
  5
3
100
AcDbSymbolTable
 70
1
  0
STYLE
  5
11
100
AcDbSymbolTableRecord
100
AcDbTextStyleTableRecord
  2
Standard
 70
0
 40
0.0
 41
0.75
 50
0.0
 71
0
 42
2.5
  3
txt
  4

  0
ENDTAB
  0
TABLE
  2
VIEW
  5
6
100
AcDbSymbolTable
 70
0
  0
ENDTAB
  0
TABLE
  2
UCS
  5
7
100
AcDbSymbolTable
 70
0
  0
ENDTAB
  0
TABLE
  2
APPID
  5
9
100
AcDbSymbolTable
 70
1
  0
APPID
  5
12
100
AcDbSymbolTableRecord
100
AcDbRegAppTableRecord
  2
ACAD
 70
0
  0
ENDTAB
  0
TABLE
  2
DIMSTYLE
  5
A
100
AcDbSymbolTable
 70
1
100
AcDbDimStyleTable
 71
0
  0
DIMSTYLE
105
27
100
AcDbSymbolTableRecord
100
AcDbDimStyleTableRecord
  2
Standard
 41
2.5
 42
0.625
 43
3.75
 44
1.25
 70
0
 73
0
 74
0
 77
1
 78
8
140
2.5
141
2.5
143
0.03937007874016
147
0.625
171
3
172
1
271
2
272
2
274
3
278
44
283
0
284
8
340
11
  0
ENDTAB
  0
TABLE
  2
BLOCK_RECORD
  5
1
100
AcDbSymbolTable
 70
1
  0
BLOCK_RECORD
  5
1F
100
AcDbSymbolTableRecord
100
AcDbBlockTableRecord
  2
*Model_Space
340
22
  0
BLOCK_RECORD
  5
1B
100
AcDbSymbolTableRecord
100
AcDbBlockTableRecord
  2
*Paper_Space
340
1E
  0
BLOCK_RECORD
  5
23
100
AcDbSymbolTableRecord
100
AcDbBlockTableRecord
  2
*Paper_Space0
340
26
  0
ENDTAB
  0
ENDSEC
  0
SECTION
  2
BLOCKS
  0
BLOCK
  5
20
100
AcDbEntity
  8
0
100
AcDbBlockBegin
  2
*Model_Space
 70
0
 10
0.0
 20
0.0
 30
0.0
  3
*Model_Space
  1

  0
ENDBLK
  5
21
100
AcDbEntity
  8
0
100
AcDbBlockEnd
  0
BLOCK
  5
1C
100
AcDbEntity
 67
1
  8
0
100
AcDbBlockBegin
  2
*Paper_Space
 70
0
 10
0.0
 20
0.0
 30
0.0
  3
*Paper_Space
  1

  0
ENDBLK
  5
1D
100
AcDbEntity
 67
1
  8
0
100
AcDbBlockEnd
  0
BLOCK
  5
24
100
AcDbEntity
  8
0
100
AcDbBlockBegin
  2
*Paper_Space0
 70
0
 10
0.0
 20
0.0
 30
0.0
  3
*Paper_Space0
  1

  0
ENDBLK
  5
25
100
AcDbEntity
  8
0
100
AcDbBlockEnd
  0
ENDSEC
  0
SECTION
  2
ENTITIES
  0
LINE
  5
47
100
AcDbEntity
100
AcDbLine
  8
CONTOUR
 62
256
370
-1
  6
ByLayer
 10
9.0423977855504063
 20
278.67882181755232
 30
0.0
 11
90.957602214449594
 21
221.32117818244768
 31
0.0
  0
LINE
  5
48
100
AcDbEntity
100
AcDbLine
  8
CONTOUR
 62
256
370
-1
  6
ByLayer
 10
150.0
 20
278.67882181755232
 30
0.0
 11
250.0
 21
278.67882181755232
 31
0.0
  0
LINE
  5
49
100
AcDbEntity
100
AcDbLine
  8
CONTOUR
 62
256
370
-1
  6
ByLayer
 10
9.0423977855504063
 20
478.67882181755232
 30
0.0
 11
90.957602214449594
 21
421.32117818244768
 31
0.0
  0
LINE
  5
4A
100
AcDbEntity
100
AcDbLine
  8
CONTOUR
 62
256
370
-1
  6
ByLayer
 10
150.0
 20
478.67882181755232
 30
0.0
 11
250.0
 21
478.67882181755232
 31
0.0
  0
LINE
  5
4B
100
AcDbEntity
100
AcDbLine
  8
CENTER
 62
256
370
-1
  6
ByLayer
 10
200.0
 20
371.32117818244768
 30
0.0
 11
200.0
 21
478.67882181755232
 31
0.0
  0
CIRCLE
  5
4C
100
AcDbEntity
100
AcDbCircle
  8
AUX
 62
256
370
-1
  6
ByLayer
 10
200.0
 20
421.32117818244768
 30
0.0
 40
50.0
  0
CIRCLE
  5
4D
100
AcDbEntity
100
AcDbCircle
  8
AUX
 62
256
370
-1
  6
ByLayer
 10
199.99999999999997
 20
250.18869164192898
 30
0.0
 40
57.735026918962582
  0
LINE
  5
4E
100
AcDbEntity
100
AcDbLine
  8
AUX
 62
256
370
-1
  6
ByLayer
 10
150.0
 20
221.32117818244768
 30
0.0
 11
184.08606984203385
 21
194.69022175076253
 31
0.0
  0
LINE
  5
4F
100
AcDbEntity
100
AcDbLine
  8
AUX
 62
256
370
-1
  6
ByLayer
 10
184.08606984203385
 20
194.69022175076253
 30
0.0
 11
249.99999999999997
 21
221.32117818244768
 31
0.0
  0
LINE
  5
50
100
AcDbEntity
100
AcDbLine
  8
AUX
 62
256
370
-1
  6
ByLayer
 10
249.99999999999997
 20
221.32117818244768
 30
0.0
 11
191.96483726967509
 21
193.01553803614533
 31
0.0
  0
LINE
  5
51
100
AcDbEntity
100
AcDbLine
  8
AUX
 62
256
370
-1
  6
ByLayer
 10
191.96483726967509
 20
193.01553803614533
 30
0.0
 11
149.99999999999997
 21
221.32117818244768
 31
0.0
  0
LINE
  5
52
100
AcDbEntity
100
AcDbLine
  8
AUX
 62
256
370
-1
  6
ByLayer
 10
150.0
 20
421.32117818244768
 30
0.0
 11
186.21813220915004
 21
373.25809338553177
 31
0.0
  0
LINE
  5
53
100
AcDbEntity
100
AcDbLine
  8
AUX
 62
256
370
-1
  6
ByLayer
 10
186.21813220915004
 20
373.25809338553177
 30
0.0
 11
250.0
 21
421.32117818244768
 31
0.0
  0
LINE
  5
54
100
AcDbEntity
100
AcDbLine
  8
AUX
 62
256
370
-1
  6
ByLayer
 10
250.0
 20
421.32117818244768
 30
0.0
 11
193.04134495199673
 21
371.80777474536916
 31
0.0
  0
LINE
  5
55
100
AcDbEntity
100
AcDbLine
  8
AUX
 62
256
370
-1
  6
ByLayer
 10
193.04134495199673
 20
371.80777474536916
 30
0.0
 11
150.00000000000003
 21
421.32117818244768
 31
0.0
  0
LINE
  5
56
100
AcDbEntity
100
AcDbLine
  8
CONTOUR
 62
256
370
-1
  6
ByLayer
 10
154.55669952994901
 20
270.88102946795721
 30
0.0
 11
253.58350640410606
 21
284.79833956396374
 31
0.0
  0
LINE
  5
57
100
AcDbEntity
100
AcDbLine
  8
CONTOUR
 62
256
370
-1
  6
ByLayer
 10
149.46261048246487
 20
470.67536956162519
 30
0.0
 11
248.48941735662191
 21
484.59267965763172
 31
0.0
  0
LINE
  5
58
100
AcDbEntity
100
AcDbLine
  8
CONTOUR
 62
256
370
-1
  6
ByLayer
 10
149.60855421195799
 20
474.92948030622722
 30
0.0
 11
249.36495923794041
 21
481.90512768063979
 31
0.0
  0
LINE
  5
59
100
AcDbEntity
100
AcDbLine
  8
CONTOUR
 62
256
370
-1
  6
ByLayer
 10
152.16181835883529
 20
274.98095798132482
 30
0.0
 11
251.91822338481768
 21
281.95660535573734
 31
0.0
  0
LINE
  5
5A
100
AcDbEntity
100
AcDbLine
  8
CONTOUR
 62
256
370
-1
  6
ByLayer
 10
245.44330047005099
 20
270.88102946795721
 30
0.0
 11
146.41649359589383
 21
284.79833956396374
 31
0.0
  0
LINE
  5
5B
100
AcDbEntity
100
AcDbLine
  8
CONTOUR
 62
256
370
-1
  6
ByLayer
 10
250.5373895175351
 20
470.67536956162513
 30
0.0
 11
151.51058264337809
 21
484.59267965763172
 31
0.0
  0
LINE
  5
5C
100
AcDbEntity
100
AcDbLine
  8
CONTOUR
 62
256
370
-1
  6
ByLayer
 10
250.39144578804201
 20
474.92948030622722
 30
0.0
 11
150.63504076205959
 21
481.90512768063979
 31
0.0
  0
LINE
  5
5D
100
AcDbEntity
100
AcDbLine
  8
CONTOUR
 62
256
370
-1
  6
ByLayer
 10
247.83818164116465
 20
274.98095798132476
 30
0.0
 11
148.08177661518226
 21
281.95660535573734
 31
0.0
  0
LINE
  5
5E
100
AcDbEntity
100
AcDbLine
  8
AUX
 62
256
370
-1
  6
ByLayer
 10
245.44330047005099
 20
270.88102946795721
 30
0.0
 11
253.58350640410606
 21
284.79833956396374
 31
0.0
  0
LINE
  5
5F
100
AcDbEntity
100
AcDbLine
  8
AUX
 62
256
370
-1
  6
ByLayer
 10
146.41649359589383
 20
284.79833956396374
 30
0.0
 11
154.55669952994901
 21
270.88102946795721
 31
0.0
  0
LINE
  5
60
100
AcDbEntity
100
AcDbLine
  8
AUX
 62
256
370
-1
  6
ByLayer
 10
149.46261048246487
 20
470.67536956162519
 30
0.0
 11
151.51058264337809
 21
484.59267965763172
 31
0.0
  0
LINE
  5
61
100
AcDbEntity
100
AcDbLine
  8
AUX
 62
256
370
-1
  6
ByLayer
 10
250.5373895175351
 20
470.67536956162513
 30
0.0
 11
248.48941735662191
 21
484.59267965763172
 31
0.0
  0
LINE
  5
62
100
AcDbEntity
100
AcDbLine
  8
CENTER
 62
256
370
-1
  6
ByLayer
 10
200.0
 20
192.45366472296641
 30
0.0
 11
200.0
 21
306.79997193453556
 31
0.0
  0
LINE
  5
63
100
AcDbEntity
100
AcDbLine
  8
AUX
 62
256
370
-1
  6
ByLayer
 10
199.99999999999997
 20
250.18869164192898
 30
0.0
 11
184.08606984203385
 21
194.69022175076253
 31
0.0
  0
LINE
  5
64
100
AcDbEntity
100
AcDbLine
  8
AUX
 62
256
370
-1
  6
ByLayer
 10
199.99999999999997
 20
250.18869164192898
 30
0.0
 11
191.96483726967509
 21
193.01553803614533
 31
0.0
  0
LINE
  5
65
100
AcDbEntity
100
AcDbLine
  8
CENTER
 62
256
370
-1
  6
ByLayer
 10
184.23791444839057
 20
194.6469056389827
 30
0.0
 11
199.99999999999991
 21
306.79997193453494
 31
0.0
  0
LINE
  5
66
100
AcDbEntity
100
AcDbLine
  8
CENTER
 62
256
370
-1
  6
ByLayer
 10
191.98431504802724
 20
193.01280399613856
 30
0.0
 11
200.0
 21
307.6424393132483
 31
0.0
  0
LINE
  5
67
100
AcDbEntity
100
AcDbLine
  8
CENTER
 62
256
370
-1
  6
ByLayer
 10
208.0156849519727
 20
193.01280399613853
 30
0.0
 11
200.0
 21
307.6424393132483
 31
0.0
  0
LINE
  5
68
100
AcDbEntity
100
AcDbLine
  8
CENTER
 62
256
370
-1
  6
ByLayer
 10
215.76208555160949
 20
194.64690563898273
 30
0.0
 11
199.99999999999991
 21
306.79997193453494
 31
0.0
  0
LINE
  5
69
100
AcDbEntity
100
AcDbLine
  8
CONTOUR
 62
256
370
-1
  6
ByLayer
 10
162.53934065840889
 20
214.0815864778549
 30
0.0
 11
261.56614753256571
 21
227.99889657386143
 31
0.0
  0
LINE
  5
6A
100
AcDbEntity
100
AcDbLine
  8
CONTOUR
 62
256
370
-1
  6
ByLayer
 10
156.16288532109229
 20
217.76303468333026
 30
0.0
 11
255.91929034707459
 21
224.73868205774278
 31
0.0
  0
LINE
  5
6B
100
AcDbEntity
100
AcDbLine
  8
CONTOUR
 62
256
370
-1
  6
ByLayer
 10
150.0
 20
221.32117818244768
 30
0.0
 11
249.99999999999997
 21
221.32117818244768
 31
0.0
  0
LINE
  5
6C
100
AcDbEntity
100
AcDbLine
  8
CONTOUR
 62
256
370
-1
  6
ByLayer
 10
243.8371146789076
 20
217.7630346833302
 30
0.0
 11
144.08070965292552
 21
224.73868205774269
 31
0.0
  0
LINE
  5
6D
100
AcDbEntity
100
AcDbLine
  8
CONTOUR
 62
256
370
-1
  6
ByLayer
 10
237.46065934159108
 20
214.0815864778549
 30
0.0
 11
138.43385246743432
 21
227.9988965738614
 31
0.0
  0
LINE
  5
6E
100
AcDbEntity
100
AcDbLine
  8
AUX
 62
256
370
-1
  6
ByLayer
 10
200.0
 20
421.32117818244768
 30
0.0
 11
186.21813220915004
 21
373.25809338553177
 31
0.0
  0
LINE
  5
6F
100
AcDbEntity
100
AcDbLine
  8
AUX
 62
256
370
-1
  6
ByLayer
 10
200.0
 20
421.32117818244768
 30
0.0
 11
193.04134495199673
 21
371.80777474536916
 31
0.0
  0
LINE
  5
70
100
AcDbEntity
100
AcDbLine
  8
CENTER
 62
256
370
-1
  6
ByLayer
 10
186.34963349568261
 20
373.22058053233724
 30
0.0
 11
201.02398608045658
 21
477.63402460962845
 31
0.0
  0
LINE
  5
71
100
AcDbEntity
100
AcDbLine
  8
CENTER
 62
256
370
-1
  6
ByLayer
 10
193.05821320285909
 20
371.80540699726828
 30
0.0
 11
200.5132432750508
 21
478.41730399343351
 31
0.0
  0
LINE
  5
72
100
AcDbEntity
100
AcDbLine
  8
CENTER
 62
256
370
-1
  6
ByLayer
 10
206.94178679714096
 20
371.80540699726834
 30
0.0
 11
199.4867567249492
 21
478.41730399343351
 31
0.0
  0
LINE
  5
73
100
AcDbEntity
100
AcDbLine
  8
CENTER
 62
256
370
-1
  6
ByLayer
 10
213.65036650431739
 20
373.22058053233724
 30
0.0
 11
198.97601391954342
 21
477.63402460962845
 31
0.0
  0
LINE
  5
74
100
AcDbEntity
100
AcDbLine
  8
CONTOUR
 62
256
370
-1
  6
ByLayer
 10
157.4452516109248
 20
413.87592657152288
 30
0.0
 11
256.47205848508179
 21
427.79323666752947
 31
0.0
  0
LINE
  5
75
100
AcDbEntity
100
AcDbLine
  8
CONTOUR
 62
256
370
-1
  6
ByLayer
 10
153.60962117421508
 20
417.7115570082326
 30
0.0
 11
253.3660262001975
 21
424.68720438264518
 31
0.0
  0
LINE
  5
76
100
AcDbEntity
100
AcDbLine
  8
CONTOUR
 62
256
370
-1
  6
ByLayer
 10
150.0
 20
421.32117818244768
 30
0.0
 11
250.0
 21
421.32117818244768
 31
0.0
  0
LINE
  5
77
100
AcDbEntity
100
AcDbLine
  8
CONTOUR
 62
256
370
-1
  6
ByLayer
 10
246.39037882578492
 20
417.7115570082326
 30
0.0
 11
146.6339737998025
 21
424.68720438264518
 31
0.0
  0
LINE
  5
78
100
AcDbEntity
100
AcDbLine
  8
CONTOUR
 62
256
370
-1
  6
ByLayer
 10
242.5547483890752
 20
413.87592657152288
 30
0.0
 11
143.52794151491821
 21
427.79323666752947
 31
0.0
  0
LINE
  5
79
100
AcDbEntity
100
AcDbLine
  8
AUX
 62
256
370
-1
  6
ByLayer
 10
162.53934065840889
 20
214.0815864778549
 30
0.0
 11
200.0
 21
192.45366472296641
 31
0.0
  0
LINE
  5
7A
100
AcDbEntity
100
AcDbLine
  8
AUX
 62
256
370
-1
  6
ByLayer
 10
200.0
 20
192.45366472296641
 30
0.0
 11
237.46065934159111
 21
214.0815864778549
 31
0.0
  0
LINE
  5
7B
100
AcDbEntity
100
AcDbLine
  8
CONTOUR
 62
256
370
-1
  6
ByLayer
 10
138.43385246743432
 20
227.9988965738614
 30
0.0
 11
162.53934065840889
 21
214.0815864778549
 31
0.0
  0
LINE
  5
7C
100
AcDbEntity
100
AcDbLine
  8
CONTOUR
 62
256
370
-1
  6
ByLayer
 10
237.46065934159111
 20
214.0815864778549
 30
0.0
 11
261.56614753256571
 21
227.99889657386143
 31
0.0
  0
LINE
  5
7D
100
AcDbEntity
100
AcDbLine
  8
CONTOUR
 62
256
370
-1
  6
ByLayer
 10
143.52794151491821
 20
427.79323666752947
 30
0.0
 11
157.4452516109248
 21
413.87592657152288
 31
0.0
  0
LINE
  5
7E
100
AcDbEntity
100
AcDbLine
  8
CONTOUR
 62
256
370
-1
  6
ByLayer
 10
242.5547483890752
 20
413.87592657152288
 30
0.0
 11
256.47205848508179
 21
427.79323666752947
 31
0.0
  0
LINE
  5
7F
100
AcDbEntity
100
AcDbLine
  8
CENTER
 62
256
370
-1
  6
ByLayer
 10
199.96593215698098
 20
470.59039035532925
 30
0.0
 11
-0.0000000000000024
 21
470.59039035532925
 31
0.0
  0
LINE
  5
80
100
AcDbEntity
100
AcDbLine
  8
CENTER
 62
256
370
-1
  6
ByLayer
 10
200.0
 20
307.6424393132483
 30
0.0
 11
-0.0000000000000124
 21
307.6424393132483
 31
0.0
  0
LINE
  5
81
100
AcDbEntity
100
AcDbLine
  8
CENTER
 62
256
370
-1
  6
ByLayer
 10
44.264235636489538
 20
241.80847955711008
 30
0.0
 11
90.361670527932247
 21
307.6424393132483
 31
0.0
  0
LINE
  5
82
100
AcDbEntity
100
AcDbLine
  8
CENTER
 62
256
370
-1
  6
ByLayer
 10
44.264235636489538
 20
441.8084795571101
 30
0.0
 11
64.417546541482082
 21
470.59039035532925
 31
0.0
  0
LINE
  5
83
100
AcDbEntity
100
AcDbLine
  8
AUX
 62
256
370
-1
  6
ByLayer
 10
90.957602214449594
 20
221.32117818244768
 30
0.0
 11
150.0
 21
221.32117818244768
 31
0.0
  0
LINE
  5
84
100
AcDbEntity
100
AcDbLine
  8
AUX
 62
256
370
-1
  6
ByLayer
 10
9.0423977855504063
 20
278.67882181755232
 30
0.0
 11
149.99578688815063
 21
278.67882181755232
 31
0.0
  0
LINE
  5
85
100
AcDbEntity
100
AcDbLine
  8
AUX
 62
256
370
-1
  6
ByLayer
 10
90.957602214449594
 20
421.32117818244768
 30
0.0
 11
150.0
 21
421.32117818244768
 31
0.0
  0
LINE
  5
86
100
AcDbEntity
100
AcDbLine
  8
AUX
 62
256
370
-1
  6
ByLayer
 10
9.0423977855504063
 20
478.67882181755232
 30
0.0
 11
150.64034147345859
 21
478.67882181755232
 31
0.0
  0
LINE
  5
87
100
AcDbEntity
100
AcDbLine
  8
CONTOUR
 62
256
370
-1
  6
ByLayer
 10
9.0423977855504134
 20
-121.3211781824477
 30
0.0
 11
90.957602214449594
 21
-178.67882181755232
 31
0.0
  0
LINE
  5
88
100
AcDbEntity
100
AcDbLine
  8
CONTOUR
 62
256
370
-1
  6
ByLayer
 10
150.0
 20
-121.3211781824477
 30
0.0
 11
250.0
 21
-121.3211781824477
 31
0.0
  0
CIRCLE
  5
89
100
AcDbEntity
100
AcDbCircle
  8
AUX
 62
256
370
-1
  6
ByLayer
 10
200.00000000000003
 20
-119.09114218784184
 30
0.0
 40
77.786191343020576
  0
LINE
  5
8A
100
AcDbEntity
100
AcDbLine
  8
AUX
 62
256
370
-1
  6
ByLayer
 10
150.00000000000003
 20
-178.67882181755232
 30
0.0
 11
178.55921989913469
 21
-193.86402839881634
 31
0.0
  0
LINE
  5
8B
100
AcDbEntity
100
AcDbLine
  8
AUX
 62
256
370
-1
  6
ByLayer
 10
178.55921989913469
 20
-193.86402839881634
 30
0.0
 11
250.0
 21
-178.67882181755232
 31
0.0
  0
LINE
  5
8C
100
AcDbEntity
100
AcDbLine
  8
AUX
 62
256
370
-1
  6
ByLayer
 10
250.0
 20
-178.67882181755232
 30
0.0
 11
189.48168132193737
 21
-196.16290443472269
 31
0.0
  0
LINE
  5
8D
100
AcDbEntity
100
AcDbLine
  8
AUX
 62
256
370
-1
  6
ByLayer
 10
189.48168132193737
 20
-196.16290443472269
 30
0.0
 11
150.00000000000009
 21
-178.67882181755232
 31
0.0
  0
LINE
  5
8E
100
AcDbEntity
100
AcDbLine
  8
CONTOUR
 62
256
370
-1
  6
ByLayer
 10
155.39379915713869
 20
-124.9720208287136
 30
0.0
 11
255.15020418312113
 21
-117.99637345430109
 31
0.0
  0
LINE
  5
8F
100
AcDbEntity
100
AcDbLine
  8
CONTOUR
 62
256
370
-1
  6
ByLayer
 10
161.62270304862449
 20
-129.01514054045299
 30
0.0
 11
260.64950992278153
 21
-115.09783044444644
 31
0.0
  0
LINE
  5
90
100
AcDbEntity
100
AcDbLine
  8
CONTOUR
 62
256
370
-1
  6
ByLayer
 10
244.60620084286126
 20
-124.9720208287136
 30
0.0
 11
144.84979581687884
 21
-117.99637345430108
 31
0.0
  0
LINE
  5
91
100
AcDbEntity
100
AcDbLine
  8
CONTOUR
 62
256
370
-1
  6
ByLayer
 10
238.3772969513756
 20
-129.01514054045299
 30
0.0
 11
139.35049007721861
 21
-115.09783044444652
 31
0.0
  0
LINE
  5
92
100
AcDbEntity
100
AcDbLine
  8
AUX
 62
256
370
-1
  6
ByLayer
 10
161.62270304862449
 20
-129.01514054045299
 30
0.0
 11
139.35049007721861
 21
-115.09783044444652
 31
0.0
  0
LINE
  5
93
100
AcDbEntity
100
AcDbLine
  8
AUX
 62
256
370
-1
  6
ByLayer
 10
238.3772969513756
 20
-129.01514054045299
 30
0.0
 11
260.64950992278153
 21
-115.09783044444644
 31
0.0
  0
LINE
  5
94
100
AcDbEntity
100
AcDbLine
  8
CENTER
 62
256
370
-1
  6
ByLayer
 10
200.0
 20
-196.87733353086242
 30
0.0
 11
200.0
 21
-42.818970578827305
 31
0.0
  0
LINE
  5
95
100
AcDbEntity
100
AcDbLine
  8
AUX
 62
256
370
-1
  6
ByLayer
 10
200.00000000000003
 20
-119.09114218784184
 30
0.0
 11
178.55921989913469
 21
-193.86402839881634
 31
0.0
  0
LINE
  5
96
100
AcDbEntity
100
AcDbLine
  8
AUX
 62
256
370
-1
  6
ByLayer
 10
200.0
 20
-121.3211781824477
 30
0.0
 11
189.48168132193737
 21
-196.16290443472269
 31
0.0
  0
LINE
  5
97
100
AcDbEntity
100
AcDbLine
  8
CENTER
 62
256
370
-1
  6
ByLayer
 10
178.76379958385638
 20
-193.92238803834462
 30
0.0
 11
199.99999999999966
 21
-42.81897057882972
 31
0.0
  0
LINE
  5
98
100
AcDbEntity
100
AcDbLine
  8
CENTER
 62
256
370
-1
  6
ByLayer
 10
221.23620041614379
 20
-193.92238803834459
 30
0.0
 11
199.99999999999966
 21
-42.81897057882972
 31
0.0
  0
LINE
  5
99
100
AcDbEntity
100
AcDbLine
  8
CENTER
 62
256
370
-1
  6
ByLayer
 10
210.49427478019243
 20
-196.16618198991284
 30
0.0
 11
199.99999999999994
 21
-46.091060752151265
 31
0.0
  0
LINE
  5
9A
100
AcDbEntity
100
AcDbLine
  8
CENTER
 62
256
370
-1
  6
ByLayer
 10
189.5057252198074
 20
-196.16618198991279
 30
0.0
 11
199.99999999999994
 21
-46.091060752151265
 31
0.0
  0
LINE
  5
9B
100
AcDbEntity
100
AcDbLine
  8
CONTOUR
 62
256
370
-1
  6
ByLayer
 10
230.39465582291544
 20
-185.8145835305553
 30
0.0
 11
131.36784894875825
 21
-171.89727343454857
 31
0.0
  0
LINE
  5
9C
100
AcDbEntity
100
AcDbLine
  8
CONTOUR
 62
256
370
-1
  6
ByLayer
 10
240.39386098169769
 20
-182.17517048643751
 30
0.0
 11
140.39391588317909
 21
-175.18249313117215
 31
0.0
  0
LINE
  5
9D
100
AcDbEntity
100
AcDbLine
  8
CONTOUR
 62
256
370
-1
  6
ByLayer
 10
150.00000000000003
 20
-178.67882181755232
 30
0.0
 11
250.0
 21
-178.67882181755232
 31
0.0
  0
LINE
  5
9E
100
AcDbEntity
100
AcDbLine
  8
CONTOUR
 62
256
370
-1
  6
ByLayer
 10
159.60613901830251
 20
-182.17517048643757
 30
0.0
 11
259.60608411682108
 21
-175.18249313117209
 31
0.0
  0
LINE
  5
9F
100
AcDbEntity
100
AcDbLine
  8
CONTOUR
 62
256
370
-1
  6
ByLayer
 10
169.60534417708442
 20
-185.81458353055524
 30
0.0
 11
268.63215105124152
 21
-171.89727343454865
 31
0.0
  0
LINE
  5
A0
100
AcDbEntity
100
AcDbLine
  8
AUX
 62
256
370
-1
  6
ByLayer
 10
169.60534417708442
 20
-185.81458353055524
 30
0.0
 11
200.00000000000003
 21
-196.87733353086242
 31
0.0
  0
LINE
  5
A1
100
AcDbEntity
100
AcDbLine
  8
AUX
 62
256
370
-1
  6
ByLayer
 10
200.00000000000003
 20
-196.87733353086242
 30
0.0
 11
230.39465582291544
 21
-185.8145835305553
 31
0.0
  0
LINE
  5
A2
100
AcDbEntity
100
AcDbLine
  8
CONTOUR
 62
256
370
-1
  6
ByLayer
 10
131.36784894875822
 20
-171.89727343454857
 30
0.0
 11
169.60534417708442
 21
-185.81458353055524
 31
0.0
  0
LINE
  5
A3
100
AcDbEntity
100
AcDbLine
  8
CONTOUR
 62
256
370
-1
  6
ByLayer
 10
230.39465582291544
 20
-185.8145835305553
 30
0.0
 11
268.63215105124152
 21
-171.89727343454865
 31
0.0
  0
LINE
  5
A4
100
AcDbEntity
100
AcDbLine
  8
CENTER
 62
256
370
-1
  6
ByLayer
 10
200.0
 20
-42.818970578832136
 30
0.0
 11
-0.0000000000000216
 21
-42.818970578832136
 31
0.0
  0
LINE
  5
A5
100
AcDbEntity
100
AcDbLine
  8
CENTER
 62
256
370
-1
  6
ByLayer
 10
44.264235636489545
 20
-158.1915204428899
 30
0.0
 11
125.04896475377852
 21
-42.818970578832136
 31
0.0
  0
LINE
  5
A6
100
AcDbEntity
100
AcDbLine
  8
AUX
 62
256
370
-1
  6
ByLayer
 10
90.957602214449594
 20
-178.67882181755232
 30
0.0
 11
150.0
 21
-178.67882181755232
 31
0.0
  0
LINE
  5
A7
100
AcDbEntity
100
AcDbLine
  8
AUX
 62
256
370
-1
  6
ByLayer
 10
9.0423977855504134
 20
-121.3211781824477
 30
0.0
 11
149.30986622531867
 21
-121.3211781824477
 31
0.0
  0
LINE
  5
A8
100
AcDbEntity
100
AcDbLine
  8
CONTOUR
 62
256
370
-1
  6
ByLayer
 10
9.0423977855504063
 20
78.678821817552304
 30
0.0
 11
90.957602214449594
 21
21.321178182447696
 31
0.0
  0
LINE
  5
A9
100
AcDbEntity
100
AcDbLine
  8
AUX
 62
256
370
-1
  6
ByLayer
 10
9.0423977855504063
 20
78.678821817552304
 30
0.0
 11
170.0
 21
78.678821817552304
 31
0.0
  0
LINE
  5
AA
100
AcDbEntity
100
AcDbLine
  8
CONTOUR
 62
256
370
-1
  6
ByLayer
 10
150.0
 20
78.678821817552304
 30
0.0
 11
250.0
 21
78.678821817552304
 31
0.0
  0
CIRCLE
  5
AB
100
AcDbEntity
100
AcDbCircle
  8
AUX
 62
256
370
-1
  6
ByLayer
 10
200.0
 20
63.276159741311616
 30
0.0
 40
65.27036446661397
  0
LINE
  5
AC
100
AcDbEntity
100
AcDbLine
  8
AUX
 62
256
370
-1
  6
ByLayer
 10
149.99999999999989
 20
21.321178182447696
 30
0.0
 11
182.00904932521075
 21
0.5342584996220907
 31
0.0
  0
LINE
  5
AD
100
AcDbEntity
100
AcDbLine
  8
AUX
 62
256
370
-1
  6
ByLayer
 10
182.00904932521075
 20
0.5342584996220907
 30
0.0
 11
250.00000000000011
 21
21.321178182447696
 31
0.0
  0
LINE
  5
AE
100
AcDbEntity
100
AcDbLine
  8
AUX
 62
256
370
-1
  6
ByLayer
 10
149.99999999999989
 20
21.321178182447696
 30
0.0
 11
190.91612097638767
 21
-1.3589980251006324
 31
0.0
  0
LINE
  5
AF
100
AcDbEntity
100
AcDbLine
  8
AUX
 62
256
370
-1
  6
ByLayer
 10
190.91612097638767
 20
-1.3589980251006324
 30
0.0
 11
250.00000000000011
 21
21.321178182447689
 31
0.0
  0
LINE
  5
B0
100
AcDbEntity
100
AcDbLine
  8
CONTOUR
 62
256
370
-1
  6
ByLayer
 10
157.42683934234356
 20
70.935062420824522
 30
0.0
 11
256.4536462165006
 21
84.852372516831025
 31
0.0
  0
LINE
  5
B1
100
AcDbEntity
100
AcDbLine
  8
CONTOUR
 62
256
370
-1
  6
ByLayer
 10
153.60039255948288
 20
74.994482692299812
 30
0.0
 11
253.3567975854653
 21
81.970130066712329
 31
0.0
  0
LINE
  5
B2
100
AcDbEntity
100
AcDbLine
  8
CONTOUR
 62
256
370
-1
  6
ByLayer
 10
242.57316065765644
 20
70.935062420824494
 30
0.0
 11
143.5463537834994
 21
84.852372516831039
 31
0.0
  0
LINE
  5
B3
100
AcDbEntity
100
AcDbLine
  8
CONTOUR
 62
256
370
-1
  6
ByLayer
 10
246.39960744051712
 20
74.994482692299783
 30
0.0
 11
146.6432024145347
 21
81.970130066712329
 31
0.0
  0
LINE
  5
B4
100
AcDbEntity
100
AcDbLine
  8
CENTER
 62
256
370
-1
  6
ByLayer
 10
200.0
 20
-1.9942047253022686
 30
0.0
 11
200.0
 21
128.22853355320117
 31
0.0
  0
LINE
  5
B5
100
AcDbEntity
100
AcDbLine
  8
AUX
 62
256
370
-1
  6
ByLayer
 10
200.0
 20
63.276159741311616
 30
0.0
 11
182.00904932521075
 21
0.5342584996220907
 31
0.0
  0
LINE
  5
B6
100
AcDbEntity
100
AcDbLine
  8
AUX
 62
256
370
-1
  6
ByLayer
 10
200.0
 20
63.276159741311616
 30
0.0
 11
190.91612097638767
 21
-1.3589980251006324
 31
0.0
  0
LINE
  5
B7
100
AcDbEntity
100
AcDbLine
  8
CENTER
 62
256
370
-1
  6
ByLayer
 10
217.81928793679333
 20
0.4852889476183888
 30
0.0
 11
200.0
 21
127.276110807523
 31
0.0
  0
LINE
  5
B8
100
AcDbEntity
100
AcDbLine
  8
CENTER
 62
256
370
-1
  6
ByLayer
 10
209.06185908597865
 20
-1.3620889007307524
 30
0.0
 11
200.0
 21
128.22853355320117
 31
0.0
  0
LINE
  5
B9
100
AcDbEntity
100
AcDbLine
  8
CENTER
 62
256
370
-1
  6
ByLayer
 10
190.93814091402135
 20
-1.3620889007307548
 30
0.0
 11
200.0
 21
128.22853355320117
 31
0.0
  0
LINE
  5
BA
100
AcDbEntity
100
AcDbLine
  8
CENTER
 62
256
370
-1
  6
ByLayer
 10
182.18071206320667
 20
0.485288947618383
 30
0.0
 11
200.0
 21
127.276110807523
 31
0.0
  0
LINE
  5
BB
100
AcDbEntity
100
AcDbLine
  8
AUX
 62
256
370
-1
  6
ByLayer
 10
165.40948047080326
 20
14.135619430722201
 30
0.0
 11
200.00000000000023
 21
-1.9942047253023603
 31
0.0
  0
LINE
  5
BC
100
AcDbEntity
100
AcDbLine
  8
AUX
 62
256
370
-1
  6
ByLayer
 10
200.00000000000023
 20
-1.9942047253023603
 30
0.0
 11
234.59051952919674
 21
14.135619430722191
 31
0.0
  0
LINE
  5
BD
100
AcDbEntity
100
AcDbLine
  8
CONTOUR
 62
256
370
-1
  6
ByLayer
 10
135.56371265503969
 20
28.052929526728754
 30
0.0
 11
165.40948047080326
 21
14.135619430722201
 31
0.0
  0
LINE
  5
BE
100
AcDbEntity
100
AcDbLine
  8
CONTOUR
 62
256
370
-1
  6
ByLayer
 10
234.59051952919674
 20
14.135619430722191
 30
0.0
 11
264.43628734496031
 21
28.052929526728747
 31
0.0
  0
LINE
  5
BF
100
AcDbEntity
100
AcDbLine
  8
CONTOUR
 62
256
370
-1
  6
ByLayer
 10
234.59051952919674
 20
14.135619430722185
 30
0.0
 11
135.56371265503969
 21
28.052929526728757
 31
0.0
  0
LINE
  5
C0
100
AcDbEntity
100
AcDbLine
  8
CONTOUR
 62
256
370
-1
  6
ByLayer
 10
242.39854047826032
 20
17.776559394305224
 30
0.0
 11
142.64213545227767
 21
24.752206768717745
 31
0.0
  0
LINE
  5
C1
100
AcDbEntity
100
AcDbLine
  8
CONTOUR
 62
256
370
-1
  6
ByLayer
 10
149.99999999999989
 20
21.321178182447696
 30
0.0
 11
250.00000000000011
 21
21.321178182447696
 31
0.0
  0
LINE
  5
C2
100
AcDbEntity
100
AcDbLine
  8
CONTOUR
 62
256
370
-1
  6
ByLayer
 10
157.60145952173968
 20
17.776559394305206
 30
0.0
 11
257.35786454772233
 21
24.752206768717734
 31
0.0
  0
LINE
  5
C3
100
AcDbEntity
100
AcDbLine
  8
CONTOUR
 62
256
370
-1
  6
ByLayer
 10
165.40948047080326
 20
14.135619430722198
 30
0.0
 11
264.43628734496031
 21
28.052929526728747
 31
0.0
  0
LINE
  5
C4
100
AcDbEntity
100
AcDbLine
  8
AUX
 62
256
370
-1
  6
ByLayer
 10
90.957602214449594
 20
21.321178182447696
 30
0.0
 11
149.99999999999989
 21
21.321178182447696
 31
0.0
  0
LINE
  5
C5
100
AcDbEntity
100
AcDbLine
  8
AUX
 62
256
370
-1
  6
ByLayer
 10
157.42683934234356
 20
70.935062420824522
 30
0.0
 11
143.5463537834994
 21
84.852372516831039
 31
0.0
  0
LINE
  5
C6
100
AcDbEntity
100
AcDbLine
  8
AUX
 62
256
370
-1
  6
ByLayer
 10
242.57316065765644
 20
70.935062420824494
 30
0.0
 11
256.4536462165006
 21
84.852372516831025
 31
0.0
  0
LINE
  5
C7
100
AcDbEntity
100
AcDbLine
  8
CENTER
 62
256
370
-1
  6
ByLayer
 10
44.264235636489559
 20
41.80847955711009
 30
0.0
 11
104.77620889704252
 21
128.22853355320117
 31
0.0
  0
LINE
  5
C8
100
AcDbEntity
100
AcDbLine
  8
CENTER
 62
256
370
-1
  6
ByLayer
 10
200.0
 20
128.22853355320117
 30
0.0
 11
0.0
 21
128.22853355320117
 31
0.0
  0
MTEXT
  5
C9
100
AcDbEntity
100
AcDbMText
  8
TEXT
 62
256
370
-1
  6
ByLayer
 10
130.0
 20
-220.0
 30
0.0
 40
10.0
 41
100.0
 71
1
 72
2
  1
Roller\~on\~Strait\~Rail
  7
normallatin1
 50
0.0
 73
0
 44
1.0
  0
MTEXT
  5
CA
100
AcDbEntity
100
AcDbMText
  8
TEXT
 62
256
370
-1
  6
ByLayer
 10
270.0
 20
-180.0
 30
0.0
 40
10.0
 41
100.0
 71
1
 72
2
  1
20
  7
normallatin1
 50
0.0
 73
0
 44
1.0
  0
MTEXT
  5
CB
100
AcDbEntity
100
AcDbMText
  8
TEXT
 62
256
370
-1
  6
ByLayer
 10
260.0
 20
10.0
 30
0.0
 40
10.0
 41
100.0
 71
1
 72
2
  1
25
  7
normallatin1
 50
0.0
 73
0
 44
1.0
  0
MTEXT
  5
CC
100
AcDbEntity
100
AcDbMText
  8
TEXT
 62
256
370
-1
  6
ByLayer
 10
260.0
 20
210.0
 30
0.0
 40
10.0
 41
100.0
 71
1
 72
2
  1
30
  7
normallatin1
 50
0.0
 73
0
 44
1.0
  0
MTEXT
  5
CD
100
AcDbEntity
100
AcDbMText
  8
TEXT
 62
256
370
-1
  6
ByLayer
 10
260.0
 20
420.0
 30
0.0
 40
10.0
 41
100.0
 71
1
 72
2
  1
45
  7
normallatin1
 50
0.0
 73
0
 44
1.0
  0
LINE
  5
CE
100
AcDbEntity
100
AcDbLine
  8
CONTOUR
 62
256
370
-1
  6
ByLayer
 10
409.04239778555041
 20
-121.3211781824477
 30
0.0
 11
490.95760221444959
 21
-178.67882181755232
 31
0.0
  0
LINE
  5
CF
100
AcDbEntity
100
AcDbLine
  8
CONTOUR
 62
256
370
-1
  6
ByLayer
 10
550.0
 20
-121.3211781824477
 30
0.0
 11
650.0
 21
-121.3211781824477
 31
0.0
  0
LINE
  5
D0
100
AcDbEntity
100
AcDbLine
  8
CENTER
 62
256
370
-1
  6
ByLayer
 10
600.0
 20
-196.87733353086242
 30
0.0
 11
600.0
 21
-42.818970578827305
 31
0.0
  0
LINE
  5
D1
100
AcDbEntity
100
AcDbLine
  8
CONTOUR
 62
256
370
-1
  6
ByLayer
 10
550.0
 20
-178.67882181755232
 30
0.0
 11
650.0
 21
-178.67882181755232
 31
0.0
  0
LINE
  5
D2
100
AcDbEntity
100
AcDbLine
  8
AUX
 62
256
370
-1
  6
ByLayer
 10
490.95760221444959
 20
-178.67882181755232
 30
0.0
 11
550.0
 21
-178.67882181755232
 31
0.0
  0
LINE
  5
D3
100
AcDbEntity
100
AcDbLine
  8
AUX
 62
256
370
-1
  6
ByLayer
 10
409.04239778555041
 20
-121.3211781824477
 30
0.0
 11
549.30986622531873
 21
-121.3211781824477
 31
0.0
  0
MTEXT
  5
D4
100
AcDbEntity
100
AcDbMText
  8
TEXT
 62
256
370
-1
  6
ByLayer
 10
670.0
 20
-180.0
 30
0.0
 40
10.0
 41
100.0
 71
1
 72
2
  1
20
  7
normallatin1
 50
0.0
 73
0
 44
1.0
  0
CIRCLE
  5
D5
100
AcDbEntity
100
AcDbCircle
  8
AUX
 62
256
370
-1
  6
ByLayer
 10
600.0
 20
-119.09114218784212
 30
0.0
 40
77.78619134302032
  0
LINE
  5
D6
100
AcDbEntity
100
AcDbLine
  8
AUX
 62
256
370
-1
  6
ByLayer
 10
600.0
 20
-119.09114218784212
 30
0.0
 11
578.55921989913463
 21
-193.86402839881663
 31
0.0
  0
LINE
  5
D7
100
AcDbEntity
100
AcDbLine
  8
AUX
 62
256
370
-1
  6
ByLayer
 10
600.0
 20
-121.32117818244798
 30
0.0
 11
589.48168132193734
 21
-196.16290443472298
 31
0.0
  0
LINE
  5
D8
100
AcDbEntity
100
AcDbLine
  8
CONTOUR
 62
256
370
-1
  6
ByLayer
 10
409.04239778555041
 20
278.67882181755232
 30
0.0
 11
490.95760221444959
 21
221.32117818244768
 31
0.0
  0
LINE
  5
D9
100
AcDbEntity
100
AcDbLine
  8
CONTOUR
 62
256
370
-1
  6
ByLayer
 10
550.0
 20
278.67882181755232
 30
0.0
 11
650.0
 21
278.67882181755232
 31
0.0
  0
LINE
  5
DA
100
AcDbEntity
100
AcDbLine
  8
CONTOUR
 62
256
370
-1
  6
ByLayer
 10
409.04239778555041
 20
478.67882181755232
 30
0.0
 11
490.95760221444959
 21
421.32117818244768
 31
0.0
  0
LINE
  5
DB
100
AcDbEntity
100
AcDbLine
  8
CONTOUR
 62
256
370
-1
  6
ByLayer
 10
550.0
 20
478.67882181755232
 30
0.0
 11
650.0
 21
478.67882181755232
 31
0.0
  0
LINE
  5
DC
100
AcDbEntity
100
AcDbLine
  8
CENTER
 62
256
370
-1
  6
ByLayer
 10
600.0
 20
371.32117818244768
 30
0.0
 11
600.0
 21
478.67882181755232
 31
0.0
  0
CIRCLE
  5
DD
100
AcDbEntity
100
AcDbCircle
  8
AUX
 62
256
370
-1
  6
ByLayer
 10
600.0
 20
421.32117818244768
 30
0.0
 40
50.0
  0
CIRCLE
  5
DE
100
AcDbEntity
100
AcDbCircle
  8
AUX
 62
256
370
-1
  6
ByLayer
 10
600.0
 20
250.18869164192898
 30
0.0
 40
57.735026918962582
  0
LINE
  5
DF
100
AcDbEntity
100
AcDbLine
  8
CENTER
 62
256
370
-1
  6
ByLayer
 10
600.0
 20
192.45366472296641
 30
0.0
 11
600.0
 21
306.79997193453556
 31
0.0
  0
LINE
  5
E0
100
AcDbEntity
100
AcDbLine
  8
AUX
 62
256
370
-1
  6
ByLayer
 10
600.0
 20
250.18869164192898
 30
0.0
 11
584.08606984203379
 21
194.69022175076253
 31
0.0
  0
LINE
  5
E1
100
AcDbEntity
100
AcDbLine
  8
AUX
 62
256
370
-1
  6
ByLayer
 10
600.0
 20
250.18869164192898
 30
0.0
 11
591.96483726967506
 21
193.01553803614533
 31
0.0
  0
LINE
  5
E2
100
AcDbEntity
100
AcDbLine
  8
CONTOUR
 62
256
370
-1
  6
ByLayer
 10
550.0
 20
221.32117818244768
 30
0.0
 11
650.0
 21
221.32117818244768
 31
0.0
  0
LINE
  5
E3
100
AcDbEntity
100
AcDbLine
  8
AUX
 62
256
370
-1
  6
ByLayer
 10
600.0
 20
421.32117818244768
 30
0.0
 11
586.2181322091501
 21
373.25809338553177
 31
0.0
  0
LINE
  5
E4
100
AcDbEntity
100
AcDbLine
  8
AUX
 62
256
370
-1
  6
ByLayer
 10
600.0
 20
421.32117818244768
 30
0.0
 11
593.04134495199673
 21
371.80777474536916
 31
0.0
  0
LINE
  5
E5
100
AcDbEntity
100
AcDbLine
  8
CONTOUR
 62
256
370
-1
  6
ByLayer
 10
550.0
 20
421.32117818244768
 30
0.0
 11
650.0
 21
421.32117818244768
 31
0.0
  0
LINE
  5
E6
100
AcDbEntity
100
AcDbLine
  8
AUX
 62
256
370
-1
  6
ByLayer
 10
490.95760221444959
 20
221.32117818244768
 30
0.0
 11
550.0
 21
221.32117818244768
 31
0.0
  0
LINE
  5
E7
100
AcDbEntity
100
AcDbLine
  8
AUX
 62
256
370
-1
  6
ByLayer
 10
409.04239778555041
 20
278.67882181755232
 30
0.0
 11
549.99578688815063
 21
278.67882181755232
 31
0.0
  0
LINE
  5
E8
100
AcDbEntity
100
AcDbLine
  8
AUX
 62
256
370
-1
  6
ByLayer
 10
490.95760221444959
 20
421.32117818244768
 30
0.0
 11
550.0
 21
421.32117818244768
 31
0.0
  0
LINE
  5
E9
100
AcDbEntity
100
AcDbLine
  8
AUX
 62
256
370
-1
  6
ByLayer
 10
409.04239778555041
 20
478.67882181755232
 30
0.0
 11
550.64034147345865
 21
478.67882181755232
 31
0.0
  0
LINE
  5
EA
100
AcDbEntity
100
AcDbLine
  8
CONTOUR
 62
256
370
-1
  6
ByLayer
 10
409.04239778555041
 20
78.678821817552304
 30
0.0
 11
490.95760221444959
 21
21.321178182447696
 31
0.0
  0
LINE
  5
EB
100
AcDbEntity
100
AcDbLine
  8
AUX
 62
256
370
-1
  6
ByLayer
 10
409.04239778555041
 20
78.678821817552304
 30
0.0
 11
570.0
 21
78.678821817552304
 31
0.0
  0
LINE
  5
EC
100
AcDbEntity
100
AcDbLine
  8
CONTOUR
 62
256
370
-1
  6
ByLayer
 10
550.0
 20
78.678821817552304
 30
0.0
 11
650.0
 21
78.678821817552304
 31
0.0
  0
CIRCLE
  5
ED
100
AcDbEntity
100
AcDbCircle
  8
AUX
 62
256
370
-1
  6
ByLayer
 10
600.0
 20
63.276159741311616
 30
0.0
 40
65.27036446661397
  0
LINE
  5
EE
100
AcDbEntity
100
AcDbLine
  8
CENTER
 62
256
370
-1
  6
ByLayer
 10
600.0
 20
-1.9942047253022686
 30
0.0
 11
600.0
 21
128.22853355320117
 31
0.0
  0
LINE
  5
EF
100
AcDbEntity
100
AcDbLine
  8
AUX
 62
256
370
-1
  6
ByLayer
 10
600.0
 20
63.276159741311616
 30
0.0
 11
582.00904932521075
 21
0.5342584996220907
 31
0.0
  0
LINE
  5
F0
100
AcDbEntity
100
AcDbLine
  8
AUX
 62
256
370
-1
  6
ByLayer
 10
600.0
 20
63.276159741311616
 30
0.0
 11
590.91612097638767
 21
-1.3589980251006324
 31
0.0
  0
LINE
  5
F1
100
AcDbEntity
100
AcDbLine
  8
CONTOUR
 62
256
370
-1
  6
ByLayer
 10
549.99999999999989
 20
21.321178182447696
 30
0.0
 11
650.00000000000011
 21
21.321178182447696
 31
0.0
  0
LINE
  5
F2
100
AcDbEntity
100
AcDbLine
  8
AUX
 62
256
370
-1
  6
ByLayer
 10
490.95760221444959
 20
21.321178182447696
 30
0.0
 11
549.99999999999989
 21
21.321178182447696
 31
0.0
  0
MTEXT
  5
F3
100
AcDbEntity
100
AcDbMText
  8
TEXT
 62
256
370
-1
  6
ByLayer
 10
660.0
 20
10.0
 30
0.0
 40
10.0
 41
100.0
 71
1
 72
2
  1
25
  7
normallatin1
 50
0.0
 73
0
 44
1.0
  0
MTEXT
  5
F4
100
AcDbEntity
100
AcDbMText
  8
TEXT
 62
256
370
-1
  6
ByLayer
 10
660.0
 20
210.0
 30
0.0
 40
10.0
 41
100.0
 71
1
 72
2
  1
30
  7
normallatin1
 50
0.0
 73
0
 44
1.0
  0
MTEXT
  5
F5
100
AcDbEntity
100
AcDbMText
  8
TEXT
 62
256
370
-1
  6
ByLayer
 10
660.0
 20
420.0
 30
0.0
 40
10.0
 41
100.0
 71
1
 72
2
  1
45
  7
normallatin1
 50
0.0
 73
0
 44
1.0
  0
LINE
  5
F6
100
AcDbEntity
100
AcDbLine
  8
CONTOUR
 62
256
370
-1
  6
ByLayer
 10
539.56120089851572
 20
-112.0845253124004
 30
0.0
 11
638.58800777267265
 21
-126.00183540840695
 31
0.0
  0
LINE
  5
F7
100
AcDbEntity
100
AcDbLine
  8
CONTOUR
 62
256
370
-1
  6
ByLayer
 10
531.57855977005579
 20
-168.88396830250267
 30
0.0
 11
630.60536664421284
 21
-182.80127839850923
 31
0.0
  0
LINE
  5
F8
100
AcDbEntity
100
AcDbLine
  8
CONTOUR
 62
256
370
-1
  6
ByLayer
 10
544.87400977571485
 20
-117.30297639609134
 30
0.0
 11
644.63041480169727
 21
-124.27862377050387
 31
0.0
  0
LINE
  5
F9
100
AcDbEntity
100
AcDbLine
  8
CONTOUR
 62
256
370
-1
  6
ByLayer
 10
540.87294281345783
 20
-174.52089969408593
 30
0.0
 11
640.62934783944024
 21
-181.49654706849844
 31
0.0
  0
LINE
  5
FA
100
AcDbEntity
100
AcDbLine
  8
CONTOUR
 62
256
370
-1
  6
ByLayer
 10
546.66538432129209
 20
82.605336766914078
 30
0.0
 11
646.42178934727451
 21
75.629689392501533
 31
0.0
  0
LINE
  5
FB
100
AcDbEntity
100
AcDbLine
  8
CONTOUR
 62
256
370
-1
  6
ByLayer
 10
542.66431735903495
 20
25.387413468919501
 30
0.0
 11
642.4207223850176
 21
18.411766094506948
 31
0.0
  0
LINE
  5
FC
100
AcDbEntity
100
AcDbLine
  8
CONTOUR
 62
256
370
-1
  6
ByLayer
 10
548.10139766363557
 20
282.51847866891637
 30
0.0
 11
647.85780268961798
 21
275.54283129450386
 31
0.0
  0
LINE
  5
FD
100
AcDbEntity
100
AcDbLine
  8
CONTOUR
 62
256
370
-1
  6
ByLayer
 10
544.10033070137843
 20
225.30055537092176
 30
0.0
 11
643.85673572736084
 21
218.32490799650921
 31
0.0
  0
LINE
  5
FE
100
AcDbEntity
100
AcDbLine
  8
CONTOUR
 62
256
370
-1
  6
ByLayer
 10
550.65203308846867
 20
482.39172424356127
 30
0.0
 11
650.40843811445109
 21
475.41607686914875
 31
0.0
  0
LINE
  5
FF
100
AcDbEntity
100
AcDbLine
  8
CENTER
 62
256
370
-1
  6
ByLayer
 10
593.04134495199696
 20
371.80777474536916
 30
0.0
 11
600.53023560145982
 21
478.90390055635498
 31
0.0
  0
LINE
  5
100
100
AcDbEntity
100
AcDbLine
  8
CONTOUR
 62
256
370
-1
  6
ByLayer
 10
546.65096612621153
 20
425.17380094556665
 30
0.0
 11
646.40737115219395
 21
418.19815357115414
 31
0.0
  0
LINE
  5
101
100
AcDbEntity
100
AcDbLine
  8
CONTOUR
 62
256
370
-1
  6
ByLayer
 10
551.64602494853455
 20
486.5295948607158
 30
0.0
 11
650.67283182269148
 21
472.61228476470927
 31
0.0
  0
LINE
  5
102
100
AcDbEntity
100
AcDbLine
  8
CENTER
 62
256
370
-1
  6
ByLayer
 10
586.21813220915033
 20
373.25809338553165
 30
0.0
 11
601.15942838561296
 21
479.57093981271254
 31
0.0
  0
LINE
  5
103
100
AcDbEntity
100
AcDbLine
  8
CONTOUR
 62
256
370
-1
  6
ByLayer
 10
543.66338382007461
 20
429.73015187061355
 30
0.0
 11
642.69019069423166
 21
415.81284177460702
 31
0.0
  0
LINE
  5
104
100
AcDbEntity
100
AcDbLine
  8
CONTOUR
 62
256
370
-1
  6
ByLayer
 10
546.5728888985775
 20
287.03489659175989
 30
0.0
 11
645.59969577273455
 21
273.11758649575336
 31
0.0
  0
LINE
  5
105
100
AcDbEntity
100
AcDbLine
  8
CONTOUR
 62
256
370
-1
  6
ByLayer
 10
538.59024777011757
 20
230.23545360165764
 30
0.0
 11
637.61705464427462
 21
216.31814350565108
 31
0.0
  0
LINE
  5
106
100
AcDbEntity
100
AcDbLine
  8
CONTOUR
 62
256
370
-1
  6
ByLayer
 10
543.72316115593492
 20
87.380835741755504
 30
0.0
 11
642.74996803009185
 21
73.463525645748945
 31
0.0
  0
LINE
  5
107
100
AcDbEntity
100
AcDbLine
  8
CONTOUR
 62
256
370
-1
  6
ByLayer
 10
535.74052002747487
 20
30.581392751653262
 30
0.0
 11
634.76732690163215
 21
16.664082655646677
 31
0.0
  0
LINE
  5
108
100
AcDbEntity
100
AcDbLine
  8
CONTOUR
 62
256
370
-1
  6
ByLayer
 10
660.43879910148451
 20
-112.08452531240027
 30
0.0
 11
561.41199222732723
 21
-126.00183540840692
 31
0.0
  0
LINE
  5
109
100
AcDbEntity
100
AcDbLine
  8
CONTOUR
 62
256
370
-1
  6
ByLayer
 10
668.4214402299441
 20
-168.88396830250281
 30
0.0
 11
569.39463335578728
 21
-182.80127839850923
 31
0.0
  0
LINE
  5
10A
100
AcDbEntity
100
AcDbLine
  8
CONTOUR
 62
256
370
-1
  6
ByLayer
 10
655.12599022428503
 20
-117.30297639609137
 30
0.0
 11
555.36958519830273
 21
-124.27862377050383
 31
0.0
  0
LINE
  5
10B
100
AcDbEntity
100
AcDbLine
  8
CONTOUR
 62
256
370
-1
  6
ByLayer
 10
659.12705718654217
 20
-174.52089969408598
 30
0.0
 11
559.37065216055987
 21
-181.49654706849844
 31
0.0
  0
LINE
  5
10C
100
AcDbEntity
100
AcDbLine
  8
CONTOUR
 62
256
370
-1
  6
ByLayer
 10
653.33461567870768
 20
82.605336766914093
 30
0.0
 11
553.57821065272549
 21
75.629689392501518
 31
0.0
  0
LINE
  5
10D
100
AcDbEntity
100
AcDbLine
  8
CONTOUR
 62
256
370
-1
  6
ByLayer
 10
657.33568264096493
 20
25.387413468919476
 30
0.0
 11
557.57927761498206
 21
18.411766094507016
 31
0.0
  0
LINE
  5
10E
100
AcDbEntity
100
AcDbLine
  8
CONTOUR
 62
256
370
-1
  6
ByLayer
 10
651.89860233636432
 20
282.51847866891637
 30
0.0
 11
552.14219731038202
 21
275.5428312945038
 31
0.0
  0
LINE
  5
10F
100
AcDbEntity
100
AcDbLine
  8
CONTOUR
 62
256
370
-1
  6
ByLayer
 10
655.89966929862157
 20
225.30055537092176
 30
0.0
 11
556.14326427263904
 21
218.32490799650918
 31
0.0
  0
LINE
  5
110
100
AcDbEntity
100
AcDbLine
  8
CONTOUR
 62
256
370
-1
  6
ByLayer
 10
649.34796691153133
 20
482.39172424356133
 30
0.0
 11
549.59156188554891
 21
475.41607686914875
 31
0.0
  0
LINE
  5
111
100
AcDbEntity
100
AcDbLine
  8
CENTER
 62
256
370
-1
  6
ByLayer
 10
606.95865504800304
 20
371.8077747453691
 30
0.0
 11
599.46976439854018
 21
478.90390055635498
 31
0.0
  0
LINE
  5
112
100
AcDbEntity
100
AcDbLine
  8
CONTOUR
 62
256
370
-1
  6
ByLayer
 10
653.34903387378847
 20
425.17380094556665
 30
0.0
 11
553.59262884780605
 21
418.19815357115414
 31
0.0
  0
LINE
  5
113
100
AcDbEntity
100
AcDbLine
  8
CONTOUR
 62
256
370
-1
  6
ByLayer
 10
648.35397505146545
 20
486.5295948607158
 30
0.0
 11
549.32716817730852
 21
472.61228476470927
 31
0.0
  0
LINE
  5
114
100
AcDbEntity
100
AcDbLine
  8
CENTER
 62
256
370
-1
  6
ByLayer
 10
613.78186779084967
 20
373.25809338553165
 30
0.0
 11
598.84057161438704
 21
479.57093981271254
 31
0.0
  0
LINE
  5
115
100
AcDbEntity
100
AcDbLine
  8
CONTOUR
 62
256
370
-1
  6
ByLayer
 10
656.33661617992539
 20
429.73015187061361
 30
0.0
 11
557.30980930576834
 21
415.81284177460702
 31
0.0
  0
LINE
  5
116
100
AcDbEntity
100
AcDbLine
  8
CONTOUR
 62
256
370
-1
  6
ByLayer
 10
653.4271111014225
 20
287.03489659175989
 30
0.0
 11
554.40030422726534
 21
273.11758649575336
 31
0.0
  0
LINE
  5
117
100
AcDbEntity
100
AcDbLine
  8
CONTOUR
 62
256
370
-1
  6
ByLayer
 10
661.40975222988243
 20
230.23545360165764
 30
0.0
 11
562.38294535572538
 21
216.31814350565105
 31
0.0
  0
LINE
  5
118
100
AcDbEntity
100
AcDbLine
  8
CONTOUR
 62
256
370
-1
  6
ByLayer
 10
656.2768388440652
 20
87.380835741755448
 30
0.0
 11
557.25003196990804
 21
73.463525645748916
 31
0.0
  0
LINE
  5
119
100
AcDbEntity
100
AcDbLine
  8
CONTOUR
 62
256
370
-1
  6
ByLayer
 10
664.25947997252536
 20
30.581392751653254
 30
0.0
 11
565.23267309836797
 21
16.664082655646666
 31
0.0
  0
LINE
  5
11A
100
AcDbEntity
100
AcDbLine
  8
AUX
 62
256
370
-1
  6
ByLayer
 10
607.59759519217869
 20
-147.81714139410795
 30
0.0
 11
692.40240480782131
 21
-94.825214970787457
 31
0.0
  0
LINE
  5
11B
100
AcDbEntity
100
AcDbLine
  8
AUX
 62
256
370
-1
  6
ByLayer
 10
614.67514050553768
 20
-146.69223901071501
 30
0.0
 11
695.57683994303238
 21
-87.913713781467692
 31
0.0
  0
LINE
  5
11C
100
AcDbEntity
100
AcDbLine
  8
AUX
 62
256
370
-1
  6
ByLayer
 10
622.13657694553558
 20
-144.22390579672725
 30
0.0
 11
698.74102125743343
 21
-79.945144828073325
 31
0.0
  0
LINE
  5
11D
100
AcDbEntity
100
AcDbLine
  8
AUX
 62
256
370
-1
  6
ByLayer
 10
600.48303515875091
 20
-147.7522019097984
 30
0.0
 11
688.77779444464363
 21
-100.80504563120931
 31
0.0
  0
LINE
  5
11E
100
AcDbEntity
100
AcDbLine
  8
AUX
 62
256
370
-1
  6
ByLayer
 10
592.91073489054259
 20
-146.33866756219695
 30
0.0
 11
684.26528065480261
 21
-105.66500325461693
 31
0.0
  0
LINE
  5
11F
100
AcDbEntity
100
AcDbLine
  8
AUX
 62
256
370
-1
  6
ByLayer
 10
614.64466094067257
 20
43.323482758224934
 30
0.0
 11
685.35533905932732
 21
114.03416087687967
 31
0.0
  0
LINE
  5
120
100
AcDbEntity
100
AcDbLine
  8
AUX
 62
256
370
-1
  6
ByLayer
 10
620.5316642291823
 20
44.869857755775492
 30
0.0
 11
686.13756712823306
 21
120.3408157780527
 31
0.0
  0
LINE
  5
121
100
AcDbEntity
100
AcDbLine
  8
AUX
 62
256
370
-1
  6
ByLayer
 10
626.18608768646277
 20
47.449060239390803
 30
0.0
 11
686.36759000166762
 21
127.31261124412009
 31
0.0
  0
LINE
  5
122
100
AcDbEntity
100
AcDbLine
  8
AUX
 62
256
370
-1
  6
ByLayer
 10
608.68631033613588
 20
42.826737942976166
 30
0.0
 11
684.15726835841303
 21
108.4326408420269
 31
0.0
  0
LINE
  5
123
100
AcDbEntity
100
AcDbLine
  8
AUX
 62
256
370
-1
  6
ByLayer
 10
602.81819252772721
 20
43.372774488146533
 30
0.0
 11
682.68174353245649
 21
103.55427680335136
 31
0.0
  0
MTEXT
  5
124
100
AcDbEntity
100
AcDbMText
  8
TEXT
 62
256
370
-1
  6
ByLayer
 10
520.0
 20
-220.0
 30
0.0
 40
10.0
 41
100.0
 71
1
 72
2
  1
Strait\~Rail\~on\~Roller
  7
normallatin1
 50
0.0
 73
0
 44
1.0
  0
LINE
  5
125
100
AcDbEntity
100
AcDbLine
  8
CENTER
 62
256
370
-1
  6
ByLayer
 10
615.91393015796586
 20
194.69022175076248
 30
0.0
 11
600.0
 21
307.92371856089341
 31
0.0
  0
LINE
  5
126
100
AcDbEntity
100
AcDbLine
  8
CENTER
 62
256
370
-1
  6
ByLayer
 10
584.08606984203391
 20
194.6902217507625
 30
0.0
 11
600.0
 21
307.92371856089341
 31
0.0
  0
LINE
  5
127
100
AcDbEntity
100
AcDbLine
  8
CENTER
 62
256
370
-1
  6
ByLayer
 10
608.03516273032483
 20
193.01553803614536
 30
0.0
 11
599.99999999999989
 21
307.92371856088937
 31
0.0
  0
LINE
  5
128
100
AcDbEntity
100
AcDbLine
  8
CENTER
 62
256
370
-1
  6
ByLayer
 10
591.96483726967517
 20
193.01553803614536
 30
0.0
 11
599.99999999999989
 21
307.92371856088937
 31
0.0
  0
LINE
  5
129
100
AcDbEntity
100
AcDbLine
  8
CENTER
 62
256
370
-1
  6
ByLayer
 10
617.99095067478913
 20
0.5342584996220694
 30
0.0
 11
600.0
 21
128.54652420792641
 31
0.0
  0
LINE
  5
12A
100
AcDbEntity
100
AcDbLine
  8
CENTER
 62
256
370
-1
  6
ByLayer
 10
582.00904932521087
 20
0.5342584996220559
 30
0.0
 11
600.0
 21
128.54652420792641
 31
0.0
  0
LINE
  5
12B
100
AcDbEntity
100
AcDbLine
  8
CENTER
 62
256
370
-1
  6
ByLayer
 10
609.08387902361198
 20
-1.3589980251006182
 30
0.0
 11
600.0
 21
128.54652420792681
 31
0.0
  0
LINE
  5
12C
100
AcDbEntity
100
AcDbLine
  8
CENTER
 62
256
370
-1
  6
ByLayer
 10
590.91612097638779
 20
-1.3589980251006286
 30
0.0
 11
600.0
 21
128.54652420792681
 31
0.0
  0
LINE
  5
12D
100
AcDbEntity
100
AcDbLine
  8
CENTER
 62
256
370
-1
  6
ByLayer
 10
621.44078010086514
 20
-193.86402839881634
 30
0.0
 11
599.99999999999989
 21
-41.304950844823132
 31
0.0
  0
LINE
  5
12E
100
AcDbEntity
100
AcDbLine
  8
CENTER
 62
256
370
-1
  6
ByLayer
 10
578.55921989913486
 20
-193.86402839881643
 30
0.0
 11
599.99999999999989
 21
-41.304950844823132
 31
0.0
  0
LINE
  5
12F
100
AcDbEntity
100
AcDbLine
  8
CENTER
 62
256
370
-1
  6
ByLayer
 10
610.51831867806243
 20
-196.16290443472269
 30
0.0
 11
599.99999999999989
 21
-45.743939438010528
 31
0.0
  0
LINE
  5
130
100
AcDbEntity
100
AcDbLine
  8
CENTER
 62
256
370
-1
  6
ByLayer
 10
589.48168132193734
 20
-196.16290443472269
 30
0.0
 11
599.99999999999989
 21
-45.743939438010528
 31
0.0
  0
LINE
  5
131
100
AcDbEntity
100
AcDbLine
  8
CENTER
 62
256
370
-1
  6
ByLayer
 10
599.99999999999977
 20
471.32117818244762
 30
0.0
 11
464.92924968686231
 21
471.32117818244762
 31
0.0
  0
LINE
  5
132
100
AcDbEntity
100
AcDbLine
  8
CENTER
 62
256
370
-1
  6
ByLayer
 10
444.2642356364895
 20
441.8084795571101
 30
0.0
 11
464.92924968686231
 21
471.32117818244762
 31
0.0
  0
LINE
  5
133
100
AcDbEntity
100
AcDbLine
  8
CENTER
 62
256
370
-1
  6
ByLayer
 10
599.99999999999977
 20
307.92371856089159
 30
0.0
 11
490.55862437747402
 21
307.92371856089159
 31
0.0
  0
LINE
  5
134
100
AcDbEntity
100
AcDbLine
  8
CENTER
 62
256
370
-1
  6
ByLayer
 10
444.2642356364895
 20
241.80847955711008
 30
0.0
 11
490.55862437747402
 21
307.92371856089159
 31
0.0
  0
LINE
  5
135
100
AcDbEntity
100
AcDbLine
  8
CENTER
 62
256
370
-1
  6
ByLayer
 10
599.99999999999989
 20
128.54652420792559
 30
0.0
 11
504.99886835056083
 21
128.54652420792559
 31
0.0
  0
LINE
  5
136
100
AcDbEntity
100
AcDbLine
  8
CENTER
 62
256
370
-1
  6
ByLayer
 10
444.2642356364895
 20
41.80847955711009
 30
0.0
 11
504.99886835056083
 21
128.54652420792559
 31
0.0
  0
LINE
  5
137
100
AcDbEntity
100
AcDbLine
  8
CENTER
 62
256
370
-1
  6
ByLayer
 10
599.99999999999966
 20
-41.304950844821832
 30
0.0
 11
526.10909278453073
 21
-41.304950844821832
 31
0.0
  0
LINE
  5
138
100
AcDbEntity
100
AcDbLine
  8
CENTER
 62
256
370
-1
  6
ByLayer
 10
444.2642356364895
 20
-158.1915204428899
 30
0.0
 11
526.10909278453073
 21
-41.304950844821832
 31
0.0
  0
LINE
  5
139
100
AcDbEntity
100
AcDbLine
  8
CONTOUR
 62
256
370
-1
  6
ByLayer
 10
610.01495254183953
 20
-187.17790602347159
 30
0.0
 11
650.00000000000034
 21
-178.67882181755229
 31
0.0
  0
LINE
  5
13A
100
AcDbEntity
100
AcDbLine
  8
CONTOUR
 62
256
370
-1
  6
ByLayer
 10
590.08814561732675
 20
-187.19982021369844
 30
0.0
 11
549.99999999999977
 21
-178.67882181755226
 31
0.0
  0
LINE
  5
13B
100
AcDbEntity
100
AcDbLine
  8
AUX
 62
256
370
-1
  6
ByLayer
 10
569.78092076943256
 20
-185.87848818400391
 30
0.0
 11
599.99999999999989
 21
-196.87733353086244
 31
0.0
  0
LINE
  5
13C
100
AcDbEntity
100
AcDbLine
  8
AUX
 62
256
370
-1
  6
ByLayer
 10
599.99999999999989
 20
-196.87733353086244
 30
0.0
 11
630.21907923056699
 21
-185.878488184004
 31
0.0
  0
LINE
  5
13D
100
AcDbEntity
100
AcDbLine
  8
CONTOUR
 62
256
370
-1
  6
ByLayer
 10
514.07154464981522
 20
-159.57532324283054
 30
0.0
 11
550.00000000000011
 21
-178.6788218175522
 31
0.0
  0
LINE
  5
13E
100
AcDbEntity
100
AcDbLine
  8
CONTOUR
 62
256
370
-1
  6
ByLayer
 10
522.75923564745244
 20
-166.4561576665015
 30
0.0
 11
560.10345491622411
 21
-183.08287531541043
 31
0.0
  0
LINE
  5
13F
100
AcDbEntity
100
AcDbLine
  8
CONTOUR
 62
256
370
-1
  6
ByLayer
 10
531.36784894875859
 20
-171.89727343454868
 30
0.0
 11
569.78092076943256
 21
-185.87848818400391
 31
0.0
  0
LINE
  5
140
100
AcDbEntity
100
AcDbLine
  8
CONTOUR
 62
256
370
-1
  6
ByLayer
 10
579.71061908158799
 20
-187.32893872959013
 30
0.0
 11
540.41581989999929
 21
-176.06133637995055
 31
0.0
  0
LINE
  5
141
100
AcDbEntity
100
AcDbLine
  8
CONTOUR
 62
256
370
-1
  6
ByLayer
 10
686.03156078645088
 20
-159.52050110991235
 30
0.0
 11
649.99999999999989
 21
-178.67882181755223
 31
0.0
  0
LINE
  5
142
100
AcDbEntity
100
AcDbLine
  8
CONTOUR
 62
256
370
-1
  6
ByLayer
 10
677.34548358220616
 20
-166.40953366155418
 30
0.0
 11
640.00125551288727
 21
-183.03625522871903
 31
0.0
  0
LINE
  5
143
100
AcDbEntity
100
AcDbLine
  8
CONTOUR
 62
256
370
-1
  6
ByLayer
 10
630.21907923056699
 20
-185.878488184004
 30
0.0
 11
668.63215105124107
 21
-171.89727343454882
 31
0.0
  0
LINE
  5
144
100
AcDbEntity
100
AcDbLine
  8
CONTOUR
 62
256
370
-1
  6
ByLayer
 10
620.39438906095847
 20
-187.2988281292478
 30
0.0
 11
659.68916880889287
 21
-176.03123135211891
 31
0.0
  0
LINE
  5
145
100
AcDbEntity
100
AcDbLine
  8
CONTOUR
 62
256
370
-1
  6
ByLayer
 10
581.49222605810905
 20
11.693038449051745
 30
0.0
 11
550.0
 21
21.321178182447682
 31
0.0
  0
LINE
  5
146
100
AcDbEntity
100
AcDbLine
  8
CONTOUR
 62
256
370
-1
  6
ByLayer
 10
618.5077739418906
 20
11.693038449051654
 30
0.0
 11
650.0
 21
21.321178182447699
 31
0.0
  0
LINE
  5
147
100
AcDbEntity
100
AcDbLine
  8
CONTOUR
 62
256
370
-1
  6
ByLayer
 10
528.06601996613483
 20
238.45788151499173
 30
0.0
 11
549.9999999999992
 21
221.32117818244635
 31
0.0
  0
LINE
  5
148
100
AcDbEntity
100
AcDbLine
  8
CONTOUR
 62
256
370
-1
  6
ByLayer
 10
533.02817181053092
 20
232.76882084263104
 30
0.0
 11
556.10411776750914
 21
217.20389876045365
 31
0.0
  0
LINE
  5
149
100
AcDbEntity
100
AcDbLine
  8
CONTOUR
 62
256
370
-1
  6
ByLayer
 10
538.43385246743435
 20
227.9988965738614
 30
0.0
 11
562.53934065840895
 21
214.0815864778549
 31
0.0
  0
LINE
  5
14A
100
AcDbEntity
100
AcDbLine
  8
CONTOUR
 62
256
370
-1
  6
ByLayer
 10
569.15706811608879
 20
211.97765176085505
 30
0.0
 11
544.13947720650867
 21
224.17954613486631
 31
0.0
  0
LINE
  5
14B
100
AcDbEntity
100
AcDbLine
  8
CONTOUR
 62
256
370
-1
  6
ByLayer
 10
575.80781044003334
 20
210.89414593329184
 30
0.0
 11
550.00000000000011
 21
221.32117818244768
 31
0.0
  0
LINE
  5
14C
100
AcDbEntity
100
AcDbLine
  8
CONTOUR
 62
256
370
-1
  6
ByLayer
 10
624.19218955996644
 20
210.89414593329178
 30
0.0
 11
649.99999999999977
 21
221.32117818244765
 31
0.0
  0
LINE
  5
14D
100
AcDbEntity
100
AcDbLine
  8
CONTOUR
 62
256
370
-1
  6
ByLayer
 10
630.84293188391109
 20
211.97765176085508
 30
0.0
 11
655.86052279349121
 21
224.17954613486631
 31
0.0
  0
LINE
  5
14E
100
AcDbEntity
100
AcDbLine
  8
CONTOUR
 62
256
370
-1
  6
ByLayer
 10
637.46065934159083
 20
214.08158647785478
 30
0.0
 11
661.56614753256576
 21
227.99889657386143
 31
0.0
  0
LINE
  5
14F
100
AcDbEntity
100
AcDbLine
  8
CONTOUR
 62
256
370
-1
  6
ByLayer
 10
666.97182818946908
 20
232.76882084263104
 30
0.0
 11
643.89588223249086
 21
217.20389876045365
 31
0.0
  0
LINE
  5
150
100
AcDbEntity
100
AcDbLine
  8
CONTOUR
 62
256
370
-1
  6
ByLayer
 10
671.93398003386517
 20
238.45788151499181
 30
0.0
 11
649.99999999999977
 21
221.32117818244723
 31
0.0
  0
LINE
  5
151
100
AcDbEntity
100
AcDbLine
  8
CONTOUR
 62
256
370
-1
  6
ByLayer
 10
538.1550474122339
 20
437.03996117638172
 30
0.0
 11
549.99999999999989
 21
421.32117818244768
 31
0.0
  0
LINE
  5
152
100
AcDbEntity
100
AcDbLine
  8
CONTOUR
 62
256
370
-1
  6
ByLayer
 10
565.71878299393404
 20
409.47622559468181
 30
0.0
 11
550.00000000000023
 21
421.32117818244768
 31
0.0
  0
LINE
  5
153
100
AcDbEntity
100
AcDbLine
  8
CONTOUR
 62
256
370
-1
  6
ByLayer
 10
561.5390986985193
 20
411.29039271747246
 30
0.0
 11
546.68486799412426
 21
424.20297846926576
 31
0.0
  0
LINE
  5
154
100
AcDbEntity
100
AcDbLine
  8
CONTOUR
 62
256
370
-1
  6
ByLayer
 10
634.2812170060663
 20
409.47622559468209
 30
0.0
 11
649.99999999999977
 21
421.32117818244768
 31
0.0
  0
LINE
  5
155
100
AcDbEntity
100
AcDbLine
  8
CONTOUR
 62
256
370
-1
  6
ByLayer
 10
638.46090130148116
 20
411.29039271747286
 30
0.0
 11
653.31513200587574
 21
424.2029784692657
 31
0.0
  0
LINE
  5
156
100
AcDbEntity
100
AcDbLine
  8
CONTOUR
 62
256
370
-1
  6
ByLayer
 10
642.55474838907548
 20
413.87592657152305
 30
0.0
 11
656.47205848508179
 21
427.79323666752947
 31
0.0
  0
LINE
  5
157
100
AcDbEntity
100
AcDbLine
  8
CONTOUR
 62
256
370
-1
  6
ByLayer
 10
659.35385877190004
 20
432.08156179924833
 30
0.0
 11
646.44127302010668
 21
417.22733109485324
 31
0.0
  0
LINE
  5
158
100
AcDbEntity
100
AcDbLine
  8
CONTOUR
 62
256
370
-1
  6
ByLayer
 10
661.8449525877661
 20
437.03996117638172
 30
0.0
 11
650.0
 21
421.32117818244751
 31
0.0
  0
LINE
  5
159
100
AcDbEntity
100
AcDbLine
  8
AUX
 62
256
370
-1
  6
ByLayer
 10
565.40948047080292
 20
14.13561943072235
 30
0.0
 11
600.0
 21
-1.9942047253023021
 31
0.0
  0
LINE
  5
15A
100
AcDbEntity
100
AcDbLine
  8
AUX
 62
256
370
-1
  6
ByLayer
 10
600.0
 20
-1.9942047253023021
 30
0.0
 11
634.59051952919674
 21
14.135619430722164
 31
0.0
  0
LINE
  5
15B
100
AcDbEntity
100
AcDbLine
  8
AUX
 62
256
370
-1
  6
ByLayer
 10
562.53934065840895
 20
214.0815864778549
 30
0.0
 11
600.00000000000011
 21
192.45366472296641
 31
0.0
  0
LINE
  5
15C
100
AcDbEntity
100
AcDbLine
  8
AUX
 62
256
370
-1
  6
ByLayer
 10
600.00000000000011
 20
192.45366472296641
 30
0.0
 11
637.46065934159083
 21
214.08158647785478
 31
0.0
  0
LINE
  5
15D
100
AcDbEntity
100
AcDbLine
  8
CONTOUR
 62
256
370
-1
  6
ByLayer
 10
540.64614122809996
 20
432.08156179924833
 30
0.0
 11
553.55872697989366
 21
417.22733109485284
 31
0.0
  0
LINE
  5
15E
100
AcDbEntity
100
AcDbLine
  8
CONTOUR
 62
256
370
-1
  6
ByLayer
 10
543.52794151491821
 20
427.79323666752947
 30
0.0
 11
557.44525161092474
 21
413.87592657152294
 31
0.0
  0
LINE
  5
15F
100
AcDbEntity
100
AcDbLine
  8
CONTOUR
 62
256
370
-1
  6
ByLayer
 10
557.44525161092474
 20
413.87592657152294
 30
0.0
 11
543.52794151491821
 21
427.79323666752947
 31
0.0
  0
LINE
  5
160
100
AcDbEntity
100
AcDbLine
  8
AUX
 62
256
370
-1
  6
ByLayer
 10
557.44525161092474
 20
413.87592657152294
 30
0.0
 11
600.00000000000023
 21
371.32117818244768
 31
0.0
  0
LINE
  5
161
100
AcDbEntity
100
AcDbLine
  8
AUX
 62
256
370
-1
  6
ByLayer
 10
600.00000000000023
 20
371.32117818244768
 30
0.0
 11
642.55474838907548
 21
413.875926571523
 31
0.0
  0
LINE
  5
162
100
AcDbEntity
100
AcDbLine
  8
AUX
 62
256
370
-1
  6
ByLayer
 10
653.47932752400163
 20
453.92212009901306
 30
0.0
 11
646.52067247599837
 21
503.43552353609158
 31
0.0
  0
LINE
  5
163
100
AcDbEntity
100
AcDbLine
  8
AUX
 62
256
370
-1
  6
ByLayer
 10
652.15234995805417
 20
450.47697561265318
 30
0.0
 11
648.66452627084789
 21
500.35517812564439
 31
0.0
  0
LINE
  5
164
100
AcDbEntity
100
AcDbLine
  8
AUX
 62
256
370
-1
  6
ByLayer
 10
650.67283182269148
 20
447.61228476470927
 30
0.0
 11
650.67283182269148
 21
497.61228476470927
 31
0.0
  0
LINE
  5
165
100
AcDbEntity
100
AcDbLine
  8
AUX
 62
256
370
-1
  6
ByLayer
 10
654.54575918197531
 20
457.9380342252162
 30
0.0
 11
644.15017464108735
 21
506.84541426190651
 31
0.0
  0
LINE
  5
166
100
AcDbEntity
100
AcDbLine
  8
AUX
 62
256
370
-1
  6
ByLayer
 10
655.2449089468904
 20
462.49805246225782
 30
0.0
 11
641.4630411560405
 21
510.56113725917373
 31
0.0
  0
LINE
  5
167
100
AcDbEntity
100
AcDbLine
  8
CONTOUR
 62
256
370
-1
  6
ByLayer
 10
522.38160434805832
 20
39.256774030751757
 30
0.0
 11
549.99999999999864
 21
21.321178182445891
 31
0.0
  0
LINE
  5
168
100
AcDbEntity
100
AcDbLine
  8
CONTOUR
 62
256
370
-1
  6
ByLayer
 10
528.73277932038093
 20
33.109791104404032
 30
0.0
 11
557.53502186948754
 21
17.144447357296116
 31
0.0
  0
LINE
  5
169
100
AcDbEntity
100
AcDbLine
  8
CONTOUR
 62
256
370
-1
  6
ByLayer
 10
535.56371265503913
 20
28.052929526728978
 30
0.0
 11
565.40948047080292
 21
14.13561943072235
 31
0.0
  0
LINE
  5
16A
100
AcDbEntity
100
AcDbLine
  8
CONTOUR
 62
256
370
-1
  6
ByLayer
 10
573.45246060623754
 20
12.318622022628094
 30
0.0
 11
542.70857310452902
 21
24.12009473170891
 31
0.0
  0
LINE
  5
16B
100
AcDbEntity
100
AcDbLine
  8
CONTOUR
 62
256
370
-1
  6
ByLayer
 10
626.54753939376201
 20
12.318622022627963
 30
0.0
 11
657.29142689547064
 21
24.120094731708861
 31
0.0
  0
LINE
  5
16C
100
AcDbEntity
100
AcDbLine
  8
CONTOUR
 62
256
370
-1
  6
ByLayer
 10
634.59051952919674
 20
14.135619430722178
 30
0.0
 11
664.43628734496065
 21
28.052929526728903
 31
0.0
  0
LINE
  5
16D
100
AcDbEntity
100
AcDbLine
  8
CONTOUR
 62
256
370
-1
  6
ByLayer
 10
671.26722067961884
 20
33.109791104403861
 30
0.0
 11
642.46497813051201
 21
17.144447357295924
 31
0.0
  0
LINE
  5
16E
100
AcDbEntity
100
AcDbLine
  8
CONTOUR
 62
256
370
-1
  6
ByLayer
 10
677.61839565194157
 20
39.25677403075175
 30
0.0
 11
650.00000000000136
 21
21.321178182445191
 31
0.0
  0
LINE
  5
16F
100
AcDbEntity
100
AcDbLine
  8
AUX
 62
256
370
-1
  6
ByLayer
 10
584.08606984202936
 20
194.69022175076128
 30
0.0
 11
649.99999999999977
 21
221.32117818244723
 31
0.0
  0
LINE
  5
170
100
AcDbEntity
100
AcDbLine
  8
AUX
 62
256
370
-1
  6
ByLayer
 10
528.06601996613483
 20
238.45788151499173
 30
0.0
 11
584.08606984202936
 21
194.69022175076128
 31
0.0
  0
LINE
  5
171
100
AcDbEntity
100
AcDbLine
  8
AUX
 62
256
370
-1
  6
ByLayer
 10
591.96483726967517
 20
193.01553803614536
 30
0.0
 11
655.86052279349121
 21
224.17954613486631
 31
0.0
  0
LINE
  5
172
100
AcDbEntity
100
AcDbLine
  8
AUX
 62
256
370
-1
  6
ByLayer
 10
533.02817181053092
 20
232.76882084263104
 30
0.0
 11
591.96483726967517
 21
193.01553803614536
 31
0.0
  0
LINE
  5
173
100
AcDbEntity
100
AcDbLine
  8
AUX
 62
256
370
-1
  6
ByLayer
 10
633.19797985895048
 20
257.42690638322176
 30
0.0
 11
658.00141168651862
 21
288.80826660828495
 31
0.0
  0
LINE
  5
174
100
AcDbEntity
100
AcDbLine
  8
AUX
 62
256
370
-1
  6
ByLayer
 10
636.58082324778911
 20
259.02527291959359
 30
0.0
 11
659.13478213144685
 21
292.06038966941412
 31
0.0
  0
LINE
  5
175
100
AcDbEntity
100
AcDbLine
  8
AUX
 62
256
370
-1
  6
ByLayer
 10
639.90269734040885
 20
261.41485706432678
 30
0.0
 11
660.09730265959115
 21
295.94278657077786
 31
0.0
  0
LINE
  5
176
100
AcDbEntity
100
AcDbLine
  8
AUX
 62
256
370
-1
  6
ByLayer
 10
658.86843283377311
 20
296.60508464818309
 30
0.0
 11
641.13156716622689
 21
260.75255898692154
 31
0.0
  0
LINE
  5
177
100
AcDbEntity
100
AcDbLine
  8
AUX
 62
256
370
-1
  6
ByLayer
 10
660.76703517013743
 20
300.44474149954715
 30
0.0
 11
643.03016950259121
 21
264.5922158382856
 31
0.0
  0
LINE
  5
178
100
AcDbEntity
100
AcDbLine
  8
AUX
 62
256
370
-1
  6
ByLayer
 10
661.02346799606323
 20
305.53612254922672
 30
0.0
 11
645.83075420678176
 21
268.53367063429306
 31
0.0
  0
LINE
  5
179
100
AcDbEntity
100
AcDbLine
  8
AUX
 62
256
370
-1
  6
ByLayer
 10
538.97653200393677
 20
305.53612254922672
 30
0.0
 11
554.16924579321824
 21
268.53367063429306
 31
0.0
  0
LINE
  5
17A
100
AcDbEntity
100
AcDbLine
  8
AUX
 62
256
370
-1
  6
ByLayer
 10
539.23296482986245
 20
300.44474149954715
 30
0.0
 11
556.96983049740868
 21
264.5922158382856
 31
0.0
  0
LINE
  5
17B
100
AcDbEntity
100
AcDbLine
  8
AUX
 62
256
370
-1
  6
ByLayer
 10
539.89848422855948
 20
295.94278657077786
 30
0.0
 11
560.09308954774178
 21
261.41485706432678
 31
0.0
  0
LINE
  5
17C
100
AcDbEntity
100
AcDbLine
  8
AUX
 62
256
370
-1
  6
ByLayer
 10
563.41917675221089
 20
259.02527291959353
 30
0.0
 11
540.86521786855315
 21
292.06038966941406
 31
0.0
  0
LINE
  5
17D
100
AcDbEntity
100
AcDbLine
  8
AUX
 62
256
370
-1
  6
ByLayer
 10
566.80202014104941
 20
257.42690638322176
 30
0.0
 11
541.99858831348126
 21
288.80826660828495
 31
0.0
  0
ENDSEC
  0
SECTION
  2
OBJECTS
  0
DICTIONARY
  5
C
100
AcDbDictionary
280
0
281
1
  3
ACAD_GROUP
350
D
  3
ACAD_LAYOUT
350
1A
  3
ACAD_MLINESTYLE
350
17
  3
ACAD_PLOTSETTINGS
350
19
  3
ACAD_PLOTSTYLENAME
350
E
  3
AcDbVariableDictionary
350
17E
  0
DICTIONARY
  5
D
100
AcDbDictionary
280
0
281
1
  0
ACDBDICTIONARYWDFLT
  5
E
100
AcDbDictionary
281
1
  3
Normal
350
F
100
AcDbDictionaryWithDefault
340
F
  0
ACDBPLACEHOLDER
  5
F
  0
DICTIONARY
  5
17
100
AcDbDictionary
280
0
281
1
  3
Standard
350
18
  0
MLINESTYLE
  5
18
100
AcDbMlineStyle
  2
STANDARD
 70
0
  3

 62
256
 51
90.0
 52
90.0
 71
2
 49
0.5
 62
256
  6
BYLAYER
 49
-0.5
 62
256
  6
BYLAYER
  0
DICTIONARY
  5
19
100
AcDbDictionary
280
0
281
1
  0
DICTIONARY
  5
1A
100
AcDbDictionary
281
1
  3
Layout1
350
1E
  3
Layout2
350
26
  3
Model
350
22
  0
LAYOUT
  5
1E
100
AcDbPlotSettings
  1

  2
C:\Program Files\AutoCAD 2002\plotters\DWF ePlot (optimized for plotting).pc3
  4

  6

 40
0.0
 41
0.0
 42
0.0
 43
0.0
 44
0.0
 45
0.0
 46
0.0
 47
0.0
 48
0.0
 49
0.0
140
0.0
141
0.0
142
1.0
143
1.0
 70
688
 72
0
 73
0
 74
5
  7

 75
16
147
1.0
148
0.0
149
0.0
100
AcDbLayout
  1
Layout1
 70
1
 71
1
 10
0.0
 20
0.0
 11
420.0
 21
297.0
 12
0.0
 22
0.0
 32
0.0
 14
100000000000000000000.0
 24
100000000000000000000.0
 34
100000000000000000000.0
 15
-100000000000000000000.0
 25
-100000000000000000000.0
 35
-100000000000000000000.0
146
0.0
 13
0.0
 23
0.0
 33
0.0
 16
1.0
 26
0.0
 36
0.0
 17
0.0
 27
1.0
 37
0.0
 76
0
330
1B
  0
LAYOUT
  5
22
100
AcDbPlotSettings
  1

  2
C:\Program Files\AutoCAD 2002\plotters\DWF ePlot (optimized for plotting).pc3
  4

  6

 40
0.0
 41
0.0
 42
0.0
 43
0.0
 44
0.0
 45
0.0
 46
0.0
 47
0.0
 48
0.0
 49
0.0
140
0.0
141
0.0
142
1.0
143
1.0
 70
1712
 72
0
 73
0
 74
0
  7

 75
0
147
1.0
148
0.0
149
0.0
100
AcDbLayout
  1
Model
 70
1
 71
0
 10
0.0
 20
0.0
 11
12.0
 21
9.0
 12
0.0
 22
0.0
 32
0.0
 14
0.0
 24
0.0
 34
0.0
 15
0.0
 25
0.0
 35
0.0
146
0.0
 13
0.0
 23
0.0
 33
0.0
 16
1.0
 26
0.0
 36
0.0
 17
0.0
 27
1.0
 37
0.0
 76
0
330
1F
  0
LAYOUT
  5
26
100
AcDbPlotSettings
  1

  2
C:\Program Files\AutoCAD 2002\plotters\DWF ePlot (optimized for plotting).pc3
  4

  6

 40
0.0
 41
0.0
 42
0.0
 43
0.0
 44
0.0
 45
0.0
 46
0.0
 47
0.0
 48
0.0
 49
0.0
140
0.0
141
0.0
142
1.0
143
1.0
 70
688
 72
0
 73
0
 74
5
  7

 75
16
147
1.0
148
0.0
149
0.0
100
AcDbLayout
  1
Layout2
 70
1
 71
2
 10
0.0
 20
0.0
 11
12.0
 21
9.0
 12
0.0
 22
0.0
 32
0.0
 14
0.0
 24
0.0
 34
0.0
 15
0.0
 25
0.0
 35
0.0
146
0.0
 13
0.0
 23
0.0
 33
0.0
 16
1.0
 26
0.0
 36
0.0
 17
0.0
 27
1.0
 37
0.0
 76
0
330
23
  0
DICTIONARY
  5
17E
100
AcDbDictionary
281
1
  3
DIMASSOC
350
180
  3
HIDETEXT
350
17F
  0
DICTIONARYVAR
  5
17F
100
DictionaryVariables
280
0
  1
2
  0
DICTIONARYVAR
  5
180
100
DictionaryVariables
280
0
  1
1
  0
ENDSEC
  0
EOF
