999
dxflib 2.2.0.0
  0
SECTION
  2
HEADER
  9
$ACADVER
  1
AC1015
  9
$HANDSEED
  5
FFFF
  9
$SPLINESEGS
 70
8
  9
$DIMEXE
 40
1.25
  9
$DIMLUNIT
 70
2
  9
$GRIDMODE
 70
1
  9
$INSUNITS
 70
4
  9
$DIMADEC
 70
2
  9
$DIMASZ
 40
5.0
  9
$DIMGAP
 40
0.625
  9
$DIMTXT
 40
5.0
  9
$GRIDUNIT
 10
0.0
 20
0.0
  9
$DIMEXO
 40
0.625
  9
$LUPREC
 70
4
  9
$DIMAUNIT
 70
0
  9
$AUPREC
 70
2
  9
$PLIMMIN
 10
0.0
 20
0.0
  9
$LUNITS
 70
2
  9
$PLIMMAX
 10
210.0
 20
297.0
  9
$DIMSTYLE
  2
Standard
  9
$AUNITS
 70
0
  0
ENDSEC
  0
SECTION
  2
TABLES
  0
TABLE
  2
VPORT
  5
8
100
AcDbSymbolTable
 70
1
  0
VPORT
  5
30
100
AcDbSymbolTableRecord
100
AcDbViewportTableRecord
  2
*Active
 70
0
 10
0.0
 20
0.0
 11
1.0
 21
1.0
 12
286.3055555555554861
 22
148.5
 13
0.0
 23
0.0
 14
10.0
 24
10.0
 15
10.0
 25
10.0
 16
0.0
 26
0.0
 36
1.0
 17
0.0
 27
0.0
 37
0.0
 40
297.0
 41
1.92798353909465
 42
50.0
 43
0.0
 44
0.0
 50
0.0
 51
0.0
 71
0
 72
100
 73
1
 74
3
 75
1
 76
1
 77
0
 78
0
281
0
 65
1
110
0.0
120
0.0
130
0.0
111
1.0
121
0.0
131
0.0
112
0.0
122
1.0
132
0.0
 79
0
146
0.0
  0
ENDTAB
  0
TABLE
  2
LTYPE
  5
5
100
AcDbSymbolTable
 70
21
  0
LTYPE
  5
14
100
AcDbSymbolTableRecord
100
AcDbLinetypeTableRecord
  2
ByBlock
 70
0
  3

 72
65
 73
0
 40
0.0
  0
LTYPE
  5
15
100
AcDbSymbolTableRecord
100
AcDbLinetypeTableRecord
  2
ByLayer
 70
0
  3

 72
65
 73
0
 40
0.0
  0
LTYPE
  5
16
100
AcDbSymbolTableRecord
100
AcDbLinetypeTableRecord
  2
CONTINUOUS
 70
0
  3
Solid line
 72
65
 73
0
 40
0.0
  0
LTYPE
  5
31
100
AcDbSymbolTableRecord
100
AcDbLinetypeTableRecord
  2
DOT
 70
0
  3
Dot . . . . . . . . . . . . . . . . . . . . . .
 72
65
 73
2
 40
6.3499999999999996
 49
0.0
 74
0
 49
-6.3499999999999996
 74
0
  0
LTYPE
  5
32
100
AcDbSymbolTableRecord
100
AcDbLinetypeTableRecord
  2
DOT2
 70
0
  3
Dot (.5x) .....................................
 72
65
 73
2
 40
3.1749999999999998
 49
0.0
 74
0
 49
-3.1749999999999998
 74
0
  0
LTYPE
  5
33
100
AcDbSymbolTableRecord
100
AcDbLinetypeTableRecord
  2
DOTX2
 70
0
  3
Dot (2x) .  .  .  .  .  .  .  .  .  .  .  .  .
 72
65
 73
2
 40
12.6999999999999993
 49
0.0
 74
0
 49
-12.6999999999999993
 74
0
  0
LTYPE
  5
34
100
AcDbSymbolTableRecord
100
AcDbLinetypeTableRecord
  2
DASHED
 70
0
  3
Dashed __ __ __ __ __ __ __ __ __ __ __ __ __ _
 72
65
 73
2
 40
19.0500000000000007
 49
12.6999999999999993
 74
0
 49
-6.3499999999999996
 74
0
  0
LTYPE
  5
35
100
AcDbSymbolTableRecord
100
AcDbLinetypeTableRecord
  2
DASHED2
 70
0
  3
Dashed (.5x) _ _ _ _ _ _ _ _ _ _ _ _ _ _ _ _ _
 72
65
 73
2
 40
9.5250000000000004
 49
6.3499999999999996
 74
0
 49
-3.1749999999999998
 74
0
  0
LTYPE
  5
36
100
AcDbSymbolTableRecord
100
AcDbLinetypeTableRecord
  2
DASHEDX2
 70
0
  3
Dashed (2x) ____  ____  ____  ____  ____  ___
 72
65
 73
2
 40
38.1000000000000014
 49
25.3999999999999986
 74
0
 49
-12.6999999999999993
 74
0
  0
LTYPE
  5
37
100
AcDbSymbolTableRecord
100
AcDbLinetypeTableRecord
  2
DASHDOT
 70
0
  3
Dash dot __ . __ . __ . __ . __ . __ . __ . __
 72
65
 73
4
 40
25.3999999999999986
 49
12.6999999999999993
 74
0
 49
-6.3499999999999996
 74
0
 49
0.0
 74
0
 49
-6.3499999999999996
 74
0
  0
LTYPE
  5
38
100
AcDbSymbolTableRecord
100
AcDbLinetypeTableRecord
  2
DASHDOT2
 70
0
  3
Dash dot (.5x) _._._._._._._._._._._._._._._.
 72
65
 73
4
 40
12.6999999999999993
 49
6.3499999999999996
 74
0
 49
-3.1749999999999998
 74
0
 49
0.0
 74
0
 49
-3.1749999999999998
 74
0
  0
LTYPE
  5
39
100
AcDbSymbolTableRecord
100
AcDbLinetypeTableRecord
  2
DASHDOTX2
 70
0
  3
Dash dot (2x) ____  .  ____  .  ____  .  ___
 72
65
 73
4
 40
50.7999999999999972
 49
25.3999999999999986
 74
0
 49
-12.6999999999999993
 74
0
 49
0.0
 74
0
 49
-12.6999999999999993
 74
0
  0
LTYPE
  5
3A
100
AcDbSymbolTableRecord
100
AcDbLinetypeTableRecord
  2
DIVIDE
 70
0
  3
Divide ____ . . ____ . . ____ . . ____ . . ____
 72
65
 73
6
 40
31.75
 49
12.6999999999999993
 74
0
 49
-6.3499999999999996
 74
0
 49
0.0
 74
0
 49
-6.3499999999999996
 74
0
 49
0.0
 74
0
 49
-6.3499999999999996
 74
0
  0
LTYPE
  5
3B
100
AcDbSymbolTableRecord
100
AcDbLinetypeTableRecord
  2
DIVIDE2
 70
0
  3
Divide (.5x) __..__..__..__..__..__..__..__.._
 72
65
 73
6
 40
15.875
 49
6.3499999999999996
 74
0
 49
-3.1749999999999998
 74
0
 49
0.0
 74
0
 49
-3.1749999999999998
 74
0
 49
0.0
 74
0
 49
-3.1749999999999998
 74
0
  0
LTYPE
  5
3C
100
AcDbSymbolTableRecord
100
AcDbLinetypeTableRecord
  2
DIVIDEX2
 70
0
  3
Divide (2x) ________  .  .  ________  .  .  _
 72
65
 73
6
 40
63.5
 49
25.3999999999999986
 74
0
 49
-12.6999999999999993
 74
0
 49
0.0
 74
0
 49
-12.6999999999999993
 74
0
 49
0.0
 74
0
 49
-12.6999999999999993
 74
0
  0
LTYPE
  5
3D
100
AcDbSymbolTableRecord
100
AcDbLinetypeTableRecord
  2
CENTER
 70
0
  3
Center ____ _ ____ _ ____ _ ____ _ ____ _ ____
 72
65
 73
4
 40
50.7999999999999972
 49
31.75
 74
0
 49
-6.3499999999999996
 74
0
 49
6.3499999999999996
 74
0
 49
-6.3499999999999996
 74
0
  0
LTYPE
  5
3E
100
AcDbSymbolTableRecord
100
AcDbLinetypeTableRecord
  2
CENTER2
 70
0
  3
Center (.5x) ___ _ ___ _ ___ _ ___ _ ___ _ ___
 72
65
 73
4
 40
28.5749999999999993
 49
19.0500000000000007
 74
0
 49
-3.1749999999999998
 74
0
 49
3.1749999999999998
 74
0
 49
-3.1749999999999998
 74
0
  0
LTYPE
  5
3F
100
AcDbSymbolTableRecord
100
AcDbLinetypeTableRecord
  2
CENTERX2
 70
0
  3
Center (2x) ________  __  ________  __  _____
 72
65
 73
4
 40
101.5999999999999943
 49
63.5
 74
0
 49
-12.6999999999999993
 74
0
 49
12.6999999999999993
 74
0
 49
-12.6999999999999993
 74
0
  0
LTYPE
  5
40
100
AcDbSymbolTableRecord
100
AcDbLinetypeTableRecord
  2
BORDER
 70
0
  3
Border __ __ . __ __ . __ __ . __ __ . __ __ .
 72
65
 73
6
 40
44.4500000000000028
 49
12.6999999999999993
 74
0
 49
-6.3499999999999996
 74
0
 49
12.6999999999999993
 74
0
 49
-6.3499999999999996
 74
0
 49
0.0
 74
0
 49
-6.3499999999999996
 74
0
  0
LTYPE
  5
41
100
AcDbSymbolTableRecord
100
AcDbLinetypeTableRecord
  2
BORDER2
 70
0
  3
Border (.5x) __.__.__.__.__.__.__.__.__.__.__.
 72
65
 73
6
 40
22.2250000000000014
 49
6.3499999999999996
 74
0
 49
-3.1749999999999998
 74
0
 49
6.3499999999999996
 74
0
 49
-3.1749999999999998
 74
0
 49
0.0
 74
0
 49
-3.1749999999999998
 74
0
  0
LTYPE
  5
42
100
AcDbSymbolTableRecord
100
AcDbLinetypeTableRecord
  2
BORDERX2
 70
0
  3
Border (2x) ____  ____  .  ____  ____  .  ___
 72
65
 73
6
 40
88.9000000000000057
 49
25.3999999999999986
 74
0
 49
-12.6999999999999993
 74
0
 49
25.3999999999999986
 74
0
 49
-12.6999999999999993
 74
0
 49
0.0
 74
0
 49
-12.6999999999999993
 74
0
  0
ENDTAB
  0
TABLE
  2
LAYER
  5
2
100
AcDbSymbolTable
 70
4
  0
LAYER
  5
10
100
AcDbSymbolTableRecord
100
AcDbLayerTableRecord
  2
0
 70
0
 62
7
  6
CONTINUOUS
370
0
390
F
  0
LAYER
  5
43
100
AcDbSymbolTableRecord
100
AcDbLayerTableRecord
  2
CONTOUR
 70
0
 62
7
  6
CONTINUOUS
370
35
390
F
  0
LAYER
  5
44
100
AcDbSymbolTableRecord
100
AcDbLayerTableRecord
  2
AUX
 70
1
 62
1
  6
DASHED
370
13
390
F
  0
LAYER
  5
45
100
AcDbSymbolTableRecord
100
AcDbLayerTableRecord
  2
CENTER
 70
0
 62
7
  6
DASHDOTX2
370
18
390
F
  0
ENDTAB
  0
TABLE
  2
STYLE
  5
3
100
AcDbSymbolTable
 70
1
  0
STYLE
  5
11
100
AcDbSymbolTableRecord
100
AcDbTextStyleTableRecord
  2
Standard
 70
0
 40
0.0
 41
0.75
 50
0.0
 71
0
 42
2.5
  3
txt
  4

  0
ENDTAB
  0
TABLE
  2
VIEW
  5
6
100
AcDbSymbolTable
 70
0
  0
ENDTAB
  0
TABLE
  2
UCS
  5
7
100
AcDbSymbolTable
 70
0
  0
ENDTAB
  0
TABLE
  2
APPID
  5
9
100
AcDbSymbolTable
 70
1
  0
APPID
  5
12
100
AcDbSymbolTableRecord
100
AcDbRegAppTableRecord
  2
ACAD
 70
0
  0
ENDTAB
  0
TABLE
  2
DIMSTYLE
  5
A
100
AcDbSymbolTable
 70
1
100
AcDbDimStyleTable
 71
0
  0
DIMSTYLE
105
27
100
AcDbSymbolTableRecord
100
AcDbDimStyleTableRecord
  2
Standard
 41
5.0
 42
0.625
 43
3.75
 44
1.25
 70
0
 73
0
 74
0
 77
1
 78
8
140
5.0
141
2.5
143
0.03937007874016
147
0.625
171
3
172
1
271
2
272
2
274
3
278
44
283
0
284
8
340
11
  0
ENDTAB
  0
TABLE
  2
BLOCK_RECORD
  5
1
100
AcDbSymbolTable
 70
1
  0
BLOCK_RECORD
  5
1F
100
AcDbSymbolTableRecord
100
AcDbBlockTableRecord
  2
*Model_Space
340
22
  0
BLOCK_RECORD
  5
1B
100
AcDbSymbolTableRecord
100
AcDbBlockTableRecord
  2
*Paper_Space
340
1E
  0
BLOCK_RECORD
  5
23
100
AcDbSymbolTableRecord
100
AcDbBlockTableRecord
  2
*Paper_Space0
340
26
  0
ENDTAB
  0
ENDSEC
  0
SECTION
  2
BLOCKS
  0
BLOCK
  5
20
100
AcDbEntity
  8
0
100
AcDbBlockBegin
  2
*Model_Space
 70
0
 10
0.0
 20
0.0
 30
0.0
  3
*Model_Space
  1

  0
ENDBLK
  5
21
100
AcDbEntity
  8
0
100
AcDbBlockEnd
  0
BLOCK
  5
1C
100
AcDbEntity
 67
1
  8
0
100
AcDbBlockBegin
  2
*Paper_Space
 70
0
 10
0.0
 20
0.0
 30
0.0
  3
*Paper_Space
  1

  0
ENDBLK
  5
1D
100
AcDbEntity
 67
1
  8
0
100
AcDbBlockEnd
  0
BLOCK
  5
24
100
AcDbEntity
  8
0
100
AcDbBlockBegin
  2
*Paper_Space0
 70
0
 10
0.0
 20
0.0
 30
0.0
  3
*Paper_Space0
  1

  0
ENDBLK
  5
25
100
AcDbEntity
  8
0
100
AcDbBlockEnd
  0
ENDSEC
  0
SECTION
  2
ENTITIES
  0
CIRCLE
  5
46
100
AcDbEntity
100
AcDbCircle
  8
CONTOUR
 62
256
370
-1
  6
ByLayer
 10
200.0
 20
100.0
 30
0.0
 40
3.0
  0
CIRCLE
  5
47
100
AcDbEntity
100
AcDbCircle
  8
CONTOUR
 62
256
370
-1
  6
ByLayer
 10
200.0
 20
100.0
 30
0.0
 40
3.8999999999999999
  0
CIRCLE
  5
48
100
AcDbEntity
100
AcDbCircle
  8
AUX
 62
256
370
-1
  6
ByLayer
 10
200.0
 20
100.0
 30
0.0
 40
55.0
  0
LINE
  5
49
100
AcDbEntity
100
AcDbLine
  8
CENTER
 62
256
370
-1
  6
ByLayer
 10
46.4999999999999858
 20
120.0
 30
0.0
 11
62.4999999999999858
 21
120.0
 31
0.0
  0
CIRCLE
  5
4A
100
AcDbEntity
100
AcDbCircle
  8
CONTOUR
 62
256
370
-1
  6
ByLayer
 10
50.0
 20
120.0
 30
0.0
 40
1.5
  0
LINE
  5
4B
100
AcDbEntity
100
AcDbLine
  8
AUX
 62
256
370
-1
  6
ByLayer
 10
31.0
 20
161.0
 30
0.0
 11
142.0
 21
161.0
 31
0.0
  0
LINE
  5
4C
100
AcDbEntity
100
AcDbLine
  8
AUX
 62
256
370
-1
  6
ByLayer
 10
142.0
 20
43.0
 30
0.0
 11
255.0
 21
43.0
 31
0.0
  0
LINE
  5
4D
100
AcDbEntity
100
AcDbLine
  8
AUX
 62
256
370
-1
  6
ByLayer
 10
142.0
 20
43.0
 30
0.0
 11
142.0
 21
161.0
 31
0.0
  0
LINE
  5
4E
100
AcDbEntity
100
AcDbLine
  8
AUX
 62
256
370
-1
  6
ByLayer
 10
31.0
 20
103.0
 30
0.0
 11
255.0
 21
103.0
 31
0.0
  0
LINE
  5
4F
100
AcDbEntity
100
AcDbLine
  8
CONTOUR
 62
256
370
-1
  6
ByLayer
 10
31.0
 20
45.0
 30
0.0
 11
173.0
 21
45.0
 31
0.0
  0
LINE
  5
50
100
AcDbEntity
100
AcDbLine
  8
CONTOUR
 62
256
370
-1
  6
ByLayer
 10
173.0
 20
45.0
 30
0.0
 11
255.0
 21
45.0
 31
0.0
  0
ARC
  5
51
100
AcDbEntity
  8
CONTOUR
 62
256
370
-1
  6
ByLayer
100
AcDbCircle
 10
88.0
 20
107.0
 30
0.0
 40
56.0
100
AcDbArc
 50
0.0
 51
90.0
  0
ARC
  5
52
100
AcDbEntity
  8
CONTOUR
 62
256
370
-1
  6
ByLayer
100
AcDbCircle
 10
198.0
 20
99.0
 30
0.0
 40
54.0
100
AcDbArc
 50
180.0
 51
270.0
  0
LINE
  5
53
100
AcDbEntity
100
AcDbLine
  8
AUX
 62
256
370
-1
  6
ByLayer
 10
144.0
 20
99.0
 30
0.0
 11
198.0
 21
99.0
 31
0.0
  0
LINE
  5
54
100
AcDbEntity
100
AcDbLine
  8
AUX
 62
256
370
-1
  6
ByLayer
 10
198.0
 20
45.0
 30
0.0
 11
198.0
 21
99.0
 31
0.0
  0
LINE
  5
55
100
AcDbEntity
100
AcDbLine
  8
AUX
 62
256
370
-1
  6
ByLayer
 10
88.0
 20
107.0
 30
0.0
 11
88.0
 21
163.0
 31
0.0
  0
LINE
  5
56
100
AcDbEntity
100
AcDbLine
  8
AUX
 62
256
370
-1
  6
ByLayer
 10
88.0000000000000142
 20
107.0
 30
0.0
 11
144.0
 21
107.0
 31
0.0
  0
LINE
  5
57
100
AcDbEntity
100
AcDbLine
  8
CONTOUR
 62
256
370
-1
  6
ByLayer
 10
31.0
 20
163.0
 30
0.0
 11
88.0
 21
163.0
 31
0.0
  0
LINE
  5
58
100
AcDbEntity
100
AcDbLine
  8
CENTER
 62
256
370
-1
  6
ByLayer
 10
75.0
 20
106.0
 30
0.0
 11
75.0
 21
170.0
 31
0.0
  0
ARC
  5
59
100
AcDbEntity
  8
CONTOUR
 62
256
370
-1
  6
ByLayer
100
AcDbCircle
 10
75.0
 20
129.0
 30
0.0
 40
3.5
100
AcDbArc
 50
210.0000000000001137
 51
330.0
  0
ARC
  5
5A
100
AcDbEntity
  8
CONTOUR
 62
256
370
-1
  6
ByLayer
100
AcDbCircle
 10
75.0
 20
159.0
 30
0.0
 40
3.5
100
AcDbArc
 50
30.0000000000000675
 51
149.9999999999998295
  0
CIRCLE
  5
5B
100
AcDbEntity
100
AcDbCircle
  8
CONTOUR
 62
256
370
-1
  6
ByLayer
 10
75.0
 20
159.0
 30
0.0
 40
1.6000000000000001
  0
CIRCLE
  5
5C
100
AcDbEntity
100
AcDbCircle
  8
CONTOUR
 62
256
370
-1
  6
ByLayer
 10
75.0
 20
129.0
 30
0.0
 40
1.6000000000000001
  0
LINE
  5
5D
100
AcDbEntity
100
AcDbLine
  8
CONTOUR
 62
256
370
-1
  6
ByLayer
 10
39.0
 20
133.0
 30
0.0
 11
113.0
 21
133.0
 31
0.0
  0
LINE
  5
5E
100
AcDbEntity
100
AcDbLine
  8
CONTOUR
 62
256
370
-1
  6
ByLayer
 10
39.0
 20
156.5
 30
0.0
 11
113.0
 21
156.5
 31
0.0
  0
LINE
  5
5F
100
AcDbEntity
100
AcDbLine
  8
CONTOUR
 62
256
370
-1
  6
ByLayer
 10
69.5151724426985567
 20
156.5
 30
0.0
 11
71.9689110867544741
 21
160.75
 31
0.0
  0
LINE
  5
60
100
AcDbEntity
100
AcDbLine
  8
CONTOUR
 62
256
370
-1
  6
ByLayer
 10
78.0310889132455259
 20
160.75
 30
0.0
 11
80.4848275573014575
 21
156.5
 31
0.0
  0
LINE
  5
61
100
AcDbEntity
100
AcDbLine
  8
CONTOUR
 62
256
370
-1
  6
ByLayer
 10
68.6491470389141227
 20
133.0
 30
0.0
 11
71.9689110867544599
 21
127.25
 31
0.0
  0
LINE
  5
62
100
AcDbEntity
100
AcDbLine
  8
CONTOUR
 62
256
370
-1
  6
ByLayer
 10
78.0310889132455259
 20
127.25
 30
0.0
 11
81.3508529610858773
 21
133.0
 31
0.0
  0
LINE
  5
63
100
AcDbEntity
100
AcDbLine
  8
CONTOUR
 62
256
370
-1
  6
ByLayer
 10
39.0
 20
133.0
 30
0.0
 11
39.0
 21
156.5
 31
0.0
  0
LINE
  5
64
100
AcDbEntity
100
AcDbLine
  8
CONTOUR
 62
256
370
-1
  6
ByLayer
 10
113.0
 20
133.0
 30
0.0
 11
113.0
 21
156.5
 31
0.0
  0
LINE
  5
65
100
AcDbEntity
100
AcDbLine
  8
CONTOUR
 62
256
370
-1
  6
ByLayer
 10
46.5
 20
156.5
 30
0.0
 11
46.5
 21
157.0
 31
0.0
  0
LINE
  5
66
100
AcDbEntity
100
AcDbLine
  8
CONTOUR
 62
256
370
-1
  6
ByLayer
 10
46.5
 20
131.0
 30
0.0
 11
46.5
 21
133.0
 31
0.0
  0
LINE
  5
67
100
AcDbEntity
100
AcDbLine
  8
CONTOUR
 62
256
370
-1
  6
ByLayer
 10
62.5
 20
156.5
 30
0.0
 11
62.5
 21
157.0
 31
0.0
  0
LINE
  5
68
100
AcDbEntity
100
AcDbLine
  8
CONTOUR
 62
256
370
-1
  6
ByLayer
 10
62.5
 20
131.0
 30
0.0
 11
62.5
 21
133.0
 31
0.0
  0
LINE
  5
69
100
AcDbEntity
100
AcDbLine
  8
CONTOUR
 62
256
370
-1
  6
ByLayer
 10
46.5
 20
157.0
 30
0.0
 11
62.5
 21
157.0
 31
0.0
  0
LINE
  5
6A
100
AcDbEntity
100
AcDbLine
  8
CONTOUR
 62
256
370
-1
  6
ByLayer
 10
46.5
 20
131.0
 30
0.0
 11
62.5
 21
131.0
 31
0.0
  0
LINE
  5
6B
100
AcDbEntity
100
AcDbLine
  8
CONTOUR
 62
256
370
-1
  6
ByLayer
 10
84.0
 20
133.0
 30
0.0
 11
84.0
 21
156.5
 31
0.0
  0
LINE
  5
6C
100
AcDbEntity
100
AcDbLine
  8
CENTER
 62
256
370
-1
  6
ByLayer
 10
65.0
 20
159.0
 30
0.0
 11
85.0
 21
159.0
 31
0.0
  0
LINE
  5
6D
100
AcDbEntity
100
AcDbLine
  8
CENTER
 62
256
370
-1
  6
ByLayer
 10
65.0
 20
129.0
 30
0.0
 11
85.0
 21
129.0
 31
0.0
  0
LINE
  5
6E
100
AcDbEntity
100
AcDbLine
  8
CENTER
 62
256
370
-1
  6
ByLayer
 10
59.0
 20
121.0
 30
0.0
 11
59.0
 21
167.0
 31
0.0
  0
LINE
  5
6F
100
AcDbEntity
100
AcDbLine
  8
CENTER
 62
256
370
-1
  6
ByLayer
 10
34.0
 20
144.0
 30
0.0
 11
123.0
 21
144.0
 31
0.0
  0
LINE
  5
70
100
AcDbEntity
100
AcDbLine
  8
CENTER
 62
256
370
-1
  6
ByLayer
 10
50.0
 20
48.0
 30
0.0
 11
50.0
 21
231.5999999999999943
 31
0.0
  0
LINE
  5
71
100
AcDbEntity
100
AcDbLine
  8
CONTOUR
 62
256
370
-1
  6
ByLayer
 10
48.5
 20
218.0
 30
0.0
 11
51.5
 21
218.0
 31
0.0
  0
LINE
  5
72
100
AcDbEntity
100
AcDbLine
  8
CONTOUR
 62
256
370
-1
  6
ByLayer
 10
51.5
 20
131.0
 30
0.0
 11
51.5
 21
218.0
 31
0.0
  0
LINE
  5
73
100
AcDbEntity
100
AcDbLine
  8
CONTOUR
 62
256
370
-1
  6
ByLayer
 10
48.5
 20
131.0
 30
0.0
 11
48.5
 21
218.0
 31
0.0
  0
LINE
  5
74
100
AcDbEntity
100
AcDbLine
  8
CENTER
 62
256
370
-1
  6
ByLayer
 10
26.0
 20
100.0
 30
0.0
 11
408.3195689489243136
 21
100.0
 31
0.0
  0
CIRCLE
  5
75
100
AcDbEntity
100
AcDbCircle
  8
CONTOUR
 62
256
370
-1
  6
ByLayer
 10
50.0
 20
162.0
 30
0.0
 40
5.0
  0
CIRCLE
  5
76
100
AcDbEntity
100
AcDbCircle
  8
CONTOUR
 62
256
370
-1
  6
ByLayer
 10
50.0
 20
162.0
 30
0.0
 40
3.0
  0
ARC
  5
77
100
AcDbEntity
  8
CONTOUR
 62
256
370
-1
  6
ByLayer
100
AcDbCircle
 10
200.0
 20
100.0
 30
0.0
 40
55.0
100
AcDbArc
 50
270.0
 51
0.0
  0
LINE
  5
78
100
AcDbEntity
100
AcDbLine
  8
CONTOUR
 62
256
370
-1
  6
ByLayer
 10
31.0
 20
215.0
 30
0.0
 11
255.0
 21
215.0
 31
0.0
  0
LINE
  5
79
100
AcDbEntity
100
AcDbLine
  8
CONTOUR
 62
256
370
-1
  6
ByLayer
 10
31.0
 20
156.0
 30
0.0
 11
255.0
 21
156.0
 31
0.0
  0
LINE
  5
7A
100
AcDbEntity
100
AcDbLine
  8
CONTOUR
 62
256
370
-1
  6
ByLayer
 10
31.0
 20
163.0
 30
0.0
 11
31.0
 21
215.0
 31
0.0
  0
LINE
  5
7B
100
AcDbEntity
100
AcDbLine
  8
CONTOUR
 62
256
370
-1
  6
ByLayer
 10
255.0
 20
45.0
 30
0.0
 11
255.0
 21
215.0
 31
0.0
  0
LINE
  5
7C
100
AcDbEntity
100
AcDbLine
  8
CENTER
 62
256
370
-1
  6
ByLayer
 10
200.0
 20
50.0000000000000071
 30
0.0
 11
200.0
 21
215.0
 31
0.0
  0
LINE
  5
7D
100
AcDbEntity
100
AcDbLine
  8
AUX
 62
256
370
-1
  6
ByLayer
 10
143.0
 20
45.0000000000000142
 30
0.0
 11
143.0
 21
215.0
 31
0.0
  0
LINE
  5
7E
100
AcDbEntity
100
AcDbLine
  8
CONTOUR
 62
256
370
-1
  6
ByLayer
 10
31.0
 20
45.0
 30
0.0
 11
31.0
 21
156.0
 31
0.0
  0
DIMENSION
  5
7F
100
AcDbEntity
  8
0
 62
256
370
-1
  6
ByLayer
100
AcDbDimension
 10
200.0
 20
30.0
 30
0.0
 11
227.5
 21
33.125
 31
0.0
 70
0
 71
5
 72
0
 41
1.0
 42
0.0
  1

  3
Standard
100
AcDbAlignedDimension
 13
255.0
 23
45.0
 33
0.0
 14
200.0
 24
45.0
 34
0.0
 50
0.0
100
AcDbRotatedDimension
  0
DIMENSION
  5
80
100
AcDbEntity
  8
0
 62
256
370
-1
  6
ByLayer
100
AcDbDimension
 10
49.9999999999999929
 20
30.0
 30
0.0
 11
125.0
 21
33.125
 31
0.0
 70
0
 71
5
 72
0
 41
1.0
 42
0.0
  1

  3
Standard
100
AcDbAlignedDimension
 13
200.0
 23
45.0
 33
0.0
 14
50.0
 24
100.0
 34
0.0
 50
0.0
100
AcDbRotatedDimension
  0
DIMENSION
  5
81
100
AcDbEntity
  8
0
 62
256
370
-1
  6
ByLayer
100
AcDbDimension
 10
31.0
 20
20.0
 30
0.0
 11
143.0
 21
23.125
 31
0.0
 70
0
 71
5
 72
0
 41
1.0
 42
0.0
  1

  3
Standard
100
AcDbAlignedDimension
 13
255.0
 23
45.0
 33
0.0
 14
31.0
 24
45.0
 34
0.0
 50
0.0
100
AcDbRotatedDimension
  0
DIMENSION
  5
82
100
AcDbEntity
  8
0
 62
256
370
-1
  6
ByLayer
100
AcDbDimension
 10
20.0
 20
100.0
 30
0.0
 11
16.875
 21
72.5
 31
0.0
 70
0
 71
5
 72
0
 41
1.0
 42
0.0
  1

  3
Standard
100
AcDbAlignedDimension
 13
31.0
 23
45.0
 33
0.0
 14
31.0
 24
100.0
 34
0.0
 50
90.0
100
AcDbRotatedDimension
  0
DIMENSION
  5
83
100
AcDbEntity
  8
0
 62
256
370
-1
  6
ByLayer
100
AcDbDimension
 10
20.0
 20
120.0
 30
0.0
 11
16.875
 21
110.0
 31
0.0
 70
0
 71
5
 72
0
 41
1.0
 42
0.0
  1

  3
Standard
100
AcDbAlignedDimension
 13
31.0
 23
100.0
 33
0.0
 14
50.0
 24
120.0
 34
0.0
 50
90.0
100
AcDbRotatedDimension
  0
DIMENSION
  5
84
100
AcDbEntity
  8
0
 62
256
370
-1
  6
ByLayer
100
AcDbDimension
 10
20.0
 20
215.0
 30
0.0
 11
16.875
 21
189.0
 31
0.0
 70
0
 71
5
 72
0
 41
1.0
 42
0.0
  1

  3
Standard
100
AcDbAlignedDimension
 13
31.0
 23
163.0
 33
0.0
 14
31.0
 24
215.0
 34
0.0
 50
90.0
100
AcDbRotatedDimension
  0
DIMENSION
  5
85
100
AcDbEntity
  8
0
 62
256
370
-1
  6
ByLayer
100
AcDbDimension
 10
280.0
 20
215.0
 30
0.0
 11
276.875
 21
130.0
 31
0.0
 70
0
 71
5
 72
0
 41
1.0
 42
0.0
  1

  3
Standard
100
AcDbAlignedDimension
 13
255.0
 23
45.0
 33
0.0
 14
255.0
 24
215.0
 34
0.0
 50
90.0
100
AcDbRotatedDimension
  0
DIMENSION
  5
86
100
AcDbEntity
  8
0
 62
256
370
-1
  6
ByLayer
100
AcDbDimension
 10
270.0
 20
100.0
 30
0.0
 11
266.875
 21
131.5
 31
0.0
 70
0
 71
5
 72
0
 41
1.0
 42
0.0
  1

  3
Standard
100
AcDbAlignedDimension
 13
31.0
 23
163.0
 33
0.0
 14
255.0
 24
100.0
 34
0.0
 50
90.0
100
AcDbRotatedDimension
  0
LINE
  5
87
100
AcDbEntity
100
AcDbLine
  8
CONTOUR
 62
256
370
-1
  6
ByLayer
 10
394.0
 20
44.9999999999999787
 30
0.0
 11
418.0
 21
44.9999999999999716
 31
0.0
  0
LINE
  5
88
100
AcDbEntity
100
AcDbLine
  8
CONTOUR
 62
256
370
-1
  6
ByLayer
 10
370.0
 20
44.9999999999999858
 30
0.0
 11
394.0
 21
44.9999999999999787
 31
0.0
  0
LINE
  5
89
100
AcDbEntity
100
AcDbLine
  8
CONTOUR
 62
256
370
-1
  6
ByLayer
 10
370.0
 20
215.0
 30
0.0
 11
394.0
 21
215.0
 31
0.0
  0
LINE
  5
8A
100
AcDbEntity
100
AcDbLine
  8
CENTER
 62
256
370
-1
  6
ByLayer
 10
394.5915618635448823
 20
110.1417381170589493
 30
0.0
 11
331.4981538649298614
 21
200.2484629888480754
 31
0.0
  0
LINE
  5
8B
100
AcDbEntity
100
AcDbLine
  8
AUX
 62
256
370
-1
  6
ByLayer
 10
372.0
 20
107.751476676649844
 30
0.0
 11
372.0
 21
216.4004150764194492
 31
0.0
  0
LINE
  5
8C
100
AcDbEntity
100
AcDbLine
  8
CONTOUR
 62
256
370
-1
  6
ByLayer
 10
292.9997078368347729
 20
161.0838149830016732
 30
0.0
 11
370.0
 21
215.0
 31
0.0
  0
LINE
  5
8D
100
AcDbEntity
100
AcDbLine
  8
CONTOUR
 62
256
370
-1
  6
ByLayer
 10
370.0
 20
44.9999999999999858
 30
0.0
 11
370.0
 21
215.0
 31
0.0
  0
LINE
  5
8E
100
AcDbEntity
100
AcDbLine
  8
CONTOUR
 62
256
370
-1
  6
ByLayer
 10
394.0
 20
44.9999999999999787
 30
0.0
 11
394.0
 21
215.0
 31
0.0
  0
LINE
  5
8F
100
AcDbEntity
100
AcDbLine
  8
CONTOUR
 62
256
370
-1
  6
ByLayer
 10
394.0
 20
156.0
 30
0.0
 11
418.0
 21
156.0
 31
0.0
  0
LINE
  5
90
100
AcDbEntity
100
AcDbLine
  8
CONTOUR
 62
256
370
-1
  6
ByLayer
 10
418.0
 20
44.9999999999999716
 30
0.0
 11
418.0
 21
156.0
 31
0.0
  0
DIMENSION
  5
91
100
AcDbEntity
  8
0
 62
256
370
-1
  6
ByLayer
100
AcDbDimension
 10
394.0
 20
30.0
 30
0.0
 11
382.0
 21
33.125
 31
0.0
 70
0
 71
5
 72
0
 41
1.0
 42
0.0
  1

  3
Standard
100
AcDbAlignedDimension
 13
370.0
 23
44.9999999999999858
 33
0.0
 14
394.0
 24
44.9999999999999787
 34
0.0
 50
0.0
100
AcDbRotatedDimension
  0
DIMENSION
  5
92
100
AcDbEntity
  8
0
 62
256
370
-1
  6
ByLayer
100
AcDbDimension
 10
418.0
 20
30.0
 30
0.0
 11
406.0
 21
33.125
 31
0.0
 70
0
 71
5
 72
0
 41
1.0
 42
0.0
  1

  3
Standard
100
AcDbAlignedDimension
 13
394.0
 23
44.9999999999999787
 33
0.0
 14
418.0
 24
44.9999999999999716
 34
0.0
 50
0.0
100
AcDbRotatedDimension
  0
LINE
  5
93
100
AcDbEntity
100
AcDbLine
  8
CONTOUR
 62
256
370
-1
  6
ByLayer
 10
37.0
 20
70.0
 30
0.0
 11
70.0
 21
70.0
 31
0.0
  0
LINE
  5
94
100
AcDbEntity
100
AcDbLine
  8
CONTOUR
 62
256
370
-1
  6
ByLayer
 10
70.0
 20
70.0
 30
0.0
 11
70.0
 21
133.0
 31
0.0
  0
LINE
  5
95
100
AcDbEntity
100
AcDbLine
  8
CONTOUR
 62
256
370
-1
  6
ByLayer
 10
37.0
 20
70.0
 30
0.0
 11
37.0
 21
133.0
 31
0.0
  0
DIMENSION
  5
96
100
AcDbEntity
  8
0
 62
256
370
-1
  6
ByLayer
100
AcDbDimension
 10
363.4153258801517836
 20
224.4038892193076151
 30
0.0
 11
323.1227534349721395
 21
200.0056468492115584
 31
0.0
 70
1
 71
5
 72
0
 41
1.0
 42
0.0
  1

  3
Standard
100
AcDbAlignedDimension
 13
292.9997078368347729
 23
161.0838149830016732
 33
0.0
 14
370.0
 24
215.0
 34
0.0
  0
DIMENSION
  5
97
100
AcDbEntity
  8
0
 62
256
370
-1
  6
ByLayer
100
AcDbDimension
 10
370.0
 20
44.9999999999999858
 30
0.0
 11
0.0
 21
0.0
 31
0.0
 70
2
 71
5
 72
0
 41
1.0
 42
0.0
  1

  3
Standard
100
AcDb2LineAngularDimension
 13
370.0
 23
215.0
 33
0.0
 14
292.9997078368347729
 24
161.0838149830016732
 34
0.0
 15
370.0
 25
215.0
 35
0.0
 16
360.0
 26
190.0
 36
0.0
  0
LINE
  5
98
100
AcDbEntity
100
AcDbLine
  8
CONTOUR
 62
256
370
-1
  6
ByLayer
 10
292.9997078368347729
 20
161.0838149830016732
 30
0.0
 11
343.4744342357267897
 21
88.9984350855703781
 31
0.0
  0
LINE
  5
99
100
AcDbEntity
100
AcDbLine
  8
CONTOUR
 62
256
370
-1
  6
ByLayer
 10
343.4744342357268465
 20
88.9984350855703923
 30
0.0
 11
370.0
 21
107.5718361889918526
 31
0.0
  0
DIMENSION
  5
9A
100
AcDbEntity
  8
CONTOUR
 62
256
370
-1
  6
ByLayer
100
AcDbDimension
 10
362.2793376256247484
 20
118.5980847696845757
 30
0.0
 11
347.2241283798911695
 21
111.8712343563769593
 31
0.0
 70
1
 71
5
 72
0
 41
1.0
 42
0.0
  1

  3
Standard
100
AcDbAlignedDimension
 13
343.4744342357267897
 23
88.9984350855703639
 33
0.0
 14
369.9999999999999432
 24
107.57183618899181
 34
0.0
  0
DIMENSION
  5
9B
100
AcDbEntity
  8
0
 62
256
370
-1
  6
ByLayer
100
AcDbDimension
 10
20.0
 20
120.0
 30
0.0
 11
16.875
 21
126.5
 31
0.0
 70
0
 71
5
 72
0
 41
1.0
 42
0.0
  1

  3
Standard
100
AcDbAlignedDimension
 13
46.5
 23
133.0
 33
0.0
 14
50.0
 24
120.0
 34
0.0
 50
90.0
100
AcDbRotatedDimension
  0
DIMENSION
  5
9C
100
AcDbEntity
  8
0
 62
256
370
-1
  6
ByLayer
100
AcDbDimension
 10
367.177996805779344
 20
219.0302382368460883
 30
0.0
 11
349.0025295564024646
 21
210.1185596482282847
 31
0.0
 70
1
 71
5
 72
0
 41
1.0
 42
0.0
  1

  3
Standard
100
AcDbAlignedDimension
 13
337.2339182284403023
 23
192.056942545958151
 33
0.0
 14
370.0
 24
215.0
 34
0.0
  0
LINE
  5
9D
100
AcDbEntity
100
AcDbLine
  8
CENTER
 62
256
370
-1
  6
ByLayer
 10
513.8594897701747186
 20
-22.1636674177473196
 30
0.0
 11
393.4084381364551746
 21
149.858261882941008
 31
0.0
  0
LINE
  5
9E
100
AcDbEntity
100
AcDbLine
  8
CENTER
 62
256
370
-1
  6
ByLayer
 10
532.7660817715596977
 20
22.9430574540418135
 30
0.0
 11
467.2339182284403023
 21
-22.9430574540418135
 31
0.0
  0
CIRCLE
  5
9F
100
AcDbEntity
100
AcDbCircle
  8
CENTER
 62
256
370
-1
  6
ByLayer
 10
498.8863398628901678
 20
-0.7797932230079745
 30
0.0
 40
25.0
  0
CIRCLE
  5
A0
100
AcDbEntity
100
AcDbCircle
  8
CONTOUR
 62
256
370
-1
  6
ByLayer
 10
519.3651409701150214
 20
13.5596176857681652
 30
0.0
 40
3.5
  0
CIRCLE
  5
A1
100
AcDbEntity
100
AcDbCircle
  8
CONTOUR
 62
256
370
-1
  6
ByLayer
 10
476.2286451869738926
 20
9.7856633205095704
 30
0.0
 40
3.5
  0
CIRCLE
  5
A2
100
AcDbEntity
100
AcDbCircle
  8
CONTOUR
 62
256
370
-1
  6
ByLayer
 10
501.0652334315815892
 20
-25.6846606753016466
 30
0.0
 40
3.5
  0
LINE
  5
A3
100
AcDbEntity
100
AcDbLine
  8
CENTER
 62
256
370
-1
  6
ByLayer
 10
503.6200892165622918
 20
-29.333372872135385
 30
0.0
 11
383.1690375828427477
 21
142.6885564285529426
 31
0.0
  0
LINE
  5
A4
100
AcDbEntity
100
AcDbLine
  8
CENTER
 62
256
370
-1
  6
ByLayer
 10
534.3382908773995723
 20
-7.8242565089711587
 30
0.0
 11
413.8872392436800283
 21
164.1976727917171672
 31
0.0
  0
CIRCLE
  5
A5
100
AcDbEntity
100
AcDbCircle
  8
CONTOUR
 62
256
370
-1
  6
ByLayer
 10
498.8863398628901678
 20
-0.7797932230079745
 30
0.0
 40
40.0
  0
LINE
  5
A6
100
AcDbEntity
100
AcDbLine
  8
CONTOUR
 62
256
370
-1
  6
ByLayer
 10
418.0
 20
44.9999999999999716
 30
0.0
 11
424.8829172362125632
 21
35.1701754685320722
 31
0.0
  0
LINE
  5
A7
100
AcDbEntity
100
AcDbLine
  8
CONTOUR
 62
256
370
-1
  6
ByLayer
 10
409.808479557110104
 20
39.2642356364895022
 30
0.0
 11
416.6913967933226672
 21
29.4344111050216029
 31
0.0
  0
LINE
  5
A8
100
AcDbEntity
100
AcDbLine
  8
CONTOUR
 62
256
370
-1
  6
ByLayer
 10
491.7236839860091777
 20
96.6218792715941959
 30
0.0
 11
498.6066012222217978
 21
86.7920547401262894
 31
0.0
  0
LINE
  5
A9
100
AcDbEntity
100
AcDbLine
  8
CONTOUR
 62
256
370
-1
  6
ByLayer
 10
416.6913967933226672
 20
29.4344111050216206
 30
0.0
 11
498.6066012222218546
 21
86.7920547401262183
 31
0.0
  0
LINE
  5
AA
100
AcDbEntity
100
AcDbLine
  8
CONTOUR
 62
256
370
-1
  6
ByLayer
 10
409.808479557110104
 20
39.2642356364895164
 30
0.0
 11
491.7236839860092346
 21
96.6218792715941106
 31
0.0
  0
DIMENSION
  5
AB
100
AcDbEntity
  8
0
 62
256
370
-1
  6
ByLayer
100
AcDbDimension
 10
503.1920294242054297
 20
80.243384593404258
 30
0.0
 11
460.4420008461588054
 21
54.1244129142550534
 31
0.0
 70
1
 71
5
 72
1
 41
1.0
 42
0.0
  1

  3
Standard
100
AcDbAlignedDimension
 13
416.6913967933226672
 23
29.4344111050216171
 33
0.0
 14
498.6066012222218546
 24
86.7920547401262183
 34
0.0
  0
LINE
  5
AC
100
AcDbEntity
100
AcDbLine
  8
AUX
 62
256
370
-1
  6
ByLayer
 10
533.2463484522329509
 20
-8.5888428263638392
 30
0.0
 11
412.79529681851335
 21
163.4330864743244831
 31
0.0
  0
DIMENSION
  5
AD
100
AcDbEntity
  8
0
 62
256
370
-1
  6
ByLayer
100
AcDbDimension
 10
467.0531249377695531
 20
85.9448773956524263
 30
0.0
 11
439.1842283473635575
 21
70.2457865113428284
 31
0.0
 70
1
 71
5
 72
1
 41
1.0
 42
0.0
  1

  3
Standard
100
AcDbAlignedDimension
 13
418.0
 23
44.9999999999999645
 33
0.0
 14
470.1529404536178731
 24
81.5178820454253383
 34
0.0
  0
DIMENSION
  5
AE
100
AcDbEntity
  8
0
 62
256
370
-1
  6
ByLayer
100
AcDbDimension
 10
479.4092586766117847
 20
87.9992258412335673
 30
0.0
 11
455.892638588205898
 21
127.0327111821179216
 31
0.0
 70
1
 71
5
 72
1
 41
1.0
 42
0.0
  1

  3
Standard
100
AcDbAlignedDimension
 13
418.0
 23
156.0
 33
0.0
 14
470.1529404536178731
 24
81.5178820454253383
 34
0.0
  0
DIMENSION
  5
AF
100
AcDbEntity
  8
0
 62
256
370
-1
  6
ByLayer
100
AcDbDimension
 10
20.0
 20
162.0
 30
0.0
 11
16.875
 21
147.5
 31
0.0
 70
0
 71
5
 72
0
 41
1.0
 42
0.0
  1

  3
Standard
100
AcDbAlignedDimension
 13
37.0
 23
133.0
 33
0.0
 14
50.0
 24
162.0
 34
0.0
 50
90.0
100
AcDbRotatedDimension
  0
DIMENSION
  5
B0
100
AcDbEntity
  8
0
 62
256
370
-1
  6
ByLayer
100
AcDbDimension
 10
263.0
 20
156.0
 30
0.0
 11
259.875
 21
100.5
 31
0.0
 70
0
 71
5
 72
0
 41
1.0
 42
0.0
  1

  3
Standard
100
AcDbAlignedDimension
 13
255.0
 23
45.0
 33
0.0
 14
255.0
 24
156.0
 34
0.0
 50
90.0
100
AcDbRotatedDimension
  0
LINE
  5
B1
100
AcDbEntity
100
AcDbLine
  8
AUX
 62
256
370
-1
  6
ByLayer
 10
144.0
 20
45.0
 30
0.0
 11
144.0
 21
215.0
 31
0.0
  0
LINE
  5
B2
100
AcDbEntity
100
AcDbLine
  8
AUX
 62
256
370
-1
  6
ByLayer
 10
182.0
 20
45.0
 30
0.0
 11
182.0
 21
215.0
 31
0.0
  0
LINE
  5
B3
100
AcDbEntity
100
AcDbLine
  8
CONTOUR
 62
256
370
-1
  6
ByLayer
 10
144.0
 20
99.0
 30
0.0
 11
144.0
 21
107.0
 31
0.0
  0
DIMENSION
  5
B4
100
AcDbEntity
  8
0
 62
256
370
-1
  6
ByLayer
100
AcDbDimension
 10
255.0
 20
110.0
 30
0.0
 11
199.5
 21
113.125
 31
0.0
 70
0
 71
5
 72
1
 41
1.0
 42
0.0
  1

  3
Standard
100
AcDbAlignedDimension
 13
144.0
 23
100.0
 33
0.0
 14
255.0
 24
100.0
 34
0.0
 50
0.0
100
AcDbRotatedDimension
  0
ENDSEC
  0
SECTION
  2
OBJECTS
  0
DICTIONARY
  5
C
100
AcDbDictionary
280
0
281
1
  3
ACAD_GROUP
350
D
  3
ACAD_LAYOUT
350
1A
  3
ACAD_MLINESTYLE
350
17
  3
ACAD_PLOTSETTINGS
350
19
  3
ACAD_PLOTSTYLENAME
350
E
  3
AcDbVariableDictionary
350
B5
  0
DICTIONARY
  5
D
100
AcDbDictionary
280
0
281
1
  0
ACDBDICTIONARYWDFLT
  5
E
100
AcDbDictionary
281
1
  3
Normal
350
F
100
AcDbDictionaryWithDefault
340
F
  0
ACDBPLACEHOLDER
  5
F
  0
DICTIONARY
  5
17
100
AcDbDictionary
280
0
281
1
  3
Standard
350
18
  0
MLINESTYLE
  5
18
100
AcDbMlineStyle
  2
STANDARD
 70
0
  3

 62
256
 51
90.0
 52
90.0
 71
2
 49
0.5
 62
256
  6
BYLAYER
 49
-0.5
 62
256
  6
BYLAYER
  0
DICTIONARY
  5
19
100
AcDbDictionary
280
0
281
1
  0
DICTIONARY
  5
1A
100
AcDbDictionary
281
1
  3
Layout1
350
1E
  3
Layout2
350
26
  3
Model
350
22
  0
LAYOUT
  5
1E
100
AcDbPlotSettings
  1

  2
C:\Program Files\AutoCAD 2002\plotters\DWF ePlot (optimized for plotting).pc3
  4

  6

 40
0.0
 41
0.0
 42
0.0
 43
0.0
 44
0.0
 45
0.0
 46
0.0
 47
0.0
 48
0.0
 49
0.0
140
0.0
141
0.0
142
1.0
143
1.0
 70
688
 72
0
 73
0
 74
5
  7

 75
16
147
1.0
148
0.0
149
0.0
100
AcDbLayout
  1
Layout1
 70
1
 71
1
 10
0.0
 20
0.0
 11
420.0
 21
297.0
 12
0.0
 22
0.0
 32
0.0
 14
100000000000000000000.0
 24
100000000000000000000.0
 34
100000000000000000000.0
 15
-100000000000000000000.0
 25
-100000000000000000000.0
 35
-100000000000000000000.0
146
0.0
 13
0.0
 23
0.0
 33
0.0
 16
1.0
 26
0.0
 36
0.0
 17
0.0
 27
1.0
 37
0.0
 76
0
330
1B
  0
LAYOUT
  5
22
100
AcDbPlotSettings
  1

  2
C:\Program Files\AutoCAD 2002\plotters\DWF ePlot (optimized for plotting).pc3
  4

  6

 40
0.0
 41
0.0
 42
0.0
 43
0.0
 44
0.0
 45
0.0
 46
0.0
 47
0.0
 48
0.0
 49
0.0
140
0.0
141
0.0
142
1.0
143
1.0
 70
1712
 72
0
 73
0
 74
0
  7

 75
0
147
1.0
148
0.0
149
0.0
100
AcDbLayout
  1
Model
 70
1
 71
0
 10
0.0
 20
0.0
 11
12.0
 21
9.0
 12
0.0
 22
0.0
 32
0.0
 14
0.0
 24
0.0
 34
0.0
 15
0.0
 25
0.0
 35
0.0
146
0.0
 13
0.0
 23
0.0
 33
0.0
 16
1.0
 26
0.0
 36
0.0
 17
0.0
 27
1.0
 37
0.0
 76
0
330
1F
  0
LAYOUT
  5
26
100
AcDbPlotSettings
  1

  2
C:\Program Files\AutoCAD 2002\plotters\DWF ePlot (optimized for plotting).pc3
  4

  6

 40
0.0
 41
0.0
 42
0.0
 43
0.0
 44
0.0
 45
0.0
 46
0.0
 47
0.0
 48
0.0
 49
0.0
140
0.0
141
0.0
142
1.0
143
1.0
 70
688
 72
0
 73
0
 74
5
  7

 75
16
147
1.0
148
0.0
149
0.0
100
AcDbLayout
  1
Layout2
 70
1
 71
2
 10
0.0
 20
0.0
 11
12.0
 21
9.0
 12
0.0
 22
0.0
 32
0.0
 14
0.0
 24
0.0
 34
0.0
 15
0.0
 25
0.0
 35
0.0
146
0.0
 13
0.0
 23
0.0
 33
0.0
 16
1.0
 26
0.0
 36
0.0
 17
0.0
 27
1.0
 37
0.0
 76
0
330
23
  0
DICTIONARY
  5
B5
100
AcDbDictionary
281
1
  3
DIMASSOC
350
B7
  3
HIDETEXT
350
B6
  0
DICTIONARYVAR
  5
B6
100
DictionaryVariables
280
0
  1
2
  0
DICTIONARYVAR
  5
B7
100
DictionaryVariables
280
0
  1
1
  0
ENDSEC
  0
EOF
