999
dxflib 2.0.4.8
  0
SECTION
  2
HEADER
  9
$ACADVER
  1
AC1015
  9
$HANDSEED
  5
FFFF
  9
$DIMADEC
 70
1
  9
$DIMASZ
 40
2.5
  9
$GRIDUNIT
 10
0.0
 20
0.0
  9
$DIMGAP
 40
0.625
  9
$SPLINESEGS
 70
8
  9
$AUPREC
 70
1
  9
$LUNITS
 70
2
  9
$INSUNITS
 70
4
  9
$DIMEXO
 40
0.625
  9
$DIMLUNIT
 70
2
  9
$GRIDMODE
 70
1
  9
$DIMTXT
 40
2.5
  9
$LUPREC
 70
1
  9
$DIMSTYLE
  2
Standard
  9
$PLIMMIN
 10
0.0
 20
0.0
  9
$PLIMMAX
 10
210.0
 20
297.0
  9
$DIMEXE
 40
1.25
  9
$DIMAUNIT
 70
0
  9
$AUNITS
 70
0
  0
ENDSEC
  0
SECTION
  2
TABLES
  0
TABLE
  2
VPORT
  5
8
100
AcDbSymbolTable
 70
1
  0
VPORT
  5
30
100
AcDbSymbolTableRecord
100
AcDbViewportTableRecord
  2
*Active
 70
0
 10
0.0
 20
0.0
 11
1.0
 21
1.0
 12
286.30555555555549
 22
148.5
 13
0.0
 23
0.0
 14
10.0
 24
10.0
 15
10.0
 25
10.0
 16
0.0
 26
0.0
 36
1.0
 17
0.0
 27
0.0
 37
0.0
 40
297.0
 41
1.92798353909465
 42
50.0
 43
0.0
 44
0.0
 50
0.0
 51
0.0
 71
0
 72
100
 73
1
 74
3
 75
1
 76
1
 77
0
 78
0
281
0
 65
1
110
0.0
120
0.0
130
0.0
111
1.0
121
0.0
131
0.0
112
0.0
122
1.0
132
0.0
 79
0
146
0.0
  0
ENDTAB
  0
TABLE
  2
LTYPE
  5
5
100
AcDbSymbolTable
 70
21
  0
LTYPE
  5
14
100
AcDbSymbolTableRecord
100
AcDbLinetypeTableRecord
  2
ByBlock
 70
0
  3

 72
65
 73
0
 40
0.0
  0
LTYPE
  5
15
100
AcDbSymbolTableRecord
100
AcDbLinetypeTableRecord
  2
ByLayer
 70
0
  3

 72
65
 73
0
 40
0.0
  0
LTYPE
  5
16
100
AcDbSymbolTableRecord
100
AcDbLinetypeTableRecord
  2
CONTINUOUS
 70
0
  3
Solid line
 72
65
 73
0
 40
0.0
  0
LTYPE
  5
31
100
AcDbSymbolTableRecord
100
AcDbLinetypeTableRecord
  2
DOT
 70
0
  3
Dot . . . . . . . . . . . . . . . . . . . . . .
 72
65
 73
2
 40
6.3499999999999996
 49
0.0
 74
0
 49
-6.3499999999999996
 74
0
  0
LTYPE
  5
32
100
AcDbSymbolTableRecord
100
AcDbLinetypeTableRecord
  2
DOT2
 70
0
  3
Dot (.5x) .....................................
 72
65
 73
2
 40
3.1749999999999998
 49
0.0
 74
0
 49
-3.1749999999999998
 74
0
  0
LTYPE
  5
33
100
AcDbSymbolTableRecord
100
AcDbLinetypeTableRecord
  2
DOTX2
 70
0
  3
Dot (2x) .  .  .  .  .  .  .  .  .  .  .  .  .
 72
65
 73
2
 40
12.699999999999999
 49
0.0
 74
0
 49
-12.699999999999999
 74
0
  0
LTYPE
  5
34
100
AcDbSymbolTableRecord
100
AcDbLinetypeTableRecord
  2
DASHED
 70
0
  3
Dashed __ __ __ __ __ __ __ __ __ __ __ __ __ _
 72
65
 73
2
 40
19.050000000000001
 49
12.699999999999999
 74
0
 49
-6.3499999999999996
 74
0
  0
LTYPE
  5
35
100
AcDbSymbolTableRecord
100
AcDbLinetypeTableRecord
  2
DASHED2
 70
0
  3
Dashed (.5x) _ _ _ _ _ _ _ _ _ _ _ _ _ _ _ _ _
 72
65
 73
2
 40
9.5250000000000004
 49
6.3499999999999996
 74
0
 49
-3.1749999999999998
 74
0
  0
LTYPE
  5
36
100
AcDbSymbolTableRecord
100
AcDbLinetypeTableRecord
  2
DASHEDX2
 70
0
  3
Dashed (2x) ____  ____  ____  ____  ____  ___
 72
65
 73
2
 40
38.100000000000001
 49
25.399999999999999
 74
0
 49
-12.699999999999999
 74
0
  0
LTYPE
  5
37
100
AcDbSymbolTableRecord
100
AcDbLinetypeTableRecord
  2
DASHDOT
 70
0
  3
Dash dot __ . __ . __ . __ . __ . __ . __ . __
 72
65
 73
4
 40
25.399999999999999
 49
12.699999999999999
 74
0
 49
-6.3499999999999996
 74
0
 49
0.0
 74
0
 49
-6.3499999999999996
 74
0
  0
LTYPE
  5
38
100
AcDbSymbolTableRecord
100
AcDbLinetypeTableRecord
  2
DASHDOT2
 70
0
  3
Dash dot (.5x) _._._._._._._._._._._._._._._.
 72
65
 73
4
 40
12.699999999999999
 49
6.3499999999999996
 74
0
 49
-3.1749999999999998
 74
0
 49
0.0
 74
0
 49
-3.1749999999999998
 74
0
  0
LTYPE
  5
39
100
AcDbSymbolTableRecord
100
AcDbLinetypeTableRecord
  2
DASHDOTX2
 70
0
  3
Dash dot (2x) ____  .  ____  .  ____  .  ___
 72
65
 73
4
 40
50.799999999999997
 49
25.399999999999999
 74
0
 49
-12.699999999999999
 74
0
 49
0.0
 74
0
 49
-12.699999999999999
 74
0
  0
LTYPE
  5
3A
100
AcDbSymbolTableRecord
100
AcDbLinetypeTableRecord
  2
DIVIDE
 70
0
  3
Divide ____ . . ____ . . ____ . . ____ . . ____
 72
65
 73
6
 40
31.75
 49
12.699999999999999
 74
0
 49
-6.3499999999999996
 74
0
 49
0.0
 74
0
 49
-6.3499999999999996
 74
0
 49
0.0
 74
0
 49
-6.3499999999999996
 74
0
  0
LTYPE
  5
3B
100
AcDbSymbolTableRecord
100
AcDbLinetypeTableRecord
  2
DIVIDE2
 70
0
  3
Divide (.5x) __..__..__..__..__..__..__..__.._
 72
65
 73
6
 40
15.875
 49
6.3499999999999996
 74
0
 49
-3.1749999999999998
 74
0
 49
0.0
 74
0
 49
-3.1749999999999998
 74
0
 49
0.0
 74
0
 49
-3.1749999999999998
 74
0
  0
LTYPE
  5
3C
100
AcDbSymbolTableRecord
100
AcDbLinetypeTableRecord
  2
DIVIDEX2
 70
0
  3
Divide (2x) ________  .  .  ________  .  .  _
 72
65
 73
6
 40
63.5
 49
25.399999999999999
 74
0
 49
-12.699999999999999
 74
0
 49
0.0
 74
0
 49
-12.699999999999999
 74
0
 49
0.0
 74
0
 49
-12.699999999999999
 74
0
  0
LTYPE
  5
3D
100
AcDbSymbolTableRecord
100
AcDbLinetypeTableRecord
  2
CENTER
 70
0
  3
Center ____ _ ____ _ ____ _ ____ _ ____ _ ____
 72
65
 73
4
 40
50.799999999999997
 49
31.75
 74
0
 49
-6.3499999999999996
 74
0
 49
6.3499999999999996
 74
0
 49
-6.3499999999999996
 74
0
  0
LTYPE
  5
3E
100
AcDbSymbolTableRecord
100
AcDbLinetypeTableRecord
  2
CENTER2
 70
0
  3
Center (.5x) ___ _ ___ _ ___ _ ___ _ ___ _ ___
 72
65
 73
4
 40
28.574999999999999
 49
19.050000000000001
 74
0
 49
-3.1749999999999998
 74
0
 49
3.1749999999999998
 74
0
 49
-3.1749999999999998
 74
0
  0
LTYPE
  5
3F
100
AcDbSymbolTableRecord
100
AcDbLinetypeTableRecord
  2
CENTERX2
 70
0
  3
Center (2x) ________  __  ________  __  _____
 72
65
 73
4
 40
101.59999999999999
 49
63.5
 74
0
 49
-12.699999999999999
 74
0
 49
12.699999999999999
 74
0
 49
-12.699999999999999
 74
0
  0
LTYPE
  5
40
100
AcDbSymbolTableRecord
100
AcDbLinetypeTableRecord
  2
BORDER
 70
0
  3
Border __ __ . __ __ . __ __ . __ __ . __ __ .
 72
65
 73
6
 40
44.450000000000003
 49
12.699999999999999
 74
0
 49
-6.3499999999999996
 74
0
 49
12.699999999999999
 74
0
 49
-6.3499999999999996
 74
0
 49
0.0
 74
0
 49
-6.3499999999999996
 74
0
  0
LTYPE
  5
41
100
AcDbSymbolTableRecord
100
AcDbLinetypeTableRecord
  2
BORDER2
 70
0
  3
Border (.5x) __.__.__.__.__.__.__.__.__.__.__.
 72
65
 73
6
 40
22.225000000000001
 49
6.3499999999999996
 74
0
 49
-3.1749999999999998
 74
0
 49
6.3499999999999996
 74
0
 49
-3.1749999999999998
 74
0
 49
0.0
 74
0
 49
-3.1749999999999998
 74
0
  0
LTYPE
  5
42
100
AcDbSymbolTableRecord
100
AcDbLinetypeTableRecord
  2
BORDERX2
 70
0
  3
Border (2x) ____  ____  .  ____  ____  .  ___
 72
65
 73
6
 40
88.900000000000006
 49
25.399999999999999
 74
0
 49
-12.699999999999999
 74
0
 49
25.399999999999999
 74
0
 49
-12.699999999999999
 74
0
 49
0.0
 74
0
 49
-12.699999999999999
 74
0
  0
ENDTAB
  0
TABLE
  2
LAYER
  5
2
100
AcDbSymbolTable
 70
5
  0
LAYER
  5
10
100
AcDbSymbolTableRecord
100
AcDbLayerTableRecord
  2
0
 70
0
 62
1
  6
CONTINUOUS
370
0
390
F
  0
LAYER
  5
43
100
AcDbSymbolTableRecord
100
AcDbLayerTableRecord
  2
CONTOUR
 70
0
 62
7
  6
CONTINUOUS
370
35
390
F
  0
LAYER
  5
44
100
AcDbSymbolTableRecord
100
AcDbLayerTableRecord
  2
CENTER
 70
0
 62
7
  6
CENTER
370
18
390
F
  0
LAYER
  5
45
100
AcDbSymbolTableRecord
100
AcDbLayerTableRecord
  2
AUX
 70
0
 62
1
  6
CONTINUOUS
370
13
390
F
  0
LAYER
  5
46
100
AcDbSymbolTableRecord
100
AcDbLayerTableRecord
  2
TEXT
 70
0
 62
7
  6
CONTINUOUS
370
18
390
F
  0
ENDTAB
  0
TABLE
  2
STYLE
  5
3
100
AcDbSymbolTable
 70
1
  0
STYLE
  5
11
100
AcDbSymbolTableRecord
100
AcDbTextStyleTableRecord
  2
Standard
 70
0
 40
0.0
 41
0.75
 50
0.0
 71
0
 42
2.5
  3
txt
  4

  0
ENDTAB
  0
TABLE
  2
VIEW
  5
6
100
AcDbSymbolTable
 70
0
  0
ENDTAB
  0
TABLE
  2
UCS
  5
7
100
AcDbSymbolTable
 70
0
  0
ENDTAB
  0
TABLE
  2
APPID
  5
9
100
AcDbSymbolTable
 70
1
  0
APPID
  5
12
100
AcDbSymbolTableRecord
100
AcDbRegAppTableRecord
  2
ACAD
 70
0
  0
ENDTAB
  0
TABLE
  2
DIMSTYLE
  5
A
100
AcDbSymbolTable
 70
1
100
AcDbDimStyleTable
 71
0
  0
DIMSTYLE
105
27
100
AcDbSymbolTableRecord
100
AcDbDimStyleTableRecord
  2
Standard
 41
2.5
 42
0.625
 43
3.75
 44
1.25
 70
0
 73
0
 74
0
 77
1
 78
8
140
2.5
141
2.5
143
0.03937007874016
147
0.625
171
3
172
1
271
2
272
2
274
3
278
44
283
0
284
8
340
11
  0
ENDTAB
  0
TABLE
  2
BLOCK_RECORD
  5
1
100
AcDbSymbolTable
 70
1
  0
BLOCK_RECORD
  5
1F
100
AcDbSymbolTableRecord
100
AcDbBlockTableRecord
  2
*Model_Space
340
22
  0
BLOCK_RECORD
  5
1B
100
AcDbSymbolTableRecord
100
AcDbBlockTableRecord
  2
*Paper_Space
340
1E
  0
BLOCK_RECORD
  5
23
100
AcDbSymbolTableRecord
100
AcDbBlockTableRecord
  2
*Paper_Space0
340
26
  0
BLOCK_RECORD
  5
47
100
AcDbSymbolTableRecord
100
AcDbBlockTableRecord
  2
Base Bottom
340
0
  0
BLOCK_RECORD
  5
48
100
AcDbSymbolTableRecord
100
AcDbBlockTableRecord
  2
Base Front
340
0
  0
BLOCK_RECORD
  5
49
100
AcDbSymbolTableRecord
100
AcDbBlockTableRecord
  2
Base Top
340
0
  0
BLOCK_RECORD
  5
4A
100
AcDbSymbolTableRecord
100
AcDbBlockTableRecord
  2
Movement Bottom
340
0
  0
BLOCK_RECORD
  5
4B
100
AcDbSymbolTableRecord
100
AcDbBlockTableRecord
  2
Movement Side
340
0
  0
BLOCK_RECORD
  5
4C
100
AcDbSymbolTableRecord
100
AcDbBlockTableRecord
  2
Movement Top
340
0
  0
BLOCK_RECORD
  5
4D
100
AcDbSymbolTableRecord
100
AcDbBlockTableRecord
  2
Warm Wheel Bottom
340
0
  0
BLOCK_RECORD
  5
4E
100
AcDbSymbolTableRecord
100
AcDbBlockTableRecord
  2
Warm Wheel Side
340
0
  0
BLOCK_RECORD
  5
4F
100
AcDbSymbolTableRecord
100
AcDbBlockTableRecord
  2
Warm Wheel Top
340
0
  0
BLOCK_RECORD
  5
50
100
AcDbSymbolTableRecord
100
AcDbBlockTableRecord
  2
51107 Side
340
0
  0
BLOCK_RECORD
  5
51
100
AcDbSymbolTableRecord
100
AcDbBlockTableRecord
  2
51108 Side
340
0
  0
BLOCK_RECORD
  5
52
100
AcDbSymbolTableRecord
100
AcDbBlockTableRecord
  2
Washer 6.5x13.0x1.0 Face
340
0
  0
BLOCK_RECORD
  5
53
100
AcDbSymbolTableRecord
100
AcDbBlockTableRecord
  2
Washer 6.5x13.0x1.0 Side
340
0
  0
BLOCK_RECORD
  5
54
100
AcDbSymbolTableRecord
100
AcDbBlockTableRecord
  2
Washer 35.0x52.0x1.0 Face
340
0
  0
BLOCK_RECORD
  5
55
100
AcDbSymbolTableRecord
100
AcDbBlockTableRecord
  2
Washer 35.0x52.0x1.0 Side
340
0
  0
ENDTAB
  0
ENDSEC
  0
SECTION
  2
BLOCKS
  0
BLOCK
  5
20
100
AcDbEntity
  8
0
100
AcDbBlockBegin
  2
*Model_Space
 70
0
 10
0.0
 20
0.0
 30
0.0
  3
*Model_Space
  1

  0
ENDBLK
  5
21
100
AcDbEntity
  8
0
100
AcDbBlockEnd
  0
BLOCK
  5
1C
100
AcDbEntity
 67
1
  8
0
100
AcDbBlockBegin
  2
*Paper_Space
 70
0
 10
0.0
 20
0.0
 30
0.0
  3
*Paper_Space
  1

  0
ENDBLK
  5
1D
100
AcDbEntity
 67
1
  8
0
100
AcDbBlockEnd
  0
BLOCK
  5
24
100
AcDbEntity
  8
0
100
AcDbBlockBegin
  2
*Paper_Space0
 70
0
 10
0.0
 20
0.0
 30
0.0
  3
*Paper_Space0
  1

  0
ENDBLK
  5
25
100
AcDbEntity
  8
0
100
AcDbBlockEnd
  0
BLOCK
  5
56
100
AcDbEntity
  8
0
100
AcDbBlockBegin
  2
Base Bottom
 70
0
 10
0.0
 20
0.0
 30
0.0
  3
Base Bottom
  1

  0
CIRCLE
  5
57
100
AcDbEntity
100
AcDbCircle
  8
CONTOUR
 62
256
370
-1
  6
ByLayer
 10
0.0
 20
0.0
 30
0.0
 40
39.0
  0
LINE
  5
58
100
AcDbEntity
100
AcDbLine
  8
CENTER
 62
256
370
-1
  6
ByLayer
 10
38.10511776651532
 20
21.999999999999968
 30
0.0
 11
-38.105117766515306
 21
-21.999999999999989
 31
0.0
  0
LINE
  5
59
100
AcDbEntity
100
AcDbLine
  8
CENTER
 62
256
370
-1
  6
ByLayer
 10
-0.0000000000000081
 20
-44.0
 30
0.0
 11
0.0000000000000135
 21
44.0
 31
0.0
  0
LINE
  5
5A
100
AcDbEntity
100
AcDbLine
  8
CENTER
 62
256
370
-1
  6
ByLayer
 10
-38.105117766515292
 20
22.000000000000014
 30
0.0
 11
38.105117766515271
 21
-22.000000000000053
 31
0.0
  0
CIRCLE
  5
5B
100
AcDbEntity
100
AcDbCircle
  8
CENTER
 62
256
370
-1
  6
ByLayer
 10
0.0
 20
0.0
 30
0.0
 40
25.0
  0
CIRCLE
  5
5C
100
AcDbEntity
100
AcDbCircle
  8
CONTOUR
 62
256
370
-1
  6
ByLayer
 10
-0.0000000000000046
 20
-25.000000000000004
 30
0.0
 40
3.1720000000000002
  0
CIRCLE
  5
5D
100
AcDbEntity
100
AcDbCircle
  8
CONTOUR
 62
256
370
-1
  6
ByLayer
 10
-21.650635094610962
 20
12.500000000000009
 30
0.0
 40
3.1720000000000002
  0
CIRCLE
  5
5E
100
AcDbEntity
100
AcDbCircle
  8
CONTOUR
 62
256
370
-1
  6
ByLayer
 10
21.650635094610976
 20
12.499999999999982
 30
0.0
 40
3.1720000000000002
  0
CIRCLE
  5
5F
100
AcDbEntity
100
AcDbCircle
  8
CONTOUR
 62
256
370
-1
  6
ByLayer
 10
-21.650635094610969
 20
-12.499999999999993
 30
0.0
 40
4.7625000000000002
  0
LINE
  5
60
100
AcDbEntity
100
AcDbLine
  8
CONTOUR
 62
256
370
-1
  6
ByLayer
 10
-18.962494864419838
 20
-2.2877474766352992
 30
0.0
 11
-33.356798205817519
 21
-10.59830238558837
 31
0.0
  0
LINE
  5
61
100
AcDbEntity
100
AcDbLine
  8
CONTOUR
 62
256
370
-1
  6
ByLayer
 10
-11.462494864419844
 20
-15.27812853340188
 30
0.0
 11
-25.856798205817533
 21
-23.588683442354963
 31
0.0
  0
LINE
  5
62
100
AcDbEntity
100
AcDbLine
  8
CONTOUR
 62
256
370
-1
  6
ByLayer
 10
33.356798205817533
 20
10.598302385588386
 30
0.0
 11
18.962494864419838
 21
2.2877474766352797
 31
0.0
  0
LINE
  5
63
100
AcDbEntity
100
AcDbLine
  8
CONTOUR
 62
256
370
-1
  6
ByLayer
 10
25.856798205817526
 20
23.588683442354974
 30
0.0
 11
11.462494864419844
 21
15.278128533401874
 31
0.0
  0
LINE
  5
64
100
AcDbEntity
100
AcDbLine
  8
CONTOUR
 62
256
370
-1
  6
ByLayer
 10
-7.4999999999999805
 20
-34.18698582794336
 30
0.0
 11
-7.4999999999999964
 21
-17.565876010037194
 31
0.0
  0
LINE
  5
65
100
AcDbEntity
100
AcDbLine
  8
CONTOUR
 62
256
370
-1
  6
ByLayer
 10
7.5000000000000275
 20
-34.186985827943353
 30
0.0
 11
7.500000000000008
 21
-17.565876010037197
 31
0.0
  0
LINE
  5
66
100
AcDbEntity
100
AcDbLine
  8
CONTOUR
 62
256
370
-1
  6
ByLayer
 10
-33.356798205817533
 20
10.598302385588401
 30
0.0
 11
-18.962494864419838
 21
2.2877474766353125
 31
0.0
  0
LINE
  5
67
100
AcDbEntity
100
AcDbLine
  8
CONTOUR
 62
256
370
-1
  6
ByLayer
 10
-25.856798205817501
 20
23.588683442354988
 30
0.0
 11
-11.462494864419831
 21
15.278128533401897
 31
0.0
  0
ARC
  5
68
100
AcDbEntity
  8
CONTOUR
 62
7
370
35
  6
CONTINUOUS
100
AcDbCircle
 10
0.0
 20
0.0
 30
0.0
 40
19.100000000000001
100
AcDbArc
 50
186.87925327122142
 51
233.12074672877856
  0
ARC
  5
69
100
AcDbEntity
  8
CONTOUR
 62
7
370
35
  6
CONTINUOUS
100
AcDbCircle
 10
0.0
 20
0.0
 30
0.0
 40
19.100000000000001
100
AcDbArc
 50
246.87925327122142
 51
293.12074672877861
  0
ARC
  5
6A
100
AcDbEntity
  8
CONTOUR
 62
7
370
35
  6
CONTINUOUS
100
AcDbCircle
 10
0.0
 20
0.0
 30
0.0
 40
19.100000000000001
100
AcDbArc
 50
6.8792532712213701
 51
53.120746728778563
  0
ARC
  5
6B
100
AcDbEntity
  8
CONTOUR
 62
7
370
35
  6
CONTINUOUS
100
AcDbCircle
 10
0.0
 20
0.0
 30
0.0
 40
19.100000000000001
100
AcDbArc
 50
126.87925327122139
 51
173.12074672877853
  0
ARC
  5
6C
100
AcDbEntity
  8
CONTOUR
 62
7
370
35
  6
CONTINUOUS
100
AcDbCircle
 10
0.0
 20
0.0
 30
0.0
 40
35.0
100
AcDbArc
 50
222.37362511618855
 51
257.62637488381148
  0
ARC
  5
6D
100
AcDbEntity
  8
CONTOUR
 62
7
370
35
  6
CONTINUOUS
100
AcDbCircle
 10
0.0
 20
0.0
 30
0.0
 40
35.0
100
AcDbArc
 50
282.37362511618863
 51
17.626374883811451
  0
ARC
  5
6E
100
AcDbEntity
  8
CONTOUR
 62
7
370
35
  6
CONTINUOUS
100
AcDbCircle
 10
0.0
 20
0.0
 30
0.0
 40
35.0
100
AcDbArc
 50
42.373625116188585
 51
137.62637488381139
  0
ARC
  5
6F
100
AcDbEntity
  8
CONTOUR
 62
7
370
35
  6
CONTINUOUS
100
AcDbCircle
 10
0.0
 20
0.0
 30
0.0
 40
35.0
100
AcDbArc
 50
162.37362511618855
 51
197.62637488381145
  0
CIRCLE
  5
70
100
AcDbEntity
100
AcDbCircle
  8
CONTOUR
 62
256
370
-1
  6
ByLayer
 10
0.0
 20
0.0
 30
0.0
 40
12.5
  0
LINE
  5
71
100
AcDbEntity
100
AcDbLine
  8
CONTOUR
 62
256
370
-1
  6
DASHED2
 10
-3.999999999999984
 20
11.842719282327037
 30
0.0
 11
-3.9999999999999498
 21
38.794329482541649
 31
0.0
  0
LINE
  5
72
100
AcDbEntity
100
AcDbLine
  8
CONTOUR
 62
256
370
-1
  6
DASHED2
 10
4.0000000000000044
 20
11.842719282327002
 30
0.0
 11
4.0000000000000435
 21
38.794329482541642
 31
0.0
  0
CIRCLE
  5
73
100
AcDbEntity
100
AcDbCircle
  8
CONTOUR
 62
256
370
-1
  6
ByLayer
 10
0.0000000000000027
 20
-0.0000000000000132
 30
0.0
 40
19.0
  0
ENDBLK
  5
74
100
AcDbEntity
  8
0
100
AcDbBlockEnd
  0
BLOCK
  5
75
100
AcDbEntity
  8
0
100
AcDbBlockBegin
  2
Base Front
 70
0
 10
0.0
 20
0.0
 30
0.0
  3
Base Front
  1

  0
LINE
  5
76
100
AcDbEntity
100
AcDbLine
  8
CONTOUR
 62
256
370
-1
  6
ByLayer
 10
-39.0
 20
0.0
 30
0.0
 11
39.0
 21
0.0
 31
0.0
  0
LINE
  5
77
100
AcDbEntity
100
AcDbLine
  8
CONTOUR
 62
256
370
-1
  6
ByLayer
 10
-39.0
 20
28.0
 30
0.0
 11
39.0
 21
28.0
 31
0.0
  0
LINE
  5
78
100
AcDbEntity
100
AcDbLine
  8
CONTOUR
 62
256
370
-1
  6
ByLayer
 10
-39.0
 20
28.0
 30
0.0
 11
-39.0
 21
0.0
 31
0.0
  0
LINE
  5
79
100
AcDbEntity
100
AcDbLine
  8
CONTOUR
 62
256
370
-1
  6
ByLayer
 10
39.0
 20
28.0
 30
0.0
 11
39.0
 21
0.0
 31
0.0
  0
LINE
  5
7A
100
AcDbEntity
100
AcDbLine
  8
CENTER
 62
256
370
-1
  6
ByLayer
 10
-0.000000000000001
 20
-2.0
 30
0.0
 11
0.000000000000001
 21
30.0
 31
0.0
  0
LINE
  5
7B
100
AcDbEntity
100
AcDbLine
  8
CONTOUR
 62
256
370
-1
  6
DASHED2
 10
-37.5
 20
25.0
 30
0.0
 11
37.5
 21
25.0
 31
0.0
  0
LINE
  5
7C
100
AcDbEntity
100
AcDbLine
  8
CONTOUR
 62
256
370
-1
  6
DASHED2
 10
-34.5
 20
15.0
 30
0.0
 11
34.5
 21
15.0
 31
0.0
  0
LINE
  5
7D
100
AcDbEntity
100
AcDbLine
  8
CONTOUR
 62
256
370
-1
  6
DASHED2
 10
-35.0
 20
11.0
 30
0.0
 11
35.0
 21
11.0
 31
0.0
  0
LINE
  5
7E
100
AcDbEntity
100
AcDbLine
  8
CENTER
 62
256
370
-1
  6
ByLayer
 10
-39.0
 20
18.0
 30
0.0
 11
39.0
 21
18.0
 31
0.0
  0
CIRCLE
  5
7F
100
AcDbEntity
100
AcDbCircle
  8
CONTOUR
 62
256
370
-1
  6
ByLayer
 10
0.0000000000000002
 20
18.0
 30
0.0
 40
4.0
  0
LINE
  5
80
100
AcDbEntity
100
AcDbLine
  8
CONTOUR
 62
256
370
-1
  6
DASHED2
 10
-37.5
 20
25.0
 30
0.0
 11
-37.5
 21
28.0
 31
0.0
  0
LINE
  5
81
100
AcDbEntity
100
AcDbLine
  8
CONTOUR
 62
256
370
-1
  6
DASHED2
 10
37.5
 20
25.0
 30
0.0
 11
37.5
 21
28.0
 31
0.0
  0
LINE
  5
82
100
AcDbEntity
100
AcDbLine
  8
CONTOUR
 62
256
370
-1
  6
DASHED2
 10
34.5
 20
15.0
 30
0.0
 11
34.5
 21
25.0
 31
0.0
  0
LINE
  5
83
100
AcDbEntity
100
AcDbLine
  8
CONTOUR
 62
256
370
-1
  6
DASHED2
 10
-34.5
 20
15.0
 30
0.0
 11
-34.5
 21
25.0
 31
0.0
  0
LINE
  5
84
100
AcDbEntity
100
AcDbLine
  8
CONTOUR
 62
256
370
-1
  6
DASHED2
 10
35.0
 20
0.0
 30
0.0
 11
35.0
 21
11.0
 31
0.0
  0
LINE
  5
85
100
AcDbEntity
100
AcDbLine
  8
CONTOUR
 62
256
370
-1
  6
DASHED2
 10
-35.0
 20
0.0
 30
0.0
 11
-35.0
 21
11.0
 31
0.0
  0
LINE
  5
86
100
AcDbEntity
100
AcDbLine
  8
CONTOUR
 62
256
370
-1
  6
DASHED2
 10
-18.962494864419853
 20
11.0
 30
0.0
 11
-18.962494864419853
 21
0.0
 31
0.0
  0
LINE
  5
87
100
AcDbEntity
100
AcDbLine
  8
CONTOUR
 62
256
370
-1
  6
DASHED2
 10
-11.462494864419853
 20
11.0
 30
0.0
 11
-11.462494864419853
 21
0.0
 31
0.0
  0
LINE
  5
88
100
AcDbEntity
100
AcDbLine
  8
CONTOUR
 62
256
370
-1
  6
DASHED2
 10
11.462494864419853
 20
11.0
 30
0.0
 11
11.462494864419853
 21
0.0
 31
0.0
  0
LINE
  5
89
100
AcDbEntity
100
AcDbLine
  8
CONTOUR
 62
256
370
-1
  6
DASHED2
 10
18.962494864419796
 20
11.0
 30
0.0
 11
18.962494864419796
 21
0.0
 31
0.0
  0
LINE
  5
8A
100
AcDbEntity
100
AcDbLine
  8
CONTOUR
 62
256
370
-1
  6
DASHED2
 10
-18.962494864419853
 20
10.0
 30
0.0
 11
18.962494864419796
 21
10.0
 31
0.0
  0
LINE
  5
8B
100
AcDbEntity
100
AcDbLine
  8
AUX
 62
256
370
-1
  6
ByLayer
 10
-18.962494864419853
 20
8.0
 30
0.0
 11
18.962494864419796
 21
8.0
 31
0.0
  0
LINE
  5
8C
100
AcDbEntity
100
AcDbLine
  8
AUX
 62
256
370
-1
  6
ByLayer
 10
-18.962494864419853
 20
10.0
 30
0.0
 11
18.962494864419796
 21
10.0
 31
0.0
  0
LINE
  5
8D
100
AcDbEntity
100
AcDbLine
  8
AUX
 62
256
370
-1
  6
ByLayer
 10
-18.962494864419853
 20
10.0
 30
0.0
 11
-18.962494864419853
 21
8.0
 31
0.0
  0
LINE
  5
8E
100
AcDbEntity
100
AcDbLine
  8
AUX
 62
256
370
-1
  6
ByLayer
 10
18.962494864419796
 20
10.0
 30
0.0
 11
18.962494864419796
 21
8.0
 31
0.0
  0
LINE
  5
8F
100
AcDbEntity
100
AcDbLine
  8
AUX
 62
256
370
-1
  6
ByLayer
 10
3.0
 20
8.0
 30
0.0
 11
3.0
 21
10.0
 31
0.0
  0
LINE
  5
90
100
AcDbEntity
100
AcDbLine
  8
AUX
 62
256
370
-1
  6
ByLayer
 10
-3.0
 20
8.0
 30
0.0
 11
-3.0
 21
10.0
 31
0.0
  0
LINE
  5
91
100
AcDbEntity
100
AcDbLine
  8
CONTOUR
 62
256
370
-1
  6
DASHED2
 10
-18.0
 20
15.0
 30
0.0
 11
-18.0
 21
25.0
 31
0.0
  0
LINE
  5
92
100
AcDbEntity
100
AcDbLine
  8
CONTOUR
 62
256
370
-1
  6
DASHED2
 10
-12.5
 20
11.0
 30
0.0
 11
-12.5
 21
25.0
 31
0.0
  0
LINE
  5
93
100
AcDbEntity
100
AcDbLine
  8
CONTOUR
 62
256
370
-1
  6
DASHED2
 10
-7.7999999999999998
 20
15.0
 30
0.0
 11
-7.7999999999999989
 21
25.0
 31
0.0
  0
LINE
  5
94
100
AcDbEntity
100
AcDbLine
  8
CONTOUR
 62
256
370
-1
  6
DASHED2
 10
7.7999999999999998
 20
15.0
 30
0.0
 11
7.8000000000000007
 21
25.0
 31
0.0
  0
LINE
  5
95
100
AcDbEntity
100
AcDbLine
  8
CONTOUR
 62
256
370
-1
  6
DASHED2
 10
12.5
 20
11.0
 30
0.0
 11
12.5
 21
25.0
 31
0.0
  0
LINE
  5
96
100
AcDbEntity
100
AcDbLine
  8
CONTOUR
 62
256
370
-1
  6
DASHED2
 10
18.0
 20
15.0
 30
0.0
 11
18.0
 21
25.0
 31
0.0
  0
LINE
  5
97
100
AcDbEntity
100
AcDbLine
  8
AUX
 62
256
370
-1
  6
ByLayer
 10
-35.0
 20
0.0
 30
0.0
 11
-35.0
 21
-2.0
 31
0.0
  0
LINE
  5
98
100
AcDbEntity
100
AcDbLine
  8
AUX
 62
256
370
-1
  6
ByLayer
 10
35.0
 20
0.0
 30
0.0
 11
35.0
 21
-2.0
 31
0.0
  0
LINE
  5
99
100
AcDbEntity
100
AcDbLine
  8
AUX
 62
256
370
-1
  6
ByLayer
 10
-51.5
 20
-8.0
 30
0.0
 11
51.5
 21
-8.0
 31
0.0
  0
LINE
  5
9A
100
AcDbEntity
100
AcDbLine
  8
AUX
 62
256
370
-1
  6
ByLayer
 10
-51.5
 20
-13.0
 30
0.0
 11
51.5
 21
-13.0
 31
0.0
  0
ARC
  5
9B
100
AcDbEntity
  8
AUX
 62
1
370
13
  6
CONTINUOUS
100
AcDbCircle
 10
-0.0000000000000046
 20
-74.703125000000028
 30
0.0
 40
84.270735636789297
100
AcDbArc
 50
117.56755372743039
 51
127.67093241495523
  0
ARC
  5
9C
100
AcDbEntity
  8
AUX
 62
1
370
13
  6
CONTINUOUS
100
AcDbCircle
 10
-0.0000000000000046
 20
-74.703125000000028
 30
0.0
 40
84.270735636789297
100
AcDbArc
 50
52.32906758504474
 51
62.432446272569607
  0
LINE
  5
9D
100
AcDbEntity
100
AcDbLine
  8
AUX
 62
256
370
-1
  6
ByLayer
 10
-51.5
 20
-13.0
 30
0.0
 11
-51.5
 21
-8.0
 31
0.0
  0
LINE
  5
9E
100
AcDbEntity
100
AcDbLine
  8
AUX
 62
256
370
-1
  6
ByLayer
 10
51.5
 20
-13.0
 30
0.0
 11
51.5
 21
-8.0
 31
0.0
  0
LINE
  5
9F
100
AcDbEntity
100
AcDbLine
  8
AUX
 62
256
370
-1
  6
ByLayer
 10
-35.0
 20
-2.0
 30
0.0
 11
35.0
 21
-2.0
 31
0.0
  0
LINE
  5
A0
100
AcDbEntity
100
AcDbLine
  8
AUX
 62
256
370
-1
  6
ByLayer
 10
-39.000000000000007
 20
0.0000000000000025
 30
0.0
 11
-35.0
 21
0.0
 31
0.0
  0
LINE
  5
A1
100
AcDbEntity
100
AcDbLine
  8
AUX
 62
256
370
-1
  6
ByLayer
 10
35.0
 20
0.0
 30
0.0
 11
39.000000000000007
 21
-0.0000000000000069
 31
0.0
  0
ENDBLK
  5
A2
100
AcDbEntity
  8
0
100
AcDbBlockEnd
  0
BLOCK
  5
A3
100
AcDbEntity
  8
0
100
AcDbBlockBegin
  2
Base Top
 70
0
 10
0.0
 20
0.0
 30
0.0
  3
Base Top
  1

  0
LINE
  5
A4
100
AcDbEntity
100
AcDbLine
  8
CENTER
 62
256
370
-1
  6
ByLayer
 10
38.10511776651532
 20
-21.99999999999994
 30
0.0
 11
-38.105117766515306
 21
21.999999999999986
 31
0.0
  0
LINE
  5
A5
100
AcDbEntity
100
AcDbLine
  8
CENTER
 62
256
370
-1
  6
ByLayer
 10
-0.0000000000000213
 20
44.000000000000014
 30
0.0
 11
0.0000000000000142
 21
-44.000000000000007
 31
0.0
  0
LINE
  5
A6
100
AcDbEntity
100
AcDbLine
  8
CENTER
 62
256
370
-1
  6
ByLayer
 10
-38.105117766515292
 20
-22.000000000000018
 30
0.0
 11
38.105117766515264
 21
22.000000000000018
 31
0.0
  0
CIRCLE
  5
A7
100
AcDbEntity
100
AcDbCircle
  8
CENTER
 62
256
370
-1
  6
ByLayer
 10
0.0
 20
0.0
 30
0.0
 40
25.0
  0
CIRCLE
  5
A8
100
AcDbEntity
100
AcDbCircle
  8
CONTOUR
 62
256
370
-1
  6
ByLayer
 10
0.0
 20
0.0
 30
0.0
 40
39.0
  0
CIRCLE
  5
A9
100
AcDbEntity
100
AcDbCircle
  8
CONTOUR
 62
256
370
-1
  6
ByLayer
 10
-0.0000000000000142
 20
25.000000000000032
 30
0.0
 40
3.1720000000000002
  0
CIRCLE
  5
AA
100
AcDbEntity
100
AcDbCircle
  8
CONTOUR
 62
256
370
-1
  6
ByLayer
 10
-21.650635094610962
 20
-12.500000000000004
 30
0.0
 40
3.1720000000000002
  0
CIRCLE
  5
AB
100
AcDbEntity
100
AcDbCircle
  8
CONTOUR
 62
256
370
-1
  6
ByLayer
 10
21.650635094610976
 20
-12.499999999999995
 30
0.0
 40
3.1720000000000002
  0
CIRCLE
  5
AC
100
AcDbEntity
100
AcDbCircle
  8
CONTOUR
 62
256
370
-1
  6
ByLayer
 10
0.0
 20
0.0
 30
0.0
 40
12.5
  0
CIRCLE
  5
AD
100
AcDbEntity
100
AcDbCircle
  8
CONTOUR
 62
256
370
-1
  6
ByLayer
 10
0.0
 20
0.0
 30
0.0
 40
37.5
  0
ARC
  5
AE
100
AcDbEntity
  8
CONTOUR
 62
7
370
35
  6
CONTINUOUS
100
AcDbCircle
 10
0.0
 20
0.0
 30
0.0
 40
13.699999999999999
100
AcDbArc
 50
244.02644852145082
 51
295.97355147854927
  0
LINE
  5
AF
100
AcDbEntity
100
AcDbLine
  8
CONTOUR
 62
256
370
-1
  6
ByLayer
 10
6.0000000000000009
 20
-10.965856099730622
 30
0.0
 11
6.0000000000000018
 21
-12.31624942910787
 31
0.0
  0
LINE
  5
B0
100
AcDbEntity
100
AcDbLine
  8
CONTOUR
 62
256
370
-1
  6
ByLayer
 10
-5.9999999999999991
 20
-10.965856099730644
 30
0.0
 11
-5.9999999999999982
 21
-12.316249429107874
 31
0.0
  0
ARC
  5
B1
100
AcDbEntity
  8
CONTOUR
 62
7
370
35
  6
CONTINUOUS
100
AcDbCircle
 10
0.0
 20
0.0
 30
0.0
 40
18.0
100
AcDbArc
 50
295.67928861945683
 51
244.32071138054314
  0
LINE
  5
B2
100
AcDbEntity
100
AcDbLine
  8
CONTOUR
 62
256
370
-1
  6
ByLayer
 10
-7.7999999999999972
 20
-16.22220700151491
 30
0.0
 11
-7.7999999999999901
 21
-33.606695761410407
 31
0.0
  0
LINE
  5
B3
100
AcDbEntity
100
AcDbLine
  8
CONTOUR
 62
256
370
-1
  6
ByLayer
 10
7.8000000000000025
 20
-16.22220700151491
 30
0.0
 11
7.8000000000000096
 21
-33.6066957614104
 31
0.0
  0
ARC
  5
B4
100
AcDbEntity
  8
CONTOUR
 62
7
370
35
  6
CONTINUOUS
100
AcDbCircle
 10
0.0
 20
0.0
 30
0.0
 40
34.5
100
AcDbArc
 50
283.06680334134757
 51
256.93319665865249
  0
LINE
  5
B5
100
AcDbEntity
100
AcDbLine
  8
CONTOUR
 62
256
370
-1
  6
DASHED2
 10
-3.999999999999984
 20
-13.103053079339947
 30
0.0
 11
-3.9999999999999503
 21
-38.794329482541634
 31
0.0
  0
LINE
  5
B6
100
AcDbEntity
100
AcDbLine
  8
CONTOUR
 62
256
370
-1
  6
DASHED2
 10
4.0000000000000018
 20
-13.103053079339944
 30
0.0
 11
4.0000000000000426
 21
-38.794329482541642
 31
0.0
  0
ENDBLK
  5
B7
100
AcDbEntity
  8
0
100
AcDbBlockEnd
  0
BLOCK
  5
B8
100
AcDbEntity
  8
0
100
AcDbBlockBegin
  2
Movement Bottom
 70
0
 10
0.0
 20
0.0
 30
0.0
  3
Movement Bottom
  1

  0
LINE
  5
B9
100
AcDbEntity
100
AcDbLine
  8
CENTER
 62
256
370
-1
  6
ByLayer
 10
-41.0
 20
0.0
 30
0.0
 11
41.0
 21
0.0
 31
0.0
  0
LINE
  5
BA
100
AcDbEntity
100
AcDbLine
  8
CONTOUR
 62
256
370
-1
  6
ByLayer
 10
-29.249999999999996
 20
44.399999999999999
 30
0.0
 11
29.250000000000004
 21
44.399999999999999
 31
0.0
  0
LINE
  5
BB
100
AcDbEntity
100
AcDbLine
  8
CONTOUR
 62
256
370
-1
  6
ByLayer
 10
-29.249999999999996
 20
25.796075282879777
 30
0.0
 11
-29.249999999999996
 21
44.399999999999999
 31
0.0
  0
LINE
  5
BC
100
AcDbEntity
100
AcDbLine
  8
CONTOUR
 62
256
370
-1
  6
ByLayer
 10
29.250000000000004
 20
25.796075282879748
 30
0.0
 11
29.250000000000004
 21
44.399999999999999
 31
0.0
  0
LINE
  5
BD
100
AcDbEntity
100
AcDbLine
  8
CENTER
 62
256
370
-1
  6
ByLayer
 10
-0.0000000000000025
 20
-41.0
 30
0.0
 11
0.0000000000000028
 21
46.399999999999999
 31
0.0
  0
CIRCLE
  5
BE
100
AcDbEntity
100
AcDbCircle
  8
CENTER
 62
256
370
-1
  6
ByLayer
 10
-0.0
 20
0.0
 30
0.0
 40
30.0
  0
CIRCLE
  5
BF
100
AcDbEntity
100
AcDbCircle
  8
CENTER
 62
256
370
-1
  6
ByLayer
 10
-0.0
 20
0.0
 30
0.0
 40
17.5
  0
LINE
  5
C0
100
AcDbEntity
100
AcDbLine
  8
CENTER
 62
256
370
-1
  6
ByLayer
 10
-28.991378028648452
 20
-28.991378028648445
 30
0.0
 11
28.991378028648452
 21
28.991378028648445
 31
0.0
  0
LINE
  5
C1
100
AcDbEntity
100
AcDbLine
  8
CENTER
 62
256
370
-1
  6
ByLayer
 10
28.991378028648445
 20
-28.991378028648452
 30
0.0
 11
-28.991378028648445
 21
28.991378028648452
 31
0.0
  0
CIRCLE
  5
C2
100
AcDbEntity
100
AcDbCircle
  8
CONTOUR
 62
256
370
-1
  6
ByLayer
 10
0.0000000000000018
 20
30.0
 30
0.0
 40
3.1749999999999998
  0
CIRCLE
  5
C3
100
AcDbEntity
100
AcDbCircle
  8
CONTOUR
 62
256
370
-1
  6
ByLayer
 10
21.21320343559643
 20
21.213203435596423
 30
0.0
 40
3.1749999999999998
  0
CIRCLE
  5
C4
100
AcDbEntity
100
AcDbCircle
  8
CONTOUR
 62
256
370
-1
  6
ByLayer
 10
30.0
 20
0.0
 30
0.0
 40
3.1749999999999998
  0
CIRCLE
  5
C5
100
AcDbEntity
100
AcDbCircle
  8
CONTOUR
 62
256
370
-1
  6
ByLayer
 10
21.213203435596423
 20
-21.213203435596427
 30
0.0
 40
3.1749999999999998
  0
CIRCLE
  5
C6
100
AcDbEntity
100
AcDbCircle
  8
CONTOUR
 62
256
370
-1
  6
ByLayer
 10
-0.0000000000000018
 20
-30.0
 30
0.0
 40
3.1749999999999998
  0
CIRCLE
  5
C7
100
AcDbEntity
100
AcDbCircle
  8
CONTOUR
 62
256
370
-1
  6
ByLayer
 10
-21.213203435596427
 20
-21.213203435596423
 30
0.0
 40
3.1749999999999998
  0
CIRCLE
  5
C8
100
AcDbEntity
100
AcDbCircle
  8
CONTOUR
 62
256
370
-1
  6
ByLayer
 10
-30.0
 20
0.0
 30
0.0
 40
3.1749999999999998
  0
CIRCLE
  5
C9
100
AcDbEntity
100
AcDbCircle
  8
CONTOUR
 62
256
370
-1
  6
ByLayer
 10
-21.213203435596423
 20
21.21320343559643
 30
0.0
 40
3.1749999999999998
  0
CIRCLE
  5
CA
100
AcDbEntity
100
AcDbCircle
  8
CONTOUR
 62
256
370
-1
  6
ByLayer
 10
0.0000000000000011
 20
17.499999999999993
 30
0.0
 40
4.0
  0
CIRCLE
  5
CB
100
AcDbEntity
100
AcDbCircle
  8
CONTOUR
 62
256
370
-1
  6
ByLayer
 10
-17.500000000000004
 20
0.0
 30
0.0
 40
4.0
  0
CIRCLE
  5
CC
100
AcDbEntity
100
AcDbCircle
  8
CONTOUR
 62
256
370
-1
  6
ByLayer
 10
17.5
 20
0.0
 30
0.0
 40
4.0
  0
CIRCLE
  5
CD
100
AcDbEntity
100
AcDbCircle
  8
CONTOUR
 62
256
370
-1
  6
ByLayer
 10
-0.0000000000000011
 20
-17.499999999999996
 30
0.0
 40
4.0
  0
CIRCLE
  5
CE
100
AcDbEntity
100
AcDbCircle
  8
CONTOUR
 62
256
370
-1
  6
ByLayer
 10
0.0
 20
0.0
 30
0.0
 40
6.0
  0
LINE
  5
CF
100
AcDbEntity
100
AcDbLine
  8
CENTER
 62
256
370
-1
  6
ByLayer
 10
-47.0
 20
34.0
 30
0.0
 11
47.0
 21
34.0
 31
0.0
  0
CIRCLE
  5
D0
100
AcDbEntity
100
AcDbCircle
  8
CONTOUR
 62
256
370
-1
  6
ByLayer
 10
0.0
 20
0.0
 30
0.0
 40
9.75
  0
ARC
  5
D1
100
AcDbEntity
  8
CONTOUR
 62
7
370
35
  6
CONTINUOUS
100
AcDbCircle
 10
0.0000000000000011
 20
17.499999999999993
 30
0.0
 40
5.0
100
AcDbArc
 50
196.26361520098538
 51
343.73638479901462
  0
ARC
  5
D2
100
AcDbEntity
  8
CONTOUR
 62
7
370
35
  6
CONTINUOUS
100
AcDbCircle
 10
0.0
 20
0.0
 30
0.0
 40
16.800000000000001
100
AcDbArc
 50
16.601252998685709
 51
73.398747001314248
  0
ARC
  5
D3
100
AcDbEntity
  8
CONTOUR
 62
7
370
35
  6
CONTINUOUS
100
AcDbCircle
 10
17.5
 20
0.0
 30
0.0
 40
5.0
100
AcDbArc
 50
106.26361520098547
 51
253.7363847990145
  0
ARC
  5
D4
100
AcDbEntity
  8
CONTOUR
 62
7
370
35
  6
CONTINUOUS
100
AcDbCircle
 10
0.0
 20
0.0
 30
0.0
 40
16.800000000000001
100
AcDbArc
 50
286.60125299868577
 51
343.39874700131429
  0
ARC
  5
D5
100
AcDbEntity
  8
CONTOUR
 62
7
370
35
  6
CONTINUOUS
100
AcDbCircle
 10
-0.0000000000000011
 20
-17.499999999999996
 30
0.0
 40
5.0
100
AcDbArc
 50
16.263615200985427
 51
163.73638479901459
  0
ARC
  5
D6
100
AcDbEntity
  8
CONTOUR
 62
7
370
35
  6
CONTINUOUS
100
AcDbCircle
 10
0.0
 20
0.0
 30
0.0
 40
16.800000000000001
100
AcDbArc
 50
196.60125299868571
 51
253.39874700131423
  0
ARC
  5
D7
100
AcDbEntity
  8
CONTOUR
 62
7
370
35
  6
CONTINUOUS
100
AcDbCircle
 10
-17.500000000000004
 20
0.0
 30
0.0
 40
5.0
100
AcDbArc
 50
286.2636152009855
 51
73.736384799014488
  0
ARC
  5
D8
100
AcDbEntity
  8
CONTOUR
 62
7
370
35
  6
CONTINUOUS
100
AcDbCircle
 10
0.0
 20
0.0
 30
0.0
 40
16.800000000000001
100
AcDbArc
 50
106.60125299868577
 51
163.39874700131429
  0
LINE
  5
D9
100
AcDbEntity
100
AcDbLine
  8
CONTOUR
 62
256
370
-1
  6
ByLayer
 10
-17.999999999999996
 20
25.796075282879773
 30
0.0
 11
-17.999999999999996
 21
41.100000000000001
 31
0.0
  0
LINE
  5
DA
100
AcDbEntity
100
AcDbLine
  8
CONTOUR
 62
256
370
-1
  6
ByLayer
 10
18.000000000000004
 20
25.796075282879748
 30
0.0
 11
18.000000000000004
 21
41.100000000000001
 31
0.0
  0
LINE
  5
DB
100
AcDbEntity
100
AcDbLine
  8
CONTOUR
 62
256
370
-1
  6
ByLayer
 10
-17.999999999999996
 20
41.100000000000001
 30
0.0
 11
18.000000000000004
 21
41.100000000000001
 31
0.0
  0
LINE
  5
DC
100
AcDbEntity
100
AcDbLine
  8
CONTOUR
 62
256
370
-1
  6
ByLayer
 10
18.000000000000004
 20
25.799999999999997
 30
0.0
 11
29.25
 21
25.799999999999997
 31
0.0
  0
LINE
  5
DD
100
AcDbEntity
100
AcDbLine
  8
CONTOUR
 62
256
370
-1
  6
ByLayer
 10
-29.25
 20
25.799999999999997
 30
0.0
 11
-17.999999999999996
 21
25.799999999999997
 31
0.0
  0
ARC
  5
DE
100
AcDbEntity
  8
CONTOUR
 62
7
370
35
  6
CONTINUOUS
100
AcDbCircle
 10
0.0
 20
0.0
 30
0.0
 40
39.0
100
AcDbArc
 50
138.5826895818775
 51
41.409622109270849
  0
ARC
  5
DF
100
AcDbEntity
  8
CONTOUR
 62
7
370
35
  6
CONTINUOUS
100
AcDbCircle
 10
-0.0
 20
0.0
 30
0.0
 40
35.0
100
AcDbArc
 50
132.51140377793698
 51
47.488596222063023
  0
ARC
  5
E0
100
AcDbEntity
  8
CONTOUR
 62
7
370
35
  6
CONTINUOUS
100
AcDbCircle
 10
0.0
 20
0.0
 30
0.0
 40
37.0
100
AcDbArc
 50
135.78943402034594
 51
44.210565979654071
  0
LINE
  5
E1
100
AcDbEntity
100
AcDbLine
  8
CONTOUR
 62
256
370
-1
  6
ByLayer
 10
-26.949999999999996
 20
25.796075282879777
 30
0.0
 11
-26.949999999999996
 21
42.100000000000001
 31
0.0
  0
LINE
  5
E2
100
AcDbEntity
100
AcDbLine
  8
CONTOUR
 62
256
370
-1
  6
ByLayer
 10
26.950000000000003
 20
25.796075282879748
 30
0.0
 11
26.950000000000003
 21
42.100000000000001
 31
0.0
  0
LINE
  5
E3
100
AcDbEntity
100
AcDbLine
  8
CONTOUR
 62
256
370
-1
  6
ByLayer
 10
-26.949999999999996
 20
42.100000000000001
 30
0.0
 11
26.950000000000003
 21
42.100000000000001
 31
0.0
  0
LINE
  5
E4
100
AcDbEntity
100
AcDbLine
  8
AUX
 62
256
370
-1
  6
ByLayer
 10
-45.0
 20
31.0
 30
0.0
 11
-45.0
 21
37.0
 31
0.0
  0
LINE
  5
E5
100
AcDbEntity
100
AcDbLine
  8
AUX
 62
256
370
-1
  6
ByLayer
 10
45.0
 20
31.0
 30
0.0
 11
45.0
 21
37.0
 31
0.0
  0
LINE
  5
E6
100
AcDbEntity
100
AcDbLine
  8
AUX
 62
256
370
-1
  6
ByLayer
 10
-8.9999999999999982
 20
29.5
 30
0.0
 11
9.0000000000000018
 21
29.5
 31
0.0
  0
LINE
  5
E7
100
AcDbEntity
100
AcDbLine
  8
AUX
 62
256
370
-1
  6
ByLayer
 10
-8.9999999999999964
 20
38.5
 30
0.0
 11
9.0000000000000036
 21
38.5
 31
0.0
  0
LINE
  5
E8
100
AcDbEntity
100
AcDbLine
  8
AUX
 62
256
370
-1
  6
ByLayer
 10
9.0000000000000018
 20
29.5
 30
0.0
 11
9.0000000000000036
 21
38.5
 31
0.0
  0
LINE
  5
E9
100
AcDbEntity
100
AcDbLine
  8
AUX
 62
256
370
-1
  6
ByLayer
 10
-8.9999999999999982
 20
29.5
 30
0.0
 11
-8.9999999999999964
 21
38.5
 31
0.0
  0
LINE
  5
EA
100
AcDbEntity
100
AcDbLine
  8
AUX
 62
256
370
-1
  6
ByLayer
 10
-45.0
 20
37.0
 30
0.0
 11
-29.249999999999996
 21
37.0
 31
0.0
  0
LINE
  5
EB
100
AcDbEntity
100
AcDbLine
  8
AUX
 62
256
370
-1
  6
ByLayer
 10
-17.999999999999996
 20
37.0
 30
0.0
 11
-8.9999999999999964
 21
37.0
 31
0.0
  0
LINE
  5
EC
100
AcDbEntity
100
AcDbLine
  8
AUX
 62
256
370
-1
  6
ByLayer
 10
-45.0
 20
31.0
 30
0.0
 11
-29.249999999999996
 21
31.0
 31
0.0
  0
LINE
  5
ED
100
AcDbEntity
100
AcDbLine
  8
AUX
 62
256
370
-1
  6
ByLayer
 10
-17.999999999999996
 20
31.0
 30
0.0
 11
-8.9999999999999982
 21
31.0
 31
0.0
  0
LINE
  5
EE
100
AcDbEntity
100
AcDbLine
  8
AUX
 62
256
370
-1
  6
ByLayer
 10
9.0000000000000018
 20
31.0
 30
0.0
 11
18.000000000000004
 21
31.0
 31
0.0
  0
LINE
  5
EF
100
AcDbEntity
100
AcDbLine
  8
AUX
 62
256
370
-1
  6
ByLayer
 10
29.250000000000004
 20
31.0
 30
0.0
 11
45.0
 21
31.0
 31
0.0
  0
LINE
  5
F0
100
AcDbEntity
100
AcDbLine
  8
AUX
 62
256
370
-1
  6
ByLayer
 10
29.250000000000004
 20
37.0
 30
0.0
 11
45.0
 21
37.0
 31
0.0
  0
LINE
  5
F1
100
AcDbEntity
100
AcDbLine
  8
AUX
 62
256
370
-1
  6
ByLayer
 10
9.0000000000000036
 20
37.0
 30
0.0
 11
18.000000000000004
 21
37.0
 31
0.0
  0
LINE
  5
F2
100
AcDbEntity
100
AcDbLine
  8
AUX
 62
256
370
-1
  6
DASHED2
 10
-29.249999999999996
 20
37.0
 30
0.0
 11
-17.999999999999996
 21
37.0
 31
0.0
  0
LINE
  5
F3
100
AcDbEntity
100
AcDbLine
  8
AUX
 62
256
370
-1
  6
DASHED2
 10
-29.249999999999996
 20
31.0
 30
0.0
 11
-17.999999999999996
 21
31.0
 31
0.0
  0
LINE
  5
F4
100
AcDbEntity
100
AcDbLine
  8
AUX
 62
256
370
-1
  6
DASHED2
 10
18.000000000000004
 20
31.0
 30
0.0
 11
29.250000000000004
 21
31.0
 31
0.0
  0
LINE
  5
F5
100
AcDbEntity
100
AcDbLine
  8
AUX
 62
256
370
-1
  6
DASHED2
 10
18.000000000000004
 20
37.0
 30
0.0
 11
29.250000000000004
 21
37.0
 31
0.0
  0
ENDBLK
  5
F6
100
AcDbEntity
  8
0
100
AcDbBlockEnd
  0
BLOCK
  5
F7
100
AcDbEntity
  8
0
100
AcDbBlockBegin
  2
Movement Side
 70
0
 10
0.0
 20
0.0
 30
0.0
  3
Movement Side
  1

  0
LINE
  5
F8
100
AcDbEntity
100
AcDbLine
  8
CONTOUR
 62
256
370
-1
  6
ByLayer
 10
-39.000000000000007
 20
0.0
 30
0.0
 11
38.999999999999993
 21
0.0
 31
0.0
  0
LINE
  5
F9
100
AcDbEntity
100
AcDbLine
  8
CONTOUR
 62
256
370
-1
  6
ByLayer
 10
-29.250000000000004
 20
20.0
 30
0.0
 11
-29.250000000000004
 21
0.0
 31
0.0
  0
LINE
  5
FA
100
AcDbEntity
100
AcDbLine
  8
CONTOUR
 62
256
370
-1
  6
ByLayer
 10
29.249999999999996
 20
20.0
 30
0.0
 11
29.249999999999996
 21
0.0
 31
0.0
  0
LINE
  5
FB
100
AcDbEntity
100
AcDbLine
  8
CONTOUR
 62
256
370
-1
  6
ByLayer
 10
-29.250000000000004
 20
20.0
 30
0.0
 11
29.249999999999996
 21
20.0
 31
0.0
  0
LINE
  5
FC
100
AcDbEntity
100
AcDbLine
  8
CONTOUR
 62
256
370
-1
  6
DASHED2
 10
-26.950000000000003
 20
1.6000000000000001
 30
0.0
 11
-26.950000000000003
 21
0.0
 31
0.0
  0
LINE
  5
FD
100
AcDbEntity
100
AcDbLine
  8
CONTOUR
 62
256
370
-1
  6
DASHED2
 10
26.949999999999996
 20
1.6000000000000001
 30
0.0
 11
26.949999999999996
 21
0.0
 31
0.0
  0
LINE
  5
FE
100
AcDbEntity
100
AcDbLine
  8
CONTOUR
 62
256
370
-1
  6
DASHED2
 10
-26.950000000000003
 20
1.6000000000000001
 30
0.0
 11
-18.000000000000004
 21
1.6000000000000001
 31
0.0
  0
LINE
  5
FF
100
AcDbEntity
100
AcDbLine
  8
CONTOUR
 62
256
370
-1
  6
DASHED2
 10
17.999999999999996
 20
1.6000000000000001
 30
0.0
 11
26.949999999999996
 21
1.6000000000000001
 31
0.0
  0
LINE
  5
100
100
AcDbEntity
100
AcDbLine
  8
CONTOUR
 62
256
370
-1
  6
DASHED2
 10
-18.000000000000004
 20
21.300000000000001
 30
0.0
 11
-18.000000000000004
 21
1.6000000000000001
 31
0.0
  0
LINE
  5
101
100
AcDbEntity
100
AcDbLine
  8
CONTOUR
 62
256
370
-1
  6
DASHED2
 10
17.999999999999996
 20
21.300000000000001
 30
0.0
 11
17.999999999999996
 21
1.6000000000000001
 31
0.0
  0
LINE
  5
102
100
AcDbEntity
100
AcDbLine
  8
CONTOUR
 62
256
370
-1
  6
DASHED2
 10
-35.000000000000007
 20
21.300000000000001
 30
0.0
 11
34.999999999999993
 21
21.300000000000001
 31
0.0
  0
LINE
  5
103
100
AcDbEntity
100
AcDbLine
  8
CONTOUR
 62
256
370
-1
  6
ByLayer
 10
-39.000000000000007
 20
14.0
 30
0.0
 11
-39.000000000000007
 21
8.0
 31
0.0
  0
LINE
  5
104
100
AcDbEntity
100
AcDbLine
  8
CONTOUR
 62
256
370
-1
  6
ByLayer
 10
-39.000000000000007
 20
8.0
 30
0.0
 11
-39.000000000000007
 21
0.0
 31
0.0
  0
LINE
  5
105
100
AcDbEntity
100
AcDbLine
  8
CONTOUR
 62
256
370
-1
  6
ByLayer
 10
38.999999999999993
 20
8.0
 30
0.0
 11
38.999999999999993
 21
0.0
 31
0.0
  0
LINE
  5
106
100
AcDbEntity
100
AcDbLine
  8
CONTOUR
 62
256
370
-1
  6
ByLayer
 10
38.999999999999993
 20
14.0
 30
0.0
 11
38.999999999999993
 21
8.0
 31
0.0
  0
LINE
  5
107
100
AcDbEntity
100
AcDbLine
  8
CENTER
 62
256
370
-1
  6
ByLayer
 10
-47.000000000000007
 20
11.0
 30
0.0
 11
46.999999999999993
 21
11.0
 31
0.0
  0
LINE
  5
108
100
AcDbEntity
100
AcDbLine
  8
CONTOUR
 62
256
370
-1
  6
ByLayer
 10
16.799999999999997
 20
14.800000000000001
 30
0.0
 11
16.799999999999997
 21
21.300000000000001
 31
0.0
  0
LINE
  5
109
100
AcDbEntity
100
AcDbLine
  8
CONTOUR
 62
256
370
-1
  6
ByLayer
 10
-16.800000000000004
 20
14.800000000000001
 30
0.0
 11
-16.800000000000004
 21
21.300000000000001
 31
0.0
  0
LINE
  5
10A
100
AcDbEntity
100
AcDbLine
  8
CONTOUR
 62
256
370
-1
  6
ByLayer
 10
-16.800000000000004
 20
14.800000000000001
 30
0.0
 11
16.799999999999997
 21
14.800000000000001
 31
0.0
  0
LINE
  5
10B
100
AcDbEntity
100
AcDbLine
  8
CONTOUR
 62
256
370
-1
  6
ByLayer
 10
-9.800000000000006
 20
11.800000000000001
 30
0.0
 11
-9.800000000000006
 21
14.800000000000001
 31
0.0
  0
LINE
  5
10C
100
AcDbEntity
100
AcDbLine
  8
CONTOUR
 62
256
370
-1
  6
ByLayer
 10
9.7999999999999954
 20
11.800000000000001
 30
0.0
 11
9.7999999999999954
 21
14.800000000000001
 31
0.0
  0
LINE
  5
10D
100
AcDbEntity
100
AcDbLine
  8
CONTOUR
 62
256
370
-1
  6
ByLayer
 10
-9.800000000000006
 20
11.800000000000001
 30
0.0
 11
9.7999999999999954
 21
11.800000000000001
 31
0.0
  0
LINE
  5
10E
100
AcDbEntity
100
AcDbLine
  8
AUX
 62
256
370
-1
  6
ByLayer
 10
44.999999999999993
 20
14.0
 30
0.0
 11
44.999999999999993
 21
8.0
 31
0.0
  0
LINE
  5
10F
100
AcDbEntity
100
AcDbLine
  8
AUX
 62
256
370
-1
  6
ByLayer
 10
-45.000000000000007
 20
14.0
 30
0.0
 11
-45.000000000000007
 21
8.0
 31
0.0
  0
LINE
  5
110
100
AcDbEntity
100
AcDbLine
  8
AUX
 62
256
370
-1
  6
ByLayer
 10
29.249999999999996
 20
14.0
 30
0.0
 11
44.999999999999993
 21
14.0
 31
0.0
  0
LINE
  5
111
100
AcDbEntity
100
AcDbLine
  8
AUX
 62
256
370
-1
  6
ByLayer
 10
29.249999999999996
 20
8.0
 30
0.0
 11
44.999999999999993
 21
8.0
 31
0.0
  0
LINE
  5
112
100
AcDbEntity
100
AcDbLine
  8
AUX
 62
256
370
-1
  6
ByLayer
 10
-45.000000000000007
 20
14.0
 30
0.0
 11
-29.250000000000004
 21
14.0
 31
0.0
  0
LINE
  5
113
100
AcDbEntity
100
AcDbLine
  8
AUX
 62
256
370
-1
  6
ByLayer
 10
-45.000000000000007
 20
8.0
 30
0.0
 11
-29.250000000000004
 21
8.0
 31
0.0
  0
LINE
  5
114
100
AcDbEntity
100
AcDbLine
  8
AUX
 62
256
370
-1
  6
DASHED2
 10
8.9999999999999947
 20
15.5
 30
0.0
 11
8.9999999999999947
 21
6.5
 31
0.0
  0
LINE
  5
115
100
AcDbEntity
100
AcDbLine
  8
AUX
 62
256
370
-1
  6
DASHED2
 10
-9.0000000000000053
 20
15.5
 30
0.0
 11
-9.0000000000000053
 21
6.5
 31
0.0
  0
LINE
  5
116
100
AcDbEntity
100
AcDbLine
  8
AUX
 62
256
370
-1
  6
DASHED2
 10
-9.0000000000000053
 20
15.5
 30
0.0
 11
8.9999999999999947
 21
15.5
 31
0.0
  0
LINE
  5
117
100
AcDbEntity
100
AcDbLine
  8
AUX
 62
256
370
-1
  6
DASHED2
 10
-9.0000000000000053
 20
6.5
 30
0.0
 11
8.9999999999999947
 21
6.5
 31
0.0
  0
LINE
  5
118
100
AcDbEntity
100
AcDbLine
  8
AUX
 62
256
370
-1
  6
DASHED2
 10
-29.250000000000004
 20
14.0
 30
0.0
 11
29.249999999999996
 21
14.0
 31
0.0
  0
LINE
  5
119
100
AcDbEntity
100
AcDbLine
  8
AUX
 62
256
370
-1
  6
DASHED2
 10
-29.250000000000004
 20
8.0
 30
0.0
 11
29.249999999999996
 21
8.0
 31
0.0
  0
LINE
  5
11A
100
AcDbEntity
100
AcDbLine
  8
CONTOUR
 62
256
370
-1
  6
ByLayer
 10
-3.0000000000000075
 20
-26.199999999999999
 30
0.0
 11
2.9999999999999925
 21
-26.199999999999999
 31
0.0
  0
LINE
  5
11B
100
AcDbEntity
100
AcDbLine
  8
CONTOUR
 62
256
370
-1
  6
ByLayer
 10
-3.0000000000000075
 20
-26.199999999999999
 30
0.0
 11
-3.0000000000000071
 21
-17.199999999999999
 31
0.0
  0
LINE
  5
11C
100
AcDbEntity
100
AcDbLine
  8
CONTOUR
 62
256
370
-1
  6
ByLayer
 10
2.9999999999999925
 20
-26.199999999999999
 30
0.0
 11
2.9999999999999929
 21
-17.199999999999999
 31
0.0
  0
LINE
  5
11D
100
AcDbEntity
100
AcDbLine
  8
CONTOUR
 62
256
370
-1
  6
ByLayer
 10
-6.0000000000000071
 20
-17.199999999999999
 30
0.0
 11
5.9999999999999858
 21
-17.199999999999999
 31
0.0
  0
LINE
  5
11E
100
AcDbEntity
100
AcDbLine
  8
CENTER
 62
256
370
-1
  6
ByLayer
 10
-0.0000000000000078
 20
-28.199999999999999
 30
0.0
 11
-0.0000000000000044
 21
28.0
 31
0.0
  0
LINE
  5
11F
100
AcDbEntity
100
AcDbLine
  8
CONTOUR
 62
256
370
-1
  6
ByLayer
 10
-39.000000000000007
 20
26.300000000000001
 30
0.0
 11
38.999999999999993
 21
26.300000000000001
 31
0.0
  0
LINE
  5
120
100
AcDbEntity
100
AcDbLine
  8
CONTOUR
 62
256
370
-1
  6
ByLayer
 10
-37.000000000000007
 20
-2.2999999999999998
 30
0.0
 11
36.999999999999993
 21
-2.2999999999999998
 31
0.0
  0
LINE
  5
121
100
AcDbEntity
100
AcDbLine
  8
CONTOUR
 62
256
370
-1
  6
ByLayer
 10
-37.000000000000007
 20
0.0
 30
0.0
 11
-37.000000000000007
 21
-2.2999999999999998
 31
0.0
  0
LINE
  5
122
100
AcDbEntity
100
AcDbLine
  8
CONTOUR
 62
256
370
-1
  6
DASHED2
 10
-35.000000000000007
 20
21.300000000000001
 30
0.0
 11
-35.000000000000007
 21
-2.2999999999999998
 31
0.0
  0
LINE
  5
123
100
AcDbEntity
100
AcDbLine
  8
CONTOUR
 62
256
370
-1
  6
ByLayer
 10
-6.0000000000000062
 20
-2.2999999999999998
 30
0.0
 11
-6.0000000000000071
 21
-17.199999999999999
 31
0.0
  0
LINE
  5
124
100
AcDbEntity
100
AcDbLine
  8
CONTOUR
 62
256
370
-1
  6
ByLayer
 10
5.9999999999999867
 20
-2.2999999999999998
 30
0.0
 11
5.9999999999999858
 21
-17.199999999999999
 31
0.0
  0
LINE
  5
125
100
AcDbEntity
100
AcDbLine
  8
CONTOUR
 62
256
370
-1
  6
ByLayer
 10
36.999999999999993
 20
0.0
 30
0.0
 11
36.999999999999993
 21
-2.2999999999999998
 31
0.0
  0
LINE
  5
126
100
AcDbEntity
100
AcDbLine
  8
CONTOUR
 62
256
370
-1
  6
DASHED2
 10
34.999999999999993
 20
21.300000000000001
 30
0.0
 11
34.999999999999993
 21
-2.2999999999999998
 31
0.0
  0
LINE
  5
127
100
AcDbEntity
100
AcDbLine
  8
CONTOUR
 62
256
370
-1
  6
ByLayer
 10
38.999999999999993
 20
26.300000000000001
 30
0.0
 11
38.999999999999993
 21
14.0
 31
0.0
  0
LINE
  5
128
100
AcDbEntity
100
AcDbLine
  8
CONTOUR
 62
256
370
-1
  6
DASHED2
 10
5.9999999999999885
 20
26.300000000000001
 30
0.0
 11
5.9999999999999867
 21
-2.2999999999999998
 31
0.0
  0
LINE
  5
129
100
AcDbEntity
100
AcDbLine
  8
CONTOUR
 62
256
370
-1
  6
DASHED2
 10
-6.0000000000000044
 20
26.300000000000001
 30
0.0
 11
-6.0000000000000062
 21
-2.2999999999999998
 31
0.0
  0
LINE
  5
12A
100
AcDbEntity
100
AcDbLine
  8
CONTOUR
 62
256
370
-1
  6
ByLayer
 10
-39.000000000000007
 20
26.300000000000001
 30
0.0
 11
-39.000000000000007
 21
14.0
 31
0.0
  0
ENDBLK
  5
12B
100
AcDbEntity
  8
0
100
AcDbBlockEnd
  0
BLOCK
  5
12C
100
AcDbEntity
  8
0
100
AcDbBlockBegin
  2
Movement Top
 70
0
 10
0.0
 20
0.0
 30
0.0
  3
Movement Top
  1

  0
CIRCLE
  5
12D
100
AcDbEntity
100
AcDbCircle
  8
CONTOUR
 62
256
370
-1
  6
ByLayer
 10
0.0
 20
0.0
 30
0.0
 40
39.0
  0
LINE
  5
12E
100
AcDbEntity
100
AcDbLine
  8
CENTER
 62
256
370
-1
  6
ByLayer
 10
-41.0
 20
0.0
 30
0.0
 11
41.0
 21
0.0
 31
0.0
  0
LINE
  5
12F
100
AcDbEntity
100
AcDbLine
  8
CONTOUR
 62
256
370
-1
  6
ByLayer
 10
-29.250000000000007
 20
-44.400000000000013
 30
0.0
 11
29.25
 21
-44.399999999999999
 31
0.0
  0
LINE
  5
130
100
AcDbEntity
100
AcDbLine
  8
CONTOUR
 62
256
370
-1
  6
ByLayer
 10
-29.25
 20
-25.796075282879766
 30
0.0
 11
-29.250000000000007
 21
-44.400000000000013
 31
0.0
  0
LINE
  5
131
100
AcDbEntity
100
AcDbLine
  8
CONTOUR
 62
256
370
-1
  6
ByLayer
 10
29.25
 20
-25.796075282879706
 30
0.0
 11
29.25
 21
-44.399999999999999
 31
0.0
  0
LINE
  5
132
100
AcDbEntity
100
AcDbLine
  8
CENTER
 62
256
370
-1
  6
ByLayer
 10
0.0000000000000142
 20
40.999999999999972
 30
0.0
 11
0.0
 21
-46.399999999999999
 31
0.0
  0
CIRCLE
  5
133
100
AcDbEntity
100
AcDbCircle
  8
CENTER
 62
256
370
-1
  6
ByLayer
 10
0.0
 20
0.0
 30
0.0
 40
30.0
  0
CIRCLE
  5
134
100
AcDbEntity
100
AcDbCircle
  8
CENTER
 62
256
370
-1
  6
ByLayer
 10
0.0
 20
0.0
 30
0.0
 40
17.5
  0
LINE
  5
135
100
AcDbEntity
100
AcDbLine
  8
CENTER
 62
256
370
-1
  6
ByLayer
 10
-28.991378028648469
 20
28.99137802864848
 30
0.0
 11
28.991378028648455
 21
-28.991378028648427
 31
0.0
  0
LINE
  5
136
100
AcDbEntity
100
AcDbLine
  8
CENTER
 62
256
370
-1
  6
ByLayer
 10
28.991378028648427
 20
28.991378028648459
 30
0.0
 11
-28.991378028648441
 21
-28.991378028648462
 31
0.0
  0
CIRCLE
  5
137
100
AcDbEntity
100
AcDbCircle
  8
CONTOUR
 62
256
370
-1
  6
ByLayer
 10
0.0
 20
-29.999999999999979
 30
0.0
 40
3.1749999999999998
  0
CIRCLE
  5
138
100
AcDbEntity
100
AcDbCircle
  8
CONTOUR
 62
256
370
-1
  6
ByLayer
 10
21.213203435596427
 20
-21.213203435596483
 30
0.0
 40
3.1749999999999998
  0
CIRCLE
  5
139
100
AcDbEntity
100
AcDbCircle
  8
CONTOUR
 62
256
370
-1
  6
ByLayer
 10
30.0
 20
0.0
 30
0.0
 40
3.1749999999999998
  0
CIRCLE
  5
13A
100
AcDbEntity
100
AcDbCircle
  8
CONTOUR
 62
256
370
-1
  6
ByLayer
 10
21.213203435596427
 20
21.21320343559648
 30
0.0
 40
3.1749999999999998
  0
CIRCLE
  5
13B
100
AcDbEntity
100
AcDbCircle
  8
CONTOUR
 62
256
370
-1
  6
ByLayer
 10
-0.0000000000000142
 20
30.000000000000014
 30
0.0
 40
3.1749999999999998
  0
CIRCLE
  5
13C
100
AcDbEntity
100
AcDbCircle
  8
CONTOUR
 62
256
370
-1
  6
ByLayer
 10
-21.213203435596427
 20
21.213203435596412
 30
0.0
 40
3.1749999999999998
  0
CIRCLE
  5
13D
100
AcDbEntity
100
AcDbCircle
  8
CONTOUR
 62
256
370
-1
  6
ByLayer
 10
-30.0
 20
0.0
 30
0.0
 40
3.1749999999999998
  0
CIRCLE
  5
13E
100
AcDbEntity
100
AcDbCircle
  8
CONTOUR
 62
256
370
-1
  6
ByLayer
 10
-21.213203435596427
 20
-21.213203435596416
 30
0.0
 40
3.1749999999999998
  0
CIRCLE
  5
13F
100
AcDbEntity
100
AcDbCircle
  8
CONTOUR
 62
256
370
-1
  6
ByLayer
 10
0.0
 20
-17.50000000000006
 30
0.0
 40
4.0
  0
CIRCLE
  5
140
100
AcDbEntity
100
AcDbCircle
  8
CONTOUR
 62
256
370
-1
  6
ByLayer
 10
-17.5
 20
0.0
 30
0.0
 40
4.0
  0
CIRCLE
  5
141
100
AcDbEntity
100
AcDbCircle
  8
CONTOUR
 62
256
370
-1
  6
ByLayer
 10
17.5
 20
0.0
 30
0.0
 40
4.0
  0
CIRCLE
  5
142
100
AcDbEntity
100
AcDbCircle
  8
CONTOUR
 62
256
370
-1
  6
ByLayer
 10
0.0
 20
17.500000000000053
 30
0.0
 40
4.0
  0
CIRCLE
  5
143
100
AcDbEntity
100
AcDbCircle
  8
CONTOUR
 62
256
370
-1
  6
ByLayer
 10
0.0
 20
0.0
 30
0.0
 40
6.0
  0
LINE
  5
144
100
AcDbEntity
100
AcDbLine
  8
CENTER
 62
256
370
-1
  6
ByLayer
 10
-47.0
 20
-34.000000000000007
 30
0.0
 11
47.0
 21
-34.000000000000036
 31
0.0
  0
LINE
  5
145
100
AcDbEntity
100
AcDbLine
  8
AUX
 62
256
370
-1
  6
ByLayer
 10
-45.0
 20
-30.999999999999989
 30
0.0
 11
-45.0
 21
-37.0
 31
0.0
  0
LINE
  5
146
100
AcDbEntity
100
AcDbLine
  8
AUX
 62
256
370
-1
  6
ByLayer
 10
45.0
 20
-31.000000000000082
 30
0.0
 11
45.0
 21
-36.999999999999972
 31
0.0
  0
LINE
  5
147
100
AcDbEntity
100
AcDbLine
  8
AUX
 62
256
370
-1
  6
ByLayer
 10
-45.0
 20
-37.0
 30
0.0
 11
-29.25
 21
-37.000000000000007
 31
0.0
  0
LINE
  5
148
100
AcDbEntity
100
AcDbLine
  8
AUX
 62
256
370
-1
  6
ByLayer
 10
-45.0
 20
-30.999999999999989
 30
0.0
 11
-29.25
 21
-30.999999999999989
 31
0.0
  0
LINE
  5
149
100
AcDbEntity
100
AcDbLine
  8
AUX
 62
256
370
-1
  6
ByLayer
 10
29.25
 20
-31.000000000000007
 30
0.0
 11
45.0
 21
-31.000000000000082
 31
0.0
  0
LINE
  5
14A
100
AcDbEntity
100
AcDbLine
  8
AUX
 62
256
370
-1
  6
ByLayer
 10
29.25
 20
-36.999999999999993
 30
0.0
 11
45.0
 21
-36.999999999999972
 31
0.0
  0
ENDBLK
  5
14B
100
AcDbEntity
  8
0
100
AcDbBlockEnd
  0
BLOCK
  5
14C
100
AcDbEntity
  8
0
100
AcDbBlockBegin
  2
Warm Wheel Bottom
 70
0
 10
0.0
 20
0.0
 30
0.0
  3
Warm Wheel Bottom
  1

  0
LINE
  5
14D
100
AcDbEntity
100
AcDbLine
  8
CENTER
 62
256
370
-1
  6
ByLayer
 10
-0.0000000000000019
 20
-31.0
 30
0.0
 11
0.0000000000000019
 21
31.0
 31
0.0
  0
LINE
  5
14E
100
AcDbEntity
100
AcDbLine
  8
CENTER
 62
256
370
-1
  6
ByLayer
 10
-31.0
 20
0.0
 30
0.0
 11
31.0
 21
0.0
 31
0.0
  0
CIRCLE
  5
14F
100
AcDbEntity
100
AcDbCircle
  8
CENTER
 62
256
370
-1
  6
ByLayer
 10
0.0
 20
0.0
 30
0.0
 40
30.0
  0
CIRCLE
  5
150
100
AcDbEntity
100
AcDbCircle
  8
CONTOUR
 62
256
370
-1
  6
ByLayer
 10
0.0
 20
0.0
 30
0.0
 40
30.5
  0
CIRCLE
  5
151
100
AcDbEntity
100
AcDbCircle
  8
CONTOUR
 62
256
370
-1
  6
ByLayer
 10
0.0
 20
0.0
 30
0.0
 40
29.5
  0
CIRCLE
  5
152
100
AcDbEntity
100
AcDbCircle
  8
CONTOUR
 62
256
370
-1
  6
ByLayer
 10
0.0
 20
0.0
 30
0.0
 40
6.0
  0
CIRCLE
  5
153
100
AcDbEntity
100
AcDbCircle
  8
CONTOUR
 62
256
370
-1
  6
ByLayer
 10
0.0
 20
0.0
 30
0.0
 40
12.5
  0
CIRCLE
  5
154
100
AcDbEntity
100
AcDbCircle
  8
CONTOUR
 62
256
370
-1
  6
ByLayer
 10
0.0
 20
0.0
 30
0.0
 40
16.0
  0
ENDBLK
  5
155
100
AcDbEntity
  8
0
100
AcDbBlockEnd
  0
BLOCK
  5
156
100
AcDbEntity
  8
0
100
AcDbBlockBegin
  2
Warm Wheel Side
 70
0
 10
0.0
 20
0.0
 30
0.0
  3
Warm Wheel Side
  1

  0
LINE
  5
157
100
AcDbEntity
100
AcDbLine
  8
CONTOUR
 62
256
370
-1
  6
ByLayer
 10
-12.5
 20
0.0
 30
0.0
 11
12.5
 21
0.0
 31
0.0
  0
LINE
  5
158
100
AcDbEntity
100
AcDbLine
  8
CONTOUR
 62
256
370
-1
  6
ByLayer
 10
12.5
 20
0.0
 30
0.0
 11
12.5
 21
14.5
 31
0.0
  0
LINE
  5
159
100
AcDbEntity
100
AcDbLine
  8
CONTOUR
 62
256
370
-1
  6
ByLayer
 10
-12.5
 20
0.0
 30
0.0
 11
-12.5
 21
14.5
 31
0.0
  0
LINE
  5
15A
100
AcDbEntity
100
AcDbLine
  8
CONTOUR
 62
256
370
-1
  6
ByLayer
 10
-15.999999999999998
 20
14.5
 30
0.0
 11
16.0
 21
14.5
 31
0.0
  0
LINE
  5
15B
100
AcDbEntity
100
AcDbLine
  8
CONTOUR
 62
256
370
-1
  6
ByLayer
 10
-30.499999999999996
 20
24.0
 30
0.0
 11
30.500000000000004
 21
24.0
 31
0.0
  0
LINE
  5
15C
100
AcDbEntity
100
AcDbLine
  8
CONTOUR
 62
256
370
-1
  6
ByLayer
 10
-30.499999999999996
 20
31.199999999999999
 30
0.0
 11
30.500000000000004
 21
31.199999999999999
 31
0.0
  0
LINE
  5
15D
100
AcDbEntity
100
AcDbLine
  8
CONTOUR
 62
256
370
-1
  6
ByLayer
 10
-15.999999999999998
 20
14.5
 30
0.0
 11
-15.999999999999998
 21
24.0
 31
0.0
  0
LINE
  5
15E
100
AcDbEntity
100
AcDbLine
  8
CONTOUR
 62
256
370
-1
  6
ByLayer
 10
16.0
 20
14.5
 30
0.0
 11
16.0
 21
24.0
 31
0.0
  0
LINE
  5
15F
100
AcDbEntity
100
AcDbLine
  8
AUX
 62
256
370
-1
  6
ByLayer
 10
-15.999999999999998
 20
13.5
 30
0.0
 11
16.0
 21
13.5
 31
0.0
  0
LINE
  5
160
100
AcDbEntity
100
AcDbLine
  8
AUX
 62
256
370
-1
  6
ByLayer
 10
16.0
 20
13.5
 30
0.0
 11
16.0
 21
14.5
 31
0.0
  0
LINE
  5
161
100
AcDbEntity
100
AcDbLine
  8
AUX
 62
256
370
-1
  6
ByLayer
 10
-15.999999999999998
 20
13.5
 30
0.0
 11
-15.999999999999998
 21
14.5
 31
0.0
  0
LINE
  5
162
100
AcDbEntity
100
AcDbLine
  8
CONTOUR
 62
256
370
-1
  6
ByLayer
 10
29.500000000000004
 20
24.0
 30
0.0
 11
29.500000000000004
 21
31.199999999999999
 31
0.0
  0
LINE
  5
163
100
AcDbEntity
100
AcDbLine
  8
CENTER
 62
256
370
-1
  6
ByLayer
 10
30.000000000000004
 20
24.0
 30
0.0
 11
30.000000000000004
 21
31.199999999999999
 31
0.0
  0
LINE
  5
164
100
AcDbEntity
100
AcDbLine
  8
CONTOUR
 62
256
370
-1
  6
ByLayer
 10
30.500000000000004
 20
24.0
 30
0.0
 11
30.500000000000004
 21
31.199999999999999
 31
0.0
  0
LINE
  5
165
100
AcDbEntity
100
AcDbLine
  8
CONTOUR
 62
256
370
-1
  6
ByLayer
 10
-29.499999999999996
 20
24.0
 30
0.0
 11
-29.499999999999996
 21
31.199999999999999
 31
0.0
  0
LINE
  5
166
100
AcDbEntity
100
AcDbLine
  8
CENTER
 62
256
370
-1
  6
ByLayer
 10
-29.999999999999996
 20
24.0
 30
0.0
 11
-29.999999999999996
 21
31.199999999999999
 31
0.0
  0
LINE
  5
167
100
AcDbEntity
100
AcDbLine
  8
CONTOUR
 62
256
370
-1
  6
ByLayer
 10
-30.499999999999996
 20
24.0
 30
0.0
 11
-30.499999999999996
 21
31.199999999999999
 31
0.0
  0
LINE
  5
168
100
AcDbEntity
100
AcDbLine
  8
CENTER
 62
256
370
-1
  6
ByLayer
 10
0.0000000000000005
 20
-2.0
 30
0.0
 11
0.0000000000000026
 21
33.200000000000003
 31
0.0
  0
LINE
  5
169
100
AcDbEntity
100
AcDbLine
  8
AUX
 62
256
370
-1
  6
ByLayer
 10
-15.999999999999998
 20
31.800000000000001
 30
0.0
 11
16.000000000000004
 21
31.800000000000001
 31
0.0
  0
LINE
  5
16A
100
AcDbEntity
100
AcDbLine
  8
AUX
 62
256
370
-1
  6
ByLayer
 10
-15.999999999999998
 20
31.199999999999999
 30
0.0
 11
-15.999999999999998
 21
31.800000000000001
 31
0.0
  0
LINE
  5
16B
100
AcDbEntity
100
AcDbLine
  8
AUX
 62
256
370
-1
  6
ByLayer
 10
-9.9999999999999982
 20
31.199999999999999
 30
0.0
 11
-9.9999999999999982
 21
31.800000000000001
 31
0.0
  0
LINE
  5
16C
100
AcDbEntity
100
AcDbLine
  8
AUX
 62
256
370
-1
  6
ByLayer
 10
10.000000000000002
 20
31.199999999999999
 30
0.0
 11
10.000000000000002
 21
31.800000000000001
 31
0.0
  0
LINE
  5
16D
100
AcDbEntity
100
AcDbLine
  8
AUX
 62
256
370
-1
  6
ByLayer
 10
16.000000000000004
 20
31.199999999999999
 30
0.0
 11
16.000000000000004
 21
31.800000000000001
 31
0.0
  0
LINE
  5
16E
100
AcDbEntity
100
AcDbLine
  8
AUX
 62
256
370
-1
  6
ByLayer
 10
-12.5
 20
13.5
 30
0.0
 11
-12.5
 21
14.5
 31
0.0
  0
LINE
  5
16F
100
AcDbEntity
100
AcDbLine
  8
AUX
 62
256
370
-1
  6
ByLayer
 10
12.5
 20
13.5
 30
0.0
 11
12.5
 21
14.5
 31
0.0
  0
LINE
  5
170
100
AcDbEntity
100
AcDbLine
  8
AUX
 62
256
370
-1
  6
ByLayer
 10
-15.999999999999998
 20
14.5
 30
0.0
 11
16.0
 21
14.5
 31
0.0
  0
LINE
  5
171
100
AcDbEntity
100
AcDbLine
  8
AUX
 62
256
370
-1
  6
ByLayer
 10
-15.999999999999998
 20
31.199999999999999
 30
0.0
 11
16.000000000000004
 21
31.199999999999999
 31
0.0
  0
LINE
  5
172
100
AcDbEntity
100
AcDbLine
  8
CONTOUR
 62
256
370
-1
  6
DASHED2
 10
-10.499999999999998
 20
27.699999999999999
 30
0.0
 11
10.500000000000002
 21
27.699999999999999
 31
0.0
  0
LINE
  5
173
100
AcDbEntity
100
AcDbLine
  8
CONTOUR
 62
256
370
-1
  6
DASHED2
 10
-10.499999999999998
 20
27.699999999999999
 30
0.0
 11
-10.499999999999998
 21
31.199999999999999
 31
0.0
  0
LINE
  5
174
100
AcDbEntity
100
AcDbLine
  8
CONTOUR
 62
256
370
-1
  6
DASHED2
 10
10.500000000000002
 20
27.699999999999999
 30
0.0
 11
10.500000000000002
 21
31.199999999999999
 31
0.0
  0
LINE
  5
175
100
AcDbEntity
100
AcDbLine
  8
CONTOUR
 62
256
370
-1
  6
DASHED2
 10
-5.9999999999999991
 20
0.0
 30
0.0
 11
-5.9999999999999973
 21
27.699999999999999
 31
0.0
  0
LINE
  5
176
100
AcDbEntity
100
AcDbLine
  8
CONTOUR
 62
256
370
-1
  6
DASHED2
 10
6.0000000000000009
 20
0.0
 30
0.0
 11
6.0000000000000027
 21
27.699999999999999
 31
0.0
  0
ENDBLK
  5
177
100
AcDbEntity
  8
0
100
AcDbBlockEnd
  0
BLOCK
  5
178
100
AcDbEntity
  8
0
100
AcDbBlockBegin
  2
Warm Wheel Top
 70
0
 10
0.0
 20
0.0
 30
0.0
  3
Warm Wheel Top
  1

  0
LINE
  5
179
100
AcDbEntity
100
AcDbLine
  8
CENTER
 62
256
370
-1
  6
ByLayer
 10
-0.0000000000000019
 20
-31.0
 30
0.0
 11
0.0000000000000019
 21
31.0
 31
0.0
  0
LINE
  5
17A
100
AcDbEntity
100
AcDbLine
  8
CENTER
 62
256
370
-1
  6
ByLayer
 10
-31.0
 20
0.0
 30
0.0
 11
31.0
 21
0.0
 31
0.0
  0
CIRCLE
  5
17B
100
AcDbEntity
100
AcDbCircle
  8
CENTER
 62
256
370
-1
  6
ByLayer
 10
0.0
 20
0.0
 30
0.0
 40
30.0
  0
CIRCLE
  5
17C
100
AcDbEntity
100
AcDbCircle
  8
CONTOUR
 62
256
370
-1
  6
ByLayer
 10
0.0
 20
0.0
 30
0.0
 40
30.5
  0
CIRCLE
  5
17D
100
AcDbEntity
100
AcDbCircle
  8
CONTOUR
 62
256
370
-1
  6
ByLayer
 10
0.0
 20
0.0
 30
0.0
 40
29.5
  0
CIRCLE
  5
17E
100
AcDbEntity
100
AcDbCircle
  8
CONTOUR
 62
256
370
-1
  6
ByLayer
 10
0.0
 20
0.0
 30
0.0
 40
6.0
  0
CIRCLE
  5
17F
100
AcDbEntity
100
AcDbCircle
  8
CONTOUR
 62
256
370
-1
  6
ByLayer
 10
0.0
 20
0.0
 30
0.0
 40
10.5
  0
CIRCLE
  5
180
100
AcDbEntity
100
AcDbCircle
  8
AUX
 62
256
370
-1
  6
ByLayer
 10
0.0
 20
0.0
 30
0.0
 40
10.0
  0
CIRCLE
  5
181
100
AcDbEntity
100
AcDbCircle
  8
AUX
 62
256
370
-1
  6
ByLayer
 10
0.0
 20
0.0
 30
0.0
 40
16.0
  0
ENDBLK
  5
182
100
AcDbEntity
  8
0
100
AcDbBlockEnd
  0
BLOCK
  5
183
100
AcDbEntity
  8
0
100
AcDbBlockBegin
  2
51107 Side
 70
0
 10
0.0
 20
0.0
 30
0.0
  3
51107 Side
  1

  0
LINE
  5
184
100
AcDbEntity
100
AcDbLine
  8
CENTER
 62
256
370
-1
  6
ByLayer
 10
-28.0
 20
0.0
 30
0.0
 11
28.0
 21
0.0
 31
0.0
  0
LINE
  5
185
100
AcDbEntity
100
AcDbLine
  8
CENTER
 62
256
370
-1
  6
ByLayer
 10
-0.0000000000000005
 20
-8.0
 30
0.0
 11
0.0000000000000005
 21
8.0
 31
0.0
  0
LINE
  5
186
100
AcDbEntity
100
AcDbLine
  8
CONTOUR
 62
256
370
-1
  6
ByLayer
 10
-17.5
 20
2.5
 30
0.0
 11
-17.5
 21
6.0
 31
0.0
  0
LINE
  5
187
100
AcDbEntity
100
AcDbLine
  8
CONTOUR
 62
256
370
-1
  6
ByLayer
 10
17.5
 20
2.5
 30
0.0
 11
17.5
 21
6.0
 31
0.0
  0
LINE
  5
188
100
AcDbEntity
100
AcDbLine
  8
CONTOUR
 62
256
370
-1
  6
ByLayer
 10
-18.5
 20
-6.0
 30
0.0
 11
-18.5
 21
-2.5
 31
0.0
  0
LINE
  5
189
100
AcDbEntity
100
AcDbLine
  8
CONTOUR
 62
256
370
-1
  6
ByLayer
 10
18.5
 20
-6.0
 30
0.0
 11
18.5
 21
-2.5
 31
0.0
  0
LINE
  5
18A
100
AcDbEntity
100
AcDbLine
  8
CONTOUR
 62
256
370
-1
  6
ByLayer
 10
-26.0
 20
2.5
 30
0.0
 11
-26.0
 21
6.0
 31
0.0
  0
LINE
  5
18B
100
AcDbEntity
100
AcDbLine
  8
CONTOUR
 62
256
370
-1
  6
ByLayer
 10
-26.0
 20
-6.0
 30
0.0
 11
-26.0
 21
-2.5
 31
0.0
  0
LINE
  5
18C
100
AcDbEntity
100
AcDbLine
  8
CONTOUR
 62
256
370
-1
  6
ByLayer
 10
-26.0
 20
-2.5
 30
0.0
 11
-18.5
 21
-2.5
 31
0.0
  0
LINE
  5
18D
100
AcDbEntity
100
AcDbLine
  8
CONTOUR
 62
256
370
-1
  6
ByLayer
 10
-26.0
 20
-6.0
 30
0.0
 11
-18.5
 21
-6.0
 31
0.0
  0
LINE
  5
18E
100
AcDbEntity
100
AcDbLine
  8
CONTOUR
 62
256
370
-1
  6
ByLayer
 10
18.5
 20
-6.0
 30
0.0
 11
26.0
 21
-6.0
 31
0.0
  0
LINE
  5
18F
100
AcDbEntity
100
AcDbLine
  8
CONTOUR
 62
256
370
-1
  6
ByLayer
 10
18.5
 20
-2.5
 30
0.0
 11
26.0
 21
-2.5
 31
0.0
  0
LINE
  5
190
100
AcDbEntity
100
AcDbLine
  8
CONTOUR
 62
256
370
-1
  6
ByLayer
 10
17.5
 20
2.5
 30
0.0
 11
26.0
 21
2.5
 31
0.0
  0
LINE
  5
191
100
AcDbEntity
100
AcDbLine
  8
CONTOUR
 62
256
370
-1
  6
ByLayer
 10
-26.0
 20
2.5
 30
0.0
 11
-17.5
 21
2.5
 31
0.0
  0
LINE
  5
192
100
AcDbEntity
100
AcDbLine
  8
CONTOUR
 62
256
370
-1
  6
ByLayer
 10
-26.0
 20
6.0
 30
0.0
 11
-17.5
 21
6.0
 31
0.0
  0
LINE
  5
193
100
AcDbEntity
100
AcDbLine
  8
CONTOUR
 62
256
370
-1
  6
ByLayer
 10
17.5
 20
6.0
 30
0.0
 11
26.0
 21
6.0
 31
0.0
  0
LINE
  5
194
100
AcDbEntity
100
AcDbLine
  8
CONTOUR
 62
256
370
-1
  6
ByLayer
 10
26.0
 20
2.5
 30
0.0
 11
26.0
 21
6.0
 31
0.0
  0
LINE
  5
195
100
AcDbEntity
100
AcDbLine
  8
CONTOUR
 62
256
370
-1
  6
ByLayer
 10
26.0
 20
-6.0
 30
0.0
 11
26.0
 21
-2.5
 31
0.0
  0
LINE
  5
196
100
AcDbEntity
100
AcDbLine
  8
CENTER
 62
256
370
-1
  6
ByLayer
 10
-21.75
 20
-7.9999999999999973
 30
0.0
 11
-21.75
 21
8.0000000000000018
 31
0.0
  0
LINE
  5
197
100
AcDbEntity
100
AcDbLine
  8
CENTER
 62
256
370
-1
  6
ByLayer
 10
21.75
 20
-8.0000000000000053
 30
0.0
 11
21.75
 21
7.9999999999999947
 31
0.0
  0
LINE
  5
198
100
AcDbEntity
100
AcDbLine
  8
CONTOUR
 62
256
370
-1
  6
ByLayer
 10
-17.5
 20
2.5
 30
0.0
 11
17.5
 21
2.5
 31
0.0
  0
LINE
  5
199
100
AcDbEntity
100
AcDbLine
  8
CONTOUR
 62
256
370
-1
  6
ByLayer
 10
17.5
 20
6.0
 30
0.0
 11
-17.5
 21
6.0
 31
0.0
  0
LINE
  5
19A
100
AcDbEntity
100
AcDbLine
  8
CONTOUR
 62
256
370
-1
  6
ByLayer
 10
-18.5
 20
-2.5
 30
0.0
 11
18.5
 21
-2.5
 31
0.0
  0
LINE
  5
19B
100
AcDbEntity
100
AcDbLine
  8
CONTOUR
 62
256
370
-1
  6
ByLayer
 10
18.5
 20
-6.0
 30
0.0
 11
-18.5
 21
-6.0
 31
0.0
  0
CIRCLE
  5
19C
100
AcDbEntity
100
AcDbCircle
  8
CONTOUR
 62
256
370
-1
  6
ByLayer
 10
21.75
 20
0.0
 30
0.0
 40
3.1749999999999998
  0
CIRCLE
  5
19D
100
AcDbEntity
100
AcDbCircle
  8
CONTOUR
 62
256
370
-1
  6
ByLayer
 10
-21.75
 20
0.0
 30
0.0
 40
3.1749999999999998
  0
LINE
  5
19E
100
AcDbEntity
100
AcDbLine
  8
AUX
 62
256
370
-1
  6
ByLayer
 10
-24.94007904164749
 20
4.0748031496063
 30
0.0
 11
-18.55992095835251
 21
-4.0748031496063
 31
0.0
  0
LINE
  5
19F
100
AcDbEntity
100
AcDbLine
  8
AUX
 62
256
370
-1
  6
ByLayer
 10
-18.55992095835251
 20
4.0748031496062991
 30
0.0
 11
-24.94007904164749
 21
-4.0748031496062991
 31
0.0
  0
LINE
  5
1A0
100
AcDbEntity
100
AcDbLine
  8
AUX
 62
256
370
-1
  6
ByLayer
 10
18.55992095835251
 20
-4.0748031496063
 30
0.0
 11
24.94007904164749
 21
4.0748031496063
 31
0.0
  0
LINE
  5
1A1
100
AcDbEntity
100
AcDbLine
  8
AUX
 62
256
370
-1
  6
ByLayer
 10
18.55992095835251
 20
4.0748031496063
 30
0.0
 11
24.94007904164749
 21
-4.0748031496063
 31
0.0
  0
ENDBLK
  5
1A2
100
AcDbEntity
  8
0
100
AcDbBlockEnd
  0
BLOCK
  5
1A3
100
AcDbEntity
  8
0
100
AcDbBlockBegin
  2
51108 Side
 70
0
 10
0.0
 20
0.0
 30
0.0
  3
51108 Side
  1

  0
LINE
  5
1A4
100
AcDbEntity
100
AcDbLine
  8
CENTER
 62
256
370
-1
  6
ByLayer
 10
-32.0
 20
0.0
 30
0.0
 11
32.0
 21
0.0
 31
0.0
  0
LINE
  5
1A5
100
AcDbEntity
100
AcDbLine
  8
CENTER
 62
256
370
-1
  6
ByLayer
 10
-0.0000000000000005
 20
-8.5
 30
0.0
 11
0.0000000000000005
 21
8.5
 31
0.0
  0
LINE
  5
1A6
100
AcDbEntity
100
AcDbLine
  8
CONTOUR
 62
256
370
-1
  6
ByLayer
 10
20.0
 20
2.7000000000000002
 30
0.0
 11
20.0
 21
6.5
 31
0.0
  0
LINE
  5
1A7
100
AcDbEntity
100
AcDbLine
  8
CONTOUR
 62
256
370
-1
  6
ByLayer
 10
-20.0
 20
2.7000000000000002
 30
0.0
 11
-20.0
 21
6.5
 31
0.0
  0
LINE
  5
1A8
100
AcDbEntity
100
AcDbLine
  8
CONTOUR
 62
256
370
-1
  6
ByLayer
 10
-21.0
 20
-6.5
 30
0.0
 11
-21.0
 21
-2.7000000000000002
 31
0.0
  0
LINE
  5
1A9
100
AcDbEntity
100
AcDbLine
  8
CONTOUR
 62
256
370
-1
  6
ByLayer
 10
21.0
 20
-6.5
 30
0.0
 11
21.0
 21
-2.7000000000000002
 31
0.0
  0
LINE
  5
1AA
100
AcDbEntity
100
AcDbLine
  8
CONTOUR
 62
256
370
-1
  6
ByLayer
 10
-30.0
 20
2.7000000000000002
 30
0.0
 11
-30.0
 21
6.5
 31
0.0
  0
LINE
  5
1AB
100
AcDbEntity
100
AcDbLine
  8
CONTOUR
 62
256
370
-1
  6
ByLayer
 10
-30.0
 20
-6.5
 30
0.0
 11
-30.0
 21
-2.7000000000000002
 31
0.0
  0
LINE
  5
1AC
100
AcDbEntity
100
AcDbLine
  8
CONTOUR
 62
256
370
-1
  6
ByLayer
 10
30.0
 20
2.7000000000000002
 30
0.0
 11
30.0
 21
6.5
 31
0.0
  0
LINE
  5
1AD
100
AcDbEntity
100
AcDbLine
  8
CONTOUR
 62
256
370
-1
  6
ByLayer
 10
30.0
 20
-6.5
 30
0.0
 11
30.0
 21
-2.7000000000000002
 31
0.0
  0
LINE
  5
1AE
100
AcDbEntity
100
AcDbLine
  8
CONTOUR
 62
256
370
-1
  6
ByLayer
 10
20.0
 20
6.5
 30
0.0
 11
30.0
 21
6.5
 31
0.0
  0
LINE
  5
1AF
100
AcDbEntity
100
AcDbLine
  8
CONTOUR
 62
256
370
-1
  6
ByLayer
 10
20.0
 20
2.7000000000000002
 30
0.0
 11
30.0
 21
2.7000000000000002
 31
0.0
  0
LINE
  5
1B0
100
AcDbEntity
100
AcDbLine
  8
CONTOUR
 62
256
370
-1
  6
ByLayer
 10
-30.0
 20
6.5
 30
0.0
 11
-20.0
 21
6.5
 31
0.0
  0
LINE
  5
1B1
100
AcDbEntity
100
AcDbLine
  8
CONTOUR
 62
256
370
-1
  6
ByLayer
 10
-20.0
 20
6.5
 30
0.0
 11
20.0
 21
6.5
 31
0.0
  0
LINE
  5
1B2
100
AcDbEntity
100
AcDbLine
  8
CONTOUR
 62
256
370
-1
  6
ByLayer
 10
-30.0
 20
2.7000000000000002
 30
0.0
 11
-20.0
 21
2.7000000000000002
 31
0.0
  0
LINE
  5
1B3
100
AcDbEntity
100
AcDbLine
  8
CONTOUR
 62
256
370
-1
  6
ByLayer
 10
-20.0
 20
2.7000000000000002
 30
0.0
 11
20.0
 21
2.7000000000000002
 31
0.0
  0
LINE
  5
1B4
100
AcDbEntity
100
AcDbLine
  8
CONTOUR
 62
256
370
-1
  6
ByLayer
 10
-30.0
 20
-2.7000000000000002
 30
0.0
 11
-21.0
 21
-2.7000000000000002
 31
0.0
  0
LINE
  5
1B5
100
AcDbEntity
100
AcDbLine
  8
CONTOUR
 62
256
370
-1
  6
ByLayer
 10
-21.0
 20
-2.7000000000000002
 30
0.0
 11
30.0
 21
-2.7000000000000002
 31
0.0
  0
LINE
  5
1B6
100
AcDbEntity
100
AcDbLine
  8
CONTOUR
 62
256
370
-1
  6
ByLayer
 10
-30.0
 20
-6.5
 30
0.0
 11
-21.0
 21
-6.5
 31
0.0
  0
LINE
  5
1B7
100
AcDbEntity
100
AcDbLine
  8
CONTOUR
 62
256
370
-1
  6
ByLayer
 10
-21.0
 20
-6.5
 30
0.0
 11
21.0
 21
-6.5
 31
0.0
  0
LINE
  5
1B8
100
AcDbEntity
100
AcDbLine
  8
CONTOUR
 62
256
370
-1
  6
ByLayer
 10
21.0
 20
-6.5
 30
0.0
 11
30.0
 21
-6.5
 31
0.0
  0
LINE
  5
1B9
100
AcDbEntity
100
AcDbLine
  8
CENTER
 62
256
370
-1
  6
ByLayer
 10
25.0
 20
-8.5000000000000053
 30
0.0
 11
25.0
 21
8.4999999999999947
 31
0.0
  0
LINE
  5
1BA
100
AcDbEntity
100
AcDbLine
  8
CENTER
 62
256
370
-1
  6
ByLayer
 10
-25.0
 20
-8.4999999999999964
 30
0.0
 11
-25.0
 21
8.5000000000000036
 31
0.0
  0
LINE
  5
1BB
100
AcDbEntity
100
AcDbLine
  8
AUX
 62
256
370
-1
  6
ByLayer
 10
-31.010407640085653
 20
-6.0104076400856536
 30
0.0
 11
-18.989592359914344
 21
6.0104076400856536
 31
0.0
  0
LINE
  5
1BC
100
AcDbEntity
100
AcDbLine
  8
AUX
 62
256
370
-1
  6
ByLayer
 10
18.989592359914347
 20
-6.0104076400856536
 30
0.0
 11
31.010407640085656
 21
6.0104076400856536
 31
0.0
  0
LINE
  5
1BD
100
AcDbEntity
100
AcDbLine
  8
AUX
 62
256
370
-1
  6
ByLayer
 10
-18.989592359914347
 20
-6.0104076400856545
 30
0.0
 11
-31.010407640085653
 21
6.0104076400856545
 31
0.0
  0
LINE
  5
1BE
100
AcDbEntity
100
AcDbLine
  8
AUX
 62
256
370
-1
  6
ByLayer
 10
31.010407640085653
 20
-6.0104076400856545
 30
0.0
 11
18.989592359914347
 21
6.0104076400856545
 31
0.0
  0
CIRCLE
  5
1BF
100
AcDbEntity
100
AcDbCircle
  8
CONTOUR
 62
256
370
-1
  6
ByLayer
 10
-25.0
 20
0.0000000000000031
 30
0.0
 40
3.8183766184073584
  0
CIRCLE
  5
1C0
100
AcDbEntity
100
AcDbCircle
  8
CONTOUR
 62
256
370
-1
  6
ByLayer
 10
25.0
 20
0.0000000000000031
 30
0.0
 40
3.8183766184073584
  0
ENDBLK
  5
1C1
100
AcDbEntity
  8
0
100
AcDbBlockEnd
  0
BLOCK
  5
1C2
100
AcDbEntity
  8
0
100
AcDbBlockBegin
  2
Washer 6.5x13.0x1.0 Face
 70
0
 10
0.0
 20
0.0
 30
0.0
  3
Washer 6.5x13.0x1.0 Face
  1

  0
LINE
  5
1C3
100
AcDbEntity
100
AcDbLine
  8
CENTER
 62
256
370
-1
  6
ByLayer
 10
-8.5
 20
0.0
 30
0.0
 11
8.5
 21
0.0
 31
0.0
  0
LINE
  5
1C4
100
AcDbEntity
100
AcDbLine
  8
CENTER
 62
256
370
-1
  6
ByLayer
 10
-0.0000000000000005
 20
-8.5
 30
0.0
 11
0.0000000000000005
 21
8.5
 31
0.0
  0
CIRCLE
  5
1C5
100
AcDbEntity
100
AcDbCircle
  8
CONTOUR
 62
256
370
-1
  6
ByLayer
 10
0.0
 20
0.0
 30
0.0
 40
3.25
  0
CIRCLE
  5
1C6
100
AcDbEntity
100
AcDbCircle
  8
CONTOUR
 62
256
370
-1
  6
ByLayer
 10
0.0
 20
0.0
 30
0.0
 40
6.5
  0
ENDBLK
  5
1C7
100
AcDbEntity
  8
0
100
AcDbBlockEnd
  0
BLOCK
  5
1C8
100
AcDbEntity
  8
0
100
AcDbBlockBegin
  2
Washer 6.5x13.0x1.0 Side
 70
0
 10
0.0
 20
0.0
 30
0.0
  3
Washer 6.5x13.0x1.0 Side
  1

  0
ENDBLK
  5
1C9
100
AcDbEntity
  8
0
100
AcDbBlockEnd
  0
BLOCK
  5
1CA
100
AcDbEntity
  8
0
100
AcDbBlockBegin
  2
Washer 35.0x52.0x1.0 Face
 70
0
 10
0.0
 20
0.0
 30
0.0
  3
Washer 35.0x52.0x1.0 Face
  1

  0
ENDBLK
  5
1CB
100
AcDbEntity
  8
0
100
AcDbBlockEnd
  0
BLOCK
  5
1CC
100
AcDbEntity
  8
0
100
AcDbBlockBegin
  2
Washer 35.0x52.0x1.0 Side
 70
0
 10
0.0
 20
0.0
 30
0.0
  3
Washer 35.0x52.0x1.0 Side
  1

  0
ENDBLK
  5
1CD
100
AcDbEntity
  8
0
100
AcDbBlockEnd
  0
ENDSEC
  0
SECTION
  2
ENTITIES
  0
LINE
  5
1CE
100
AcDbEntity
100
AcDbLine
  8
CENTER
 62
256
370
-1
  6
ByLayer
 10
100.0
 20
50.0
 30
0.0
 11
100.0
 21
150.0
 31
0.0
  0
LINE
  5
1CF
100
AcDbEntity
100
AcDbLine
  8
CENTER
 62
256
370
-1
  6
ByLayer
 10
104.96379001492018
 20
132.80612191424288
 30
0.0
 11
40.376940579311238
 21
225.04570219746088
 31
0.0
  0
CIRCLE
  5
1D0
100
AcDbEntity
100
AcDbCircle
  8
CONTOUR
 62
256
370
-1
  6
ByLayer
 10
97.906657145321148
 20
142.88475215527501
 30
0.0
 40
3.0
  0
CIRCLE
  5
1D1
100
AcDbEntity
100
AcDbCircle
  8
CENTER
 62
256
370
-1
  6
ByLayer
 10
97.906657145321148
 20
142.88475215527501
 30
0.0
 40
25.600000000000001
  0
CIRCLE
  5
1D2
100
AcDbEntity
100
AcDbCircle
  8
CONTOUR
 62
256
370
-1
  6
ByLayer
 10
97.906657145321148
 20
142.88475215527501
 30
0.0
 40
26.399999999999999
  0
LINE
  5
1D3
100
AcDbEntity
100
AcDbLine
  8
CONTOUR
 62
256
370
-1
  6
ByLayer
 10
43.502721019421969
 20
192.6864763624657
 30
0.0
 11
88.556083455316525
 21
224.23318036177324
 31
0.0
  0
LINE
  5
1D4
100
AcDbEntity
100
AcDbLine
  8
CONTOUR
 62
256
370
-1
  6
ByLayer
 10
87.668106618452498
 20
129.61176895221334
 30
0.0
 11
132.72146905434707
 21
161.15847295152088
 31
0.0
  0
LINE
  5
1D5
100
AcDbEntity
100
AcDbLine
  8
CONTOUR
 62
256
370
-1
  6
ByLayer
 10
87.982507018965492
 20
225.05233240606225
 30
0.0
 11
98.221907572577877
 21
232.22203786045031
 31
0.0
  0
LINE
  5
1D6
100
AcDbEntity
100
AcDbLine
  8
CONTOUR
 62
256
370
-1
  6
ByLayer
 10
133.2950454906981
 20
160.33932090723189
 30
0.0
 11
143.5344460443105
 21
167.50902636161996
 31
0.0
  0
LINE
  5
1D7
100
AcDbEntity
100
AcDbLine
  8
CONTOUR
 62
256
370
-1
  6
ByLayer
 10
143.5344460443105
 20
167.50902636161996
 30
0.0
 11
98.221907572577877
 21
232.22203786045031
 31
0.0
  0
LINE
  5
1D8
100
AcDbEntity
100
AcDbLine
  8
CONTOUR
 62
256
370
-1
  6
ByLayer
 10
133.2950454906981
 20
160.33932090723189
 30
0.0
 11
87.982507018965492
 21
225.05233240606225
 31
0.0
  0
LINE
  5
1D9
100
AcDbEntity
100
AcDbLine
  8
CONTOUR
 62
256
370
-1
  6
ByLayer
 10
109.78521181425529
 20
145.09833273369159
 30
0.0
 11
65.619826215224748
 21
208.17304014394392
 31
0.0
  0
LINE
  5
1DA
100
AcDbEntity
100
AcDbLine
  8
CONTOUR
 62
256
370
-1
  6
ByLayer
 10
109.37563579211078
 20
144.81154451551606
 30
0.0
 11
65.210250193080242
 21
207.88625192576842
 31
0.0
  0
LINE
  5
1DB
100
AcDbEntity
100
AcDbLine
  8
CONTOUR
 62
256
370
-1
  6
ByLayer
 10
100.0
 20
112.0
 30
0.0
 11
42.642356364895392
 21
193.91520442889919
 31
0.0
  0
LINE
  5
1DC
100
AcDbEntity
100
AcDbLine
  8
0
 62
256
370
-1
  6
ByLayer
 10
132.72146905434707
 20
161.15847295152088
 30
0.0
 11
190.07911268945165
 21
79.243268522621676
 31
0.0
  0
DIMENSION
  5
1DD
100
AcDbEntity
  8
0
 62
256
370
-1
  6
ByLayer
100
AcDbDimension
 10
195.26957060252985
 20
178.70847149789358
 30
0.0
 11
168.1266588680194
 21
220.7415295305014
 31
0.0
 70
1
 71
5
 72
1
 41
1.0
 42
0.0
  1

  3
Standard
100
AcDbAlignedDimension
 13
42.642356364895392
 23
193.91520442889919
 33
0.0
 14
100.0
 24
112.0
 34
0.0
  0
DIMENSION
  5
1DE
100
AcDbEntity
  8
0
 62
256
370
-1
  6
ByLayer
100
AcDbDimension
 10
155.48133343900565
 20
224.09492322960546
 30
0.0
 11
174.22453661257887
 21
200.59581771909393
 31
0.0
 70
1
 71
5
 72
1
 41
1.0
 42
0.0
  1

  3
Standard
100
AcDbAlignedDimension
 13
100.0
 23
112.0
 33
0.0
 14
65.585413818937226
 24
161.14912265733952
 34
0.0
  0
LINE
  5
1DF
100
AcDbEntity
100
AcDbLine
  8
CONTOUR
 62
256
370
-1
  6
ByLayer
 10
36.5
 20
78.0
 30
0.0
 11
163.5
 21
78.0
 31
0.0
  0
LINE
  5
1E0
100
AcDbEntity
100
AcDbLine
  8
CONTOUR
 62
256
370
-1
  6
ByLayer
 10
36.5
 20
88.0
 30
0.0
 11
36.5
 21
78.0
 31
0.0
  0
LINE
  5
1E1
100
AcDbEntity
100
AcDbLine
  8
CONTOUR
 62
256
370
-1
  6
ByLayer
 10
163.5
 20
88.0
 30
0.0
 11
163.5
 21
78.0
 31
0.0
  0
LINE
  5
1E2
100
AcDbEntity
100
AcDbLine
  8
CENTER
 62
256
370
-1
  6
ByLayer
 10
31.500000000000011
 20
118.0
 30
0.0
 11
31.499999999999996
 21
68.0
 31
0.0
  0
LINE
  5
1E3
100
AcDbEntity
100
AcDbLine
  8
CONTOUR
 62
256
370
-1
  6
ByLayer
 10
26.500000000000004
 20
88.0
 30
0.0
 11
26.5
 21
78.0
 31
0.0
  0
LINE
  5
1E4
100
AcDbEntity
100
AcDbLine
  8
CONTOUR
 62
256
370
-1
  6
ByLayer
 10
34.500000000000014
 20
100.0
 30
0.0
 11
34.500000000000007
 21
88.0
 31
0.0
  0
LINE
  5
1E5
100
AcDbEntity
100
AcDbLine
  8
CONTOUR
 62
256
370
-1
  6
ByLayer
 10
28.500000000000007
 20
100.0
 30
0.0
 11
28.500000000000004
 21
88.0
 31
0.0
  0
LINE
  5
1E6
100
AcDbEntity
100
AcDbLine
  8
CONTOUR
 62
256
370
-1
  6
ByLayer
 10
105.0
 20
78.0
 30
0.0
 11
105.0
 21
100.0
 31
0.0
  0
LINE
  5
1E7
100
AcDbEntity
100
AcDbLine
  8
CONTOUR
 62
256
370
-1
  6
ByLayer
 10
95.0
 20
78.0
 30
0.0
 11
95.0
 21
100.0
 31
0.0
  0
LINE
  5
1E8
100
AcDbEntity
100
AcDbLine
  8
CONTOUR
 62
256
370
-1
  6
ByLayer
 10
10.0
 20
112.0
 30
0.0
 11
170.0
 21
112.0
 31
0.0
  0
LINE
  5
1E9
100
AcDbEntity
100
AcDbLine
  8
CONTOUR
 62
256
370
-1
  6
ByLayer
 10
10.0
 20
100.0
 30
0.0
 11
170.0
 21
100.0
 31
0.0
  0
LINE
  5
1EA
100
AcDbEntity
100
AcDbLine
  8
CONTOUR
 62
256
370
-1
  6
ByLayer
 10
9.9999999999999964
 20
88.0
 30
0.0
 11
170.0
 21
88.0
 31
0.0
  0
LINE
  5
1EB
100
AcDbEntity
100
AcDbLine
  8
CONTOUR
 62
256
370
-1
  6
ByLayer
 10
170.0
 20
88.0
 30
0.0
 11
170.0
 21
112.0
 31
0.0
  0
DIMENSION
  5
1EC
100
AcDbEntity
  8
0
 62
256
370
-1
  6
ByLayer
100
AcDbDimension
 10
100.0
 20
70.0
 30
0.0
 11
131.75
 21
71.875
 31
0.0
 70
1
 71
5
 72
1
 41
1.0
 42
0.0
  1

  3
Standard
100
AcDbAlignedDimension
 13
163.5
 23
78.0
 33
0.0
 14
100.0
 24
78.0
 34
0.0
  0
DIMENSION
  5
1ED
100
AcDbEntity
  8
0
 62
256
370
-1
  6
ByLayer
100
AcDbDimension
 10
100.0
 20
60.0
 30
0.0
 11
135.0
 21
61.875
 31
0.0
 70
1
 71
5
 72
1
 41
1.0
 42
0.0
  1

  3
Standard
100
AcDbAlignedDimension
 13
170.0
 23
88.0
 33
0.0
 14
100.0
 24
88.0
 34
0.0
  0
DIMENSION
  5
1EE
100
AcDbEntity
  8
0
 62
256
370
-1
  6
ByLayer
100
AcDbDimension
 10
163.5
 20
50.0
 30
0.0
 11
100.0
 21
51.875
 31
0.0
 70
1
 71
5
 72
1
 41
1.0
 42
0.0
  1

  3
Standard
100
AcDbAlignedDimension
 13
36.5
 23
78.0
 33
0.0
 14
163.5
 24
78.0
 34
0.0
  0
DIMENSION
  5
1EF
100
AcDbEntity
  8
0
 62
256
370
-1
  6
ByLayer
100
AcDbDimension
 10
170.0
 20
40.0
 30
0.0
 11
90.0
 21
41.875
 31
0.0
 70
1
 71
5
 72
1
 41
1.0
 42
0.0
  1

  3
Standard
100
AcDbAlignedDimension
 13
10.0
 23
88.0
 33
0.0
 14
170.0
 24
88.0
 34
0.0
  0
DIMENSION
  5
1F0
100
AcDbEntity
  8
0
 62
256
370
-1
  6
ByLayer
100
AcDbDimension
 10
31.5
 20
70.0
 30
0.0
 11
65.75
 21
71.875
 31
0.0
 70
1
 71
5
 72
1
 41
1.0
 42
0.0
  1

  3
Standard
100
AcDbAlignedDimension
 13
100.0
 23
88.0
 33
0.0
 14
31.500000000000004
 24
88.0
 34
0.0
  0
LINE
  5
1F1
100
AcDbEntity
100
AcDbLine
  8
CONTOUR
 62
256
370
-1
  6
ByLayer
 10
10.0
 20
88.0
 30
0.0
 11
10.0
 21
171.05878043727182
 31
0.0
  0
LINE
  5
1F2
100
AcDbEntity
100
AcDbLine
  8
CONTOUR
 62
256
370
-1
  6
ByLayer
 10
10.0
 20
171.05878043727179
 30
0.0
 11
42.642356364895392
 21
193.91520442889919
 31
0.0
  0
LINE
  5
1F3
100
AcDbEntity
100
AcDbLine
  8
0
 62
256
370
-1
  6
ByLayer
 10
18.0
 20
88.0
 30
0.0
 11
18.000000000000007
 21
271.05878043727182
 31
0.0
  0
LINE
  5
1F4
100
AcDbEntity
100
AcDbLine
  8
0
 62
256
370
-1
  6
ByLayer
 10
86.0
 20
87.999999999999986
 30
0.0
 11
86.0
 21
271.05878043727182
 31
0.0
  0
DIMENSION
  5
1F5
100
AcDbEntity
  8
0
 62
256
370
-1
  6
ByLayer
100
AcDbDimension
 10
86.0
 20
250.0
 30
0.0
 11
48.0
 21
251.875
 31
0.0
 70
0
 71
5
 72
1
 41
1.0
 42
0.0
  1

  3
Standard
100
AcDbAlignedDimension
 13
10.0
 23
171.05878043727179
 33
0.0
 14
86.0
 24
112.0
 34
0.0
 50
0.0
100
AcDbRotatedDimension
  0
LINE
  5
1F6
100
AcDbEntity
100
AcDbLine
  8
CENTER
 62
256
370
-1
  6
ByLayer
 10
34.083322536842296
 20
179.98706959575506
 30
0.0
 11
113.54107083287451
 21
235.62398392180651
 31
0.0
  0
LINE
  5
1F7
100
AcDbEntity
100
AcDbLine
  8
CENTER
 62
256
370
-1
  6
ByLayer
 10
41.138312703960175
 20
169.91149945100045
 30
0.0
 11
120.59606099999237
 21
225.54841377705191
 31
0.0
  0
LINE
  5
1F8
100
AcDbEntity
100
AcDbLine
  8
CENTER
 62
256
370
-1
  6
ByLayer
 10
53.298133154602354
 20
152.54547611207383
 30
0.0
 11
132.75588145063452
 21
208.18239043812528
 31
0.0
  0
LINE
  5
1F9
100
AcDbEntity
100
AcDbLine
  8
CENTER
 62
256
370
-1
  6
ByLayer
 10
65.457953605244526
 20
135.1794527731472
 30
0.0
 11
144.91570190127672
 21
190.81636709919866
 31
0.0
  0
LINE
  5
1FA
100
AcDbEntity
100
AcDbLine
  8
CENTER
 62
256
370
-1
  6
ByLayer
 10
72.512943772362405
 20
125.1038826283926
 30
0.0
 11
151.97069206839458
 21
180.74079695444405
 31
0.0
  0
LINE
  5
1FB
100
AcDbEntity
100
AcDbLine
  8
0
 62
256
370
-1
  6
ByLayer
 10
86.000000000000014
 20
152.65210198651741
 30
0.0
 11
53.357643635104615
 21
129.79567799489001
 31
0.0
  0
LINE
  5
1FC
100
AcDbEntity
100
AcDbLine
  8
0
 62
256
370
-1
  6
ByLayer
 10
86.0
 20
109.32926375131527
 30
0.0
 11
14.311618831421868
 21
211.7108824237892
 31
0.0
  0
LINE
  5
1FD
100
AcDbEntity
100
AcDbLine
  8
CONTOUR
 62
256
370
-1
  6
ByLayer
 10
81.688381168578161
 20
112.0
 30
0.0
 11
30.355075700560533
 21
185.31155788363355
 31
0.0
  0
LINE
  5
1FE
100
AcDbEntity
100
AcDbLine
  8
0
 62
256
370
-1
  6
ByLayer
 10
86.000000000000028
 20
211.7108824237892
 30
0.0
 11
10.000000000000014
 21
211.7108824237892
 31
0.0
  0
DIMENSION
  5
1FF
100
AcDbEntity
  8
0
 62
256
370
-1
  6
ByLayer
100
AcDbDimension
 10
-0.0000000000000036
 20
185.31155788363353
 30
0.0
 11
-1.8750000000000058
 21
148.65577894181678
 31
0.0
 70
0
 71
5
 72
1
 41
1.0
 42
0.0
  1

  3
Standard
100
AcDbAlignedDimension
 13
10.0
 23
112.0
 33
0.0
 14
30.35507570056054
 24
185.31155788363353
 34
0.0
 50
90.0
100
AcDbRotatedDimension
  0
DIMENSION
  5
200
100
AcDbEntity
  8
0
 62
256
370
-1
  6
ByLayer
100
AcDbDimension
 10
10.0
 20
106.0
 30
0.0
 11
45.84419058428908
 21
107.875
 31
0.0
 70
0
 71
5
 72
1
 41
1.0
 42
0.0
  1

  3
Standard
100
AcDbAlignedDimension
 13
81.688381168578161
 23
112.0
 33
0.0
 14
10.0
 24
112.0
 34
0.0
 50
0.0
100
AcDbRotatedDimension
  0
DIMENSION
  5
201
100
AcDbEntity
  8
0
 62
256
370
-1
  6
ByLayer
100
AcDbDimension
 10
-10.0
 20
211.7108824237892
 30
0.0
 11
-11.875000000000004
 21
161.8554412118946
 31
0.0
 70
0
 71
5
 72
1
 41
1.0
 42
0.0
  1

  3
Standard
100
AcDbAlignedDimension
 13
10.0
 23
112.0
 33
0.0
 14
10.0
 24
211.7108824237892
 34
0.0
 50
90.0
100
AcDbRotatedDimension
  0
INSERT
  5
202
100
AcDbEntity
100
AcDbBlockReference
  8
0
 62
256
370
-1
  6
ByLayer
  2
Base Bottom
 10
500.0
 20
100.0
 30
0.0
 44
1.0
 45
1.0
  0
INSERT
  5
203
100
AcDbEntity
100
AcDbBlockReference
  8
0
 62
256
370
-1
  6
ByLayer
  2
Base Top
 10
500.0
 20
300.0
 30
0.0
 44
1.0
 45
1.0
  0
INSERT
  5
204
100
AcDbEntity
100
AcDbBlockReference
  8
0
 62
256
370
-1
  6
ByLayer
  2
Warm Wheel Top
 10
600.0
 20
300.0
 30
0.0
 44
1.0
 45
1.0
  0
INSERT
  5
205
100
AcDbEntity
100
AcDbBlockReference
  8
0
 62
256
370
-1
  6
ByLayer
  2
Warm Wheel Bottom
 10
600.0
 20
100.0
 30
0.0
 44
1.0
 45
1.0
  0
INSERT
  5
206
100
AcDbEntity
100
AcDbBlockReference
  8
0
 62
256
370
-1
  6
ByLayer
  2
Base Front
 10
500.0
 20
170.0
 30
0.0
 44
1.0
 45
1.0
  0
INSERT
  5
207
100
AcDbEntity
100
AcDbBlockReference
  8
0
 62
256
370
-1
  6
ByLayer
  2
Movement Top
 10
700.0
 20
300.0
 30
0.0
 44
1.0
 45
1.0
  0
INSERT
  5
208
100
AcDbEntity
100
AcDbBlockReference
  8
0
 62
256
370
-1
  6
ByLayer
  2
Movement Bottom
 10
700.0
 20
100.0
 30
0.0
 44
1.0
 45
1.0
  0
INSERT
  5
209
100
AcDbEntity
100
AcDbBlockReference
  8
0
 62
256
370
-1
  6
ByLayer
  2
Movement Side
 10
500.0
 20
198.5
 30
0.0
 44
1.0
 45
1.0
  0
CIRCLE
  5
20A
100
AcDbEntity
100
AcDbCircle
  8
AUX
 62
256
370
-1
  6
ByLayer
 10
700.0
 20
100.0
 30
0.0
 40
26.0
  0
CIRCLE
  5
20B
100
AcDbEntity
100
AcDbCircle
  8
AUX
 62
256
370
-1
  6
ByLayer
 10
700.0
 20
100.0
 30
0.0
 40
17.5
  0
INSERT
  5
20C
100
AcDbEntity
100
AcDbBlockReference
  8
0
 62
256
370
-1
  6
ByLayer
  2
Movement Side
 10
600.0
 20
198.5
 30
0.0
 44
1.0
 45
1.0
  0
LINE
  5
20D
100
AcDbEntity
100
AcDbLine
  8
AUX
 62
256
370
-1
  6
ByLayer
 10
565.0
 20
218.20000000000002
 30
0.0
 11
635.0
 21
218.20000000000002
 31
0.0
  0
LINE
  5
20E
100
AcDbEntity
100
AcDbLine
  8
AUX
 62
256
370
-1
  6
ByLayer
 10
565.0
 20
213.20000000000002
 30
0.0
 11
635.0
 21
213.20000000000002
 31
0.0
  0
INSERT
  5
20F
100
AcDbEntity
100
AcDbBlockReference
  8
0
 62
256
370
-1
  6
ByLayer
  2
Warm Wheel Side
 10
600.0
 20
182.00000000000003
 30
0.0
 44
1.0
 45
1.0
  0
LINE
  5
210
100
AcDbEntity
100
AcDbLine
  8
AUX
 62
256
370
-1
  6
ByLayer
 10
569.5
 20
194.00000000000003
 30
0.0
 11
630.5
 21
194.00000000000003
 31
0.0
  0
INSERT
  5
211
100
AcDbEntity
100
AcDbBlockReference
  8
0
 62
256
370
-1
  6
ByLayer
  2
Base Front
 10
600.0
 20
169.00000000000003
 30
0.0
 44
1.0
 45
1.0
  0
INSERT
  5
212
100
AcDbEntity
100
AcDbBlockReference
  8
0
 62
256
370
-1
  6
ByLayer
  2
Movement Side
 10
700.0
 20
198.5
 30
0.0
 44
1.0
 45
1.0
  0
INSERT
  5
213
100
AcDbEntity
100
AcDbBlockReference
  8
0
 62
256
370
-1
  6
ByLayer
  2
Warm Wheel Side
 10
500.0
 20
181.5
 30
0.0
 44
1.0
 45
1.0
  0
INSERT
  5
214
100
AcDbEntity
100
AcDbBlockReference
  8
0
 62
256
370
-1
  6
ByLayer
  2
Warm Wheel Side
 10
700.0
 20
182.10000000000002
 30
0.0
 44
1.0
 45
1.0
  0
INSERT
  5
215
100
AcDbEntity
100
AcDbBlockReference
  8
0
 62
256
370
-1
  6
ByLayer
  2
51107 Side
 10
700.0
 20
200.10000000000002
 30
0.0
 44
1.0
 45
1.0
  0
CIRCLE
  5
216
100
AcDbEntity
100
AcDbCircle
  8
AUX
 62
256
370
-1
  6
ByLayer
 10
500.00000000000006
 20
300.0
 30
0.0
 40
26.0
  0
LINE
  5
217
100
AcDbEntity
100
AcDbLine
  8
AUX
 62
256
370
-1
  6
ByLayer
 10
674.0
 20
196.92500000000001
 30
0.0
 11
726.0
 21
196.92500000000001
 31
0.0
  0
LINE
  5
218
100
AcDbEntity
100
AcDbLine
  8
AUX
 62
256
370
-1
  6
ByLayer
 10
674.0
 20
195.92500000000001
 30
0.0
 11
726.0
 21
195.92500000000001
 31
0.0
  0
INSERT
  5
219
100
AcDbEntity
100
AcDbBlockReference
  8
0
 62
256
370
-1
  6
ByLayer
  2
Base Front
 10
700.0
 20
170.92500000000001
 30
0.0
 44
1.0
 45
1.0
  0
LINE
  5
21A
100
AcDbEntity
100
AcDbLine
  8
AUX
 62
256
370
-1
  6
ByLayer
 10
669.5
 20
214.30000000000001
 30
0.0
 11
730.5
 21
214.30000000000001
 31
0.0
  0
LINE
  5
21B
100
AcDbEntity
100
AcDbLine
  8
AUX
 62
256
370
-1
  6
ByLayer
 10
669.5
 20
216.30000000000001
 30
0.0
 11
730.5
 21
216.30000000000001
 31
0.0
  0
LINE
  5
21C
100
AcDbEntity
100
AcDbLine
  8
AUX
 62
256
370
-1
  6
ByLayer
 10
669.5
 20
219.80000000000001
 30
0.0
 11
730.5
 21
219.80000000000001
 31
0.0
  0
INSERT
  5
21D
100
AcDbEntity
100
AcDbBlockReference
  8
0
 62
256
370
-1
  6
ByLayer
  2
Washer 6.5x13.0x1.0 Face
 10
689.58213752383813
 20
121.06461823598468
 30
0.0
 44
1.0
 45
1.0
  0
INSERT
  5
21E
100
AcDbEntity
100
AcDbBlockReference
  8
0
 62
256
370
-1
  6
ByLayer
  2
Washer 6.5x13.0x1.0 Face
 10
679.03997013233686
 20
110.62671858791168
 30
0.0
 44
1.0
 45
1.0
  0
INSERT
  5
21F
100
AcDbEntity
100
AcDbBlockReference
  8
0
 62
256
370
-1
  6
ByLayer
  2
Washer 6.5x13.0x1.0 Face
 10
679.15230736140438
 20
89.154553414144488
 30
0.0
 44
1.0
 45
1.0
  0
INSERT
  5
220
100
AcDbEntity
100
AcDbBlockReference
  8
0
 62
256
370
-1
  6
ByLayer
  2
Washer 6.5x13.0x1.0 Face
 10
689.59723082503558
 20
78.927923844755838
 30
0.0
 44
1.0
 45
1.0
  0
INSERT
  5
221
100
AcDbEntity
100
AcDbBlockReference
  8
0
 62
256
370
-1
  6
ByLayer
  2
Washer 6.5x13.0x1.0 Face
 10
710.85615530220048
 20
79.157881776208441
 30
0.0
 44
1.0
 45
1.0
  0
INSERT
  5
222
100
AcDbEntity
100
AcDbBlockReference
  8
0
 62
256
370
-1
  6
ByLayer
  2
Washer 6.5x13.0x1.0 Face
 10
720.83798181082568
 20
89.135907122465412
 30
0.0
 44
1.0
 45
1.0
  0
INSERT
  5
223
100
AcDbEntity
100
AcDbBlockReference
  8
0
 62
256
370
-1
  6
ByLayer
  2
Washer 6.5x13.0x1.0 Face
 10
720.84457184844234
 20
110.85144342726464
 30
0.0
 44
1.0
 45
1.0
  0
INSERT
  5
224
100
AcDbEntity
100
AcDbBlockReference
  8
0
 62
256
370
-1
  6
ByLayer
  2
Washer 6.5x13.0x1.0 Face
 10
710.76228409170369
 20
120.8907453464318
 30
0.0
 44
1.0
 45
1.0
  0
ENDSEC
  0
SECTION
  2
OBJECTS
  0
DICTIONARY
  5
C
100
AcDbDictionary
280
0
281
1
  3
ACAD_GROUP
350
D
  3
ACAD_LAYOUT
350
1A
  3
ACAD_MLINESTYLE
350
17
  3
ACAD_PLOTSETTINGS
350
19
  3
ACAD_PLOTSTYLENAME
350
E
  3
AcDbVariableDictionary
350
225
  0
DICTIONARY
  5
D
100
AcDbDictionary
280
0
281
1
  0
ACDBDICTIONARYWDFLT
  5
E
100
AcDbDictionary
281
1
  3
Normal
350
F
100
AcDbDictionaryWithDefault
340
F
  0
ACDBPLACEHOLDER
  5
F
  0
DICTIONARY
  5
17
100
AcDbDictionary
280
0
281
1
  3
Standard
350
18
  0
MLINESTYLE
  5
18
100
AcDbMlineStyle
  2
STANDARD
 70
0
  3

 62
256
 51
90.0
 52
90.0
 71
2
 49
0.5
 62
256
  6
BYLAYER
 49
-0.5
 62
256
  6
BYLAYER
  0
DICTIONARY
  5
19
100
AcDbDictionary
280
0
281
1
  0
DICTIONARY
  5
1A
100
AcDbDictionary
281
1
  3
Layout1
350
1E
  3
Layout2
350
26
  3
Model
350
22
  0
LAYOUT
  5
1E
100
AcDbPlotSettings
  1

  2
C:\Program Files\AutoCAD 2002\plotters\DWF ePlot (optimized for plotting).pc3
  4

  6

 40
0.0
 41
0.0
 42
0.0
 43
0.0
 44
0.0
 45
0.0
 46
0.0
 47
0.0
 48
0.0
 49
0.0
140
0.0
141
0.0
142
1.0
143
1.0
 70
688
 72
0
 73
0
 74
5
  7

 75
16
147
1.0
148
0.0
149
0.0
100
AcDbLayout
  1
Layout1
 70
1
 71
1
 10
0.0
 20
0.0
 11
420.0
 21
297.0
 12
0.0
 22
0.0
 32
0.0
 14
100000000000000000000.0
 24
100000000000000000000.0
 34
100000000000000000000.0
 15
-100000000000000000000.0
 25
-100000000000000000000.0
 35
-100000000000000000000.0
146
0.0
 13
0.0
 23
0.0
 33
0.0
 16
1.0
 26
0.0
 36
0.0
 17
0.0
 27
1.0
 37
0.0
 76
0
330
1B
  0
LAYOUT
  5
22
100
AcDbPlotSettings
  1

  2
C:\Program Files\AutoCAD 2002\plotters\DWF ePlot (optimized for plotting).pc3
  4

  6

 40
0.0
 41
0.0
 42
0.0
 43
0.0
 44
0.0
 45
0.0
 46
0.0
 47
0.0
 48
0.0
 49
0.0
140
0.0
141
0.0
142
1.0
143
1.0
 70
1712
 72
0
 73
0
 74
0
  7

 75
0
147
1.0
148
0.0
149
0.0
100
AcDbLayout
  1
Model
 70
1
 71
0
 10
0.0
 20
0.0
 11
12.0
 21
9.0
 12
0.0
 22
0.0
 32
0.0
 14
0.0
 24
0.0
 34
0.0
 15
0.0
 25
0.0
 35
0.0
146
0.0
 13
0.0
 23
0.0
 33
0.0
 16
1.0
 26
0.0
 36
0.0
 17
0.0
 27
1.0
 37
0.0
 76
0
330
1F
  0
LAYOUT
  5
26
100
AcDbPlotSettings
  1

  2
C:\Program Files\AutoCAD 2002\plotters\DWF ePlot (optimized for plotting).pc3
  4

  6

 40
0.0
 41
0.0
 42
0.0
 43
0.0
 44
0.0
 45
0.0
 46
0.0
 47
0.0
 48
0.0
 49
0.0
140
0.0
141
0.0
142
1.0
143
1.0
 70
688
 72
0
 73
0
 74
5
  7

 75
16
147
1.0
148
0.0
149
0.0
100
AcDbLayout
  1
Layout2
 70
1
 71
2
 10
0.0
 20
0.0
 11
12.0
 21
9.0
 12
0.0
 22
0.0
 32
0.0
 14
0.0
 24
0.0
 34
0.0
 15
0.0
 25
0.0
 35
0.0
146
0.0
 13
0.0
 23
0.0
 33
0.0
 16
1.0
 26
0.0
 36
0.0
 17
0.0
 27
1.0
 37
0.0
 76
0
330
23
  0
DICTIONARY
  5
225
100
AcDbDictionary
281
1
  3
DIMASSOC
350
227
  3
HIDETEXT
350
226
  0
DICTIONARYVAR
  5
226
100
DictionaryVariables
280
0
  1
2
  0
DICTIONARYVAR
  5
227
100
DictionaryVariables
280
0
  1
1
  0
ENDSEC
  0
EOF
