999
dxflib 2.0.4.8
  0
SECTION
  2
HEADER
  9
$ACADVER
  1
AC1015
  9
$HANDSEED
  5
FFFF
  9
$REALWORLDSCALE
290
1
  9
$LOFTMAG1
 40
0.0
  9
$DIMASSOC
280
1
  9
$USERR4
 40
0.0
  9
$DIMTDEC
 70
2
  9
$DIMTAD
 70
1
  9
$LOFTMAG2
 40
0.0
  9
$CAMERAHEIGHT
 40
0.0
  9
$XCLIPFRAME
290
0
  9
$CMLSTYLE
  2
Standard
  9
$VISRETAIN
 70
1
  9
$TILEMODE
 70
1
  9
$SHADEDIF
 70
70
  9
$USERR5
 40
0.0
  9
$UCSYDIR
 10
0.0
 20
1.0
 30
0.0
  9
$CHAMFERA
 40
0.0
  9
$MENU
  1
.
  9
$DIMALTZ
 70
0
  9
$CLAYER
  8
Center
  9
$DWFFRAME
280
2
  9
$SHOWHIST
280
1
  9
$OLESTARTUP
290
0
  9
$UCSXDIR
 10
1.0
 20
0.0
 30
0.0
  9
$CHAMFERB
 40
0.0
  9
$DIMUPT
 70
0
  9
$TRACEWID
 40
15.68
  9
$REGENMODE
 70
1
  9
$ORTHOMODE
 70
0
  9
$EXTMIN
 10
-132.0
 20
-483.44228634059948
 30
0.0
  9
$DIMADEC
 70
2
  9
$GRIDUNIT
 10
0.0
 20
0.0
  9
$DIMASZ
 40
2.5
  9
$CAMERADISPLAY
290
0
  9
$ENDCAPS
280
0
  9
$MEASUREMENT
 70
1
  9
$CMLJUST
 70
0
  9
$SNAPSTYLE
 70
0
  9
$PUCSYDIR
 10
0.0
 20
1.0
 30
0.0
  9
$ANGBASE
 50
0.0
  9
$USRTIMER
 70
1
  9
$CHAMFERC
 40
0.0
  9
$SKETCHINC
 40
1.0
  9
$DIMTFAC
 40
1.0
  9
$DIMSAH
 70
0
  9
$DIMALT
 70
0
  9
$DIMSHO
 70
1
  9
$DIMGAP
 40
0.625
  9
$LONGITUDE
 40
1.0
  9
$LOFTNORMALS
280
1
  9
$STEPSIZE
 40
50.0
  9
$LWDISPLAY
290
0
  9
$PUCSXDIR
 10
1.0
 20
0.0
 30
0.0
  9
$SURFTYPE
 70
6
  9
$SPLFRAME
 70
0
  9
$CHAMFERD
 40
0.0
  9
$DIMFXLON
 70
0
  9
$DIMALTRND
 40
0.0
  9
$DIMALTTD
 70
3
  9
$DIMTSZ
 40
0.0
  9
$LIMMIN
 10
0.0
 20
0.0
  9
$SHADOWPLANELOCATION
 40
0.0
  9
$STEPSPERSEC
 40
2.0
  9
$SORTENTS
280
127
  9
$CELWEIGHT
370
-1
  9
$SURFTAB1
 70
6
  9
$DIMTFILL
 70
0
  9
$DIMFXL
 40
1.0
  9
$DWGCODEPAGE
  3
ANSI_1252
  9
$LUNITS
 70
2
  9
$AUPREC
 70
2
  9
$SPLINESEGS
 70
8
  9
$TILEMODELIGHTSYNCH
280
1
  9
$PSTYLEMODE
290
1
  9
$UNITMODE
 70
0
  9
$USERI1
 70
0
  9
$UCSORTHOVIEW
 70
0
  9
$SURFTAB2
 70
6
  9
$SKPOLY
 70
0
  9
$ELEVATION
 40
0.0
  9
$DIMDSEP
 70
44
  9
$DIMCEN
 40
2.5
  9
$DIMRND
 40
0.0
  9
$INSBASE
 10
0.0
 20
0.0
 30
0.0
  9
$SOLIDHIST
280
1
  9
$LIGHTGLYPHDISPLAY
280
1
  9
$LOFTPARAM
 70
7
  9
$USERI2
 70
0
  9
$UCSORGRIGHT
 10
0.0
 20
0.0
 30
0.0
  9
$UCSORG
 10
0.0
 20
0.0
 30
0.0
  9
$PELEVATION
 40
0.0
  9
$TEXTSIZE
 40
2.5
  9
$FILLMODE
 70
1
  9
$EXTMAX
 10
1233.0
 20
1200.0
 30
0.0
  9
$INSUNITS
 70
4
  9
$DIMEXO
 40
0.625
  9
$3DDWFPREC
 40
2.0
  9
$LENSLENGTH
 40
50.0
  9
$JOINSTYLE
280
0
  9
$USERI3
 70
0
  9
$PUCSORGBOTTOM
 10
0.0
 20
0.0
 30
0.0
  9
$SURFU
 70
6
  9
$ANGDIR
 70
0
  9
$DIMLWD
 70
-2
  9
$DIMTZIN
 70
8
  9
$DIMTOLJ
 70
0
  9
$DIMZIN
 70
8
  9
$DIMDLE
 40
0.0
  9
$DIMSCALE
 40
2.5
  9
$WORLDVIEW
 70
1
  9
$USERI4
 70
0
  9
$SURFV
 70
6
  9
$DIMARCSYM
 70
0
  9
$DIMLWE
 70
-2
  9
$DIMATFIT
 70
3
  9
$DIMALTTZ
 70
0
  9
$DIMJUST
 70
0
  9
$QTEXTMODE
 70
0
  9
$LIMMAX
 10
420.0
 20
297.0
  9
$DIMLUNIT
 70
2
  9
$DGNFRAME
280
0
  9
$LOFTANG1
 40
1.570796326794897
  9
$PSOLHEIGHT
 40
80.0
  9
$INTERSECTIONDISPLAY
280
0
  9
$HIDETEXT
280
1
  9
$EXTNAMES
290
1
  9
$PROXYGRAPHICS
 70
1
  9
$USERI5
 70
0
  9
$UCSORGTOP
 10
0.0
 20
0.0
 30
0.0
  9
$PDMODE
 70
34
  9
$LIMCHECK
 70
0
  9
$THICKNESS
 40
0.0
  9
$DIMJOGANG
 40
0.7854
  9
$DIMAZIN
 70
0
  9
$DIMSE1
 70
0
  9
$DIMLIM
 70
0
  9
$ATTMODE
 70
0
  9
$GRIDMODE
 70
1
  9
$DIMTXT
 40
2.5
  9
$LOFTANG2
 40
1.570796326794897
  9
$PSOLWIDTH
 40
5.0
  9
$INTERSECTIONCOLOR
 70
257
  9
$OBSLTYPE
280
0
  9
$OBSCOLOR
 70
257
  9
$XEDIT
290
1
  9
$PEXTMAX
 10
0.0
 20
0.0
 30
0.0
  9
$PEXTMIN
 10
0.0
 20
0.0
 30
0.0
  9
$PUCSORG
 10
0.0
 20
0.0
 30
0.0
  9
$SPLINETYPE
 70
2
  9
$DIMLDRBLK
  1
STANDARD
  9
$DIMSOXD
 70
0
  9
$DIMLFAC
 40
1.0
  9
$DIMSE2
 70
0
  9
$DIMTOH
 70
0
  9
$CELTYPE
  6
BYLAYER
  9
$LUPREC
 70
1
  9
$NORTHDIRECTION
 40
0.0
  9
$PSVPSCALE
 40
1.0
  9
$PLIMCHECK
 70
0
  9
$PUCSORGRIGHT
 10
0.0
 20
0.0
 30
0.0
  9
$PLINEWID
 40
0.0
  9
$DIMFRAC
 70
0
  9
$DIMSTYLE
  2
STANDARD
  9
$DIMTVP
 40
0.0
  9
$DIMASO
 70
1
  9
$DIMTM
 40
0.0
  9
$DIMDLI
 40
3.75
  9
$DISPSILH
 70
0
  9
$CECOLOR
 62
256
  9
$INDEXCTL
280
0
  9
$TREEDEPTH
 70
3020
  9
$MAXACTVP
 70
64
  9
$UCSORGBACK
 10
0.0
 20
0.0
 30
0.0
  9
$UCSORGLEFT
 10
0.0
 20
0.0
 30
0.0
  9
$FILLETRAD
 40
0.0
  9
$DIMTFILLCLR
 70
0
  9
$DIMALTU
 70
2
  9
$DIMDEC
 70
2
  9
$DIMCLRT
 70
0
  9
$DIMALTD
 70
3
  9
$DIMTIH
 70
0
  9
$LTSCALE
 40
1.0
  9
$PLIMMIN
 10
0.0
 20
0.0
  9
$PLIMMAX
 10
297.0
 20
420.0
  9
$CSHADOW
280
0
  9
$CEPSNTYPE
380
0
  9
$CMLSCALE
 40
20.0
  9
$PINSBASE
 10
0.0
 20
0.0
 30
0.0
  9
$USERR1
 40
0.0
  9
$PUCSORTHOVIEW
 70
0
  9
$PDSIZE
 40
0.0
  9
$DIMTXSTY
  7
STANDARD
  9
$DIMCLRD
 70
0
  9
$CELTSCALE
 40
1.0
  9
$DIMEXE
 40
1.25
  9
$INTERFERECOLOR
 62
1
  9
$LATITUDE
 40
1.0
  9
$PSLTSCALE
 70
1
  9
$PLINEGEN
 70
0
  9
$SHADEDGE
 70
3
  9
$USERR2
 40
0.0
  9
$PUCSORGTOP
 10
0.0
 20
0.0
 30
0.0
  9
$UCSORGFRONT
 10
0.0
 20
0.0
 30
0.0
  9
$DIMTMOVE
 70
0
  9
$DIMSD1
 70
0
  9
$DIMCLRE
 70
0
  9
$DIMTOFL
 70
1
  9
$DIMALTF
 40
0.03937
  9
$DIMTOL
 70
0
  9
$DIMTP
 40
0.0
  9
$TEXTSTYLE
  7
STANDARD
  9
$DIMAUNIT
 70
0
  9
$TIMEZONE
 70
-8000
  9
$HALOGAP
280
0
  9
$USERR3
 40
0.0
  9
$PUCSORGBACK
 10
0.0
 20
0.0
 30
0.0
  9
$PUCSORGFRONT
 10
0.0
 20
0.0
 30
0.0
  9
$PUCSORGLEFT
 10
0.0
 20
0.0
 30
0.0
  9
$UCSORGBOTTOM
 10
0.0
 20
0.0
 30
0.0
  9
$DIMSD2
 70
0
  9
$DIMTIX
 70
0
  9
$MIRRTEXT
 70
0
  9
$AUNITS
 70
0
  0
ENDSEC
  0
SECTION
  2
TABLES
  0
TABLE
  2
VPORT
  5
8
100
AcDbSymbolTable
 70
1
  0
VPORT
  5
30
100
AcDbSymbolTableRecord
100
AcDbViewportTableRecord
  2
*Active
 70
0
 10
0.0
 20
0.0
 11
1.0
 21
1.0
 12
286.30555555555549
 22
148.5
 13
0.0
 23
0.0
 14
10.0
 24
10.0
 15
10.0
 25
10.0
 16
0.0
 26
0.0
 36
1.0
 17
0.0
 27
0.0
 37
0.0
 40
297.0
 41
1.92798353909465
 42
50.0
 43
0.0
 44
0.0
 50
0.0
 51
0.0
 71
0
 72
100
 73
1
 74
3
 75
1
 76
1
 77
0
 78
0
281
0
 65
1
110
0.0
120
0.0
130
0.0
111
1.0
121
0.0
131
0.0
112
0.0
122
1.0
132
0.0
 79
0
146
0.0
  0
ENDTAB
  0
TABLE
  2
LTYPE
  5
5
100
AcDbSymbolTable
 70
21
  0
LTYPE
  5
14
100
AcDbSymbolTableRecord
100
AcDbLinetypeTableRecord
  2
ByBlock
 70
0
  3

 72
65
 73
0
 40
0.0
  0
LTYPE
  5
15
100
AcDbSymbolTableRecord
100
AcDbLinetypeTableRecord
  2
ByLayer
 70
0
  3

 72
65
 73
0
 40
0.0
  0
LTYPE
  5
16
100
AcDbSymbolTableRecord
100
AcDbLinetypeTableRecord
  2
CONTINUOUS
 70
0
  3
Solid line
 72
65
 73
0
 40
0.0
  0
LTYPE
  5
31
100
AcDbSymbolTableRecord
100
AcDbLinetypeTableRecord
  2
DOT
 70
0
  3
Dot . . . . . . . . . . . . . . . . . . . . . .
 72
65
 73
2
 40
6.3499999999999996
 49
0.0
 74
0
 49
-6.3499999999999996
 74
0
  0
LTYPE
  5
32
100
AcDbSymbolTableRecord
100
AcDbLinetypeTableRecord
  2
DOT2
 70
0
  3
Dot (.5x) .....................................
 72
65
 73
2
 40
3.1749999999999998
 49
0.0
 74
0
 49
-3.1749999999999998
 74
0
  0
LTYPE
  5
33
100
AcDbSymbolTableRecord
100
AcDbLinetypeTableRecord
  2
DOTX2
 70
0
  3
Dot (2x) .  .  .  .  .  .  .  .  .  .  .  .  .
 72
65
 73
2
 40
12.699999999999999
 49
0.0
 74
0
 49
-12.699999999999999
 74
0
  0
LTYPE
  5
34
100
AcDbSymbolTableRecord
100
AcDbLinetypeTableRecord
  2
DASHED
 70
0
  3
Dashed __ __ __ __ __ __ __ __ __ __ __ __ __ _
 72
65
 73
2
 40
19.050000000000001
 49
12.699999999999999
 74
0
 49
-6.3499999999999996
 74
0
  0
LTYPE
  5
35
100
AcDbSymbolTableRecord
100
AcDbLinetypeTableRecord
  2
DASHED2
 70
0
  3
Dashed (.5x) _ _ _ _ _ _ _ _ _ _ _ _ _ _ _ _ _
 72
65
 73
2
 40
9.5250000000000004
 49
6.3499999999999996
 74
0
 49
-3.1749999999999998
 74
0
  0
LTYPE
  5
36
100
AcDbSymbolTableRecord
100
AcDbLinetypeTableRecord
  2
DASHEDX2
 70
0
  3
Dashed (2x) ____  ____  ____  ____  ____  ___
 72
65
 73
2
 40
38.100000000000001
 49
25.399999999999999
 74
0
 49
-12.699999999999999
 74
0
  0
LTYPE
  5
37
100
AcDbSymbolTableRecord
100
AcDbLinetypeTableRecord
  2
DASHDOT
 70
0
  3
Dash dot __ . __ . __ . __ . __ . __ . __ . __
 72
65
 73
4
 40
25.399999999999999
 49
12.699999999999999
 74
0
 49
-6.3499999999999996
 74
0
 49
0.0
 74
0
 49
-6.3499999999999996
 74
0
  0
LTYPE
  5
38
100
AcDbSymbolTableRecord
100
AcDbLinetypeTableRecord
  2
DASHDOT2
 70
0
  3
Dash dot (.5x) _._._._._._._._._._._._._._._.
 72
65
 73
4
 40
12.699999999999999
 49
6.3499999999999996
 74
0
 49
-3.1749999999999998
 74
0
 49
0.0
 74
0
 49
-3.1749999999999998
 74
0
  0
LTYPE
  5
39
100
AcDbSymbolTableRecord
100
AcDbLinetypeTableRecord
  2
DASHDOTX2
 70
0
  3
Dash dot (2x) ____  .  ____  .  ____  .  ___
 72
65
 73
4
 40
50.799999999999997
 49
25.399999999999999
 74
0
 49
-12.699999999999999
 74
0
 49
0.0
 74
0
 49
-12.699999999999999
 74
0
  0
LTYPE
  5
3A
100
AcDbSymbolTableRecord
100
AcDbLinetypeTableRecord
  2
DIVIDE
 70
0
  3
Divide ____ . . ____ . . ____ . . ____ . . ____
 72
65
 73
6
 40
31.75
 49
12.699999999999999
 74
0
 49
-6.3499999999999996
 74
0
 49
0.0
 74
0
 49
-6.3499999999999996
 74
0
 49
0.0
 74
0
 49
-6.3499999999999996
 74
0
  0
LTYPE
  5
3B
100
AcDbSymbolTableRecord
100
AcDbLinetypeTableRecord
  2
DIVIDE2
 70
0
  3
Divide (.5x) __..__..__..__..__..__..__..__.._
 72
65
 73
6
 40
15.875
 49
6.3499999999999996
 74
0
 49
-3.1749999999999998
 74
0
 49
0.0
 74
0
 49
-3.1749999999999998
 74
0
 49
0.0
 74
0
 49
-3.1749999999999998
 74
0
  0
LTYPE
  5
3C
100
AcDbSymbolTableRecord
100
AcDbLinetypeTableRecord
  2
DIVIDEX2
 70
0
  3
Divide (2x) ________  .  .  ________  .  .  _
 72
65
 73
6
 40
63.5
 49
25.399999999999999
 74
0
 49
-12.699999999999999
 74
0
 49
0.0
 74
0
 49
-12.699999999999999
 74
0
 49
0.0
 74
0
 49
-12.699999999999999
 74
0
  0
LTYPE
  5
3D
100
AcDbSymbolTableRecord
100
AcDbLinetypeTableRecord
  2
CENTER
 70
0
  3
Center ____ _ ____ _ ____ _ ____ _ ____ _ ____
 72
65
 73
4
 40
50.799999999999997
 49
31.75
 74
0
 49
-6.3499999999999996
 74
0
 49
6.3499999999999996
 74
0
 49
-6.3499999999999996
 74
0
  0
LTYPE
  5
3E
100
AcDbSymbolTableRecord
100
AcDbLinetypeTableRecord
  2
CENTER2
 70
0
  3
Center (.5x) ___ _ ___ _ ___ _ ___ _ ___ _ ___
 72
65
 73
4
 40
28.574999999999999
 49
19.050000000000001
 74
0
 49
-3.1749999999999998
 74
0
 49
3.1749999999999998
 74
0
 49
-3.1749999999999998
 74
0
  0
LTYPE
  5
3F
100
AcDbSymbolTableRecord
100
AcDbLinetypeTableRecord
  2
CENTERX2
 70
0
  3
Center (2x) ________  __  ________  __  _____
 72
65
 73
4
 40
101.59999999999999
 49
63.5
 74
0
 49
-12.699999999999999
 74
0
 49
12.699999999999999
 74
0
 49
-12.699999999999999
 74
0
  0
LTYPE
  5
40
100
AcDbSymbolTableRecord
100
AcDbLinetypeTableRecord
  2
BORDER
 70
0
  3
Border __ __ . __ __ . __ __ . __ __ . __ __ .
 72
65
 73
6
 40
44.450000000000003
 49
12.699999999999999
 74
0
 49
-6.3499999999999996
 74
0
 49
12.699999999999999
 74
0
 49
-6.3499999999999996
 74
0
 49
0.0
 74
0
 49
-6.3499999999999996
 74
0
  0
LTYPE
  5
41
100
AcDbSymbolTableRecord
100
AcDbLinetypeTableRecord
  2
BORDER2
 70
0
  3
Border (.5x) __.__.__.__.__.__.__.__.__.__.__.
 72
65
 73
6
 40
22.225000000000001
 49
6.3499999999999996
 74
0
 49
-3.1749999999999998
 74
0
 49
6.3499999999999996
 74
0
 49
-3.1749999999999998
 74
0
 49
0.0
 74
0
 49
-3.1749999999999998
 74
0
  0
LTYPE
  5
42
100
AcDbSymbolTableRecord
100
AcDbLinetypeTableRecord
  2
BORDERX2
 70
0
  3
Border (2x) ____  ____  .  ____  ____  .  ___
 72
65
 73
6
 40
88.900000000000006
 49
25.399999999999999
 74
0
 49
-12.699999999999999
 74
0
 49
25.399999999999999
 74
0
 49
-12.699999999999999
 74
0
 49
0.0
 74
0
 49
-12.699999999999999
 74
0
  0
ENDTAB
  0
TABLE
  2
LAYER
  5
2
100
AcDbSymbolTable
 70
5
  0
LAYER
  5
10
100
AcDbSymbolTableRecord
100
AcDbLayerTableRecord
  2
0
 70
0
 62
7
  6
CONTINUOUS
370
0
390
F
  0
LAYER
  5
43
100
AcDbSymbolTableRecord
100
AcDbLayerTableRecord
  2
AUX
 70
0
 62
1
  6
CONTINUOUS
370
18
390
F
  0
LAYER
  5
44
100
AcDbSymbolTableRecord
100
AcDbLayerTableRecord
  2
CENTER
 70
0
 62
7
  6
DASHDOT
370
18
390
F
  0
LAYER
  5
45
100
AcDbSymbolTableRecord
100
AcDbLayerTableRecord
  2
CONTOUR
 70
0
 62
7
  6
CONTINUOUS
370
35
390
F
  0
LAYER
  5
46
100
AcDbSymbolTableRecord
100
AcDbLayerTableRecord
  2
TEXT
 70
0
 62
7
  6
CONTINUOUS
370
18
390
F
  0
ENDTAB
  0
TABLE
  2
STYLE
  5
3
100
AcDbSymbolTable
 70
1
  0
STYLE
  5
11
100
AcDbSymbolTableRecord
100
AcDbTextStyleTableRecord
  2
Standard
 70
0
 40
0.0
 41
0.75
 50
0.0
 71
0
 42
2.5
  3
txt
  4

  0
ENDTAB
  0
TABLE
  2
VIEW
  5
6
100
AcDbSymbolTable
 70
0
  0
ENDTAB
  0
TABLE
  2
UCS
  5
7
100
AcDbSymbolTable
 70
0
  0
ENDTAB
  0
TABLE
  2
APPID
  5
9
100
AcDbSymbolTable
 70
1
  0
APPID
  5
12
100
AcDbSymbolTableRecord
100
AcDbRegAppTableRecord
  2
ACAD
 70
0
  0
ENDTAB
  0
TABLE
  2
DIMSTYLE
  5
A
100
AcDbSymbolTable
 70
1
100
AcDbDimStyleTable
 71
0
  0
DIMSTYLE
105
27
100
AcDbSymbolTableRecord
100
AcDbDimStyleTableRecord
  2
Standard
 41
2.5
 42
0.625
 43
3.75
 44
1.25
 70
0
 73
0
 74
0
 77
1
 78
8
140
2.5
141
2.5
143
0.03937007874016
147
0.625
171
3
172
1
271
2
272
2
274
3
278
44
283
0
284
8
340
11
  0
ENDTAB
  0
TABLE
  2
BLOCK_RECORD
  5
1
100
AcDbSymbolTable
 70
1
  0
BLOCK_RECORD
  5
1F
100
AcDbSymbolTableRecord
100
AcDbBlockTableRecord
  2
*Model_Space
340
22
  0
BLOCK_RECORD
  5
1B
100
AcDbSymbolTableRecord
100
AcDbBlockTableRecord
  2
*Paper_Space
340
1E
  0
BLOCK_RECORD
  5
23
100
AcDbSymbolTableRecord
100
AcDbBlockTableRecord
  2
*Paper_Space0
340
26
  0
BLOCK_RECORD
  5
47
100
AcDbSymbolTableRecord
100
AcDbBlockTableRecord
  2
Screw M4 L30
340
0
  0
ENDTAB
  0
ENDSEC
  0
SECTION
  2
BLOCKS
  0
BLOCK
  5
20
100
AcDbEntity
  8
0
100
AcDbBlockBegin
  2
*Model_Space
 70
0
 10
0.0
 20
0.0
 30
0.0
  3
*Model_Space
  1

  0
ENDBLK
  5
21
100
AcDbEntity
  8
0
100
AcDbBlockEnd
  0
BLOCK
  5
1C
100
AcDbEntity
 67
1
  8
0
100
AcDbBlockBegin
  2
*Paper_Space
 70
0
 10
0.0
 20
0.0
 30
0.0
  3
*Paper_Space
  1

  0
ENDBLK
  5
1D
100
AcDbEntity
 67
1
  8
0
100
AcDbBlockEnd
  0
BLOCK
  5
24
100
AcDbEntity
  8
0
100
AcDbBlockBegin
  2
*Paper_Space0
 70
0
 10
0.0
 20
0.0
 30
0.0
  3
*Paper_Space0
  1

  0
ENDBLK
  5
25
100
AcDbEntity
  8
0
100
AcDbBlockEnd
  0
BLOCK
  5
48
100
AcDbEntity
  8
0
100
AcDbBlockBegin
  2
Screw M4 L30
 70
0
 10
0.0
 20
0.0
 30
0.0
  3
Screw M4 L30
  1

  0
LINE
  5
49
100
AcDbEntity
100
AcDbLine
  8
CONTOUR
 62
256
370
-1
  6
ByLayer
 10
2.0000000000000004
 20
0.0
 30
0.0
 11
2.0000000000000022
 21
30.0
 31
0.0
  0
LINE
  5
4A
100
AcDbEntity
100
AcDbLine
  8
CONTOUR
 62
256
370
-1
  6
ByLayer
 10
-1.9999999999999998
 20
0.0
 30
0.0
 11
-1.9999999999999978
 21
30.0
 31
0.0
  0
LINE
  5
4B
100
AcDbEntity
100
AcDbLine
  8
CONTOUR
 62
256
370
-1
  6
ByLayer
 10
-1.9999999999999978
 20
30.0
 30
0.0
 11
2.0000000000000022
 21
30.0
 31
0.0
  0
LINE
  5
4C
100
AcDbEntity
100
AcDbLine
  8
CONTOUR
 62
256
370
-1
  6
ByLayer
 10
-3.4999999999999996
 20
0.0
 30
0.0
 11
3.5000000000000004
 21
0.0
 31
0.0
  0
ARC
  5
4D
100
AcDbEntity
  8
CONTOUR
 62
7
370
35
  6
CONTINUOUS
100
AcDbCircle
 10
-1.9999999999999993
 20
-1.5000000000000002
 30
0.0
 40
1.5
100
AcDbArc
 50
180.0
 51
270.0
  0
ARC
  5
4E
100
AcDbEntity
  8
CONTOUR
 62
7
370
35
  6
CONTINUOUS
100
AcDbCircle
 10
2.0000000000000009
 20
-1.5000000000000002
 30
0.0
 40
1.5
100
AcDbArc
 50
270.0
 51
0.0
  0
LINE
  5
4F
100
AcDbEntity
100
AcDbLine
  8
CONTOUR
 62
256
370
-1
  6
ByLayer
 10
-3.4999999999999996
 20
-1.5000000000000004
 30
0.0
 11
-3.4999999999999996
 21
0.0
 31
0.0
  0
LINE
  5
50
100
AcDbEntity
100
AcDbLine
  8
CONTOUR
 62
256
370
-1
  6
ByLayer
 10
3.5000000000000004
 20
-1.5000000000000004
 30
0.0
 11
3.5000000000000004
 21
0.0
 31
0.0
  0
LINE
  5
51
100
AcDbEntity
100
AcDbLine
  8
CONTOUR
 62
256
370
-1
  6
ByLayer
 10
-1.9999999999999993
 20
-3.0
 30
0.0
 11
2.0000000000000004
 21
-3.0
 31
0.0
  0
LINE
  5
52
100
AcDbEntity
100
AcDbLine
  8
CENTER
 62
256
370
-1
  6
ByLayer
 10
0.0
 20
-5.0
 30
0.0
 11
0.0000000000000024
 21
35.0
 31
0.0
  0
ENDBLK
  5
53
100
AcDbEntity
  8
0
100
AcDbBlockEnd
  0
ENDSEC
  0
SECTION
  2
ENTITIES
  0
LINE
  5
54
100
AcDbEntity
100
AcDbLine
  8
CENTER
 62
256
370
-1
  6
ByLayer
 10
100.0
 20
200.0
 30
0.0
 11
100.0000000000001
 21
1200.0
 31
0.0
  0
LINE
  5
55
100
AcDbEntity
100
AcDbLine
  8
CENTER
 62
256
370
-1
  6
ByLayer
 10
100.0
 20
-353.5
 30
0.0
 11
100.0
 21
190.0
 31
0.0
  0
CIRCLE
  5
56
100
AcDbEntity
100
AcDbCircle
  8
CONTOUR
 62
256
370
-1
  6
ByLayer
 10
100.0
 20
-251.44228634059951
 30
0.0
 40
232.0
  0
LINE
  5
57
100
AcDbEntity
100
AcDbLine
  8
CENTER
 62
256
370
-1
  6
ByLayer
 10
38.499999999999957
 20
-251.44228634059951
 30
0.0
 11
461.5
 21
-251.44228634059951
 31
0.0
  0
LINE
  5
58
100
AcDbEntity
100
AcDbLine
  8
CONTOUR
 62
256
370
-1
  6
ByLayer
 10
332.0
 20
-301.44228634059948
 30
0.0
 11
332.0
 21
-201.44228634059951
 31
0.0
  0
LINE
  5
59
100
AcDbEntity
100
AcDbLine
  8
CONTOUR
 62
256
370
-1
  6
ByLayer
 10
337.0
 20
-301.44228634059948
 30
0.0
 11
337.0
 21
-201.44228634059951
 31
0.0
  0
LINE
  5
5A
100
AcDbEntity
100
AcDbLine
  8
CONTOUR
 62
256
370
-1
  6
ByLayer
 10
332.0
 20
-301.44228634059948
 30
0.0
 11
337.0
 21
-301.44228634059948
 31
0.0
  0
LINE
  5
5B
100
AcDbEntity
100
AcDbLine
  8
CONTOUR
 62
256
370
-1
  6
ByLayer
 10
332.0
 20
-201.44228634059951
 30
0.0
 11
337.0
 21
-201.44228634059951
 31
0.0
  0
LINE
  5
5C
100
AcDbEntity
100
AcDbLine
  8
CENTER
 62
256
370
-1
  6
ByLayer
 10
100.0
 20
-251.4422863405994
 30
0.0
 11
619.6152422706632
 21
48.557713659400548
 31
0.0
  0
LINE
  5
5D
100
AcDbEntity
100
AcDbLine
  8
CENTER
 62
256
370
-1
  6
ByLayer
 10
100.0000000000001
 20
-251.44228634059931
 30
0.0
 11
400.00000000000011
 21
268.17295593006378
 31
0.0
  0
LINE
  5
5E
100
AcDbEntity
100
AcDbLine
  8
CONTOUR
 62
256
370
-1
  6
ByLayer
 10
288.4178936779897
 20
-113.7916512459885
 30
0.0
 11
313.41789367798981
 21
-157.0929214352104
 31
0.0
  0
LINE
  5
5F
100
AcDbEntity
100
AcDbLine
  8
CONTOUR
 62
256
370
-1
  6
ByLayer
 10
297.07814771583401
 20
-108.7916512459885
 30
0.0
 11
322.07814771583401
 21
-152.0929214352104
 31
0.0
  0
LINE
  5
60
100
AcDbEntity
100
AcDbLine
  8
CONTOUR
 62
256
370
-1
  6
ByLayer
 10
318.07814771583401
 20
-145.16471820493501
 30
0.0
 11
417.67106915104432
 21
-87.664718204934957
 31
0.0
  0
LINE
  5
61
100
AcDbEntity
100
AcDbLine
  8
CONTOUR
 62
256
370
-1
  6
ByLayer
 10
301.07814771583412
 20
-115.719854476264
 30
0.0
 11
400.67106915104449
 21
-58.219854476264018
 31
0.0
  0
LINE
  5
62
100
AcDbEntity
100
AcDbLine
  8
CONTOUR
 62
256
370
-1
  6
ByLayer
 10
400.67106915104449
 20
-58.219854476264061
 30
0.0
 11
417.67106915104438
 21
-87.66471820493507
 31
0.0
  0
LINE
  5
63
100
AcDbEntity
100
AcDbLine
  8
CONTOUR
 62
256
370
-1
  6
ByLayer
 10
313.41789367798981
 20
-157.0929214352104
 30
0.0
 11
322.07814771583401
 21
-152.0929214352104
 31
0.0
  0
LINE
  5
64
100
AcDbEntity
100
AcDbLine
  8
CONTOUR
 62
256
370
-1
  6
ByLayer
 10
288.4178936779897
 20
-113.7916512459885
 30
0.0
 11
297.07814771583401
 21
-108.7916512459885
 31
0.0
  0
LINE
  5
65
100
AcDbEntity
100
AcDbLine
  8
CONTOUR
 62
256
370
-1
  6
ByLayer
 10
273.87949383682229
 20
-97.220190201219708
 30
0.0
 11
275.2019052838329
 21
-97.983684806130782
 31
0.0
  0
LINE
  5
66
100
AcDbEntity
100
AcDbLine
  8
CONTOUR
 62
256
370
-1
  6
ByLayer
 10
145.2980947161671
 20
-22.9836848061308
 30
0.0
 11
146.62050616317779
 21
-23.74717941104187
 31
0.0
  0
LINE
  5
67
100
AcDbEntity
100
AcDbLine
  8
CENTER
 62
256
370
-1
  6
ByLayer
 10
158.28847577293371
 20
-30.48368480613081
 30
0.0
 11
169.78847577293371
 21
-10.565100519088711
 31
0.0
  0
LINE
  5
68
100
AcDbEntity
100
AcDbLine
  8
CENTER
 62
256
370
-1
  6
ByLayer
 10
262.21152422706632
 20
-90.483684806130782
 30
0.0
 11
273.71152422706632
 21
-70.565100519088716
 31
0.0
  0
LINE
  5
69
100
AcDbEntity
100
AcDbLine
  8
CONTOUR
 62
256
370
-1
  6
ByLayer
 10
146.62050616317779
 20
-23.74717941104187
 30
0.0
 11
170.09093400474191
 21
-30.041227494429421
 31
0.0
  0
LINE
  5
6A
100
AcDbEntity
100
AcDbLine
  8
CONTOUR
 62
256
370
-1
  6
ByLayer
 10
256.69347438318579
 20
-80.041227494429435
 30
0.0
 11
273.87949383682252
 21
-97.22019020121995
 31
0.0
  0
LINE
  5
6B
100
AcDbEntity
100
AcDbLine
  8
CONTOUR
 62
256
370
-1
  6
ByLayer
 10
170.09093400474191
 20
-30.041227494429421
 30
0.0
 11
172.6987298107781
 21
-25.52439266260976
 31
0.0
  0
DIMENSION
  5
6C
100
AcDbEntity
  8
0
 62
256
370
-1
  6
ByLayer
100
AcDbDimension
 10
266.7019052838329
 20
-112.7061166704663
 30
0.0
 11
202.68749999999991
 21
-73.582319038370613
 31
0.0
 70
0
 71
5
 72
0
 41
1.0
 42
0.0
  1

  3
Standard
100
AcDbAlignedDimension
 13
145.2980947161671
 23
-22.9836848061308
 33
0.0
 14
275.2019052838329
 24
-97.983684806130782
 34
0.0
 50
330.00000000000011
100
AcDbRotatedDimension
  0
DIMENSION
  5
6D
100
AcDbEntity
  8
0
 62
256
370
-1
  6
ByLayer
100
AcDbDimension
 10
258.71152708803078
 20
-96.545864284400466
 30
0.0
 11
207.6875014304822
 21
-64.922065826415434
 31
0.0
 70
0
 71
5
 72
0
 41
1.0
 42
0.0
  1

  3
Standard
100
AcDbAlignedDimension
 13
160.09203439558519
 23
-27.35982963726946
 33
0.0
 14
264.01508526845299
 24
-87.359832055011566
 34
0.0
 50
330.00000000000011
100
AcDbRotatedDimension
  0
DIMENSION
  5
6E
100
AcDbEntity
  8
0
 62
256
370
-1
  6
ByLayer
100
AcDbDimension
 10
183.44872981077799
 20
-6.9048464812443342
 30
0.0
 11
173.56091226347252
 21
0.9689511508514508
 31
0.0
 70
0
 71
5
 72
0
 41
1.0
 42
0.0
  1

  3
Standard
100
AcDbAlignedDimension
 13
151.0480947161671
 23
-13.02439266260976
 33
0.0
 14
172.6987298107781
 24
-25.52439266260976
 34
0.0
 50
330.00000000000011
100
AcDbRotatedDimension
  0
DIMENSION
  5
6F
100
AcDbEntity
  8
0
 62
256
370
-1
  6
ByLayer
100
AcDbDimension
 10
151.0480947161671
 20
-13.02439266260976
 30
0.0
 11
139.11860279185589
 21
16.313121216000582
 31
0.0
 70
2
 71
5
 72
0
 41
1.0
 42
0.0
  1

  3
Standard
100
AcDb2LineAngularDimension
 13
256.69347438318579
 23
-80.041227494429435
 33
0.0
 14
273.87949383682252
 24
-97.22019020121995
 34
0.0
 15
280.9519052838329
 25
-88.02439266260977
 35
0.0
 16
288.66342951089922
 26
-104.66764089753261
 36
0.0
  0
LINE
  5
70
100
AcDbEntity
100
AcDbLine
  8
CONTOUR
 62
256
370
-1
  6
ByLayer
 10
248.23557158514987
 20
-39.69074486610657
 30
0.0
 11
252.25480947161671
 21
-24.690744866106574
 31
0.0
  0
LINE
  5
71
100
AcDbEntity
100
AcDbLine
  8
CONTOUR
 62
256
370
-1
  6
ByLayer
 10
209.26442841485013
 20
-17.190744866106574
 30
0.0
 11
220.24519052838329
 21
-6.2099827525734153
 31
0.0
  0
LINE
  5
72
100
AcDbEntity
100
AcDbLine
  8
CONTOUR
 62
256
370
-1
  6
ByLayer
 10
209.26442841485013
 20
-17.190744866106574
 30
0.0
 11
248.23557158514987
 21
-39.69074486610657
 31
0.0
  0
LINE
  5
73
100
AcDbEntity
100
AcDbLine
  8
CONTOUR
 62
256
370
-1
  6
ByLayer
 10
220.24519052838329
 20
-6.2099827525734126
 30
0.0
 11
252.25480947161671
 21
-24.69074486610657
 31
0.0
  0
LINE
  5
74
100
AcDbEntity
100
AcDbLine
  8
CENTER
 62
256
370
-1
  6
ByLayer
 10
303.23076211353322
 20
40.563719300984012
 30
0.0
 11
251.2692378864669
 21
70.563719300984047
 31
0.0
  0
CIRCLE
  5
75
100
AcDbEntity
100
AcDbCircle
  8
CONTOUR
 62
256
370
-1
  6
ByLayer
 10
277.25000000000006
 20
55.563719300984033
 30
0.0
 40
70.0
  0
LINE
  5
76
100
AcDbEntity
100
AcDbLine
  8
AUX
 62
256
370
-1
  6
ByLayer
 10
259.85511776651532
 20
-62.565100519088723
 30
0.0
 11
273.85511776651532
 21
-38.316389213124417
 31
0.0
  0
LINE
  5
77
100
AcDbEntity
100
AcDbLine
  8
AUX
 62
256
370
-1
  6
ByLayer
 10
183.64488223348471
 20
-18.56510051908872
 30
0.0
 11
197.64488223348471
 21
5.6836107868755619
 31
0.0
  0
LINE
  5
78
100
AcDbEntity
100
AcDbLine
  8
AUX
 62
256
370
-1
  6
ByLayer
 10
151.0480947161671
 20
-13.02439266260976
 30
0.0
 11
280.9519052838329
 21
-88.02439266260977
 31
0.0
  0
LINE
  5
79
100
AcDbEntity
100
AcDbLine
  8
AUX
 62
256
370
-1
  6
ByLayer
 10
156.7980947161671
 20
-3.0651005190887162
 30
0.0
 11
286.7019052838329
 21
-78.065100519088716
 31
0.0
  0
LINE
  5
7A
100
AcDbEntity
100
AcDbLine
  8
AUX
 62
256
370
-1
  6
ByLayer
 10
275.2019052838329
 20
-97.983684806130782
 30
0.0
 11
286.7019052838329
 21
-78.065100519088716
 31
0.0
  0
LINE
  5
7B
100
AcDbEntity
100
AcDbLine
  8
AUX
 62
256
370
-1
  6
ByLayer
 10
145.2980947161671
 20
-22.98368480613081
 30
0.0
 11
156.7980947161671
 21
-3.0651005190887162
 31
0.0
  0
LINE
  5
7C
100
AcDbEntity
100
AcDbLine
  8
AUX
 62
256
370
-1
  6
ByLayer
 10
256.69347438318579
 20
-80.041227494429435
 30
0.0
 11
259.30127018922201
 21
-75.524392662609785
 31
0.0
  0
LINE
  5
7D
100
AcDbEntity
100
AcDbLine
  8
AUX
 62
256
370
-1
  6
ByLayer
 10
209.26442841485016
 20
-17.190744866106581
 30
0.0
 11
216.26442841485016
 21
-5.0663892131244426
 31
0.0
  0
LINE
  5
7E
100
AcDbEntity
100
AcDbLine
  8
AUX
 62
256
370
-1
  6
ByLayer
 10
248.23557158514987
 20
-39.690744866106563
 30
0.0
 11
255.23557158514987
 21
-27.566389213124417
 31
0.0
  0
LINE
  5
7F
100
AcDbEntity
100
AcDbLine
  8
AUX
 62
256
370
-1
  6
ByLayer
 10
197.64488223348471
 20
5.6836107868755619
 30
0.0
 11
216.26442841485016
 21
-5.0663892131244426
 31
0.0
  0
LINE
  5
80
100
AcDbEntity
100
AcDbLine
  8
AUX
 62
256
370
-1
  6
ByLayer
 10
255.23557158514987
 20
-27.566389213124413
 30
0.0
 11
273.85511776651532
 21
-38.316389213124417
 31
0.0
  0
LINE
  5
81
100
AcDbEntity
100
AcDbLine
  8
CONTOUR
 62
256
370
-1
  6
ByLayer
 10
191.60417437700573
 20
24.182322092839833
 30
0.0
 11
292.89582562299432
 21
-34.298440020693292
 31
0.0
  0
LINE
  5
82
100
AcDbEntity
100
AcDbLine
  8
CONTOUR
 62
256
370
-1
  6
ByLayer
 10
185.94392033916137
 20
-17.583049711519845
 30
0.0
 11
276.87658773652743
 21
-70.08304971151982
 31
0.0
  0
LINE
  5
83
100
AcDbEntity
100
AcDbLine
  8
CONTOUR
 62
256
370
-1
  6
ByLayer
 10
1117.0
 20
243.0
 30
0.0
 11
1117.0
 21
357.0
 31
0.0
  0
LINE
  5
84
100
AcDbEntity
100
AcDbLine
  8
CONTOUR
 62
256
370
-1
  6
ByLayer
 10
1117.0
 20
357.0
 30
0.0
 11
1134.0
 21
357.0
 31
0.0
  0
LINE
  5
85
100
AcDbEntity
100
AcDbLine
  8
CONTOUR
 62
256
370
-1
  6
ByLayer
 10
1117.0
 20
243.0
 30
0.0
 11
1134.0
 21
243.0
 31
0.0
  0
LINE
  5
86
100
AcDbEntity
100
AcDbLine
  8
CONTOUR
 62
256
370
-1
  6
ByLayer
 10
1134.0
 20
230.0
 30
0.0
 11
1134.0
 21
370.0
 31
0.0
  0
LINE
  5
87
100
AcDbEntity
100
AcDbLine
  8
CONTOUR
 62
256
370
-1
  6
ByLayer
 10
1125.0
 20
230.0
 30
0.0
 11
1125.0
 21
370.0
 31
0.0
  0
LINE
  5
88
100
AcDbEntity
100
AcDbLine
  8
CONTOUR
 62
256
370
-1
  6
ByLayer
 10
1110.0
 20
227.0
 30
0.0
 11
1139.0
 21
227.0
 31
0.0
  0
LINE
  5
89
100
AcDbEntity
100
AcDbLine
  8
CONTOUR
 62
256
370
-1
  6
ByLayer
 10
1110.0
 20
373.0
 30
0.0
 11
1139.0
 21
373.0
 31
0.0
  0
LINE
  5
8A
100
AcDbEntity
100
AcDbLine
  8
CONTOUR
 62
256
370
-1
  6
ByLayer
 10
1139.0
 20
227.0
 30
0.0
 11
1139.0
 21
373.0
 31
0.0
  0
LINE
  5
8B
100
AcDbEntity
100
AcDbLine
  8
CONTOUR
 62
256
370
-1
  6
ByLayer
 10
1110.0
 20
227.0
 30
0.0
 11
1110.0
 21
373.0
 31
0.0
  0
LINE
  5
8C
100
AcDbEntity
100
AcDbLine
  8
CONTOUR
 62
256
370
-1
  6
ByLayer
 10
736.0
 20
230.00000000000006
 30
0.0
 11
736.0
 21
370.00000000000006
 31
0.0
  0
LINE
  5
8D
100
AcDbEntity
100
AcDbLine
  8
CONTOUR
 62
256
370
-1
  6
ByLayer
 10
715.0
 20
227.0
 30
0.0
 11
715.0
 21
373.0
 31
0.0
  0
LINE
  5
8E
100
AcDbEntity
100
AcDbLine
  8
CONTOUR
 62
256
370
-1
  6
ByLayer
 10
736.0
 20
369.5
 30
0.0
 11
1125.0
 21
369.5
 31
0.0
  0
LINE
  5
8F
100
AcDbEntity
100
AcDbLine
  8
CONTOUR
 62
256
370
-1
  6
ByLayer
 10
736.0
 20
230.5
 30
0.0
 11
1125.0
 21
230.5
 31
0.0
  0
LINE
  5
90
100
AcDbEntity
100
AcDbLine
  8
CONTOUR
 62
256
370
-1
  6
ByLayer
 10
715.0
 20
230.0
 30
0.0
 11
1139.0
 21
230.0
 31
0.0
  0
LINE
  5
91
100
AcDbEntity
100
AcDbLine
  8
CONTOUR
 62
256
370
-1
  6
ByLayer
 10
715.0
 20
370.0
 30
0.0
 11
1139.0
 21
370.0
 31
0.0
  0
LINE
  5
92
100
AcDbEntity
100
AcDbLine
  8
CENTER
 62
256
370
-1
  6
ByLayer
 10
800.0
 20
220.00000000000003
 30
0.0
 11
800.0
 21
380.00000000000006
 31
0.0
  0
CIRCLE
  5
93
100
AcDbEntity
100
AcDbCircle
  8
CONTOUR
 62
256
370
-1
  6
ByLayer
 10
800.0
 20
300.0
 30
0.0
 40
17.0
  0
LINE
  5
94
100
AcDbEntity
100
AcDbLine
  8
CONTOUR
 62
256
370
-1
  6
ByLayer
 10
1117.0
 20
43.0
 30
0.0
 11
1117.0
 21
157.0
 31
0.0
  0
LINE
  5
95
100
AcDbEntity
100
AcDbLine
  8
CONTOUR
 62
256
370
-1
  6
ByLayer
 10
1117.0
 20
157.0
 30
0.0
 11
1134.0
 21
157.0
 31
0.0
  0
LINE
  5
96
100
AcDbEntity
100
AcDbLine
  8
CONTOUR
 62
256
370
-1
  6
ByLayer
 10
1117.0
 20
43.0
 30
0.0
 11
1134.0
 21
43.0
 31
0.0
  0
LINE
  5
97
100
AcDbEntity
100
AcDbLine
  8
CONTOUR
 62
256
370
-1
  6
ByLayer
 10
1134.0
 20
30.0
 30
0.0
 11
1134.0
 21
170.0
 31
0.0
  0
LINE
  5
98
100
AcDbEntity
100
AcDbLine
  8
CONTOUR
 62
256
370
-1
  6
ByLayer
 10
1125.0
 20
30.0
 30
0.0
 11
1125.0
 21
170.0
 31
0.0
  0
LINE
  5
99
100
AcDbEntity
100
AcDbLine
  8
CONTOUR
 62
256
370
-1
  6
ByLayer
 10
1110.0
 20
27.0
 30
0.0
 11
1139.0
 21
27.0
 31
0.0
  0
LINE
  5
9A
100
AcDbEntity
100
AcDbLine
  8
CONTOUR
 62
256
370
-1
  6
ByLayer
 10
1110.0
 20
173.0
 30
0.0
 11
1139.0
 21
173.0
 31
0.0
  0
LINE
  5
9B
100
AcDbEntity
100
AcDbLine
  8
CONTOUR
 62
256
370
-1
  6
ByLayer
 10
1139.0
 20
27.0
 30
0.0
 11
1139.0
 21
173.0
 31
0.0
  0
LINE
  5
9C
100
AcDbEntity
100
AcDbLine
  8
CONTOUR
 62
256
370
-1
  6
ByLayer
 10
1110.0
 20
27.0
 30
0.0
 11
1110.0
 21
173.0
 31
0.0
  0
LINE
  5
9D
100
AcDbEntity
100
AcDbLine
  8
CONTOUR
 62
256
370
-1
  6
ByLayer
 10
736.0
 20
30.000000000000057
 30
0.0
 11
736.0
 21
170.00000000000006
 31
0.0
  0
LINE
  5
9E
100
AcDbEntity
100
AcDbLine
  8
CONTOUR
 62
256
370
-1
  6
ByLayer
 10
715.0
 20
27.0
 30
0.0
 11
715.0
 21
173.0
 31
0.0
  0
LINE
  5
9F
100
AcDbEntity
100
AcDbLine
  8
CONTOUR
 62
256
370
-1
  6
ByLayer
 10
736.0
 20
169.5
 30
0.0
 11
1125.0
 21
169.5
 31
0.0
  0
LINE
  5
A0
100
AcDbEntity
100
AcDbLine
  8
CONTOUR
 62
256
370
-1
  6
ByLayer
 10
736.0
 20
30.5
 30
0.0
 11
1125.0
 21
30.5
 31
0.0
  0
LINE
  5
A1
100
AcDbEntity
100
AcDbLine
  8
CONTOUR
 62
256
370
-1
  6
ByLayer
 10
715.0
 20
30.0
 30
0.0
 11
1139.0
 21
30.0
 31
0.0
  0
LINE
  5
A2
100
AcDbEntity
100
AcDbLine
  8
CONTOUR
 62
256
370
-1
  6
ByLayer
 10
715.0
 20
170.0
 30
0.0
 11
1139.0
 21
170.0
 31
0.0
  0
LINE
  5
A3
100
AcDbEntity
100
AcDbLine
  8
CENTER
 62
256
370
-1
  6
ByLayer
 10
800.0
 20
-43.0
 30
0.0
 11
800.0
 21
180.00000000000006
 31
0.0
  0
LINE
  5
A4
100
AcDbEntity
100
AcDbLine
  8
AUX
 62
256
370
-1
  6
ByLayer
 10
667.0
 20
43.000000000000057
 30
0.0
 11
667.0
 21
157.00000000000006
 31
0.0
  0
LINE
  5
A5
100
AcDbEntity
100
AcDbLine
  8
CENTER
 62
256
370
-1
  6
ByLayer
 10
657.0
 20
100.0
 30
0.0
 11
1149.0
 21
100.0
 31
0.0
  0
LINE
  5
A6
100
AcDbEntity
100
AcDbLine
  8
AUX
 62
256
370
-1
  6
ByLayer
 10
1117.0
 20
157.0
 30
0.0
 11
667.0
 21
100.0
 31
0.0
  0
LINE
  5
A7
100
AcDbEntity
100
AcDbLine
  8
AUX
 62
256
370
-1
  6
ByLayer
 10
667.0
 20
100.0
 30
0.0
 11
1117.0
 21
43.0
 31
0.0
  0
LINE
  5
A8
100
AcDbEntity
100
AcDbLine
  8
AUX
 62
256
370
-1
  6
ByLayer
 10
856.99999999999989
 20
-33.000000000000028
 30
0.0
 11
743.0
 21
-33.0
 31
0.0
  0
LINE
  5
A9
100
AcDbEntity
100
AcDbLine
  8
AUX
 62
256
370
-1
  6
ByLayer
 10
800.0
 20
-33.0
 30
0.0
 11
819.29007633587798
 21
119.29007633587787
 31
0.0
  0
LINE
  5
AA
100
AcDbEntity
100
AcDbLine
  8
AUX
 62
256
370
-1
  6
ByLayer
 10
785.04733727810651
 20
85.047337278106511
 30
0.0
 11
800.0
 21
-33.0
 31
0.0
  0
LINE
  5
AB
100
AcDbEntity
100
AcDbLine
  8
CONTOUR
 62
256
370
-1
  6
ByLayer
 10
785.34895083892377
 20
85.348950838923798
 30
0.0
 11
819.29007633587798
 21
119.29007633587796
 31
0.0
  0
LINE
  5
AC
100
AcDbEntity
100
AcDbLine
  8
AUX
 62
256
370
-1
  6
ByLayer
 10
814.0
 20
-43.000000000000021
 30
0.0
 11
814.0
 21
-23.000000000000021
 31
0.0
  0
LINE
  5
AD
100
AcDbEntity
100
AcDbLine
  8
AUX
 62
256
370
-1
  6
ByLayer
 10
786.0
 20
-43.000000000000007
 30
0.0
 11
786.0
 21
-23.000000000000007
 31
0.0
  0
LINE
  5
AE
100
AcDbEntity
100
AcDbLine
  8
AUX
 62
256
370
-1
  6
ByLayer
 10
657.0
 20
114.0
 30
0.0
 11
677.0
 21
114.0
 31
0.0
  0
LINE
  5
AF
100
AcDbEntity
100
AcDbLine
  8
AUX
 62
256
370
-1
  6
ByLayer
 10
657.0
 20
86.0
 30
0.0
 11
677.0
 21
86.0
 31
0.0
  0
LINE
  5
B0
100
AcDbEntity
100
AcDbLine
  8
AUX
 62
3
370
-1
  6
ByLayer
 10
667.0
 20
114.0
 30
0.0
 11
1117.0
 21
43.0
 31
0.0
  0
LINE
  5
B1
100
AcDbEntity
100
AcDbLine
  8
AUX
 62
3
370
-1
  6
ByLayer
 10
1117.0
 20
129.63157894736847
 30
0.0
 11
667.0
 21
114.0
 31
0.0
  0
LINE
  5
B2
100
AcDbEntity
100
AcDbLine
  8
AUX
 62
3
370
-1
  6
ByLayer
 10
813.99999999999955
 20
-33.000000000000085
 30
0.0
 11
793.96737044145857
 21
93.967370441458598
 31
0.0
  0
LINE
  5
B3
100
AcDbEntity
100
AcDbLine
  8
AUX
 62
3
370
-1
  6
ByLayer
 10
819.29007633587798
 20
119.29007633587801
 30
0.0
 11
813.99999999999955
 21
-33.000000000000085
 31
0.0
  0
LINE
  5
B4
100
AcDbEntity
100
AcDbLine
  8
AUX
 62
4
370
-1
  6
ByLayer
 10
667.0
 20
86.0
 30
0.0
 11
1117.0
 21
157.0
 31
0.0
  0
LINE
  5
B5
100
AcDbEntity
100
AcDbLine
  8
AUX
 62
4
370
-1
  6
ByLayer
 10
1117.0
 20
82.368421052631589
 30
0.0
 11
667.0
 21
86.0
 31
0.0
  0
LINE
  5
B6
100
AcDbEntity
100
AcDbLine
  8
AUX
 62
4
370
-1
  6
ByLayer
 10
785.04733727810753
 20
85.047337278107577
 30
0.0
 11
786.00000000000045
 21
-32.999999999999972
 31
0.0
  0
LINE
  5
B7
100
AcDbEntity
100
AcDbLine
  8
AUX
 62
4
370
-1
  6
ByLayer
 10
786.00000000000045
 20
-32.999999999999972
 30
0.0
 11
808.29287598944666
 21
108.29287598944666
 31
0.0
  0
LINE
  5
B8
100
AcDbEntity
100
AcDbLine
  8
CONTOUR
 62
256
370
-1
  6
ByLayer
 10
715.0
 20
373.0
 30
0.0
 11
750.0
 21
373.0
 31
0.0
  0
LINE
  5
B9
100
AcDbEntity
100
AcDbLine
  8
CONTOUR
 62
256
370
-1
  6
ByLayer
 10
715.0
 20
227.0
 30
0.0
 11
750.0
 21
227.0
 31
0.0
  0
LINE
  5
BA
100
AcDbEntity
100
AcDbLine
  8
CONTOUR
 62
256
370
-1
  6
ByLayer
 10
715.0
 20
173.0
 30
0.0
 11
750.0
 21
173.0
 31
0.0
  0
LINE
  5
BB
100
AcDbEntity
100
AcDbLine
  8
CONTOUR
 62
256
370
-1
  6
ByLayer
 10
715.0
 20
27.0
 30
0.0
 11
750.0
 21
27.0
 31
0.0
  0
LINE
  5
BC
100
AcDbEntity
100
AcDbLine
  8
CONTOUR
 62
256
370
-1
  6
ByLayer
 10
750.0
 20
27.0
 30
0.0
 11
750.0
 21
173.0
 31
0.0
  0
LINE
  5
BD
100
AcDbEntity
100
AcDbLine
  8
CONTOUR
 62
256
370
-1
  6
ByLayer
 10
750.0
 20
227.0
 30
0.0
 11
750.0
 21
373.0
 31
0.0
  0
LINE
  5
BE
100
AcDbEntity
100
AcDbLine
  8
CONTOUR
 62
256
370
-1
  6
ByLayer
 10
1139.0
 20
227.0
 30
0.0
 11
1110.0
 21
227.0
 31
0.0
  0
LINE
  5
BF
100
AcDbEntity
100
AcDbLine
  8
CONTOUR
 62
256
370
-1
  6
ByLayer
 10
1139.0
 20
373.0
 30
0.0
 11
1110.0
 21
373.0
 31
0.0
  0
LINE
  5
C0
100
AcDbEntity
100
AcDbLine
  8
CONTOUR
 62
256
370
-1
  6
ByLayer
 10
1110.0
 20
173.0
 30
0.0
 11
1139.0
 21
173.0
 31
0.0
  0
LINE
  5
C1
100
AcDbEntity
100
AcDbLine
  8
CONTOUR
 62
256
370
-1
  6
ByLayer
 10
1139.0
 20
27.0
 30
0.0
 11
1110.0
 21
27.0
 31
0.0
  0
DIMENSION
  5
C2
100
AcDbEntity
  8
TEXT
 62
256
370
-1
  6
ByLayer
100
AcDbDimension
 10
814.0
 20
-50.0
 30
0.0
 11
800.0
 21
-48.125
 31
0.0
 70
0
 71
5
 72
1
 41
1.0
 42
0.0
  1

  3
Standard
100
AcDbAlignedDimension
 13
786.0
 23
-33.000000000002856
 33
0.0
 14
814.0
 24
-33.000000000000014
 34
0.0
 50
0.0
100
AcDbRotatedDimension
  0
DIMENSION
  5
C3
100
AcDbEntity
  8
TEXT
 62
256
370
-1
  6
ByLayer
100
AcDbDimension
 10
800.0
 20
150.0
 30
0.0
 11
958.5
 21
151.875
 31
0.0
 70
0
 71
5
 72
1
 41
1.0
 42
0.0
  1

  3
Standard
100
AcDbAlignedDimension
 13
1117.0
 23
157.0
 33
0.0
 14
800.0
 24
169.5
 34
0.0
 50
0.0
100
AcDbRotatedDimension
  0
DIMENSION
  5
C4
100
AcDbEntity
  8
TEXT
 62
256
370
-1
  6
ByLayer
100
AcDbDimension
 10
780.0
 20
-33.000000000000014
 30
0.0
 11
778.125
 21
33.499999999999986
 31
0.0
 70
0
 71
5
 72
1
 41
1.0
 42
0.0
  1

  3
Standard
100
AcDbAlignedDimension
 13
800.0
 23
100.0
 33
0.0
 14
800.0
 24
-33.000000000000014
 34
0.0
 50
90.0
100
AcDbRotatedDimension
  0
LINE
  5
C5
100
AcDbEntity
100
AcDbLine
  8
AUX
 62
256
370
-1
  6
ByLayer
 10
744.00000000000011
 20
-300.0
 30
0.0
 11
744.0
 21
-271.99999999999983
 31
0.0
  0
LINE
  5
C6
100
AcDbEntity
100
AcDbLine
  8
AUX
 62
256
370
-1
  6
ByLayer
 10
656.0
 20
-300.0
 30
0.0
 11
656.0
 21
-271.99999999999994
 31
0.0
  0
LINE
  5
C7
100
AcDbEntity
100
AcDbLine
  8
AUX
 62
256
370
-1
  6
ByLayer
 10
625.0
 20
-300.0
 30
0.0
 11
775.0
 21
-299.99999999999994
 31
0.0
  0
LINE
  5
C8
100
AcDbEntity
100
AcDbLine
  8
AUX
 62
256
370
-1
  6
ByLayer
 10
677.5
 20
-286.0
 30
0.0
 11
677.5
 21
-272.0
 31
0.0
  0
LINE
  5
C9
100
AcDbEntity
100
AcDbLine
  8
AUX
 62
256
370
-1
  6
ByLayer
 10
722.5
 20
-286.00000000000006
 30
0.0
 11
722.5
 21
-272.0
 31
0.0
  0
LINE
  5
CA
100
AcDbEntity
100
AcDbLine
  8
AUX
 62
256
370
-1
  6
ByLayer
 10
656.0
 20
-271.99999999999994
 30
0.0
 11
677.5
 21
-272.0
 31
0.0
  0
LINE
  5
CB
100
AcDbEntity
100
AcDbLine
  8
AUX
 62
256
370
-1
  6
ByLayer
 10
722.5
 20
-272.0
 30
0.0
 11
744.0
 21
-271.99999999999983
 31
0.0
  0
CIRCLE
  5
CC
100
AcDbEntity
100
AcDbCircle
  8
AUX
 62
256
370
-1
  6
ByLayer
 10
700.0
 20
-178.99999999999997
 30
0.0
 40
70.0
  0
INSERT
  5
CD
100
AcDbEntity
100
AcDbBlockReference
  8
CONTOUR
 62
256
370
-1
  6
ByLayer
  2
Screw M4 L30
 10
650.50252531694161
 20
-228.4974746830583
 30
0.0
 50
135.0
 44
1.0
 45
1.0
  0
INSERT
  5
CE
100
AcDbEntity
100
AcDbBlockReference
  8
CONTOUR
 62
256
370
-1
  6
ByLayer
  2
Screw M4 L30
 10
749.49747468305839
 20
-228.4974746830583
 30
0.0
 50
225.0
 44
1.0
 45
1.0
  0
INSERT
  5
CF
100
AcDbEntity
100
AcDbBlockReference
  8
AUX
 62
256
370
-1
  6
ByLayer
  2
Screw M4 L30
 10
700.0
 20
-249.00000000000006
 30
0.0
 50
180.0
 44
1.0
 45
1.0
  0
LINE
  5
D0
100
AcDbEntity
100
AcDbLine
  8
AUX
 62
256
370
-1
  6
ByLayer
 10
722.5
 20
-286.00000000000006
 30
0.0
 11
718.48076211353316
 21
-271.0
 31
0.0
  0
LINE
  5
D1
100
AcDbEntity
100
AcDbLine
  8
AUX
 62
256
370
-1
  6
ByLayer
 10
677.5
 20
-286.0
 30
0.0
 11
681.51923788646684
 21
-270.99999999999994
 31
0.0
  0
LINE
  5
D2
100
AcDbEntity
100
AcDbLine
  8
CONTOUR
 62
256
370
-1
  6
ByLayer
 10
643.43145750507608
 20
-285.99999999999994
 30
0.0
 11
756.5685424949238
 21
-286.00000000000011
 31
0.0
  0
LINE
  5
D3
100
AcDbEntity
100
AcDbLine
  8
CONTOUR
 62
256
370
-1
  6
ByLayer
 10
636.80407138652538
 20
-228.05379298974364
 30
0.0
 11
629.28932188134524
 21
-235.5685424949238
 31
0.0
  0
LINE
  5
D4
100
AcDbEntity
100
AcDbLine
  8
CONTOUR
 62
256
370
-1
  6
ByLayer
 10
756.5685424949238
 20
-249.71067811865464
 30
0.0
 11
770.71067811865476
 21
-235.56854249492372
 31
0.0
  0
LINE
  5
D5
100
AcDbEntity
100
AcDbLine
  8
CONTOUR
 62
256
370
-1
  6
ByLayer
 10
756.5685424949238
 20
-286.00000000000011
 30
0.0
 11
756.5685424949238
 21
-249.71067811865464
 31
0.0
  0
LINE
  5
D6
100
AcDbEntity
100
AcDbLine
  8
CONTOUR
 62
256
370
-1
  6
ByLayer
 10
629.28932188134524
 20
-235.5685424949238
 30
0.0
 11
643.43145750507608
 21
-249.71067811865467
 31
0.0
  0
LINE
  5
D7
100
AcDbEntity
100
AcDbLine
  8
CONTOUR
 62
256
370
-1
  6
ByLayer
 10
643.43145750507608
 20
-285.99999999999994
 30
0.0
 11
643.43145750507608
 21
-249.71067811865467
 31
0.0
  0
LINE
  5
D8
100
AcDbEntity
100
AcDbLine
  8
CONTOUR
 62
256
370
-1
  6
ByLayer
 10
763.19592861347462
 20
-228.05379298974358
 30
0.0
 11
770.71067811865476
 21
-235.56854249492372
 31
0.0
  0
ARC
  5
D9
100
AcDbEntity
  8
CONTOUR
 62
7
370
35
  6
CONTINUOUS
100
AcDbCircle
 10
700.0
 20
-178.99999999999997
 30
0.0
 40
80.0
100
AcDbArc
 50
217.81924421854171
 51
322.18075578145829
  0
LINE
  5
DA
100
AcDbEntity
100
AcDbLine
  8
CONTOUR
 62
256
370
-1
  6
ByLayer
 10
643.43145750507608
 20
-258.99999999999994
 30
0.0
 11
756.5685424949238
 21
-259.0
 31
0.0
  0
LINE
  5
DB
100
AcDbEntity
100
AcDbLine
  8
CONTOUR
 62
256
370
-1
  6
ByLayer
 10
643.43145750507608
 20
-270.99999999999994
 30
0.0
 11
756.5685424949238
 21
-271.0
 31
0.0
  0
LINE
  5
DC
100
AcDbEntity
100
AcDbLine
  8
CENTER
 62
256
370
-1
  6
ByLayer
 10
625.0
 20
-178.99999999999994
 30
0.0
 11
775.0
 21
-179.0
 31
0.0
  0
LINE
  5
DD
100
AcDbEntity
100
AcDbLine
  8
CENTER
 62
256
370
-1
  6
ByLayer
 10
696.46446609406723
 20
-175.46446609406723
 30
0.0
 11
770.71067811865476
 21
-249.71067811865473
 31
0.0
  0
LINE
  5
DE
100
AcDbEntity
100
AcDbLine
  8
CENTER
 62
256
370
-1
  6
ByLayer
 10
703.53553390593277
 20
-175.46446609406723
 30
0.0
 11
629.28932188134524
 21
-249.71067811865476
 31
0.0
  0
LINE
  5
DF
100
AcDbEntity
100
AcDbLine
  8
CENTER
 62
256
370
-1
  6
ByLayer
 10
700.0
 20
-305.0
 30
0.0
 11
700.0
 21
-104.0
 31
0.0
  0
LINE
  5
E0
100
AcDbEntity
100
AcDbLine
  8
AUX
 62
256
370
-1
  6
ByLayer
 10
744.00000000000011
 20
-500.0
 30
0.0
 11
744.0
 21
-471.99999999999983
 31
0.0
  0
LINE
  5
E1
100
AcDbEntity
100
AcDbLine
  8
AUX
 62
256
370
-1
  6
ByLayer
 10
656.0
 20
-500.0
 30
0.0
 11
656.0
 21
-471.99999999999994
 31
0.0
  0
LINE
  5
E2
100
AcDbEntity
100
AcDbLine
  8
AUX
 62
256
370
-1
  6
ByLayer
 10
677.5
 20
-486.0
 30
0.0
 11
677.5
 21
-472.0
 31
0.0
  0
LINE
  5
E3
100
AcDbEntity
100
AcDbLine
  8
AUX
 62
256
370
-1
  6
ByLayer
 10
722.5
 20
-486.00000000000006
 30
0.0
 11
722.5
 21
-472.0
 31
0.0
  0
LINE
  5
E4
100
AcDbEntity
100
AcDbLine
  8
AUX
 62
256
370
-1
  6
ByLayer
 10
656.0
 20
-471.99999999999994
 30
0.0
 11
677.5
 21
-472.0
 31
0.0
  0
LINE
  5
E5
100
AcDbEntity
100
AcDbLine
  8
AUX
 62
256
370
-1
  6
ByLayer
 10
722.5
 20
-472.0
 30
0.0
 11
744.0
 21
-471.99999999999983
 31
0.0
  0
CIRCLE
  5
E6
100
AcDbEntity
100
AcDbCircle
  8
AUX
 62
256
370
-1
  6
ByLayer
 10
700.0
 20
-379.0
 30
0.0
 40
70.0
  0
LINE
  5
E7
100
AcDbEntity
100
AcDbLine
  8
AUX
 62
256
370
-1
  6
ByLayer
 10
722.5
 20
-486.00000000000006
 30
0.0
 11
718.48076211353316
 21
-471.0
 31
0.0
  0
LINE
  5
E8
100
AcDbEntity
100
AcDbLine
  8
AUX
 62
256
370
-1
  6
ByLayer
 10
677.5
 20
-486.0
 30
0.0
 11
681.51923788646684
 21
-470.99999999999994
 31
0.0
  0
LINE
  5
E9
100
AcDbEntity
100
AcDbLine
  8
CENTER
 62
256
370
-1
  6
ByLayer
 10
625.0
 20
-378.99999999999994
 30
0.0
 11
775.0
 21
-379.0
 31
0.0
  0
LINE
  5
EA
100
AcDbEntity
100
AcDbLine
  8
CENTER
 62
256
370
-1
  6
ByLayer
 10
696.46446609406723
 20
-375.46446609406723
 30
0.0
 11
770.71067811865476
 21
-449.71067811865476
 31
0.0
  0
LINE
  5
EB
100
AcDbEntity
100
AcDbLine
  8
CENTER
 62
256
370
-1
  6
ByLayer
 10
703.53553390593277
 20
-375.46446609406723
 30
0.0
 11
629.28932188134524
 21
-449.71067811865476
 31
0.0
  0
LINE
  5
EC
100
AcDbEntity
100
AcDbLine
  8
CENTER
 62
256
370
-1
  6
ByLayer
 10
700.0
 20
-505.0
 30
0.0
 11
700.0
 21
-304.0
 31
0.0
  0
LINE
  5
ED
100
AcDbEntity
100
AcDbLine
  8
CONTOUR
 62
256
370
-1
  6
ByLayer
 10
637.77460325558377
 20
-427.08326112068528
 30
0.0
 11
629.28932188134524
 21
-435.5685424949238
 31
0.0
  0
LINE
  5
EE
100
AcDbEntity
100
AcDbLine
  8
CONTOUR
 62
256
370
-1
  6
ByLayer
 10
762.22539674441623
 20
-427.08326112068517
 30
0.0
 11
770.71067811865476
 21
-435.56854249492369
 31
0.0
  0
LINE
  5
EF
100
AcDbEntity
100
AcDbLine
  8
CONTOUR
 62
256
370
-1
  6
ByLayer
 10
730.30865786510128
 20
-459.0
 30
0.0
 11
762.22539674441623
 21
-427.08326112068517
 31
0.0
  0
LINE
  5
F0
100
AcDbEntity
100
AcDbLine
  8
CONTOUR
 62
256
370
-1
  6
ByLayer
 10
637.77460325558377
 20
-427.08326112068528
 30
0.0
 11
669.69134213489838
 21
-458.99999999999994
 31
0.0
  0
LINE
  5
F1
100
AcDbEntity
100
AcDbLine
  8
CONTOUR
 62
256
370
-1
  6
ByLayer
 10
629.28932188134524
 20
-435.5685424949238
 30
0.0
 11
652.72077938642133
 21
-458.99999999999994
 31
0.0
  0
LINE
  5
F2
100
AcDbEntity
100
AcDbLine
  8
CONTOUR
 62
256
370
-1
  6
ByLayer
 10
747.27922061357845
 20
-459.0
 30
0.0
 11
770.71067811865476
 21
-435.56854249492369
 31
0.0
  0
LINE
  5
F3
100
AcDbEntity
100
AcDbLine
  8
AUX
 62
256
370
-1
  6
ByLayer
 10
677.5
 20
-486.0
 30
0.0
 11
722.5
 21
-486.00000000000006
 31
0.0
  0
LINE
  5
F4
100
AcDbEntity
100
AcDbLine
  8
AUX
 62
256
370
-1
  6
ByLayer
 10
900.0
 20
-486.00000000000006
 30
0.0
 11
900.0
 21
-471.0
 31
0.0
  0
LINE
  5
F5
100
AcDbEntity
100
AcDbLine
  8
AUX
 62
256
370
-1
  6
ByLayer
 10
625.0
 20
-500.0
 30
0.0
 11
995.0
 21
-499.99999999999989
 31
0.0
  0
LINE
  5
F6
100
AcDbEntity
100
AcDbLine
  8
AUX
 62
256
370
-1
  6
ByLayer
 10
905.0
 20
-500.0
 30
0.0
 11
905.0
 21
-471.0
 31
0.0
  0
LINE
  5
F7
100
AcDbEntity
100
AcDbLine
  8
AUX
 62
256
370
-1
  6
ByLayer
 10
995.0
 20
-500.0
 30
0.0
 11
995.0
 21
-471.0
 31
0.0
  0
LINE
  5
F8
100
AcDbEntity
100
AcDbLine
  8
AUX
 62
256
370
-1
  6
ByLayer
 10
722.5
 20
-486.00000000000006
 30
0.0
 11
1000.0
 21
-486.00000000000006
 31
0.0
  0
LINE
  5
F9
100
AcDbEntity
100
AcDbLine
  8
AUX
 62
256
370
-1
  6
ByLayer
 10
1000.0
 20
-486.00000000000006
 30
0.0
 11
1000.0
 21
-471.0
 31
0.0
  0
LINE
  5
FA
100
AcDbEntity
100
AcDbLine
  8
CONTOUR
 62
256
370
-1
  6
ByLayer
 10
640.72077938642133
 20
-458.99999999999994
 30
0.0
 11
759.27922061357845
 21
-459.0
 31
0.0
  0
LINE
  5
FB
100
AcDbEntity
100
AcDbLine
  8
CONTOUR
 62
256
370
-1
  6
ByLayer
 10
640.72077938642133
 20
-470.99999999999994
 30
0.0
 11
759.27922061357845
 21
-471.0
 31
0.0
  0
LINE
  5
FC
100
AcDbEntity
100
AcDbLine
  8
CONTOUR
 62
256
370
-1
  6
ByLayer
 10
640.72077938642133
 20
-470.99999999999994
 30
0.0
 11
640.72077938642133
 21
-446.99999999999994
 31
0.0
  0
LINE
  5
FD
100
AcDbEntity
100
AcDbLine
  8
CONTOUR
 62
256
370
-1
  6
ByLayer
 10
759.27922061357845
 20
-471.0
 30
0.0
 11
759.27922061357845
 21
-447.0
 31
0.0
  0
INSERT
  5
FE
100
AcDbEntity
100
AcDbBlockReference
  8
0
 62
256
370
-1
  6
ByLayer
  2
Screw M4 L30
 10
700.0
 20
-449.0
 30
0.0
 50
180.0
 44
1.0
 45
1.0
  0
INSERT
  5
FF
100
AcDbEntity
100
AcDbBlockReference
  8
0
 62
256
370
-1
  6
ByLayer
  2
Screw M4 L30
 10
629.28932188134513
 20
-449.7106781186547
 30
0.0
 50
315.0
 44
1.0
 45
1.0
  0
INSERT
  5
100
100
AcDbEntity
100
AcDbBlockReference
  8
0
 62
256
370
-1
  6
ByLayer
  2
Screw M4 L30
 10
770.71067811865476
 20
-449.71067811865476
 30
0.0
 50
45.0
 44
1.0
 45
1.0
  0
LINE
  5
101
100
AcDbEntity
100
AcDbLine
  8
AUX
 62
256
370
-1
  6
ByLayer
 10
762.22539674441623
 20
-427.08326112068517
 30
0.0
 11
875.0
 21
-427.08326112068517
 31
0.0
  0
LINE
  5
102
100
AcDbEntity
100
AcDbLine
  8
AUX
 62
256
370
-1
  6
ByLayer
 10
770.71067811865476
 20
-435.56854249492369
 30
0.0
 11
875.0
 21
-435.56854249492369
 31
0.0
  0
LINE
  5
103
100
AcDbEntity
100
AcDbLine
  8
AUX
 62
256
370
-1
  6
ByLayer
 10
759.27922061357845
 20
-459.0
 30
0.0
 11
875.0
 21
-459.0
 31
0.0
  0
LINE
  5
104
100
AcDbEntity
100
AcDbLine
  8
AUX
 62
256
370
-1
  6
ByLayer
 10
759.27922061357845
 20
-471.0
 30
0.0
 11
875.0
 21
-471.0
 31
0.0
  0
LINE
  5
105
100
AcDbEntity
100
AcDbLine
  8
CONTOUR
 62
256
370
-1
  6
ByLayer
 10
875.0
 20
-471.0
 30
0.0
 11
1025.0
 21
-471.0
 31
0.0
  0
LINE
  5
106
100
AcDbEntity
100
AcDbLine
  8
CONTOUR
 62
256
370
-1
  6
ByLayer
 10
875.0
 20
-459.0
 30
0.0
 11
1025.0
 21
-459.0
 31
0.0
  0
LINE
  5
107
100
AcDbEntity
100
AcDbLine
  8
CONTOUR
 62
256
370
-1
  6
ByLayer
 10
875.0
 20
-447.0
 30
0.0
 11
1025.0
 21
-447.0
 31
0.0
  0
LINE
  5
108
100
AcDbEntity
100
AcDbLine
  8
CONTOUR
 62
256
370
-1
  6
ByLayer
 10
875.0
 20
-435.56854249492369
 30
0.0
 11
1025.0
 21
-435.56854249492369
 31
0.0
  0
LINE
  5
109
100
AcDbEntity
100
AcDbLine
  8
CONTOUR
 62
256
370
-1
  6
ByLayer
 10
875.0
 20
-427.08326112068517
 30
0.0
 11
1025.0
 21
-427.08326112068517
 31
0.0
  0
LINE
  5
10A
100
AcDbEntity
100
AcDbLine
  8
CONTOUR
 62
256
370
-1
  6
ByLayer
 10
875.0
 20
-471.0
 30
0.0
 11
875.0
 21
-427.08326112068517
 31
0.0
  0
LINE
  5
10B
100
AcDbEntity
100
AcDbLine
  8
CONTOUR
 62
256
370
-1
  6
ByLayer
 10
1025.0
 20
-471.0
 30
0.0
 11
1025.0
 21
-427.08326112068517
 31
0.0
  0
LINE
  5
10C
100
AcDbEntity
100
AcDbLine
  8
CENTER
 62
256
370
-1
  6
ByLayer
 10
1010.0
 20
-476.0
 30
0.0
 11
1010.0
 21
-422.08326112068517
 31
0.0
  0
LINE
  5
10D
100
AcDbEntity
100
AcDbLine
  8
CENTER
 62
256
370
-1
  6
ByLayer
 10
950.0
 20
-505.0
 30
0.0
 11
950.0
 21
-422.08326112068517
 31
0.0
  0
LINE
  5
10E
100
AcDbEntity
100
AcDbLine
  8
CENTER
 62
256
370
-1
  6
ByLayer
 10
890.0
 20
-476.0
 30
0.0
 11
890.0
 21
-422.08326112068517
 31
0.0
  0
DIMENSION
  5
10F
100
AcDbEntity
  8
TEXT
 62
256
370
-1
  6
ByLayer
100
AcDbDimension
 10
1010.0
 20
-420.0
 30
0.0
 11
950.0
 21
-418.125
 31
0.0
 70
0
 71
5
 72
0
 41
1.0
 42
0.0
  1

  3
Standard
100
AcDbAlignedDimension
 13
890.0
 23
-427.08326112068517
 33
0.0
 14
1010.0
 24
-427.08326112068517
 34
0.0
 50
0.0
100
AcDbRotatedDimension
  0
DIMENSION
  5
110
100
AcDbEntity
  8
TEXT
 62
256
370
-1
  6
ByLayer
100
AcDbDimension
 10
1025.0
 20
-410.0
 30
0.0
 11
950.0
 21
-408.125
 31
0.0
 70
0
 71
5
 72
0
 41
1.0
 42
0.0
  1

  3
Standard
100
AcDbAlignedDimension
 13
875.0
 23
-427.08326112068517
 33
0.0
 14
1025.0
 24
-427.08326112068517
 34
0.0
 50
0.0
100
AcDbRotatedDimension
  0
DIMENSION
  5
111
100
AcDbEntity
  8
TEXT
 62
256
370
-1
  6
ByLayer
100
AcDbDimension
 10
759.27922061357845
 20
-510.0
 30
0.0
 11
699.99999999999989
 21
-508.125
 31
0.0
 70
0
 71
5
 72
0
 41
1.0
 42
0.0
  1

  3
Standard
100
AcDbAlignedDimension
 13
640.72077938642133
 23
-470.99999999999994
 33
0.0
 14
759.27922061357845
 24
-471.0
 34
0.0
 50
0.0
100
AcDbRotatedDimension
  0
DIMENSION
  5
112
100
AcDbEntity
  8
TEXT
 62
256
370
-1
  6
ByLayer
100
AcDbDimension
 10
747.57106781186553
 20
-412.42893218813447
 30
0.0
 11
730.28687315748334
 21
-427.06147641306711
 31
0.0
 70
1
 71
5
 72
0
 41
1.0
 42
0.0
  1

  3
Standard
100
AcDbAlignedDimension
 13
730.30865786510128
 23
-459.0
 33
0.0
 14
762.22539674441623
 24
-427.08326112068517
 34
0.0
  0
DIMENSION
  5
113
100
AcDbEntity
  8
TEXT
 62
256
370
-1
  6
ByLayer
100
AcDbDimension
 10
730.30865786510128
 20
-465.0
 30
0.0
 11
699.99999999999977
 21
-463.125
 31
0.0
 70
0
 71
5
 72
0
 41
1.0
 42
0.0
  1

  3
Standard
100
AcDbAlignedDimension
 13
669.69134213489838
 23
-458.99999999999994
 33
0.0
 14
730.30865786510128
 24
-459.0
 34
0.0
 50
0.0
100
AcDbRotatedDimension
  0
DIMENSION
  5
114
100
AcDbEntity
  8
TEXT
 62
256
370
-1
  6
ByLayer
100
AcDbDimension
 10
669.69134213489838
 20
-465.0
 30
0.0
 11
655.20606076065985
 21
-463.125
 31
0.0
 70
0
 71
5
 72
0
 41
1.0
 42
0.0
  1

  3
Standard
100
AcDbAlignedDimension
 13
640.72077938642133
 23
-458.99999999999994
 33
0.0
 14
669.69134213489838
 24
-458.99999999999994
 34
0.0
 50
0.0
100
AcDbRotatedDimension
  0
DIMENSION
  5
115
100
AcDbEntity
  8
TEXT
 62
256
370
-1
  6
ByLayer
100
AcDbDimension
 10
745.5
 20
-424.5
 30
0.0
 11
731.75133925155046
 21
-435.59701031899988
 31
0.0
 70
1
 71
5
 72
0
 41
1.0
 42
0.0
  1

  3
Standard
100
AcDbAlignedDimension
 13
730.30865786510128
 23
-459.0
 33
0.0
 14
755.1543289325507
 24
-434.1543289325507
 34
0.0
  0
LINE
  5
116
100
AcDbEntity
100
AcDbLine
  8
CONTOUR
 62
256
370
-1
  6
ByLayer
 10
1236.0
 20
30.000000000000057
 30
0.0
 11
1236.0
 21
170.00000000000006
 31
0.0
  0
LINE
  5
117
100
AcDbEntity
100
AcDbLine
  8
CONTOUR
 62
256
370
-1
  6
ByLayer
 10
1215.0
 20
27.0
 30
0.0
 11
1215.0
 21
173.0
 31
0.0
  0
LINE
  5
118
100
AcDbEntity
100
AcDbLine
  8
CONTOUR
 62
256
370
-1
  6
ByLayer
 10
1236.0
 20
169.5
 30
0.0
 11
1625.0
 21
169.5
 31
0.0
  0
LINE
  5
119
100
AcDbEntity
100
AcDbLine
  8
CONTOUR
 62
256
370
-1
  6
ByLayer
 10
1236.0
 20
30.5
 30
0.0
 11
1625.0
 21
30.5
 31
0.0
  0
LINE
  5
11A
100
AcDbEntity
100
AcDbLine
  8
CONTOUR
 62
256
370
-1
  6
ByLayer
 10
1215.0
 20
30.0
 30
0.0
 11
1639.0
 21
30.0
 31
0.0
  0
LINE
  5
11B
100
AcDbEntity
100
AcDbLine
  8
CONTOUR
 62
256
370
-1
  6
ByLayer
 10
1215.0
 20
170.0
 30
0.0
 11
1639.0
 21
170.0
 31
0.0
  0
LINE
  5
11C
100
AcDbEntity
100
AcDbLine
  8
CENTER
 62
256
370
-1
  6
ByLayer
 10
1300.0
 20
-43.0
 30
0.0
 11
1300.0
 21
180.00000000000006
 31
0.0
  0
LINE
  5
11D
100
AcDbEntity
100
AcDbLine
  8
CONTOUR
 62
256
370
-1
  6
ByLayer
 10
1285.3489508389239
 20
85.348950838923798
 30
0.0
 11
1319.290076335878
 21
119.29007633587796
 31
0.0
  0
LINE
  5
11E
100
AcDbEntity
100
AcDbLine
  8
AUX
 62
256
370
-1
  6
ByLayer
 10
1157.0
 20
114.0
 30
0.0
 11
1177.0
 21
114.0
 31
0.0
  0
LINE
  5
11F
100
AcDbEntity
100
AcDbLine
  8
AUX
 62
256
370
-1
  6
ByLayer
 10
1157.0
 20
86.0
 30
0.0
 11
1177.0
 21
86.0
 31
0.0
  0
LINE
  5
120
100
AcDbEntity
100
AcDbLine
  8
CONTOUR
 62
256
370
-1
  6
ByLayer
 10
1215.0
 20
173.0
 30
0.0
 11
1250.0
 21
173.0
 31
0.0
  0
LINE
  5
121
100
AcDbEntity
100
AcDbLine
  8
CONTOUR
 62
256
370
-1
  6
ByLayer
 10
1215.0
 20
27.0
 30
0.0
 11
1250.0
 21
27.0
 31
0.0
  0
LINE
  5
122
100
AcDbEntity
100
AcDbLine
  8
CONTOUR
 62
256
370
-1
  6
ByLayer
 10
1250.0
 20
27.0
 30
0.0
 11
1250.0
 21
173.0
 31
0.0
  0
DIMENSION
  5
123
100
AcDbEntity
  8
TEXT
 62
256
370
-1
  6
ByLayer
100
AcDbDimension
 10
1314.0
 20
-50.0
 30
0.0
 11
1300.0
 21
-48.125
 31
0.0
 70
0
 71
5
 72
1
 41
1.0
 42
0.0
  1

  3
Standard
100
AcDbAlignedDimension
 13
1286.0
 23
-33.000000000002856
 33
0.0
 14
1314.0
 24
-33.000000000000014
 34
0.0
 50
0.0
100
AcDbRotatedDimension
  0
DIMENSION
  5
124
100
AcDbEntity
  8
TEXT
 62
256
370
-1
  6
ByLayer
100
AcDbDimension
 10
1300.0
 20
150.0
 30
0.0
 11
1458.5
 21
151.875
 31
0.0
 70
0
 71
5
 72
1
 41
1.0
 42
0.0
  1

  3
Standard
100
AcDbAlignedDimension
 13
1617.0
 23
157.0
 33
0.0
 14
1300.0
 24
169.5
 34
0.0
 50
0.0
100
AcDbRotatedDimension
  0
LINE
  5
125
100
AcDbEntity
100
AcDbLine
  8
CONTOUR
 62
256
370
-1
  6
ByLayer
 10
1632.0
 20
43.0
 30
0.0
 11
1632.0
 21
157.0
 31
0.0
  0
LINE
  5
126
100
AcDbEntity
100
AcDbLine
  8
CONTOUR
 62
256
370
-1
  6
ByLayer
 10
1632.0
 20
157.0
 30
0.0
 11
1649.0
 21
157.0
 31
0.0
  0
LINE
  5
127
100
AcDbEntity
100
AcDbLine
  8
CONTOUR
 62
256
370
-1
  6
ByLayer
 10
1632.0
 20
43.0
 30
0.0
 11
1649.0
 21
43.0
 31
0.0
  0
LINE
  5
128
100
AcDbEntity
100
AcDbLine
  8
CONTOUR
 62
256
370
-1
  6
ByLayer
 10
1649.0
 20
30.0
 30
0.0
 11
1649.0
 21
170.0
 31
0.0
  0
LINE
  5
129
100
AcDbEntity
100
AcDbLine
  8
CONTOUR
 62
256
370
-1
  6
ByLayer
 10
1640.0
 20
30.0
 30
0.0
 11
1640.0
 21
170.0
 31
0.0
  0
LINE
  5
12A
100
AcDbEntity
100
AcDbLine
  8
CONTOUR
 62
256
370
-1
  6
ByLayer
 10
1625.0
 20
27.0
 30
0.0
 11
1654.0
 21
27.0
 31
0.0
  0
LINE
  5
12B
100
AcDbEntity
100
AcDbLine
  8
CONTOUR
 62
256
370
-1
  6
ByLayer
 10
1625.0
 20
173.0
 30
0.0
 11
1654.0
 21
173.0
 31
0.0
  0
LINE
  5
12C
100
AcDbEntity
100
AcDbLine
  8
CONTOUR
 62
256
370
-1
  6
ByLayer
 10
1654.0
 20
27.0
 30
0.0
 11
1654.0
 21
173.0
 31
0.0
  0
LINE
  5
12D
100
AcDbEntity
100
AcDbLine
  8
CONTOUR
 62
256
370
-1
  6
ByLayer
 10
1625.0
 20
27.0
 30
0.0
 11
1625.0
 21
173.0
 31
0.0
  0
LINE
  5
12E
100
AcDbEntity
100
AcDbLine
  8
AUX
 62
256
370
-1
  6
ByLayer
 10
1182.0
 20
43.000000000000057
 30
0.0
 11
1182.0
 21
157.00000000000006
 31
0.0
  0
LINE
  5
12F
100
AcDbEntity
100
AcDbLine
  8
CENTER
 62
256
370
-1
  6
ByLayer
 10
1172.0
 20
100.0
 30
0.0
 11
1664.0
 21
100.0
 31
0.0
  0
LINE
  5
130
100
AcDbEntity
100
AcDbLine
  8
AUX
 62
256
370
-1
  6
ByLayer
 10
1632.0
 20
157.0
 30
0.0
 11
1182.0
 21
100.0
 31
0.0
  0
LINE
  5
131
100
AcDbEntity
100
AcDbLine
  8
AUX
 62
256
370
-1
  6
ByLayer
 10
1182.0
 20
100.0
 30
0.0
 11
1632.0
 21
43.0
 31
0.0
  0
LINE
  5
132
100
AcDbEntity
100
AcDbLine
  8
AUX
 62
3
370
-1
  6
ByLayer
 10
1182.0
 20
114.0
 30
0.0
 11
1632.0
 21
43.0
 31
0.0
  0
LINE
  5
133
100
AcDbEntity
100
AcDbLine
  8
AUX
 62
3
370
-1
  6
ByLayer
 10
1632.0
 20
129.63157894736847
 30
0.0
 11
1182.0
 21
114.0
 31
0.0
  0
LINE
  5
134
100
AcDbEntity
100
AcDbLine
  8
AUX
 62
4
370
-1
  6
ByLayer
 10
1182.0
 20
86.0
 30
0.0
 11
1632.0
 21
157.0
 31
0.0
  0
LINE
  5
135
100
AcDbEntity
100
AcDbLine
  8
AUX
 62
4
370
-1
  6
ByLayer
 10
1632.0
 20
82.368421052631589
 30
0.0
 11
1182.0
 21
86.0
 31
0.0
  0
LINE
  5
136
100
AcDbEntity
100
AcDbLine
  8
CONTOUR
 62
256
370
-1
  6
ByLayer
 10
1625.0
 20
173.0
 30
0.0
 11
1654.0
 21
173.0
 31
0.0
  0
LINE
  5
137
100
AcDbEntity
100
AcDbLine
  8
CONTOUR
 62
256
370
-1
  6
ByLayer
 10
1654.0
 20
27.0
 30
0.0
 11
1625.0
 21
27.0
 31
0.0
  0
LINE
  5
138
100
AcDbEntity
100
AcDbLine
  8
AUX
 62
256
370
-1
  6
ByLayer
 10
1313.9999999999993
 20
-43.000000000000128
 30
0.0
 11
1313.9999999999995
 21
-23.000000000000114
 31
0.0
  0
LINE
  5
139
100
AcDbEntity
100
AcDbLine
  8
AUX
 62
256
370
-1
  6
ByLayer
 10
1286.0000000000023
 20
-42.999999999999986
 30
0.0
 11
1285.9999999999991
 21
-22.999999999999986
 31
0.0
  0
LINE
  5
13A
100
AcDbEntity
100
AcDbLine
  8
AUX
 62
256
370
-1
  6
ByLayer
 10
1242.9999999999995
 20
-17.999999999999801
 30
0.0
 11
1356.9999999999995
 21
-18.000000000000298
 31
0.0
  0
LINE
  5
13B
100
AcDbEntity
100
AcDbLine
  8
AUX
 62
3
370
-1
  6
ByLayer
 10
1318.7502726281355
 20
118.75027262813541
 30
0.0
 11
1313.9999999999995
 21
-18.000000000000099
 31
0.0
  0
LINE
  5
13C
100
AcDbEntity
100
AcDbLine
  8
AUX
 62
256
370
-1
  6
ByLayer
 10
1317.114503816794
 20
117.11450381679406
 30
0.0
 11
1299.9999999999995
 21
-18.000000000000057
 31
0.0
  0
LINE
  5
13D
100
AcDbEntity
100
AcDbLine
  8
AUX
 62
4
370
-1
  6
ByLayer
 10
1285.9999999999973
 20
-17.999999999999986
 30
0.0
 11
1305.4828496042198
 21
105.48284960421975
 31
0.0
  0
LINE
  5
13E
100
AcDbEntity
100
AcDbLine
  8
AUX
 62
3
370
-1
  6
ByLayer
 10
1313.9999999999995
 20
-18.000000000000099
 30
0.0
 11
1296.0115163147793
 21
96.011516314779215
 31
0.0
  0
LINE
  5
13F
100
AcDbEntity
100
AcDbLine
  8
AUX
 62
256
370
-1
  6
ByLayer
 10
1299.9999999999995
 20
-18.000000000000057
 30
0.0
 11
1286.7337278106509
 21
86.733727810650791
 31
0.0
  0
LINE
  5
140
100
AcDbEntity
100
AcDbLine
  8
AUX
 62
4
370
-1
  6
ByLayer
 10
1285.167420814478
 20
85.16742081447795
 30
0.0
 11
1285.9999999999973
 21
-17.999999999999986
 31
0.0
  0
LINE
  5
141
100
AcDbEntity
100
AcDbLine
  8
AUX
 62
256
370
-1
  6
ByLayer
 10
1632.0
 20
157.0
 30
0.0
 11
1182.0
 21
102.73416331014292
 31
0.0
  0
LINE
  5
142
100
AcDbEntity
100
AcDbLine
  8
AUX
 62
256
370
-1
  6
ByLayer
 10
1632.0
 20
43.0
 30
0.0
 11
1182.0
 21
97.710371819958411
 31
0.0
  0
CIRCLE
  5
143
100
AcDbEntity
100
AcDbCircle
  8
CONTOUR
 62
256
370
-1
  6
ByLayer
 10
500.0
 20
300.0
 30
0.0
 40
70.0
  0
CIRCLE
  5
144
100
AcDbEntity
100
AcDbCircle
  8
CONTOUR
 62
256
370
-1
  6
ByLayer
 10
800.0
 20
300.0
 30
0.0
 40
20.0
  0
CIRCLE
  5
145
100
AcDbEntity
100
AcDbCircle
  8
CONTOUR
 62
256
370
-1
  6
ByLayer
 10
800.0
 20
300.0
 30
0.0
 40
50.0
  0
CIRCLE
  5
146
100
AcDbEntity
100
AcDbCircle
  8
CENTER
 62
256
370
-1
  6
ByLayer
 10
800.0
 20
300.0
 30
0.0
 40
43.0
  0
CIRCLE
  5
147
100
AcDbEntity
100
AcDbCircle
  8
CONTOUR
 62
256
370
-1
  6
ByLayer
 10
800.0
 20
300.0
 30
0.0
 40
44.600000000000001
  0
CIRCLE
  5
148
100
AcDbEntity
100
AcDbCircle
  8
CONTOUR
 62
256
370
-1
  6
ByLayer
 10
800.0
 20
300.0
 30
0.0
 40
41.600000000000001
  0
LINE
  5
149
100
AcDbEntity
100
AcDbLine
  8
CENTER
 62
256
370
-1
  6
ByLayer
 10
764.64466094067257
 20
264.64466094067262
 30
0.0
 11
835.35533905932732
 21
335.35533905932738
 31
0.0
  0
LINE
  5
14A
100
AcDbEntity
100
AcDbLine
  8
CENTER
 62
256
370
-1
  6
ByLayer
 10
835.35533905932732
 20
264.64466094067262
 30
0.0
 11
764.64466094067257
 21
335.35533905932738
 31
0.0
  0
CIRCLE
  5
14B
100
AcDbEntity
100
AcDbCircle
  8
CONTOUR
 62
256
370
-1
  6
ByLayer
 10
769.59440840897844
 20
330.4055915910215
 30
0.0
 40
2.0
  0
CIRCLE
  5
14C
100
AcDbEntity
100
AcDbCircle
  8
CONTOUR
 62
256
370
-1
  6
ByLayer
 10
830.40559159102156
 20
330.40559159102156
 30
0.0
 40
2.0
  0
CIRCLE
  5
14D
100
AcDbEntity
100
AcDbCircle
  8
CONTOUR
 62
256
370
-1
  6
ByLayer
 10
830.40559159102156
 20
269.59440840897844
 30
0.0
 40
2.0
  0
CIRCLE
  5
14E
100
AcDbEntity
100
AcDbCircle
  8
CONTOUR
 62
256
370
-1
  6
ByLayer
 10
769.59440840897844
 20
269.5944084089785
 30
0.0
 40
2.0
  0
LINE
  5
14F
100
AcDbEntity
100
AcDbLine
  8
CENTER
 62
256
370
-1
  6
ByLayer
 10
550.0
 20
330.4055915910215
 30
0.0
 11
839.59440840897844
 21
330.4055915910215
 31
0.0
  0
LINE
  5
150
100
AcDbEntity
100
AcDbLine
  8
CENTER
 62
256
370
-1
  6
ByLayer
 10
550.0
 20
269.5944084089785
 30
0.0
 11
839.59440840897844
 21
269.5944084089785
 31
0.0
  0
LINE
  5
151
100
AcDbEntity
100
AcDbLine
  8
CENTER
 62
256
370
-1
  6
ByLayer
 10
545.0
 20
300.0
 30
0.0
 11
1149.0
 21
300.0
 31
0.0
  0
LINE
  5
152
100
AcDbEntity
100
AcDbLine
  8
CONTOUR
 62
256
370
-1
  6
ByLayer
 10
573.5
 20
250.0
 30
0.0
 11
573.5
 21
350.0
 31
0.0
  0
LINE
  5
153
100
AcDbEntity
100
AcDbLine
  8
CONTOUR
 62
256
370
-1
  6
ByLayer
 10
576.0
 20
250.0
 30
0.0
 11
576.0
 21
350.0
 31
0.0
  0
LINE
  5
154
100
AcDbEntity
100
AcDbLine
  8
CONTOUR
 62
256
370
-1
  6
ByLayer
 10
576.0
 20
350.0
 30
0.0
 11
573.5
 21
350.0
 31
0.0
  0
LINE
  5
155
100
AcDbEntity
100
AcDbLine
  8
CONTOUR
 62
256
370
-1
  6
ByLayer
 10
576.0
 20
250.0
 30
0.0
 11
573.5
 21
250.0
 31
0.0
  0
LINE
  5
156
100
AcDbEntity
100
AcDbLine
  8
CONTOUR
 62
256
370
-1
  6
ByLayer
 10
558.5
 20
252.25
 30
0.0
 11
558.5
 21
347.75
 31
0.0
  0
LINE
  5
157
100
AcDbEntity
100
AcDbLine
  8
CONTOUR
 62
256
370
-1
  6
ByLayer
 10
558.5
 20
347.75
 30
0.0
 11
573.5
 21
347.75
 31
0.0
  0
LINE
  5
158
100
AcDbEntity
100
AcDbLine
  8
CONTOUR
 62
256
370
-1
  6
ByLayer
 10
558.5
 20
252.25
 30
0.0
 11
573.5
 21
252.25
 31
0.0
  0
LINE
  5
159
100
AcDbEntity
100
AcDbLine
  8
AUX
 62
256
370
-1
  6
ByLayer
 10
570.0
 20
347.75
 30
0.0
 11
570.0
 21
252.25
 31
0.0
  0
LINE
  5
15A
100
AcDbEntity
100
AcDbLine
  8
AUX
 62
256
370
-1
  6
ByLayer
 10
558.5
 20
327.75
 30
0.0
 11
573.5
 21
327.75
 31
0.0
  0
LINE
  5
15B
100
AcDbEntity
100
AcDbLine
  8
AUX
 62
256
370
-1
  6
ByLayer
 10
558.5
 20
317.75
 30
0.0
 11
573.5
 21
317.75
 31
0.0
  0
LINE
  5
15C
100
AcDbEntity
100
AcDbLine
  8
AUX
 62
256
370
-1
  6
ByLayer
 10
558.5
 20
307.75
 30
0.0
 11
573.5
 21
307.75
 31
0.0
  0
LINE
  5
15D
100
AcDbEntity
100
AcDbLine
  8
AUX
 62
256
370
-1
  6
ByLayer
 10
558.5
 20
272.25
 30
0.0
 11
573.5
 21
272.25
 31
0.0
  0
LINE
  5
15E
100
AcDbEntity
100
AcDbLine
  8
AUX
 62
256
370
-1
  6
ByLayer
 10
558.5
 20
282.25
 30
0.0
 11
573.5
 21
282.25
 31
0.0
  0
LINE
  5
15F
100
AcDbEntity
100
AcDbLine
  8
AUX
 62
256
370
-1
  6
ByLayer
 10
558.5
 20
292.25
 30
0.0
 11
573.5
 21
292.25
 31
0.0
  0
DIMENSION
  5
160
100
AcDbEntity
  8
TEXT
 62
256
370
-1
  6
ByLayer
100
AcDbDimension
 10
550.0
 20
261.55848598194916
 30
0.0
 11
548.125
 21
256.90424299097458
 31
0.0
 70
0
 71
5
 72
1
 41
1.0
 42
0.0
  1

  3
Standard
100
AcDbAlignedDimension
 13
558.5
 23
252.25
 33
0.0
 14
558.5
 24
261.55848598194916
 34
0.0
 50
90.0
100
AcDbRotatedDimension
  0
DIMENSION
  5
161
100
AcDbEntity
  8
TEXT
 62
256
370
-1
  6
ByLayer
100
AcDbDimension
 10
540.0
 20
272.25
 30
0.0
 11
538.125
 21
262.25
 31
0.0
 70
0
 71
5
 72
1
 41
1.0
 42
0.0
  1

  3
Standard
100
AcDbAlignedDimension
 13
558.5
 23
252.25
 33
0.0
 14
558.5
 24
272.25
 34
0.0
 50
90.0
100
AcDbRotatedDimension
  0
DIMENSION
  5
162
100
AcDbEntity
  8
TEXT
 62
256
370
-1
  6
ByLayer
100
AcDbDimension
 10
530.0
 20
282.25
 30
0.0
 11
528.125
 21
267.25
 31
0.0
 70
0
 71
5
 72
1
 41
1.0
 42
0.0
  1

  3
Standard
100
AcDbAlignedDimension
 13
558.5
 23
252.25
 33
0.0
 14
558.5
 24
282.25
 34
0.0
 50
90.0
100
AcDbRotatedDimension
  0
DIMENSION
  5
163
100
AcDbEntity
  8
TEXT
 62
256
370
-1
  6
ByLayer
100
AcDbDimension
 10
520.0
 20
292.25
 30
0.0
 11
518.125
 21
272.25
 31
0.0
 70
0
 71
5
 72
1
 41
1.0
 42
0.0
  1

  3
Standard
100
AcDbAlignedDimension
 13
558.5
 23
252.25
 33
0.0
 14
558.5
 24
292.25
 34
0.0
 50
90.0
100
AcDbRotatedDimension
  0
DIMENSION
  5
164
100
AcDbEntity
  8
TEXT
 62
256
370
-1
  6
ByLayer
100
AcDbDimension
 10
564.26458978317692
 20
240.0
 30
0.0
 11
561.38229489158846
 21
241.875
 31
0.0
 70
0
 71
5
 72
1
 41
1.0
 42
0.0
  1

  3
Standard
100
AcDbAlignedDimension
 13
558.5
 23
272.25
 33
0.0
 14
564.26458978317692
 24
272.25
 34
0.0
 50
0.0
100
AcDbRotatedDimension
  0
DIMENSION
  5
165
100
AcDbEntity
  8
TEXT
 62
256
370
-1
  6
ByLayer
100
AcDbDimension
 10
567.71216655815999
 20
230.0
 30
0.0
 11
563.10608327907994
 21
231.875
 31
0.0
 70
0
 71
5
 72
1
 41
1.0
 42
0.0
  1

  3
Standard
100
AcDbAlignedDimension
 13
558.5
 23
282.25
 33
0.0
 14
567.71216655815999
 24
282.25
 34
0.0
 50
0.0
100
AcDbRotatedDimension
  0
DIMENSION
  5
166
100
AcDbEntity
  8
TEXT
 62
256
370
-1
  6
ByLayer
100
AcDbDimension
 10
569.56965933508661
 20
220.0
 30
0.0
 11
564.03482966754336
 21
221.875
 31
0.0
 70
0
 71
5
 72
1
 41
1.0
 42
0.0
  1

  3
Standard
100
AcDbAlignedDimension
 13
558.5
 23
292.25
 33
0.0
 14
569.56965933508661
 24
292.25
 34
0.0
 50
0.0
100
AcDbRotatedDimension
  0
DIMENSION
  5
167
100
AcDbEntity
  8
TEXT
 62
256
370
-1
  6
ByLayer
100
AcDbDimension
 10
780.0
 20
300.0
 30
0.0
 11
800.0
 21
301.875
 31
0.0
 70
3
 71
5
 72
1
 41
1.0
 42
0.0
  1

  3
Standard
100
AcDbDiametricDimension
 15
820.0
 25
300.0
 35
0.0
 40
0.0
  0
DIMENSION
  5
168
100
AcDbEntity
  8
TEXT
 62
256
370
-1
  6
ByLayer
100
AcDbDimension
 10
830.40559159102156
 20
240.0
 30
0.0
 11
800.0
 21
241.875
 31
0.0
 70
0
 71
5
 72
1
 41
1.0
 42
0.0
  1

  3
Standard
100
AcDbAlignedDimension
 13
769.59440840897844
 23
269.5944084089785
 33
0.0
 14
830.40559159102156
 24
269.5944084089785
 34
0.0
 50
0.0
100
AcDbRotatedDimension
  0
DIMENSION
  5
169
100
AcDbEntity
  8
TEXT
 62
256
370
-1
  6
ByLayer
100
AcDbDimension
 10
860.0
 20
330.40559159102156
 30
0.0
 11
858.125
 21
300.0
 31
0.0
 70
0
 71
5
 72
1
 41
1.0
 42
0.0
  1

  3
Standard
100
AcDbAlignedDimension
 13
830.40559159102156
 23
269.59440840897844
 33
0.0
 14
830.40559159102156
 24
330.40559159102156
 34
0.0
 50
90.0
100
AcDbRotatedDimension
  0
DIMENSION
  5
16A
100
AcDbEntity
  8
TEXT
 62
256
370
-1
  6
ByLayer
100
AcDbDimension
 10
843.0
 20
220.0
 30
0.0
 11
800.0
 21
221.875
 31
0.0
 70
0
 71
5
 72
1
 41
1.0
 42
0.0
  1

  3
Standard
100
AcDbAlignedDimension
 13
757.0
 23
300.0
 33
0.0
 14
843.0
 24
300.0
 34
0.0
 50
0.0
100
AcDbRotatedDimension
  0
LINE
  5
16B
100
AcDbEntity
100
AcDbLine
  8
AUX
 62
256
370
-1
  6
ByLayer
 10
558.5
 20
277.25
 30
0.0
 11
573.5
 21
277.25
 31
0.0
  0
LINE
  5
16C
100
AcDbEntity
100
AcDbLine
  8
AUX
 62
256
370
-1
  6
ByLayer
 10
558.5
 20
267.25
 30
0.0
 11
573.5
 21
267.25
 31
0.0
  0
LINE
  5
16D
100
AcDbEntity
100
AcDbLine
  8
AUX
 62
256
370
-1
  6
ByLayer
 10
558.5
 20
287.25
 30
0.0
 11
573.5
 21
287.25
 31
0.0
  0
LINE
  5
16E
100
AcDbEntity
100
AcDbLine
  8
AUX
 62
256
370
-1
  6
ByLayer
 10
558.5
 20
312.75
 30
0.0
 11
573.5
 21
312.75
 31
0.0
  0
LINE
  5
16F
100
AcDbEntity
100
AcDbLine
  8
AUX
 62
256
370
-1
  6
ByLayer
 10
558.5
 20
322.75
 30
0.0
 11
573.5
 21
322.75
 31
0.0
  0
DIMENSION
  5
170
100
AcDbEntity
  8
TEXT
 62
256
370
-1
  6
ByLayer
100
AcDbDimension
 10
561.86628726535969
 20
245.0
 30
0.0
 11
560.18314363267984
 21
246.875
 31
0.0
 70
0
 71
5
 72
1
 41
1.0
 42
0.0
  1

  3
Standard
100
AcDbAlignedDimension
 13
558.5
 23
267.25
 33
0.0
 14
561.86628726535969
 24
267.25
 34
0.0
 50
0.0
100
AcDbRotatedDimension
  0
DIMENSION
  5
171
100
AcDbEntity
  8
TEXT
 62
256
370
-1
  6
ByLayer
100
AcDbDimension
 10
566.19998111782206
 20
235.0
 30
0.0
 11
562.34999055891103
 21
236.875
 31
0.0
 70
0
 71
5
 72
1
 41
1.0
 42
0.0
  1

  3
Standard
100
AcDbAlignedDimension
 13
558.5
 23
277.25
 33
0.0
 14
566.19998111782206
 24
277.25
 34
0.0
 50
0.0
100
AcDbRotatedDimension
  0
DIMENSION
  5
172
100
AcDbEntity
  8
TEXT
 62
256
370
-1
  6
ByLayer
100
AcDbDimension
 10
568.82904546773841
 20
225.0
 30
0.0
 11
563.66452273386926
 21
226.875
 31
0.0
 70
0
 71
5
 72
1
 41
1.0
 42
0.0
  1

  3
Standard
100
AcDbAlignedDimension
 13
558.5
 23
287.25
 33
0.0
 14
568.82904546773841
 24
287.25
 34
0.0
 50
0.0
100
AcDbRotatedDimension
  0
DIMENSION
  5
173
100
AcDbEntity
  8
TEXT
 62
256
370
-1
  6
ByLayer
100
AcDbDimension
 10
545.0
 20
267.25
 30
0.0
 11
543.125
 21
259.75
 31
0.0
 70
0
 71
5
 72
1
 41
1.0
 42
0.0
  1

  3
Standard
100
AcDbAlignedDimension
 13
558.5
 23
252.25
 33
0.0
 14
558.5
 24
267.25
 34
0.0
 50
90.0
100
AcDbRotatedDimension
  0
DIMENSION
  5
174
100
AcDbEntity
  8
TEXT
 62
256
370
-1
  6
ByLayer
100
AcDbDimension
 10
535.0
 20
277.25
 30
0.0
 11
533.125
 21
264.75
 31
0.0
 70
0
 71
5
 72
1
 41
1.0
 42
0.0
  1

  3
Standard
100
AcDbAlignedDimension
 13
558.5
 23
252.25
 33
0.0
 14
558.5
 24
277.25
 34
0.0
 50
90.0
100
AcDbRotatedDimension
  0
DIMENSION
  5
175
100
AcDbEntity
  8
TEXT
 62
256
370
-1
  6
ByLayer
100
AcDbDimension
 10
525.0
 20
287.25
 30
0.0
 11
523.125
 21
269.75
 31
0.0
 70
0
 71
5
 72
1
 41
1.0
 42
0.0
  1

  3
Standard
100
AcDbAlignedDimension
 13
558.5
 23
252.25
 33
0.0
 14
558.5
 24
287.25
 34
0.0
 50
90.0
100
AcDbRotatedDimension
  0
ENDSEC
  0
SECTION
  2
OBJECTS
  0
DICTIONARY
  5
C
100
AcDbDictionary
280
0
281
1
  3
ACAD_GROUP
350
D
  3
ACAD_LAYOUT
350
1A
  3
ACAD_MLINESTYLE
350
17
  3
ACAD_PLOTSETTINGS
350
19
  3
ACAD_PLOTSTYLENAME
350
E
  3
AcDbVariableDictionary
350
176
  0
DICTIONARY
  5
D
100
AcDbDictionary
280
0
281
1
  0
ACDBDICTIONARYWDFLT
  5
E
100
AcDbDictionary
281
1
  3
Normal
350
F
100
AcDbDictionaryWithDefault
340
F
  0
ACDBPLACEHOLDER
  5
F
  0
DICTIONARY
  5
17
100
AcDbDictionary
280
0
281
1
  3
Standard
350
18
  0
MLINESTYLE
  5
18
100
AcDbMlineStyle
  2
STANDARD
 70
0
  3

 62
256
 51
90.0
 52
90.0
 71
2
 49
0.5
 62
256
  6
BYLAYER
 49
-0.5
 62
256
  6
BYLAYER
  0
DICTIONARY
  5
19
100
AcDbDictionary
280
0
281
1
  0
DICTIONARY
  5
1A
100
AcDbDictionary
281
1
  3
Layout1
350
1E
  3
Layout2
350
26
  3
Model
350
22
  0
LAYOUT
  5
1E
100
AcDbPlotSettings
  1

  2
C:\Program Files\AutoCAD 2002\plotters\DWF ePlot (optimized for plotting).pc3
  4

  6

 40
0.0
 41
0.0
 42
0.0
 43
0.0
 44
0.0
 45
0.0
 46
0.0
 47
0.0
 48
0.0
 49
0.0
140
0.0
141
0.0
142
1.0
143
1.0
 70
688
 72
0
 73
0
 74
5
  7

 75
16
147
1.0
148
0.0
149
0.0
100
AcDbLayout
  1
Layout1
 70
1
 71
1
 10
0.0
 20
0.0
 11
420.0
 21
297.0
 12
0.0
 22
0.0
 32
0.0
 14
100000000000000000000.0
 24
100000000000000000000.0
 34
100000000000000000000.0
 15
-100000000000000000000.0
 25
-100000000000000000000.0
 35
-100000000000000000000.0
146
0.0
 13
0.0
 23
0.0
 33
0.0
 16
1.0
 26
0.0
 36
0.0
 17
0.0
 27
1.0
 37
0.0
 76
0
330
1B
  0
LAYOUT
  5
22
100
AcDbPlotSettings
  1

  2
C:\Program Files\AutoCAD 2002\plotters\DWF ePlot (optimized for plotting).pc3
  4

  6

 40
0.0
 41
0.0
 42
0.0
 43
0.0
 44
0.0
 45
0.0
 46
0.0
 47
0.0
 48
0.0
 49
0.0
140
0.0
141
0.0
142
1.0
143
1.0
 70
1712
 72
0
 73
0
 74
0
  7

 75
0
147
1.0
148
0.0
149
0.0
100
AcDbLayout
  1
Model
 70
1
 71
0
 10
0.0
 20
0.0
 11
12.0
 21
9.0
 12
0.0
 22
0.0
 32
0.0
 14
0.0
 24
0.0
 34
0.0
 15
0.0
 25
0.0
 35
0.0
146
0.0
 13
0.0
 23
0.0
 33
0.0
 16
1.0
 26
0.0
 36
0.0
 17
0.0
 27
1.0
 37
0.0
 76
0
330
1F
  0
LAYOUT
  5
26
100
AcDbPlotSettings
  1

  2
C:\Program Files\AutoCAD 2002\plotters\DWF ePlot (optimized for plotting).pc3
  4

  6

 40
0.0
 41
0.0
 42
0.0
 43
0.0
 44
0.0
 45
0.0
 46
0.0
 47
0.0
 48
0.0
 49
0.0
140
0.0
141
0.0
142
1.0
143
1.0
 70
688
 72
0
 73
0
 74
5
  7

 75
16
147
1.0
148
0.0
149
0.0
100
AcDbLayout
  1
Layout2
 70
1
 71
2
 10
0.0
 20
0.0
 11
12.0
 21
9.0
 12
0.0
 22
0.0
 32
0.0
 14
0.0
 24
0.0
 34
0.0
 15
0.0
 25
0.0
 35
0.0
146
0.0
 13
0.0
 23
0.0
 33
0.0
 16
1.0
 26
0.0
 36
0.0
 17
0.0
 27
1.0
 37
0.0
 76
0
330
23
  0
DICTIONARY
  5
176
100
AcDbDictionary
281
1
  3
DIMASSOC
350
178
  3
HIDETEXT
350
177
  0
DICTIONARYVAR
  5
177
100
DictionaryVariables
280
0
  1
2
  0
DICTIONARYVAR
  5
178
100
DictionaryVariables
280
0
  1
1
  0
ENDSEC
  0
EOF
